<svg width="45" height="45" viewBox="0 0 45 45" fill="none" xmlns="http://www.w3.org/2000/svg">
<path d="M16.7826 43.3722C18.6528 43.8839 20.5828 44.1447 22.5218 44.1476L22.8307 44.1455C23.9377 44.1317 25.0232 43.8383 25.9864 43.2925C26.9496 42.7468 27.7592 41.9664 28.3399 41.0239C29.5272 39.105 29.6543 36.7458 28.6751 34.7151L28.2414 33.806C27.249 31.7425 28.0289 29.8718 29.0913 28.8094C30.1537 27.747 32.0288 26.9671 34.0858 27.9595H34.0879L34.9926 28.3954C35.9874 28.8764 37.0878 29.0979 38.1912 29.0393C39.2947 28.9807 40.3654 28.6439 41.3036 28.0602C42.2467 27.4799 43.0276 26.6704 43.5737 25.7072C44.1199 24.7439 44.4135 23.6582 44.4274 22.551C44.4547 20.5094 44.1944 18.4741 43.6541 16.5051C41.3803 8.12181 34.1186 1.71006 25.5908 0.54688C18.6927 -0.388486 11.9195 1.86559 7.03461 6.75272C2.14968 11.6398 -0.115356 18.4021 0.826582 25.3089C1.98758 33.8389 8.40152 41.0984 16.7826 43.3722ZM30.1888 9.0988C31.0602 9.0988 31.896 9.44498 32.5122 10.0612C33.1284 10.6774 33.4746 11.5132 33.4746 12.3846C33.4746 13.2561 33.1284 14.0918 32.5122 14.7081C31.896 15.3243 31.0602 15.6705 30.1888 15.6705C29.3173 15.6705 28.4815 15.3243 27.8653 14.7081C27.2491 14.0918 26.9029 13.2561 26.9029 12.3846C26.9029 11.5132 27.2491 10.6774 27.8653 10.0612C28.4815 9.44498 29.3173 9.0988 30.1888 9.0988ZM19.236 6.90825C20.1074 6.90825 20.9432 7.25443 21.5594 7.87064C22.1756 8.48686 22.5218 9.32262 22.5218 10.1941C22.5218 11.0655 22.1756 11.9013 21.5594 12.5175C20.9432 13.1337 20.1074 13.4799 19.236 13.4799C18.3645 13.4799 17.5288 13.1337 16.9126 12.5175C16.2963 11.9013 15.9502 11.0655 15.9502 10.1941C15.9502 9.32262 16.2963 8.48686 16.9126 7.87064C17.5288 7.25443 18.3645 6.90825 19.236 6.90825ZM15.9502 29.9222C15.9502 30.7937 15.604 31.6294 14.9878 32.2456C14.3716 32.8618 13.5358 33.208 12.6643 33.208C11.7929 33.208 10.9571 32.8618 10.3409 32.2456C9.72469 31.6294 9.3785 30.7937 9.3785 29.9222C9.3785 29.0507 9.72469 28.215 10.3409 27.5988C10.9571 26.9826 11.7929 26.6364 12.6643 26.6364C13.5358 26.6364 14.3716 26.9826 14.9878 27.5988C15.604 28.215 15.9502 29.0507 15.9502 29.9222ZM10.4738 15.6836C11.3455 15.6839 12.1815 16.0305 12.7977 16.6471C13.4139 17.2637 13.7599 18.0999 13.7596 18.9716C13.7593 19.8434 13.4127 20.6793 12.7961 21.2955C12.1795 21.9117 11.3433 22.2577 10.4716 22.2575C9.59984 22.2572 8.76391 21.9106 8.1477 21.294C7.53149 20.6773 7.18547 19.8412 7.18576 18.9694C7.18605 18.0977 7.53263 17.2618 8.14925 16.6455C8.76587 16.0293 9.60203 15.6833 10.4738 15.6836Z" fill="#0274B3"/>
</svg>
