<svg width="60" height="54" viewBox="0 0 60 54" fill="none" xmlns="http://www.w3.org/2000/svg">
<path d="M58.5784 35.4876C57.2312 33.6588 54.6621 33.2635 52.8354 34.618L40.5443 43.6715H28.1608C27.2626 43.6715 26.6103 42.927 26.6103 42.0296C26.6103 41.1311 27.3548 40.3867 28.1608 40.3867H36.1957C37.7462 40.3867 39.3532 39.2695 39.6222 37.6533C39.9559 35.5996 38.3777 33.815 36.3754 33.815H19.8569C17.1769 33.815 14.4025 34.7648 12.2461 36.5104L7.47142 40.3856L1.78488 40.2931C0.978923 40.2931 0.234375 41.1351 0.234375 42.0284V51.8839C0.234375 52.7895 0.978923 53.5288 1.78488 53.5288H37.3232C39.5853 53.5288 41.833 52.7908 43.6587 51.4475L57.531 41.2285C59.5333 39.8824 59.9235 37.3153 58.5784 35.4876ZM28.9135 18.9249C28.1331 18.812 27.1063 18.4423 26.2027 18.1138L25.6996 17.9392C24.416 17.395 23.0093 18.1548 22.5575 19.3459C22.1057 20.5371 22.7753 22.0362 24.0556 22.4921L24.5336 22.6622C25.405 22.9765 26.3696 23.288 27.3461 23.5157V24.7778C27.3461 26.1384 28.4478 27.2422 29.8084 27.2422C31.1689 27.2422 32.2728 26.1384 32.2728 24.7778V23.7099C34.8675 23.1223 36.6758 21.4663 37.0064 19.0153C37.8985 13.8761 33.0131 12.4786 30.3916 11.73L29.8479 11.5421C27.1474 10.7761 27.3014 10.4455 27.3733 10.0234C27.492 9.32868 28.9443 8.99045 30.6807 9.26451C31.1877 9.3447 31.8482 9.52604 32.6984 9.82125C33.985 10.2608 35.3897 9.58385 35.8322 8.29745C36.2748 7.01104 35.5951 5.6082 34.3084 5.16256C33.5278 4.89281 32.8791 4.71507 32.2733 4.57511V3.41994C32.2733 2.0594 31.1694 0.955566 29.8089 0.955566C28.4484 0.955566 27.3466 2.0594 27.3466 3.41994V4.50016C24.7549 5.08647 22.9374 6.73144 22.424 9.18349C21.6333 14.2632 26.5929 15.7213 28.4617 16.2757L29.1289 16.4683C32.3799 17.3988 32.3275 17.6892 32.2443 18.1769C32.1275 18.8736 30.6796 19.2125 28.9135 18.9249Z" fill="#0274B3"/>
</svg>
