<svg width="53" height="54" viewBox="0 0 53 54" fill="none" xmlns="http://www.w3.org/2000/svg">
<mask id="mask0_2661_3966" style="mask-type:alpha" maskUnits="userSpaceOnUse" x="2" y="7" width="49" height="42">
<path d="M25.4255 44.7666H7.90106C7.02961 44.7666 6.19384 44.4204 5.57763 43.8042C4.96142 43.188 4.61523 42.3523 4.61523 41.4808V13.0036C4.61523 12.1321 4.96142 11.2964 5.57763 10.6802C6.19384 10.064 7.02961 9.71777 7.90106 9.71777H45.1405C46.0119 9.71777 46.8477 10.064 47.4639 10.6802C48.0801 11.2964 48.4263 12.1321 48.4263 13.0036V29.3035" stroke="white" stroke-width="4.38111" stroke-linecap="round" stroke-linejoin="round"/>
<path d="M4.61523 13.0036C4.61523 12.1321 4.96142 11.2964 5.57763 10.6802C6.19384 10.064 7.02961 9.71777 7.90106 9.71777H45.1405C46.0119 9.71777 46.8477 10.064 47.4639 10.6802C48.0801 11.2964 48.4263 12.1321 48.4263 13.0036V22.8611H4.61523V13.0036Z" fill="white" stroke="white" stroke-width="4.38111"/>
<path d="M44.0446 37.0996L48.4257 41.4807L44.0446 45.8618M37.4729 37.0996L33.0918 41.4807L37.4729 45.8618V37.0996Z" stroke="white" stroke-width="4.38111" stroke-linecap="round" stroke-linejoin="round"/>
<path d="M8.99585 16.2894C8.99585 15.0796 9.97659 14.0989 11.1864 14.0989C12.3962 14.0989 13.377 15.0796 13.377 16.2894C13.377 17.4992 12.3962 18.48 11.1864 18.48C9.97659 18.48 8.99585 17.4992 8.99585 16.2894Z" fill="black"/>
<path d="M15.5681 16.2894C15.5681 15.0796 16.5489 14.0989 17.7587 14.0989C18.9685 14.0989 19.9492 15.0796 19.9492 16.2894C19.9492 17.4992 18.9685 18.48 17.7587 18.48C16.5489 18.48 15.5681 17.4992 15.5681 16.2894Z" fill="black"/>
</mask>
<g mask="url(#mask0_2661_3966)">
<path d="M0.234375 0.955566H52.8077V53.5288H0.234375V0.955566Z" fill="#0274B3"/>
</g>
</svg>
