<svg width="53" height="32" viewBox="0 0 53 32" fill="none" xmlns="http://www.w3.org/2000/svg">
<path d="M27.7223 12.8257L25.2579 15.0854C21.9228 18.1441 18.1277 16.0644 16.9037 14.7328C14.694 12.3161 14.8665 8.57601 17.2651 6.37306L23.9847 0.216309H23.4425C18.6945 0.216309 14.1272 2.10279 10.7674 5.46065L2.86499 5.48531C1.41923 5.48531 0.236328 6.66816 0.236328 8.11405V21.2496C0.236328 22.6954 1.41923 23.8832 2.79106 23.8832L12.1803 23.8783L19.6145 30.6038C21.8735 32.4426 25.1799 32.0925 27.0076 29.8431L28.4961 31.0966C29.8006 32.0912 31.731 31.9597 32.7989 30.6553L35.3766 27.4824L35.8181 27.8521C36.9476 28.7563 38.6012 28.5921 39.5146 27.4618L40.3013 26.4894C41.2115 25.3633 41.0389 23.7152 39.9151 22.8019L27.7223 12.8257ZM50.1809 5.48531L42.295 5.47497C38.9286 2.10808 34.363 0.22406 29.6034 0.22406L28.897 0.216309C28.2398 0.216309 27.6139 0.479101 27.121 0.920595L19.0477 8.29653C19.0395 8.31297 19.0313 8.32941 19.0313 8.32941C17.6512 9.62817 17.6841 11.6667 18.8506 12.9326C19.6412 13.7957 21.7257 14.7097 23.4614 13.1586C23.4614 13.1484 23.4819 13.1484 23.4922 13.1381L30.0639 7.1293C30.5978 6.6467 31.4291 6.67753 31.922 7.2115C32.4149 7.74547 32.3738 8.57766 31.8399 9.07085L29.6942 11.033L41.6546 20.7407C42.6502 21.5621 43.2565 22.6716 43.4717 23.8627L50.1809 23.8651C51.6267 23.8651 52.8096 22.6831 52.8096 21.2364V8.11569C52.8096 6.66076 51.6349 5.48531 50.1809 5.48531Z" fill="#0274B3"/>
</svg>
