<svg width="44" height="40" viewBox="0 0 44 40" fill="none" xmlns="http://www.w3.org/2000/svg">
<path d="M8.19976 0.527344C6.23898 0.527344 4.35851 1.30626 2.97203 2.69274C1.58556 4.07922 0.806641 5.95968 0.806641 7.92046V25.9925C0.806641 27.9533 1.58556 29.8338 2.97203 31.2203C4.35851 32.6067 6.23898 33.3856 8.19976 33.3856H29.5577C31.5184 33.3856 33.3989 32.6067 34.7854 31.2203C36.1719 29.8338 36.9508 27.9533 36.9508 25.9925V7.92046C36.9508 5.95968 36.1719 4.07922 34.7854 2.69274C33.3989 1.30626 31.5184 0.527344 29.5577 0.527344H8.19976ZM13.95 23.515V10.398C13.9497 10.1003 14.0304 9.80811 14.1833 9.55269C14.3362 9.29727 14.5557 9.0882 14.8182 8.94783C15.0807 8.80746 15.3765 8.74105 15.6738 8.75571C15.9711 8.77037 16.2589 8.86555 16.5063 9.03107L26.354 15.5896C26.5797 15.7395 26.7648 15.9429 26.8928 16.1817C27.0209 16.4205 27.0879 16.6872 27.0879 16.9581C27.0879 17.2291 27.0209 17.4958 26.8928 17.7346C26.7648 17.9734 26.5797 18.1768 26.354 18.3267L16.5031 24.8852C16.2554 25.05 15.9677 25.1445 15.6706 25.1585C15.3734 25.1726 15.0781 25.1057 14.816 24.9651C14.5539 24.8244 14.3349 24.6152 14.1824 24.3598C14.0298 24.1045 13.9495 23.8125 13.95 23.515ZM13.95 39.9573C12.6745 39.9583 11.4164 39.6619 10.2756 39.0915C9.1348 38.5211 8.14275 37.6925 7.3783 36.6715H31.2006C33.5971 36.6715 35.8954 35.7195 37.59 34.0249C39.2846 32.3303 40.2366 30.0319 40.2366 27.6354V7.099C42.2311 8.59734 43.5224 10.9829 43.5224 13.6707V27.6354C43.5224 30.9034 42.2242 34.0375 39.9134 36.3483C37.6026 38.6591 34.4685 39.9573 31.2006 39.9573H13.95Z" fill="#0274B3"/>
</svg>
