<svg width="27" height="24" viewBox="0 0 27 24" fill="none" xmlns="http://www.w3.org/2000/svg">
<path d="M0.926758 23.2222H26.2893V24H0.926758V23.2222ZM2.15398 16.9996C2.04549 16.9996 1.94144 17.0406 1.86472 17.1135C1.788 17.1865 1.74491 17.2854 1.74491 17.3885V22.0555C1.74491 22.1586 1.788 22.2575 1.86472 22.3305C1.94144 22.4034 2.04549 22.4444 2.15398 22.4444H5.42657C5.53506 22.4444 5.63911 22.4034 5.71583 22.3305C5.79255 22.2575 5.83564 22.1586 5.83564 22.0555V17.3885C5.83564 17.2854 5.79255 17.1865 5.71583 17.1135C5.63911 17.0406 5.53506 16.9996 5.42657 16.9996H2.15398ZM5.0175 21.6665H2.56305V17.7775H5.0175V21.6665ZM8.69916 13.1105C8.59067 13.1105 8.48662 13.1515 8.4099 13.2244C8.33319 13.2974 8.29009 13.3963 8.29009 13.4994V22.0555C8.29009 22.1586 8.33319 22.2575 8.4099 22.3305C8.48662 22.4034 8.59067 22.4444 8.69916 22.4444H11.9718C12.0802 22.4444 12.1843 22.4034 12.261 22.3305C12.3377 22.2575 12.3808 22.1586 12.3808 22.0555V13.4994C12.3808 13.3963 12.3377 13.2974 12.261 13.2244C12.1843 13.1515 12.0802 13.1105 11.9718 13.1105H8.69916ZM11.5627 21.6665H9.10824V13.8884H11.5627V21.6665ZM15.2443 9.22144C15.1358 9.22144 15.0318 9.26242 14.9551 9.33535C14.8784 9.40829 14.8353 9.50721 14.8353 9.61035V22.0555C14.8353 22.1586 14.8784 22.2575 14.9551 22.3305C15.0318 22.4034 15.1358 22.4444 15.2443 22.4444H18.5169C18.6254 22.4444 18.7295 22.4034 18.8062 22.3305C18.8829 22.2575 18.926 22.1586 18.926 22.0555V9.61035C18.926 9.50721 18.8829 9.40829 18.8062 9.33535C18.7295 9.26242 18.6254 9.22144 18.5169 9.22144H15.2443ZM18.1079 21.6665H15.6534V9.99926H18.1079V21.6665ZM21.7895 5.33235C21.681 5.33235 21.577 5.37332 21.5003 5.44626C21.4235 5.51919 21.3805 5.61811 21.3805 5.72126V22.0555C21.3805 22.1586 21.4235 22.2575 21.5003 22.3305C21.577 22.4034 21.681 22.4444 21.7895 22.4444H25.0621C25.1706 22.4444 25.2747 22.4034 25.3514 22.3305C25.4281 22.2575 25.4712 22.1586 25.4712 22.0555V5.72126C25.4712 5.61811 25.4281 5.51919 25.3514 5.44626C25.2747 5.37332 25.1706 5.33235 25.0621 5.33235H21.7895ZM24.653 21.6665H22.1986V6.11017H24.653V21.6665ZM1.74491 16.2218H5.83564C5.94414 16.2218 6.04819 16.1808 6.1249 16.1079C6.20162 16.035 6.24472 15.936 6.24472 15.8329V13.4994C6.24354 13.125 6.10007 12.7635 5.84073 12.4816C5.58139 12.1998 5.22365 12.0165 4.83341 11.9656C5.09287 11.7615 5.27977 11.4862 5.36861 11.1774C5.45745 10.8686 5.4439 10.5412 5.32981 10.24C5.21572 9.93879 5.00665 9.67837 4.73112 9.49428C4.45559 9.31019 4.12704 9.21141 3.79027 9.21141C3.45351 9.21141 3.12495 9.31019 2.84943 9.49428C2.5739 9.67837 2.36483 9.93879 2.25074 10.24C2.13665 10.5412 2.1231 10.8686 2.21194 11.1774C2.30078 11.4862 2.48768 11.7615 2.74714 11.9656C2.3569 12.0165 1.99916 12.1998 1.73982 12.4816C1.48048 12.7635 1.33701 13.125 1.33583 13.4994V15.8329C1.33583 15.936 1.37893 16.035 1.45565 16.1079C1.53236 16.1808 1.63641 16.2218 1.74491 16.2218ZM3.79027 9.99926C3.95209 9.99926 4.11027 10.0449 4.24481 10.1303C4.37936 10.2158 4.48422 10.3373 4.54614 10.4794C4.60807 10.6216 4.62427 10.7779 4.5927 10.9288C4.56113 11.0797 4.48321 11.2183 4.36879 11.3271C4.25437 11.4359 4.10859 11.5099 3.94989 11.54C3.79118 11.57 3.62668 11.5546 3.47718 11.4957C3.32769 11.4368 3.19991 11.3371 3.11001 11.2092C3.02011 11.0813 2.97213 10.9309 2.97213 10.7771C2.97213 10.5708 3.05832 10.3729 3.21176 10.2271C3.36519 10.0812 3.57329 9.99926 3.79027 9.99926ZM2.15398 13.4994C2.15398 13.2932 2.24018 13.0953 2.39361 12.9494C2.54704 12.8036 2.75514 12.7216 2.97213 12.7216H4.60842C4.82541 12.7216 5.03351 12.8036 5.18694 12.9494C5.34037 13.0953 5.42657 13.2932 5.42657 13.4994V15.444H2.15398V13.4994ZM9.96729 7.97693L9.43018 9.01104L8.22954 9.17711C8.15399 9.18754 8.08301 9.21786 8.02464 9.26465C7.96627 9.31144 7.92284 9.37283 7.89926 9.44186C7.87568 9.5109 7.87289 9.58483 7.89121 9.65529C7.90953 9.72576 7.94822 9.78994 8.00292 9.84059L8.87179 10.6456L8.66725 11.782C8.65427 11.8536 8.66262 11.9271 8.69135 11.9944C8.72007 12.0617 8.76804 12.12 8.82981 12.1627C8.89158 12.2054 8.96469 12.2308 9.04086 12.236C9.11703 12.2413 9.19323 12.2261 9.26082 12.1923L10.3355 11.6564L11.4089 12.1931C11.4678 12.2221 11.5331 12.2374 11.5995 12.2374C11.659 12.2374 11.7179 12.225 11.7719 12.2011C11.8258 12.1772 11.8737 12.1424 11.9121 12.0991C11.9504 12.0558 11.9784 12.0051 11.994 11.9505C12.0096 11.8958 12.0125 11.8386 12.0024 11.7828L11.7979 10.6464L12.6668 9.84136C12.7215 9.79072 12.7602 9.72654 12.7785 9.65607C12.7968 9.58561 12.794 9.51168 12.7704 9.44264C12.7468 9.3736 12.7034 9.31222 12.645 9.26543C12.5867 9.21864 12.5157 9.18832 12.4401 9.17789L11.2395 9.01182L10.7036 7.97693C10.6662 7.91567 10.6124 7.86482 10.5478 7.82948C10.4832 7.79414 10.41 7.77553 10.3355 7.77553C10.2609 7.77553 10.1877 7.79414 10.1231 7.82948C10.0585 7.86482 10.0047 7.91567 9.96729 7.97693ZM10.9082 9.75153L11.5013 9.83359L11.0718 10.2326C11.0243 10.2766 10.9889 10.331 10.9684 10.3909C10.948 10.4509 10.9432 10.5147 10.9544 10.5768L11.0554 11.1384L10.5236 10.8735C10.4649 10.8441 10.3994 10.8287 10.333 10.8287C10.2666 10.8287 10.2011 10.8441 10.1424 10.8735L9.61058 11.1384L9.71162 10.5768C9.72347 10.5151 9.71943 10.4515 9.69984 10.3916C9.68025 10.3316 9.6457 10.2771 9.59912 10.2326L9.17 9.83514L9.76316 9.75308C9.8288 9.74402 9.89114 9.71992 9.9448 9.68286C9.99846 9.6458 10.0418 9.59689 10.0712 9.54035L10.3355 9.02699L10.6005 9.53802C10.6297 9.5948 10.6729 9.64399 10.7265 9.68133C10.7801 9.71866 10.8424 9.74302 10.9082 9.75231V9.75153ZM15.4186 6.75731L15.2141 7.89371C15.2011 7.96526 15.2094 8.03883 15.2382 8.10611C15.2669 8.17338 15.3149 8.23167 15.3766 8.27437C15.4384 8.31707 15.5115 8.34247 15.5877 8.34771C15.6639 8.35295 15.74 8.33781 15.8076 8.30401L16.8806 7.76731L17.954 8.30401C18.013 8.33305 18.0783 8.34826 18.1447 8.34834C18.2042 8.34831 18.2631 8.33591 18.317 8.31202C18.371 8.28813 18.4189 8.25332 18.4573 8.21003C18.4956 8.16673 18.5236 8.116 18.5392 8.06136C18.5548 8.00672 18.5577 7.94951 18.5476 7.89371L18.3431 6.75731L19.212 5.95227C19.2666 5.90163 19.3053 5.83744 19.3237 5.76698C19.342 5.69651 19.3392 5.62258 19.3156 5.55355C19.292 5.48451 19.2486 5.42313 19.1902 5.37634C19.1319 5.32955 19.0609 5.29922 18.9853 5.28879L17.7847 5.12273L17.2488 4.08784C17.2111 4.02729 17.1575 3.97712 17.0933 3.94227C17.029 3.90742 16.9563 3.88909 16.8823 3.88909C16.8083 3.88909 16.7356 3.90742 16.6713 3.94227C16.607 3.97712 16.5534 4.02729 16.5157 4.08784L15.9786 5.12195L14.778 5.28801C14.7024 5.29844 14.6315 5.32877 14.5731 5.37556C14.5147 5.42235 14.4713 5.48373 14.4477 5.55277C14.4241 5.6218 14.4213 5.69574 14.4397 5.7662C14.458 5.83667 14.4967 5.90085 14.5514 5.95149L15.4186 6.75731ZM16.3075 5.86282C16.3732 5.85376 16.4355 5.82966 16.4892 5.7926C16.5428 5.75554 16.5862 5.70663 16.6156 5.65009L16.8806 5.13789L17.1457 5.64892C17.1751 5.70547 17.2185 5.75437 17.2721 5.79143C17.3258 5.82849 17.3881 5.85259 17.4538 5.86166L18.0469 5.94372L17.617 6.34351C17.5695 6.38754 17.5341 6.44188 17.5136 6.50184C17.4932 6.56179 17.4883 6.62558 17.4996 6.6877L17.6006 7.24928L17.0688 6.98444C17.01 6.95501 16.9446 6.93963 16.8782 6.93963C16.8118 6.93963 16.7463 6.95501 16.6876 6.98444L16.1558 7.24928L16.2568 6.6877C16.2687 6.62596 16.2646 6.5624 16.245 6.50247C16.2254 6.44253 16.1909 6.388 16.1443 6.34351L15.7152 5.94605L16.3075 5.86282ZM21.9638 2.86822L21.7593 4.00461C21.7463 4.07616 21.7546 4.14974 21.7833 4.21701C21.8121 4.28429 21.86 4.34257 21.9218 4.38527C21.9836 4.42797 22.0567 4.45338 22.1329 4.45862C22.209 4.46385 22.2852 4.44871 22.3528 4.41491L23.4258 3.87822L24.4992 4.41491C24.5581 4.44396 24.6235 4.45916 24.6899 4.45925C24.7494 4.45921 24.8082 4.44682 24.8622 4.42293C24.9162 4.39904 24.9641 4.36423 25.0024 4.32094C25.0408 4.27764 25.0688 4.2269 25.0844 4.17227C25.1 4.11763 25.1029 4.06041 25.0928 4.00461L24.8883 2.86822L25.7575 2.06318C25.8122 2.01253 25.8509 1.94835 25.8692 1.87788C25.8876 1.80742 25.8848 1.73349 25.8612 1.66445C25.8376 1.59542 25.7942 1.53403 25.7358 1.48724C25.6774 1.44045 25.6065 1.41013 25.5309 1.3997L24.3303 1.23363L23.794 0.198746C23.7563 0.1382 23.7027 0.0880296 23.6384 0.053179C23.5742 0.0183284 23.5014 0 23.4275 0C23.3535 0 23.2808 0.0183284 23.2165 0.053179C23.1522 0.0880296 23.0986 0.1382 23.0609 0.198746L22.5222 1.23363L21.3215 1.3997C21.2459 1.41001 21.1748 1.44025 21.1164 1.48699C21.0579 1.53373 21.0144 1.5951 20.9907 1.66416C20.967 1.73321 20.9641 1.80719 20.9824 1.87771C21.0007 1.94824 21.0394 2.01248 21.0941 2.06318L21.9638 2.86822ZM22.8527 1.97373C22.9183 1.96467 22.9807 1.94057 23.0343 1.90351C23.088 1.86645 23.1314 1.81754 23.1607 1.76099L23.4258 1.2488L23.6909 1.75983C23.7203 1.81637 23.7636 1.86528 23.8173 1.90234C23.871 1.9394 23.9333 1.9635 23.9989 1.97256L24.5921 2.05462L24.1622 2.45442C24.1147 2.49845 24.0792 2.55278 24.0588 2.61274C24.0383 2.6727 24.0335 2.73648 24.0447 2.7986L24.1458 3.36019L23.614 3.09534C23.5552 3.06591 23.4898 3.05053 23.4234 3.05053C23.3569 3.05053 23.2915 3.06591 23.2327 3.09534L22.7009 3.36019L22.802 2.7986C22.8138 2.73686 22.8098 2.67331 22.7902 2.61338C22.7706 2.55344 22.7361 2.4989 22.6895 2.45442L22.2596 2.05618L22.8527 1.97373ZM4.54624 6.55936L9.13973 4.14812L8.61203 5.17173L9.34836 5.51397L10.4459 3.38197C10.4748 3.32582 10.4891 3.26387 10.4874 3.20138C10.4858 3.13888 10.4684 3.07768 10.4366 3.02296C10.4048 2.96824 10.3596 2.92161 10.3048 2.88702C10.25 2.85243 10.1873 2.83091 10.1219 2.82427L7.63884 2.57109L7.55375 3.34619L8.74661 3.46675L4.15067 5.87682L4.54624 6.55936Z" fill="#A9A9A9"/>
</svg>
