<svg width="23" height="24" viewBox="0 0 23 24" fill="none" xmlns="http://www.w3.org/2000/svg">
<path d="M7.26438 2.10558L5.85646 1.90716C5.82042 1.90196 5.7862 1.88836 5.75673 1.86752C5.72725 1.84667 5.70339 1.8192 5.68718 1.78744L5.05768 0.543374C4.69368 -0.176344 3.63955 -0.177282 3.27459 0.541921L2.6421 1.78777C2.62599 1.81942 2.60222 1.84678 2.57283 1.86751C2.54344 1.88823 2.50932 1.90169 2.4734 1.90673L1.06471 2.10553C0.249307 2.22019 -0.0770752 3.19655 0.513081 3.75595L1.53393 4.72467C1.55996 4.74933 1.57945 4.77977 1.59072 4.81338C1.60198 4.84699 1.60469 4.88276 1.59861 4.91761L1.35786 6.28172C1.21824 7.07559 2.07583 7.67409 2.80113 7.30172L4.06235 6.65555C4.09449 6.63904 4.13029 6.63041 4.16664 6.63041C4.20299 6.63041 4.23879 6.63904 4.27093 6.65555L5.5269 7.30027C6.25875 7.67489 7.10984 7.06992 6.97075 6.28064L6.73038 4.91761C6.72426 4.88275 6.72694 4.84697 6.73821 4.81336C6.74948 4.77974 6.76899 4.7493 6.79506 4.72467L7.81572 3.75595C8.40631 3.19669 8.07974 2.22023 7.26438 2.10558ZM7.27811 3.21928L6.25745 4.18762C6.14194 4.29713 6.05553 4.43233 6.00566 4.58157C5.95579 4.73082 5.94395 4.88963 5.97118 5.04431H5.97137L6.21155 6.40734C6.24329 6.58622 6.05069 6.72131 5.88637 6.63689L4.6304 5.99217C4.48748 5.91895 4.32839 5.88069 4.16688 5.88069C4.00537 5.88069 3.84629 5.91895 3.70336 5.99217L2.44233 6.63834C2.27671 6.72262 2.08609 6.58598 2.11716 6.40842L2.35791 5.04431C2.38508 4.8897 2.37324 4.73098 2.3234 4.58181C2.27357 4.43264 2.18724 4.29749 2.07184 4.188L1.05079 3.21928C0.917724 3.09248 0.990831 2.8733 1.17509 2.84733L2.58359 2.64891C2.74315 2.62643 2.89471 2.56653 3.02521 2.47437C3.15571 2.38221 3.26122 2.26055 3.33267 2.11987L3.96516 0.873984C4.04742 0.712265 4.28432 0.712406 4.36672 0.874359L4.99622 2.11875C5.06758 2.25971 5.17312 2.38163 5.30374 2.47399C5.43435 2.56635 5.5861 2.62637 5.74589 2.64886L7.15419 2.84728C7.33874 2.87339 7.41093 3.093 7.27811 3.21928Z" fill="#A9A9A9"/>
<path d="M4.73968 3.12558L3.79366 4.04634L3.58942 3.84755C3.43896 3.70111 3.19523 3.70111 3.04477 3.84755C2.89432 3.99398 2.89432 4.23122 3.04477 4.37765L3.52137 4.84153C3.55712 4.87635 3.59958 4.90396 3.6463 4.92281C3.69303 4.94165 3.74311 4.95135 3.79369 4.95135C3.84427 4.95135 3.89435 4.94165 3.94107 4.92281C3.9878 4.90396 4.03025 4.87635 4.06601 4.84153L5.28437 3.65569C5.32014 3.62088 5.34852 3.57956 5.36788 3.53408C5.38724 3.4886 5.3972 3.43986 5.3972 3.39063C5.3972 3.3414 5.38724 3.29266 5.36788 3.24718C5.34852 3.2017 5.32014 3.16038 5.28437 3.12558C5.24861 3.09076 5.20615 3.06314 5.15942 3.04429C5.11269 3.02545 5.06261 3.01575 5.01202 3.01575C4.96144 3.01575 4.91136 3.02545 4.86462 3.04429C4.8179 3.06314 4.77544 3.09076 4.73968 3.12558ZM10.0238 1.6275H22.0611C22.2739 1.6275 22.4463 1.45983 22.4463 1.25259C22.4463 1.04536 22.2739 0.877686 22.0611 0.877686H10.0238C9.8111 0.877686 9.63864 1.04536 9.63864 1.25259C9.63864 1.45983 9.8111 1.6275 10.0238 1.6275ZM22.0611 3.33394H10.0238C9.8111 3.33394 9.63864 3.50161 9.63864 3.70884C9.63864 3.91608 9.8111 4.08375 10.0238 4.08375H22.0611C22.1117 4.08376 22.1618 4.07407 22.2086 4.05524C22.2553 4.0364 22.2978 4.00878 22.3335 3.97397C22.3693 3.93915 22.3977 3.89782 22.417 3.85233C22.4364 3.80684 22.4463 3.75808 22.4463 3.70884C22.4463 3.6596 22.4364 3.61084 22.417 3.56535C22.3977 3.51986 22.3693 3.47853 22.3335 3.44371C22.2977 3.4089 22.2553 3.38128 22.2085 3.36245C22.1618 3.34361 22.1117 3.33392 22.0611 3.33394ZM10.0238 6.53995H18.588C18.8007 6.53995 18.9732 6.37228 18.9732 6.16504C18.9732 5.95781 18.8007 5.79014 18.588 5.79014H10.0238C9.8111 5.79014 9.63864 5.95781 9.63864 6.16504C9.63864 6.37228 9.8111 6.53995 10.0238 6.53995ZM7.26438 10.3965L5.85647 10.1981C5.82042 10.1929 5.7862 10.1793 5.75673 10.1585C5.72725 10.1376 5.70339 10.1102 5.68718 10.0784L5.05768 8.83434C4.69392 8.11444 3.63946 8.11387 3.27454 8.83289L2.64206 10.0788C2.62594 10.1104 2.60217 10.1378 2.57278 10.1585C2.54339 10.1792 2.50927 10.1927 2.47335 10.1977L1.06466 10.3965C0.249309 10.5112 -0.0770731 11.4876 0.513083 12.047L1.53394 13.0157C1.55997 13.0403 1.57945 13.0708 1.59072 13.1044C1.60199 13.138 1.6047 13.1738 1.59862 13.2086L1.35786 14.5727C1.218 15.3679 2.07709 15.9645 2.80113 15.5927L4.06235 14.9466C4.0945 14.93 4.1303 14.9214 4.16664 14.9214C4.20299 14.9214 4.23879 14.93 4.27093 14.9466L5.5269 15.5913C6.25875 15.9659 7.10984 15.3609 6.97075 14.5717L6.73038 13.2086C6.72426 13.1738 6.72694 13.138 6.73821 13.1044C6.74948 13.0708 6.76899 13.0403 6.79506 13.0157L7.81582 12.047C8.40631 11.4877 8.07974 10.5112 7.26438 10.3965ZM7.27811 11.5102L6.25745 12.4786C6.14194 12.5881 6.05553 12.7233 6.00566 12.8725C5.95579 13.0218 5.94396 13.1806 5.97118 13.3353H5.97138L6.21155 14.6983C6.24314 14.8764 6.05176 15.0123 5.88637 14.9279L4.6304 14.2831C4.48748 14.2099 4.32839 14.1717 4.16688 14.1717C4.00537 14.1717 3.84629 14.2099 3.70336 14.2831L2.44234 14.9293C2.27729 15.0133 2.086 14.8782 2.11716 14.6994L2.35791 13.3353C2.38508 13.1807 2.37324 13.0219 2.3234 12.8728C2.27357 12.7236 2.18724 12.5885 2.07184 12.479L1.05079 11.5102C0.917726 11.3835 0.990833 11.1643 1.17509 11.1383L2.58359 10.9399C2.74316 10.9174 2.89472 10.8575 3.02521 10.7653C3.15571 10.6732 3.26123 10.5515 3.33267 10.4108L3.96516 9.16533C4.04718 9.00351 4.28442 9.003 4.36672 9.16533L4.99623 10.4097C5.06758 10.5507 5.17313 10.6726 5.30374 10.765C5.43435 10.8573 5.58611 10.9173 5.74589 10.9398L7.15419 11.1382C7.33874 11.1644 7.41093 11.384 7.27811 11.5102Z" fill="#A9A9A9"/>
<path d="M4.73972 11.4168L3.7939 12.3376L3.58966 12.1384C3.5174 12.0681 3.41941 12.0286 3.31724 12.0286C3.21506 12.0286 3.11707 12.0681 3.04482 12.1384C2.89437 12.2845 2.89437 12.5221 3.04463 12.6685L3.52122 13.1328C3.67109 13.2787 3.91507 13.2798 4.06606 13.1328L5.28442 11.947C5.32019 11.9122 5.34856 11.8708 5.36792 11.8254C5.38728 11.7799 5.39725 11.7311 5.39725 11.6819C5.39725 11.6327 5.38728 11.5839 5.36792 11.5384C5.34856 11.493 5.32019 11.4516 5.28442 11.4168C5.24866 11.382 5.2062 11.3544 5.15947 11.3356C5.11274 11.3167 5.06265 11.307 5.01207 11.307C4.96149 11.307 4.9114 11.3167 4.86467 11.3356C4.81794 11.3544 4.77548 11.382 4.73972 11.4168ZM22.0611 9.16858H10.0239C9.81114 9.16858 9.63868 9.33625 9.63868 9.54349C9.63868 9.75072 9.81114 9.91839 10.0239 9.91839H22.0612C22.2739 9.91839 22.4464 9.75072 22.4464 9.54349C22.4464 9.33625 22.2739 9.16858 22.0611 9.16858ZM22.0611 11.6248H10.0239C9.81114 11.6248 9.63868 11.7925 9.63868 11.9997C9.63868 12.207 9.81114 12.3746 10.0239 12.3746H22.0612C22.2739 12.3746 22.4464 12.207 22.4464 11.9997C22.4464 11.7925 22.2739 11.6248 22.0611 11.6248ZM10.0239 14.8308H18.588C18.8007 14.8308 18.9732 14.6632 18.9732 14.4559C18.9732 14.2487 18.8007 14.081 18.588 14.081H10.0239C9.81114 14.081 9.63868 14.2487 9.63868 14.4559C9.63868 14.6632 9.81114 14.8308 10.0239 14.8308ZM7.26443 18.6874L5.85651 18.489C5.82051 18.4839 5.78632 18.4703 5.75685 18.4495C5.72738 18.4288 5.7035 18.4014 5.68723 18.3697L5.05773 17.1253C4.69397 16.4054 3.6395 16.4048 3.27459 17.1238L2.6421 18.3697C2.62592 18.4013 2.60216 18.4287 2.57283 18.4494C2.54349 18.4702 2.50946 18.4838 2.47359 18.4891L1.06471 18.6875C0.249307 18.8021 -0.0770752 19.7785 0.513081 20.3379L1.53393 21.3066C1.55996 21.3313 1.57945 21.3617 1.59072 21.3953C1.60198 21.4289 1.60469 21.4647 1.59861 21.4996L1.35786 22.8637C1.21824 23.6575 2.07545 24.2563 2.80113 23.8837L4.06235 23.2375C4.0945 23.221 4.13032 23.2123 4.16669 23.2124C4.20305 23.2125 4.23884 23.2212 4.27093 23.2379L5.5271 23.8826C6.25552 24.2568 7.11003 23.6538 6.97094 22.863L6.73057 21.4996H6.73038C6.72425 21.4647 6.72694 21.4289 6.73821 21.3953C6.74948 21.3617 6.76899 21.3313 6.79506 21.3066L7.81572 20.3379C8.40636 19.7785 8.07978 18.8021 7.26443 18.6874ZM7.27815 19.8011L6.25749 20.7695C6.14199 20.879 6.05558 21.0142 6.0057 21.1634C5.95583 21.3127 5.944 21.4715 5.97123 21.6262L6.21179 22.9896C6.24319 23.1691 6.0492 23.3032 5.88642 23.2191L4.63045 22.5744C4.48761 22.501 4.32852 22.4625 4.16698 22.4625C4.00543 22.4624 3.84631 22.5007 3.70341 22.574L2.44238 23.2202C2.27859 23.3035 2.08585 23.1701 2.1172 22.9903L2.35796 21.6262C2.38513 21.4716 2.37328 21.3128 2.32345 21.1637C2.27362 21.0145 2.18728 20.8794 2.07188 20.7699L1.05084 19.8011C0.918012 19.6746 0.990735 19.4552 1.17495 19.4292L2.58436 19.2308C2.7438 19.2082 2.89523 19.1483 3.02559 19.0561C3.15595 18.9639 3.26136 18.8423 3.33272 18.7017L3.96521 17.4562C4.04723 17.2944 4.28446 17.2939 4.36677 17.4562L4.99647 18.701C5.06782 18.8419 5.17335 18.9637 5.30393 19.056C5.4345 19.1483 5.58621 19.2083 5.74594 19.2308L7.15424 19.4292C7.33879 19.4553 7.41098 19.6749 7.27815 19.8011Z" fill="#A9A9A9"/>
<path d="M4.73941 19.7077L3.79359 20.6285L3.58934 20.4293C3.51709 20.359 3.4191 20.3195 3.31692 20.3195C3.21475 20.3195 3.11676 20.359 3.0445 20.4293C2.89405 20.5754 2.89405 20.813 3.04431 20.9594L3.52091 21.4237C3.67078 21.5696 3.91476 21.5706 4.06574 21.4237L5.2841 20.2378C5.31987 20.203 5.34825 20.1617 5.36761 20.1162C5.38697 20.0708 5.39693 20.022 5.39693 19.9728C5.39693 19.9236 5.38697 19.8748 5.36761 19.8293C5.34825 19.7839 5.31987 19.7425 5.2841 19.7077C5.24834 19.6729 5.20588 19.6453 5.15915 19.6265C5.11242 19.6076 5.06234 19.5979 5.01176 19.5979C4.96117 19.5979 4.91109 19.6076 4.86436 19.6265C4.81763 19.6453 4.77517 19.6729 4.73941 19.7077ZM22.0608 17.4595H10.0236C9.81083 17.4595 9.63837 17.6271 9.63837 17.8344C9.63837 18.0416 9.81083 18.2093 10.0236 18.2093H22.0609C22.2736 18.2093 22.4461 18.0416 22.4461 17.8344C22.4461 17.6271 22.2736 17.4595 22.0608 17.4595ZM22.0608 19.9157H10.0236C9.81083 19.9157 9.63837 20.0834 9.63837 20.2906C9.63837 20.4979 9.81083 20.6655 10.0236 20.6655H22.0609C22.2736 20.6655 22.4461 20.4979 22.4461 20.2906C22.4461 20.0834 22.2736 19.9157 22.0608 19.9157ZM18.5877 22.3719H10.0236C9.81083 22.3719 9.63837 22.5396 9.63837 22.7468C9.63837 22.9541 9.81083 23.1217 10.0236 23.1217H18.5877C18.8004 23.1217 18.9729 22.9541 18.9729 22.7468C18.9729 22.5396 18.8004 22.3719 18.5877 22.3719Z" fill="#A9A9A9"/>
</svg>
