<svg width="24" height="22" viewBox="0 0 24 22" fill="none" xmlns="http://www.w3.org/2000/svg">
<path d="M7.21381 16.725C7.27721 16.7251 7.34007 16.7129 7.39878 16.6893C7.45749 16.6656 7.511 16.6308 7.55615 16.5867L11.5609 12.6889C11.7352 12.7924 11.9246 12.8695 12.1226 12.9174V13.625C12.1226 13.7519 12.1744 13.873 12.2657 13.9618C12.3569 14.0506 12.48 14.1 12.6079 14.1C12.7357 14.1 12.8588 14.0506 12.95 13.9618C13.0413 13.873 13.0931 13.7519 13.0931 13.625V12.9174C13.5175 12.8148 13.8978 12.5811 14.1759 12.2495C14.4715 11.8971 14.6336 11.4559 14.6343 11.0002V11C14.6342 10.6403 14.5328 10.2882 14.342 9.9819L14.8764 9.4618C14.9216 9.41782 14.9576 9.36547 14.9822 9.30765C15.0068 9.24983 15.0195 9.18776 15.0195 9.12501C15.0195 9.06226 15.0068 9.00019 14.9822 8.94237C14.9576 8.88455 14.9216 8.8322 14.8764 8.78822C14.8312 8.74426 14.7778 8.70952 14.7191 8.68586C14.6604 8.66221 14.5976 8.65007 14.5343 8.65007C14.4709 8.65007 14.4081 8.66221 14.3495 8.68586C14.2908 8.70952 14.2373 8.74426 14.1921 8.78822L13.6548 9.31117C13.4805 9.20762 13.2911 9.13057 13.0931 9.0826V5.00001C13.0931 4.87315 13.0413 4.75204 12.95 4.66319C12.8588 4.57442 12.7357 4.52501 12.6079 4.52501C12.48 4.52501 12.3569 4.57442 12.2657 4.66319C12.1744 4.75204 12.1226 4.87315 12.1226 5.00001V9.08258C11.6982 9.18519 11.318 9.41897 11.0398 9.7505C10.7442 10.1029 10.5821 10.5441 10.5814 10.9999V11C10.5814 11.3727 10.6892 11.7207 10.8738 12.018L6.87193 15.9131C6.80364 15.9792 6.75676 16.064 6.73769 16.1567C6.71862 16.2495 6.72832 16.3457 6.76544 16.4329C6.80255 16.5201 6.86524 16.5942 6.94514 16.646C7.02493 16.6978 7.11843 16.7252 7.21381 16.725ZM7.21381 16.725L7.21391 16.625M7.21381 16.725C7.21392 16.725 7.21402 16.725 7.21413 16.725L7.21391 16.625M7.21391 16.625C7.26451 16.6251 7.31462 16.6154 7.36137 16.5965L6.94151 15.9849C6.88746 16.0373 6.85061 16.1041 6.83564 16.1769C6.82068 16.2497 6.82827 16.3252 6.85746 16.3937C6.88664 16.4623 6.93611 16.5209 6.99957 16.5621C7.06304 16.6033 7.13764 16.6252 7.21391 16.625ZM10.8509 1.3929L10.851 1.39364C10.9096 1.652 10.7422 1.90491 10.4822 1.96124M10.8509 1.3929L8.42447 2.55126M10.8509 1.3929C10.8219 1.2697 10.7444 1.16337 10.6362 1.0964C10.528 1.02948 10.3975 1.00696 10.2728 1.03329L10.2721 1.03344C9.50462 1.20117 8.75911 1.4531 8.04989 1.78442M10.8509 1.3929L8.09197 1.87514M10.4822 1.96124L10.4612 1.8639L10.4824 1.96122C10.4823 1.96123 10.4823 1.96123 10.4822 1.96124ZM10.4822 1.96124C9.78604 2.11297 9.10988 2.34131 8.46681 2.64186M8.46681 2.64186C8.467 2.64177 8.46719 2.64168 8.46738 2.64159L8.42447 2.55126M8.46681 2.64186L8.42447 2.55126M8.46681 2.64186C8.40181 2.67263 8.33058 2.68851 8.25853 2.68839C8.14902 2.68881 8.04231 2.65294 7.95599 2.58619C7.86953 2.51934 7.80858 2.42536 7.78387 2.31947C7.75915 2.21353 7.77233 2.10261 7.82102 2.00518C7.86965 1.9079 7.95057 1.83023 8.04989 1.78442M8.42447 2.55126C8.37276 2.57583 8.31595 2.58853 8.25841 2.58839C8.17083 2.58879 8.08574 2.56011 8.01717 2.50709C7.94859 2.45406 7.90065 2.37986 7.88126 2.29674C7.86186 2.21362 7.87217 2.12654 7.91048 2.04989C7.94878 1.97324 8.01281 1.91159 8.09197 1.87514M8.04989 1.78442C8.04981 1.78446 8.04972 1.7845 8.04964 1.78454L8.09197 1.87514M8.04989 1.78442C8.04997 1.78438 8.05005 1.78434 8.05014 1.78431L8.09197 1.87514M2.73659 9.29663L2.73681 9.29667C2.8617 9.32339 2.99254 9.30095 3.10087 9.23384C3.20929 9.16667 3.28672 9.05992 3.31521 8.93635L3.31524 8.93623C3.47075 8.25771 3.70648 7.59897 4.01776 6.97317L4.01778 6.97318L4.0186 6.97144C4.07237 6.85791 4.07822 6.72814 4.03478 6.61034C3.99137 6.49263 3.90252 6.39704 3.78827 6.34339C3.67409 6.28976 3.54309 6.28198 3.42321 6.32156C3.30327 6.36116 3.2033 6.4453 3.14554 6.55675L3.14553 6.55674L3.14478 6.55824C2.8008 7.25017 2.54008 7.9785 2.36784 8.72876L2.36784 8.72879C2.35379 8.79002 2.35229 8.85338 2.36341 8.9152C2.37453 8.97702 2.39803 9.03596 2.43246 9.08868C2.46689 9.14139 2.51153 9.1868 2.56372 9.22243C2.61591 9.25805 2.67466 9.28323 2.73659 9.29663ZM12.6079 9.97501C13.1925 9.97501 13.6637 10.4375 13.6637 11C13.6637 11.5625 13.1925 12.025 12.6079 12.025C12.0233 12.025 11.552 11.5625 11.552 11C11.552 10.4375 12.0233 9.97501 12.6079 9.97501Z" fill="#A9A9A9" stroke="#A9A9A9" stroke-width="0.2"/>
<path d="M4.47376 12.4617C4.51893 12.4178 4.55492 12.3655 4.57954 12.3077C4.60418 12.2499 4.6169 12.1878 4.6169 12.125C4.6169 12.0622 4.60418 12.0001 4.57954 11.9423C4.5549 11.8845 4.51886 11.8321 4.47363 11.7882L2.93262 10.2883C2.88746 10.2442 2.83398 10.2095 2.77529 10.1858C2.71661 10.1621 2.65379 10.1499 2.59042 10.1499C2.52704 10.1499 2.46422 10.1621 2.40554 10.1858C2.34685 10.2095 2.29337 10.2442 2.24821 10.2883L0.707144 11.7882C0.661963 11.8322 0.625976 11.8845 0.601372 11.9424C0.576765 12.0002 0.564062 12.0622 0.564062 12.125C0.564062 12.1878 0.576765 12.2498 0.601372 12.3076C0.625976 12.3655 0.661963 12.4178 0.707144 12.4618C0.752319 12.5058 0.805803 12.5405 0.864476 12.5641C0.923146 12.5878 0.985936 12.5999 1.04929 12.5999C1.11264 12.5999 1.17543 12.5878 1.2341 12.5641C1.29277 12.5405 1.34625 12.5058 1.39143 12.4618L2.13247 11.7405C2.5235 17.0364 7.0747 21.225 12.6078 21.225C18.3965 21.225 23.1104 16.6408 23.1104 11C23.1104 5.35924 18.3965 0.775 12.6078 0.775C12.4799 0.775 12.3568 0.824406 12.2656 0.913175C12.1743 1.00203 12.1225 1.12314 12.1225 1.25C12.1225 1.37686 12.1743 1.49797 12.2656 1.58683C12.3568 1.67559 12.4799 1.725 12.6078 1.725C17.8662 1.725 22.1398 5.88839 22.1398 11C22.1398 16.1116 17.8662 20.275 12.6078 20.275C7.62765 20.275 3.53224 16.5404 3.1126 11.803L3.7892 12.4616C3.83431 12.5057 3.8878 12.5406 3.94652 12.5644L3.98404 12.4717L3.94652 12.5644C4.00523 12.5882 4.06811 12.6004 4.13154 12.6004C4.19498 12.6004 4.25786 12.5882 4.31657 12.5644L4.27905 12.4717L4.31657 12.5644C4.37523 12.5407 4.42868 12.5058 4.47376 12.4617ZM4.47376 12.4617C4.47372 12.4618 4.47367 12.4618 4.47363 12.4618L4.40394 12.3901L4.47389 12.4616C4.47385 12.4616 4.4738 12.4617 4.47376 12.4617ZM6.66456 3.75462L6.66454 3.75464C6.10421 4.18198 5.59902 4.67358 5.15991 5.21873C5.11431 5.27549 5.05617 5.32114 4.99008 5.35241C4.92395 5.38369 4.85148 5.3998 4.77819 5.39962M6.66456 3.75462L4.77843 5.29962M6.66456 3.75462C6.71475 3.71633 6.75687 3.66865 6.78838 3.61422L6.70184 3.56412M6.66456 3.75462L6.70184 3.56412M4.77819 5.39962L4.77843 5.29962M4.77819 5.39962C4.77824 5.39962 4.77829 5.39962 4.77834 5.39962L4.77843 5.29962M4.77819 5.39962C4.68783 5.39951 4.59914 5.37471 4.5222 5.3278L4.57426 5.24242M4.77843 5.29962C4.70621 5.29956 4.63546 5.27973 4.57426 5.24242M4.57426 5.24242L4.5222 5.3278C4.4452 5.28084 4.38292 5.21353 4.34283 5.13324C4.30272 5.05293 4.28653 4.96306 4.29629 4.87397C4.30605 4.78489 4.34132 4.70055 4.39773 4.63052M4.57426 5.24242L4.39773 4.63052M6.70184 3.56412L6.78838 3.61422C6.8199 3.55979 6.84017 3.49971 6.84792 3.43742C6.85567 3.37513 6.85073 3.31198 6.83341 3.25161C6.8161 3.19124 6.78679 3.13495 6.74728 3.0859C6.70777 3.03685 6.65886 2.99602 6.60344 2.96562C6.54802 2.93522 6.48711 2.91581 6.4242 2.9084C6.36129 2.90098 6.29747 2.9057 6.23638 2.92229C6.17527 2.93889 6.11798 2.96709 6.0678 3.00538L6.0678 3.00538M6.70184 3.56412L6.0678 3.00538M6.0678 3.00538C5.44615 3.4798 4.88541 4.02543 4.39774 4.6305L4.39773 4.63052M6.0678 3.00538L4.39773 4.63052" fill="#A9A9A9" stroke="#A9A9A9" stroke-width="0.2"/>
<mask id="path-3-outside-1_526_4330" maskUnits="userSpaceOnUse" x="3.88086" y="1.375" width="18" height="19" fill="black">
<rect fill="white" x="3.88086" y="1.375" width="18" height="19"/>
<path d="M12.6076 3.875C12.7098 3.875 12.8078 3.83549 12.88 3.76516C12.9523 3.69484 12.9929 3.59946 12.9929 3.5V2.75C12.9929 2.65054 12.9523 2.55516 12.88 2.48484C12.8078 2.41451 12.7098 2.375 12.6076 2.375C12.5054 2.375 12.4074 2.41451 12.3352 2.48484C12.2629 2.55516 12.2223 2.65054 12.2223 2.75V3.5C12.2223 3.59946 12.2629 3.69484 12.3352 3.76516C12.4074 3.83549 12.5054 3.875 12.6076 3.875ZM12.6076 18.125C12.5054 18.125 12.4074 18.1645 12.3352 18.2348C12.2629 18.3052 12.2223 18.4005 12.2223 18.5V19.25C12.2223 19.3495 12.2629 19.4448 12.3352 19.5152C12.4074 19.5855 12.5054 19.625 12.6076 19.625C12.7098 19.625 12.8078 19.5855 12.88 19.5152C12.9523 19.4448 12.9929 19.3495 12.9929 19.25V18.5C12.9929 18.4005 12.9523 18.3052 12.88 18.2348C12.8078 18.1645 12.7098 18.125 12.6076 18.125ZM16.1268 17.6825L16.512 18.332C16.5633 18.418 16.6474 18.4807 16.7461 18.5064C16.8447 18.5321 16.9498 18.5188 17.0383 18.4692C17.0822 18.4447 17.1206 18.4119 17.1515 18.3728C17.1823 18.3338 17.2049 18.2892 17.218 18.2416C17.2311 18.194 17.2344 18.1444 17.2278 18.0955C17.2212 18.0467 17.2047 17.9996 17.1793 17.957L16.7941 17.3075C16.7426 17.2221 16.6585 17.1599 16.5602 17.1346C16.4618 17.1093 16.3572 17.1229 16.269 17.1724C16.1809 17.2219 16.1165 17.3033 16.0899 17.3989C16.0632 17.4945 16.0765 17.5964 16.1268 17.6825ZM19.088 15.0748L19.7553 15.4498C19.7991 15.4745 19.8476 15.4906 19.8978 15.4972C19.948 15.5037 19.9991 15.5004 20.048 15.4877C20.0969 15.4749 20.1428 15.4529 20.183 15.4228C20.2231 15.3928 20.2568 15.3553 20.282 15.3125C20.3331 15.2264 20.347 15.124 20.3205 15.028C20.2941 14.9319 20.2295 14.85 20.141 14.8002L19.4737 14.4252C19.3852 14.3755 19.28 14.3619 19.1813 14.3877C19.0826 14.4134 18.9984 14.4762 18.9472 14.5623C18.8961 14.6484 18.8822 14.7508 18.9086 14.8469C18.935 14.943 18.9995 15.025 19.088 15.0748ZM19.928 11C19.928 11.0995 19.9685 11.1948 20.0408 11.2652C20.1131 11.3355 20.211 11.375 20.3132 11.375H21.0838C21.186 11.375 21.284 11.3355 21.3562 11.2652C21.4285 11.1948 21.4691 11.0995 21.4691 11C21.4691 10.9005 21.4285 10.8052 21.3562 10.7348C21.284 10.6645 21.186 10.625 21.0838 10.625H20.3132C20.211 10.625 20.1131 10.6645 20.0408 10.7348C19.9685 10.8052 19.928 10.9005 19.928 11ZM5.74186 14.4252L5.07455 14.8002C5.00077 14.8414 4.94305 14.9051 4.9104 14.9815C4.87774 15.0578 4.87198 15.1426 4.89402 15.2225C4.91607 15.3024 4.96467 15.373 5.03225 15.4232C5.09982 15.4734 5.18257 15.5004 5.26758 15.5C5.33307 15.5 5.39934 15.4839 5.45983 15.4498L6.12714 15.0748C6.17131 15.0503 6.21008 15.0176 6.24121 14.9785C6.27234 14.9394 6.29522 14.8947 6.30853 14.847C6.32185 14.7993 6.32533 14.7495 6.31878 14.7004C6.31223 14.6514 6.29578 14.6041 6.27037 14.5613C6.24497 14.5184 6.21111 14.4809 6.17075 14.4509C6.13038 14.4208 6.08431 14.3989 6.03519 14.3862C5.98607 14.3736 5.93486 14.3705 5.88452 14.3772C5.83418 14.3839 5.78569 14.4002 5.74186 14.4252ZM19.7557 6.55025L19.0884 6.92525C19.0146 6.96635 18.9569 7.03007 18.9243 7.10646C18.8916 7.18285 18.8859 7.26761 18.9079 7.34752C18.9299 7.42743 18.9785 7.49799 19.0461 7.54818C19.1137 7.59838 19.1964 7.62539 19.2814 7.625C19.3469 7.625 19.4132 7.60887 19.4737 7.57475L20.141 7.19975C20.1852 7.17531 20.2239 7.1426 20.2551 7.10352C20.2862 7.06443 20.3091 7.01974 20.3224 6.97201C20.3357 6.92428 20.3392 6.87446 20.3327 6.82542C20.3261 6.77638 20.3097 6.72908 20.2842 6.68625C20.2588 6.64342 20.225 6.60591 20.1846 6.57587C20.1443 6.54583 20.0982 6.52385 20.0491 6.51121C19.9999 6.49857 19.9487 6.49551 19.8984 6.50221C19.848 6.50891 19.7996 6.52524 19.7557 6.55025ZM8.42111 17.3075L8.03583 17.957C7.98554 18.0431 7.97228 18.145 7.99894 18.2406C8.0256 18.3362 8.09001 18.4176 8.17812 18.4671C8.26622 18.5166 8.37088 18.5302 8.46924 18.5049C8.5676 18.4796 8.65168 18.4174 8.70314 18.332L9.08842 17.6825C9.13871 17.5964 9.15197 17.4945 9.12531 17.3989C9.09865 17.3033 9.03424 17.2219 8.94613 17.1724C8.85802 17.1229 8.75337 17.1093 8.65501 17.1346C8.55665 17.1599 8.47257 17.2221 8.42111 17.3075ZM16.2678 4.82975C16.3563 4.87948 16.4614 4.89295 16.5601 4.86721C16.6588 4.84147 16.743 4.77863 16.7941 4.6925L17.1793 4.043C17.2296 3.95692 17.2429 3.85497 17.2162 3.7594C17.1896 3.66383 17.1252 3.58241 17.0371 3.5329C16.9489 3.48338 16.8443 3.4698 16.7459 3.49511C16.6476 3.52042 16.5635 3.58257 16.512 3.668L16.1268 4.3175C16.1014 4.36013 16.0849 4.40722 16.0783 4.45605C16.0717 4.50488 16.075 4.55451 16.0881 4.60209C16.1012 4.64967 16.1238 4.69427 16.1546 4.73333C16.1855 4.7724 16.2239 4.80516 16.2678 4.82975Z"/>
</mask>
<path d="M12.6076 3.875C12.7098 3.875 12.8078 3.83549 12.88 3.76516C12.9523 3.69484 12.9929 3.59946 12.9929 3.5V2.75C12.9929 2.65054 12.9523 2.55516 12.88 2.48484C12.8078 2.41451 12.7098 2.375 12.6076 2.375C12.5054 2.375 12.4074 2.41451 12.3352 2.48484C12.2629 2.55516 12.2223 2.65054 12.2223 2.75V3.5C12.2223 3.59946 12.2629 3.69484 12.3352 3.76516C12.4074 3.83549 12.5054 3.875 12.6076 3.875ZM12.6076 18.125C12.5054 18.125 12.4074 18.1645 12.3352 18.2348C12.2629 18.3052 12.2223 18.4005 12.2223 18.5V19.25C12.2223 19.3495 12.2629 19.4448 12.3352 19.5152C12.4074 19.5855 12.5054 19.625 12.6076 19.625C12.7098 19.625 12.8078 19.5855 12.88 19.5152C12.9523 19.4448 12.9929 19.3495 12.9929 19.25V18.5C12.9929 18.4005 12.9523 18.3052 12.88 18.2348C12.8078 18.1645 12.7098 18.125 12.6076 18.125ZM16.1268 17.6825L16.512 18.332C16.5633 18.418 16.6474 18.4807 16.7461 18.5064C16.8447 18.5321 16.9498 18.5188 17.0383 18.4692C17.0822 18.4447 17.1206 18.4119 17.1515 18.3728C17.1823 18.3338 17.2049 18.2892 17.218 18.2416C17.2311 18.194 17.2344 18.1444 17.2278 18.0955C17.2212 18.0467 17.2047 17.9996 17.1793 17.957L16.7941 17.3075C16.7426 17.2221 16.6585 17.1599 16.5602 17.1346C16.4618 17.1093 16.3572 17.1229 16.269 17.1724C16.1809 17.2219 16.1165 17.3033 16.0899 17.3989C16.0632 17.4945 16.0765 17.5964 16.1268 17.6825ZM19.088 15.0748L19.7553 15.4498C19.7991 15.4745 19.8476 15.4906 19.8978 15.4972C19.948 15.5037 19.9991 15.5004 20.048 15.4877C20.0969 15.4749 20.1428 15.4529 20.183 15.4228C20.2231 15.3928 20.2568 15.3553 20.282 15.3125C20.3331 15.2264 20.347 15.124 20.3205 15.028C20.2941 14.9319 20.2295 14.85 20.141 14.8002L19.4737 14.4252C19.3852 14.3755 19.28 14.3619 19.1813 14.3877C19.0826 14.4134 18.9984 14.4762 18.9472 14.5623C18.8961 14.6484 18.8822 14.7508 18.9086 14.8469C18.935 14.943 18.9995 15.025 19.088 15.0748ZM19.928 11C19.928 11.0995 19.9685 11.1948 20.0408 11.2652C20.1131 11.3355 20.211 11.375 20.3132 11.375H21.0838C21.186 11.375 21.284 11.3355 21.3562 11.2652C21.4285 11.1948 21.4691 11.0995 21.4691 11C21.4691 10.9005 21.4285 10.8052 21.3562 10.7348C21.284 10.6645 21.186 10.625 21.0838 10.625H20.3132C20.211 10.625 20.1131 10.6645 20.0408 10.7348C19.9685 10.8052 19.928 10.9005 19.928 11ZM5.74186 14.4252L5.07455 14.8002C5.00077 14.8414 4.94305 14.9051 4.9104 14.9815C4.87774 15.0578 4.87198 15.1426 4.89402 15.2225C4.91607 15.3024 4.96467 15.373 5.03225 15.4232C5.09982 15.4734 5.18257 15.5004 5.26758 15.5C5.33307 15.5 5.39934 15.4839 5.45983 15.4498L6.12714 15.0748C6.17131 15.0503 6.21008 15.0176 6.24121 14.9785C6.27234 14.9394 6.29522 14.8947 6.30853 14.847C6.32185 14.7993 6.32533 14.7495 6.31878 14.7004C6.31223 14.6514 6.29578 14.6041 6.27037 14.5613C6.24497 14.5184 6.21111 14.4809 6.17075 14.4509C6.13038 14.4208 6.08431 14.3989 6.03519 14.3862C5.98607 14.3736 5.93486 14.3705 5.88452 14.3772C5.83418 14.3839 5.78569 14.4002 5.74186 14.4252ZM19.7557 6.55025L19.0884 6.92525C19.0146 6.96635 18.9569 7.03007 18.9243 7.10646C18.8916 7.18285 18.8859 7.26761 18.9079 7.34752C18.9299 7.42743 18.9785 7.49799 19.0461 7.54818C19.1137 7.59838 19.1964 7.62539 19.2814 7.625C19.3469 7.625 19.4132 7.60887 19.4737 7.57475L20.141 7.19975C20.1852 7.17531 20.2239 7.1426 20.2551 7.10352C20.2862 7.06443 20.3091 7.01974 20.3224 6.97201C20.3357 6.92428 20.3392 6.87446 20.3327 6.82542C20.3261 6.77638 20.3097 6.72908 20.2842 6.68625C20.2588 6.64342 20.225 6.60591 20.1846 6.57587C20.1443 6.54583 20.0982 6.52385 20.0491 6.51121C19.9999 6.49857 19.9487 6.49551 19.8984 6.50221C19.848 6.50891 19.7996 6.52524 19.7557 6.55025ZM8.42111 17.3075L8.03583 17.957C7.98554 18.0431 7.97228 18.145 7.99894 18.2406C8.0256 18.3362 8.09001 18.4176 8.17812 18.4671C8.26622 18.5166 8.37088 18.5302 8.46924 18.5049C8.5676 18.4796 8.65168 18.4174 8.70314 18.332L9.08842 17.6825C9.13871 17.5964 9.15197 17.4945 9.12531 17.3989C9.09865 17.3033 9.03424 17.2219 8.94613 17.1724C8.85802 17.1229 8.75337 17.1093 8.65501 17.1346C8.55665 17.1599 8.47257 17.2221 8.42111 17.3075ZM16.2678 4.82975C16.3563 4.87948 16.4614 4.89295 16.5601 4.86721C16.6588 4.84147 16.743 4.77863 16.7941 4.6925L17.1793 4.043C17.2296 3.95692 17.2429 3.85497 17.2162 3.7594C17.1896 3.66383 17.1252 3.58241 17.0371 3.5329C16.9489 3.48338 16.8443 3.4698 16.7459 3.49511C16.6476 3.52042 16.5635 3.58257 16.512 3.668L16.1268 4.3175C16.1014 4.36013 16.0849 4.40722 16.0783 4.45605C16.0717 4.50488 16.075 4.55451 16.0881 4.60209C16.1012 4.64967 16.1238 4.69427 16.1546 4.73333C16.1855 4.7724 16.2239 4.80516 16.2678 4.82975Z" fill="#A9A9A9"/>
<path d="M12.6076 3.875C12.7098 3.875 12.8078 3.83549 12.88 3.76516C12.9523 3.69484 12.9929 3.59946 12.9929 3.5V2.75C12.9929 2.65054 12.9523 2.55516 12.88 2.48484C12.8078 2.41451 12.7098 2.375 12.6076 2.375C12.5054 2.375 12.4074 2.41451 12.3352 2.48484C12.2629 2.55516 12.2223 2.65054 12.2223 2.75V3.5C12.2223 3.59946 12.2629 3.69484 12.3352 3.76516C12.4074 3.83549 12.5054 3.875 12.6076 3.875ZM12.6076 18.125C12.5054 18.125 12.4074 18.1645 12.3352 18.2348C12.2629 18.3052 12.2223 18.4005 12.2223 18.5V19.25C12.2223 19.3495 12.2629 19.4448 12.3352 19.5152C12.4074 19.5855 12.5054 19.625 12.6076 19.625C12.7098 19.625 12.8078 19.5855 12.88 19.5152C12.9523 19.4448 12.9929 19.3495 12.9929 19.25V18.5C12.9929 18.4005 12.9523 18.3052 12.88 18.2348C12.8078 18.1645 12.7098 18.125 12.6076 18.125ZM16.1268 17.6825L16.512 18.332C16.5633 18.418 16.6474 18.4807 16.7461 18.5064C16.8447 18.5321 16.9498 18.5188 17.0383 18.4692C17.0822 18.4447 17.1206 18.4119 17.1515 18.3728C17.1823 18.3338 17.2049 18.2892 17.218 18.2416C17.2311 18.194 17.2344 18.1444 17.2278 18.0955C17.2212 18.0467 17.2047 17.9996 17.1793 17.957L16.7941 17.3075C16.7426 17.2221 16.6585 17.1599 16.5602 17.1346C16.4618 17.1093 16.3572 17.1229 16.269 17.1724C16.1809 17.2219 16.1165 17.3033 16.0899 17.3989C16.0632 17.4945 16.0765 17.5964 16.1268 17.6825ZM19.088 15.0748L19.7553 15.4498C19.7991 15.4745 19.8476 15.4906 19.8978 15.4972C19.948 15.5037 19.9991 15.5004 20.048 15.4877C20.0969 15.4749 20.1428 15.4529 20.183 15.4228C20.2231 15.3928 20.2568 15.3553 20.282 15.3125C20.3331 15.2264 20.347 15.124 20.3205 15.028C20.2941 14.9319 20.2295 14.85 20.141 14.8002L19.4737 14.4252C19.3852 14.3755 19.28 14.3619 19.1813 14.3877C19.0826 14.4134 18.9984 14.4762 18.9472 14.5623C18.8961 14.6484 18.8822 14.7508 18.9086 14.8469C18.935 14.943 18.9995 15.025 19.088 15.0748ZM19.928 11C19.928 11.0995 19.9685 11.1948 20.0408 11.2652C20.1131 11.3355 20.211 11.375 20.3132 11.375H21.0838C21.186 11.375 21.284 11.3355 21.3562 11.2652C21.4285 11.1948 21.4691 11.0995 21.4691 11C21.4691 10.9005 21.4285 10.8052 21.3562 10.7348C21.284 10.6645 21.186 10.625 21.0838 10.625H20.3132C20.211 10.625 20.1131 10.6645 20.0408 10.7348C19.9685 10.8052 19.928 10.9005 19.928 11ZM5.74186 14.4252L5.07455 14.8002C5.00077 14.8414 4.94305 14.9051 4.9104 14.9815C4.87774 15.0578 4.87198 15.1426 4.89402 15.2225C4.91607 15.3024 4.96467 15.373 5.03225 15.4232C5.09982 15.4734 5.18257 15.5004 5.26758 15.5C5.33307 15.5 5.39934 15.4839 5.45983 15.4498L6.12714 15.0748C6.17131 15.0503 6.21008 15.0176 6.24121 14.9785C6.27234 14.9394 6.29522 14.8947 6.30853 14.847C6.32185 14.7993 6.32533 14.7495 6.31878 14.7004C6.31223 14.6514 6.29578 14.6041 6.27037 14.5613C6.24497 14.5184 6.21111 14.4809 6.17075 14.4509C6.13038 14.4208 6.08431 14.3989 6.03519 14.3862C5.98607 14.3736 5.93486 14.3705 5.88452 14.3772C5.83418 14.3839 5.78569 14.4002 5.74186 14.4252ZM19.7557 6.55025L19.0884 6.92525C19.0146 6.96635 18.9569 7.03007 18.9243 7.10646C18.8916 7.18285 18.8859 7.26761 18.9079 7.34752C18.9299 7.42743 18.9785 7.49799 19.0461 7.54818C19.1137 7.59838 19.1964 7.62539 19.2814 7.625C19.3469 7.625 19.4132 7.60887 19.4737 7.57475L20.141 7.19975C20.1852 7.17531 20.2239 7.1426 20.2551 7.10352C20.2862 7.06443 20.3091 7.01974 20.3224 6.97201C20.3357 6.92428 20.3392 6.87446 20.3327 6.82542C20.3261 6.77638 20.3097 6.72908 20.2842 6.68625C20.2588 6.64342 20.225 6.60591 20.1846 6.57587C20.1443 6.54583 20.0982 6.52385 20.0491 6.51121C19.9999 6.49857 19.9487 6.49551 19.8984 6.50221C19.848 6.50891 19.7996 6.52524 19.7557 6.55025ZM8.42111 17.3075L8.03583 17.957C7.98554 18.0431 7.97228 18.145 7.99894 18.2406C8.0256 18.3362 8.09001 18.4176 8.17812 18.4671C8.26622 18.5166 8.37088 18.5302 8.46924 18.5049C8.5676 18.4796 8.65168 18.4174 8.70314 18.332L9.08842 17.6825C9.13871 17.5964 9.15197 17.4945 9.12531 17.3989C9.09865 17.3033 9.03424 17.2219 8.94613 17.1724C8.85802 17.1229 8.75337 17.1093 8.65501 17.1346C8.55665 17.1599 8.47257 17.2221 8.42111 17.3075ZM16.2678 4.82975C16.3563 4.87948 16.4614 4.89295 16.5601 4.86721C16.6588 4.84147 16.743 4.77863 16.7941 4.6925L17.1793 4.043C17.2296 3.95692 17.2429 3.85497 17.2162 3.7594C17.1896 3.66383 17.1252 3.58241 17.0371 3.5329C16.9489 3.48338 16.8443 3.4698 16.7459 3.49511C16.6476 3.52042 16.5635 3.58257 16.512 3.668L16.1268 4.3175C16.1014 4.36013 16.0849 4.40722 16.0783 4.45605C16.0717 4.50488 16.075 4.55451 16.0881 4.60209C16.1012 4.64967 16.1238 4.69427 16.1546 4.73333C16.1855 4.7724 16.2239 4.80516 16.2678 4.82975Z" stroke="#A9A9A9" stroke-width="0.4" mask="url(#path-3-outside-1_526_4330)"/>
</svg>
