<svg width="24" height="22" viewBox="0 0 24 22" fill="none" xmlns="http://www.w3.org/2000/svg">
<path d="M7.12201 16.725C7.18542 16.7251 7.24827 16.7129 7.30698 16.6893C7.3657 16.6656 7.4192 16.6308 7.46436 16.5867L11.4691 12.6889C11.6434 12.7924 11.8328 12.8695 12.0308 12.9174V13.625C12.0308 13.7519 12.0826 13.873 12.1739 13.9618C12.2651 14.0506 12.3882 14.1 12.5161 14.1C12.6439 14.1 12.767 14.0506 12.8582 13.9618C12.9495 13.873 13.0013 13.7519 13.0013 13.625V12.9174C13.4258 12.8148 13.806 12.5811 14.0841 12.2495C14.3797 11.8971 14.5418 11.4559 14.5425 11.0002V11C14.5424 10.6403 14.441 10.2882 14.2502 9.9819L14.7846 9.4618C14.8298 9.41782 14.8658 9.36547 14.8904 9.30765C14.915 9.24983 14.9277 9.18776 14.9277 9.12501C14.9277 9.06226 14.915 9.00019 14.8904 8.94237C14.8658 8.88455 14.8298 8.8322 14.7846 8.78822C14.7394 8.74426 14.686 8.70952 14.6273 8.68586C14.5686 8.66221 14.5058 8.65007 14.4425 8.65007C14.3791 8.65007 14.3163 8.66221 14.2577 8.68586C14.199 8.70952 14.1455 8.74426 14.1003 8.78822L13.563 9.31117C13.3887 9.20762 13.1993 9.13057 13.0013 9.0826V5.00001C13.0013 4.87315 12.9495 4.75204 12.8582 4.66319C12.767 4.57442 12.6439 4.52501 12.5161 4.52501C12.3882 4.52501 12.2651 4.57442 12.1739 4.66319C12.0826 4.75204 12.0308 4.87315 12.0308 5.00001V9.08258C11.6064 9.18519 11.2262 9.41897 10.948 9.7505C10.6524 10.1029 10.4903 10.5441 10.4897 10.9999V11C10.4897 11.3727 10.5974 11.7207 10.782 12.018L6.78013 15.9131C6.71184 15.9792 6.66497 16.064 6.6459 16.1567C6.62682 16.2495 6.63653 16.3457 6.67364 16.4329C6.71075 16.5201 6.77344 16.5942 6.85335 16.646C6.93313 16.6978 7.02663 16.7252 7.12201 16.725ZM7.12201 16.725L7.12211 16.625M7.12201 16.725C7.12212 16.725 7.12222 16.725 7.12233 16.725L7.12211 16.625M7.12211 16.625C7.17271 16.6251 7.22283 16.6154 7.26957 16.5965L6.84972 15.9849C6.79566 16.0373 6.75881 16.1041 6.74385 16.1769C6.72888 16.2497 6.73647 16.3252 6.76566 16.3937C6.79485 16.4623 6.84431 16.5209 6.90777 16.5621C6.97124 16.6033 7.04584 16.6252 7.12211 16.625ZM10.7591 1.3929L10.7592 1.39364C10.8178 1.652 10.6504 1.90491 10.3904 1.96124M10.7591 1.3929L8.33267 2.55126M10.7591 1.3929C10.7301 1.2697 10.6526 1.16337 10.5444 1.0964C10.4362 1.02948 10.3057 1.00696 10.181 1.03329L10.1803 1.03344C9.41283 1.20117 8.66732 1.4531 7.95809 1.78442M10.7591 1.3929L8.00017 1.87514M10.3904 1.96124L10.3694 1.8639L10.3906 1.96122C10.3905 1.96123 10.3905 1.96123 10.3904 1.96124ZM10.3904 1.96124C9.69424 2.11297 9.01808 2.34131 8.37501 2.64186M8.37501 2.64186C8.3752 2.64177 8.37539 2.64168 8.37558 2.64159L8.33267 2.55126M8.37501 2.64186L8.33267 2.55126M8.37501 2.64186C8.31001 2.67263 8.23878 2.68851 8.16673 2.68839C8.05722 2.68881 7.95051 2.65294 7.8642 2.58619C7.77774 2.51934 7.71679 2.42536 7.69208 2.31947C7.66735 2.21353 7.68054 2.10261 7.72923 2.00518C7.77785 1.9079 7.85877 1.83023 7.95809 1.78442M8.33267 2.55126C8.28096 2.57583 8.22415 2.58853 8.16661 2.58839C8.07904 2.58879 7.99394 2.56011 7.92537 2.50709C7.8568 2.45406 7.80886 2.37986 7.78946 2.29674C7.77006 2.21362 7.78037 2.12654 7.81868 2.04989C7.85699 1.97324 7.92101 1.91159 8.00017 1.87514M7.95809 1.78442C7.95801 1.78446 7.95793 1.7845 7.95784 1.78454L8.00017 1.87514M7.95809 1.78442C7.95817 1.78438 7.95826 1.78434 7.95834 1.78431L8.00017 1.87514M2.64479 9.29663L2.64502 9.29667C2.76991 9.32339 2.90074 9.30095 3.00907 9.23384C3.11749 9.16667 3.19492 9.05992 3.22341 8.93635L3.22344 8.93623C3.37895 8.25771 3.61469 7.59897 3.92596 6.97317L3.92598 6.97318L3.9268 6.97144C3.98057 6.85791 3.98643 6.72814 3.94298 6.61034C3.89957 6.49263 3.81073 6.39704 3.69647 6.34339C3.5823 6.28976 3.45129 6.28198 3.33141 6.32156C3.21148 6.36116 3.1115 6.4453 3.05375 6.55675L3.05373 6.55674L3.05299 6.55824C2.709 7.25017 2.44829 7.9785 2.27604 8.72876L2.27604 8.72879C2.262 8.79002 2.26049 8.85338 2.27161 8.9152C2.28273 8.97702 2.30624 9.03596 2.34067 9.08868C2.37509 9.14139 2.41973 9.1868 2.47193 9.22243C2.52411 9.25805 2.58286 9.28323 2.64479 9.29663ZM12.5161 9.97501C13.1007 9.97501 13.5719 10.4375 13.5719 11C13.5719 11.5625 13.1007 12.025 12.5161 12.025C11.9315 12.025 11.4602 11.5625 11.4602 11C11.4602 10.4375 11.9315 9.97501 12.5161 9.97501Z" fill="#A9A9A9" stroke="#A9A9A9" stroke-width="0.2"/>
<path d="M4.38196 12.4617C4.42714 12.4178 4.46313 12.3655 4.48774 12.3077C4.51239 12.2499 4.52511 12.1878 4.52511 12.125C4.52511 12.0622 4.51239 12.0001 4.48774 11.9423C4.4631 11.8845 4.42707 11.8321 4.38183 11.7882L2.84082 10.2883C2.79567 10.2442 2.74218 10.2095 2.68349 10.1858C2.62481 10.1621 2.562 10.1499 2.49862 10.1499C2.43524 10.1499 2.37243 10.1621 2.31374 10.1858C2.25506 10.2095 2.20157 10.2442 2.15642 10.2883L0.615347 11.7882C0.570166 11.8322 0.534179 11.8845 0.509575 11.9424C0.484968 12.0002 0.472266 12.0622 0.472266 12.125C0.472266 12.1878 0.484968 12.2498 0.509575 12.3076C0.534179 12.3655 0.570166 12.4178 0.615347 12.4618C0.660522 12.5058 0.714006 12.5405 0.772679 12.5641C0.831349 12.5878 0.894139 12.5999 0.95749 12.5999C1.02084 12.5999 1.08363 12.5878 1.1423 12.5641C1.20097 12.5405 1.25446 12.5058 1.29963 12.4618L2.04067 11.7405C2.43171 17.0364 6.9829 21.225 12.516 21.225C18.3047 21.225 23.0186 16.6408 23.0186 11C23.0186 5.35924 18.3047 0.775 12.516 0.775C12.3881 0.775 12.265 0.824406 12.1738 0.913175C12.0825 1.00203 12.0307 1.12314 12.0307 1.25C12.0307 1.37686 12.0825 1.49797 12.1738 1.58683C12.265 1.67559 12.3881 1.725 12.516 1.725C17.7744 1.725 22.048 5.88839 22.048 11C22.048 16.1116 17.7744 20.275 12.516 20.275C7.53585 20.275 3.44045 16.5404 3.0208 11.803L3.6974 12.4616C3.74251 12.5057 3.796 12.5406 3.85472 12.5644L3.89224 12.4717L3.85472 12.5644C3.91344 12.5882 3.97631 12.6004 4.03975 12.6004C4.10319 12.6004 4.16606 12.5882 4.22478 12.5644L4.18725 12.4717L4.22478 12.5644C4.28344 12.5407 4.33688 12.5058 4.38196 12.4617ZM4.38196 12.4617C4.38192 12.4618 4.38187 12.4618 4.38183 12.4618L4.31214 12.3901L4.3821 12.4616C4.38205 12.4616 4.38201 12.4617 4.38196 12.4617ZM6.57277 3.75462L6.57275 3.75464C6.01241 4.18198 5.50722 4.67358 5.06812 5.21873C5.02251 5.27549 4.96437 5.32114 4.89828 5.35241C4.83215 5.38369 4.75969 5.3998 4.68639 5.39962M6.57277 3.75462L4.68664 5.29962M6.57277 3.75462C6.62295 3.71633 6.66507 3.66865 6.69658 3.61422L6.61004 3.56412M6.57277 3.75462L6.61004 3.56412M4.68639 5.39962L4.68664 5.29962M4.68639 5.39962C4.68644 5.39962 4.68649 5.39962 4.68654 5.39962L4.68664 5.29962M4.68639 5.39962C4.59603 5.39951 4.50734 5.37471 4.4304 5.3278L4.48246 5.24242M4.68664 5.29962C4.61442 5.29956 4.54367 5.27973 4.48246 5.24242M4.48246 5.24242L4.4304 5.3278C4.3534 5.28084 4.29113 5.21353 4.25103 5.13324C4.21092 5.05293 4.19473 4.96306 4.20449 4.87397C4.21425 4.78489 4.24952 4.70055 4.30593 4.63052M4.48246 5.24242L4.30593 4.63052M6.61004 3.56412L6.69659 3.61422C6.7281 3.55979 6.74837 3.49971 6.75612 3.43742C6.76387 3.37513 6.75893 3.31198 6.74162 3.25161C6.7243 3.19124 6.69499 3.13495 6.65548 3.0859C6.61597 3.03685 6.56707 2.99602 6.51164 2.96562C6.45622 2.93522 6.39532 2.91581 6.3324 2.9084C6.26949 2.90098 6.20568 2.9057 6.14458 2.92229C6.08348 2.93889 6.02618 2.96709 5.976 3.00538L5.976 3.00538M6.61004 3.56412L5.976 3.00538M5.976 3.00538C5.35435 3.4798 4.79362 4.02543 4.30595 4.6305L4.30593 4.63052M5.976 3.00538L4.30593 4.63052" fill="#A9A9A9" stroke="#A9A9A9" stroke-width="0.2"/>
<mask id="path-3-outside-1_526_4383" maskUnits="userSpaceOnUse" x="3.78906" y="1.375" width="18" height="19" fill="black">
<rect fill="white" x="3.78906" y="1.375" width="18" height="19"/>
<path d="M12.5158 3.875C12.618 3.875 12.716 3.83549 12.7882 3.76516C12.8605 3.69484 12.9011 3.59946 12.9011 3.5V2.75C12.9011 2.65054 12.8605 2.55516 12.7882 2.48484C12.716 2.41451 12.618 2.375 12.5158 2.375C12.4136 2.375 12.3156 2.41451 12.2434 2.48484C12.1711 2.55516 12.1305 2.65054 12.1305 2.75V3.5C12.1305 3.59946 12.1711 3.69484 12.2434 3.76516C12.3156 3.83549 12.4136 3.875 12.5158 3.875ZM12.5158 18.125C12.4136 18.125 12.3156 18.1645 12.2434 18.2348C12.1711 18.3052 12.1305 18.4005 12.1305 18.5V19.25C12.1305 19.3495 12.1711 19.4448 12.2434 19.5152C12.3156 19.5855 12.4136 19.625 12.5158 19.625C12.618 19.625 12.716 19.5855 12.7882 19.5152C12.8605 19.4448 12.9011 19.3495 12.9011 19.25V18.5C12.9011 18.4005 12.8605 18.3052 12.7882 18.2348C12.716 18.1645 12.618 18.125 12.5158 18.125ZM16.035 17.6825L16.4202 18.332C16.4715 18.418 16.5556 18.4807 16.6543 18.5064C16.7529 18.5321 16.858 18.5188 16.9465 18.4692C16.9904 18.4447 17.0288 18.4119 17.0597 18.3728C17.0905 18.3338 17.1131 18.2892 17.1262 18.2416C17.1393 18.194 17.1426 18.1444 17.136 18.0955C17.1294 18.0467 17.1129 17.9996 17.0876 17.957L16.7023 17.3075C16.6508 17.2221 16.5667 17.1599 16.4684 17.1346C16.37 17.1093 16.2654 17.1229 16.1772 17.1724C16.0891 17.2219 16.0247 17.3033 15.9981 17.3989C15.9714 17.4945 15.9847 17.5964 16.035 17.6825ZM18.9962 15.0748L19.6635 15.4498C19.7074 15.4745 19.7558 15.4906 19.806 15.4972C19.8562 15.5037 19.9073 15.5004 19.9562 15.4877C20.0051 15.4749 20.051 15.4529 20.0912 15.4228C20.1313 15.3928 20.165 15.3553 20.1902 15.3125C20.2413 15.2264 20.2552 15.124 20.2287 15.028C20.2023 14.9319 20.1377 14.85 20.0492 14.8002L19.3819 14.4252C19.2934 14.3755 19.1882 14.3619 19.0895 14.3877C18.9908 14.4134 18.9066 14.4762 18.8554 14.5623C18.8043 14.6484 18.7904 14.7508 18.8168 14.8469C18.8432 14.943 18.9077 15.025 18.9962 15.0748ZM19.8362 11C19.8362 11.0995 19.8767 11.1948 19.949 11.2652C20.0213 11.3355 20.1193 11.375 20.2214 11.375H20.992C21.0942 11.375 21.1922 11.3355 21.2644 11.2652C21.3367 11.1948 21.3773 11.0995 21.3773 11C21.3773 10.9005 21.3367 10.8052 21.2644 10.7348C21.1922 10.6645 21.0942 10.625 20.992 10.625H20.2214C20.1193 10.625 20.0213 10.6645 19.949 10.7348C19.8767 10.8052 19.8362 10.9005 19.8362 11ZM5.65006 14.4252L4.98275 14.8002C4.90898 14.8414 4.85126 14.9051 4.8186 14.9815C4.78594 15.0578 4.78019 15.1426 4.80223 15.2225C4.82427 15.3024 4.87287 15.373 4.94045 15.4232C5.00802 15.4734 5.09077 15.5004 5.17578 15.5C5.24128 15.5 5.30755 15.4839 5.36803 15.4498L6.03534 15.0748C6.07951 15.0503 6.11828 15.0176 6.14941 14.9785C6.18054 14.9394 6.20343 14.8947 6.21674 14.847C6.23005 14.7993 6.23353 14.7495 6.22698 14.7004C6.22043 14.6514 6.20398 14.6041 6.17858 14.5613C6.15317 14.5184 6.11931 14.4809 6.07895 14.4509C6.03859 14.4208 5.99252 14.3989 5.94339 14.3862C5.89427 14.3736 5.84306 14.3705 5.79272 14.3772C5.74238 14.3839 5.69389 14.4002 5.65006 14.4252ZM19.6639 6.55025L18.9966 6.92525C18.9228 6.96635 18.8651 7.03007 18.8325 7.10646C18.7998 7.18285 18.7941 7.26761 18.8161 7.34752C18.8381 7.42743 18.8867 7.49799 18.9543 7.54818C19.0219 7.59838 19.1046 7.62539 19.1896 7.625C19.2551 7.625 19.3214 7.60887 19.3819 7.57475L20.0492 7.19975C20.0934 7.17531 20.1322 7.1426 20.1633 7.10352C20.1944 7.06443 20.2173 7.01974 20.2306 6.97201C20.2439 6.92428 20.2474 6.87446 20.2409 6.82542C20.2343 6.77638 20.2179 6.72908 20.1924 6.68625C20.167 6.64342 20.1332 6.60591 20.0928 6.57587C20.0525 6.54583 20.0064 6.52385 19.9573 6.51121C19.9081 6.49857 19.8569 6.49551 19.8066 6.50221C19.7563 6.50891 19.7078 6.52524 19.6639 6.55025ZM8.32931 17.3075L7.94403 17.957C7.89375 18.0431 7.88048 18.145 7.90714 18.2406C7.9338 18.3362 7.99821 18.4176 8.08632 18.4671C8.17443 18.5166 8.27908 18.5302 8.37744 18.5049C8.4758 18.4796 8.55989 18.4174 8.61134 18.332L8.99662 17.6825C9.04691 17.5964 9.06017 17.4945 9.03351 17.3989C9.00686 17.3033 8.94245 17.2219 8.85434 17.1724C8.76623 17.1229 8.66157 17.1093 8.56321 17.1346C8.46485 17.1599 8.38077 17.2221 8.32931 17.3075ZM16.176 4.82975C16.2645 4.87948 16.3696 4.89295 16.4683 4.86721C16.567 4.84147 16.6512 4.77863 16.7023 4.6925L17.0876 4.043C17.1378 3.95692 17.1511 3.85497 17.1244 3.7594C17.0978 3.66383 17.0334 3.58241 16.9453 3.5329C16.8572 3.48338 16.7525 3.4698 16.6541 3.49511C16.5558 3.52042 16.4717 3.58257 16.4202 3.668L16.035 4.3175C16.0096 4.36013 15.9931 4.40722 15.9865 4.45605C15.9799 4.50488 15.9832 4.55451 15.9963 4.60209C16.0094 4.64967 16.032 4.69427 16.0629 4.73333C16.0937 4.7724 16.1321 4.80516 16.176 4.82975Z"/>
</mask>
<path d="M12.5158 3.875C12.618 3.875 12.716 3.83549 12.7882 3.76516C12.8605 3.69484 12.9011 3.59946 12.9011 3.5V2.75C12.9011 2.65054 12.8605 2.55516 12.7882 2.48484C12.716 2.41451 12.618 2.375 12.5158 2.375C12.4136 2.375 12.3156 2.41451 12.2434 2.48484C12.1711 2.55516 12.1305 2.65054 12.1305 2.75V3.5C12.1305 3.59946 12.1711 3.69484 12.2434 3.76516C12.3156 3.83549 12.4136 3.875 12.5158 3.875ZM12.5158 18.125C12.4136 18.125 12.3156 18.1645 12.2434 18.2348C12.1711 18.3052 12.1305 18.4005 12.1305 18.5V19.25C12.1305 19.3495 12.1711 19.4448 12.2434 19.5152C12.3156 19.5855 12.4136 19.625 12.5158 19.625C12.618 19.625 12.716 19.5855 12.7882 19.5152C12.8605 19.4448 12.9011 19.3495 12.9011 19.25V18.5C12.9011 18.4005 12.8605 18.3052 12.7882 18.2348C12.716 18.1645 12.618 18.125 12.5158 18.125ZM16.035 17.6825L16.4202 18.332C16.4715 18.418 16.5556 18.4807 16.6543 18.5064C16.7529 18.5321 16.858 18.5188 16.9465 18.4692C16.9904 18.4447 17.0288 18.4119 17.0597 18.3728C17.0905 18.3338 17.1131 18.2892 17.1262 18.2416C17.1393 18.194 17.1426 18.1444 17.136 18.0955C17.1294 18.0467 17.1129 17.9996 17.0876 17.957L16.7023 17.3075C16.6508 17.2221 16.5667 17.1599 16.4684 17.1346C16.37 17.1093 16.2654 17.1229 16.1772 17.1724C16.0891 17.2219 16.0247 17.3033 15.9981 17.3989C15.9714 17.4945 15.9847 17.5964 16.035 17.6825ZM18.9962 15.0748L19.6635 15.4498C19.7074 15.4745 19.7558 15.4906 19.806 15.4972C19.8562 15.5037 19.9073 15.5004 19.9562 15.4877C20.0051 15.4749 20.051 15.4529 20.0912 15.4228C20.1313 15.3928 20.165 15.3553 20.1902 15.3125C20.2413 15.2264 20.2552 15.124 20.2287 15.028C20.2023 14.9319 20.1377 14.85 20.0492 14.8002L19.3819 14.4252C19.2934 14.3755 19.1882 14.3619 19.0895 14.3877C18.9908 14.4134 18.9066 14.4762 18.8554 14.5623C18.8043 14.6484 18.7904 14.7508 18.8168 14.8469C18.8432 14.943 18.9077 15.025 18.9962 15.0748ZM19.8362 11C19.8362 11.0995 19.8767 11.1948 19.949 11.2652C20.0213 11.3355 20.1193 11.375 20.2214 11.375H20.992C21.0942 11.375 21.1922 11.3355 21.2644 11.2652C21.3367 11.1948 21.3773 11.0995 21.3773 11C21.3773 10.9005 21.3367 10.8052 21.2644 10.7348C21.1922 10.6645 21.0942 10.625 20.992 10.625H20.2214C20.1193 10.625 20.0213 10.6645 19.949 10.7348C19.8767 10.8052 19.8362 10.9005 19.8362 11ZM5.65006 14.4252L4.98275 14.8002C4.90898 14.8414 4.85126 14.9051 4.8186 14.9815C4.78594 15.0578 4.78019 15.1426 4.80223 15.2225C4.82427 15.3024 4.87287 15.373 4.94045 15.4232C5.00802 15.4734 5.09077 15.5004 5.17578 15.5C5.24128 15.5 5.30755 15.4839 5.36803 15.4498L6.03534 15.0748C6.07951 15.0503 6.11828 15.0176 6.14941 14.9785C6.18054 14.9394 6.20343 14.8947 6.21674 14.847C6.23005 14.7993 6.23353 14.7495 6.22698 14.7004C6.22043 14.6514 6.20398 14.6041 6.17858 14.5613C6.15317 14.5184 6.11931 14.4809 6.07895 14.4509C6.03859 14.4208 5.99252 14.3989 5.94339 14.3862C5.89427 14.3736 5.84306 14.3705 5.79272 14.3772C5.74238 14.3839 5.69389 14.4002 5.65006 14.4252ZM19.6639 6.55025L18.9966 6.92525C18.9228 6.96635 18.8651 7.03007 18.8325 7.10646C18.7998 7.18285 18.7941 7.26761 18.8161 7.34752C18.8381 7.42743 18.8867 7.49799 18.9543 7.54818C19.0219 7.59838 19.1046 7.62539 19.1896 7.625C19.2551 7.625 19.3214 7.60887 19.3819 7.57475L20.0492 7.19975C20.0934 7.17531 20.1322 7.1426 20.1633 7.10352C20.1944 7.06443 20.2173 7.01974 20.2306 6.97201C20.2439 6.92428 20.2474 6.87446 20.2409 6.82542C20.2343 6.77638 20.2179 6.72908 20.1924 6.68625C20.167 6.64342 20.1332 6.60591 20.0928 6.57587C20.0525 6.54583 20.0064 6.52385 19.9573 6.51121C19.9081 6.49857 19.8569 6.49551 19.8066 6.50221C19.7563 6.50891 19.7078 6.52524 19.6639 6.55025ZM8.32931 17.3075L7.94403 17.957C7.89375 18.0431 7.88048 18.145 7.90714 18.2406C7.9338 18.3362 7.99821 18.4176 8.08632 18.4671C8.17443 18.5166 8.27908 18.5302 8.37744 18.5049C8.4758 18.4796 8.55989 18.4174 8.61134 18.332L8.99662 17.6825C9.04691 17.5964 9.06017 17.4945 9.03351 17.3989C9.00686 17.3033 8.94245 17.2219 8.85434 17.1724C8.76623 17.1229 8.66157 17.1093 8.56321 17.1346C8.46485 17.1599 8.38077 17.2221 8.32931 17.3075ZM16.176 4.82975C16.2645 4.87948 16.3696 4.89295 16.4683 4.86721C16.567 4.84147 16.6512 4.77863 16.7023 4.6925L17.0876 4.043C17.1378 3.95692 17.1511 3.85497 17.1244 3.7594C17.0978 3.66383 17.0334 3.58241 16.9453 3.5329C16.8572 3.48338 16.7525 3.4698 16.6541 3.49511C16.5558 3.52042 16.4717 3.58257 16.4202 3.668L16.035 4.3175C16.0096 4.36013 15.9931 4.40722 15.9865 4.45605C15.9799 4.50488 15.9832 4.55451 15.9963 4.60209C16.0094 4.64967 16.032 4.69427 16.0629 4.73333C16.0937 4.7724 16.1321 4.80516 16.176 4.82975Z" fill="#A9A9A9"/>
<path d="M12.5158 3.875C12.618 3.875 12.716 3.83549 12.7882 3.76516C12.8605 3.69484 12.9011 3.59946 12.9011 3.5V2.75C12.9011 2.65054 12.8605 2.55516 12.7882 2.48484C12.716 2.41451 12.618 2.375 12.5158 2.375C12.4136 2.375 12.3156 2.41451 12.2434 2.48484C12.1711 2.55516 12.1305 2.65054 12.1305 2.75V3.5C12.1305 3.59946 12.1711 3.69484 12.2434 3.76516C12.3156 3.83549 12.4136 3.875 12.5158 3.875ZM12.5158 18.125C12.4136 18.125 12.3156 18.1645 12.2434 18.2348C12.1711 18.3052 12.1305 18.4005 12.1305 18.5V19.25C12.1305 19.3495 12.1711 19.4448 12.2434 19.5152C12.3156 19.5855 12.4136 19.625 12.5158 19.625C12.618 19.625 12.716 19.5855 12.7882 19.5152C12.8605 19.4448 12.9011 19.3495 12.9011 19.25V18.5C12.9011 18.4005 12.8605 18.3052 12.7882 18.2348C12.716 18.1645 12.618 18.125 12.5158 18.125ZM16.035 17.6825L16.4202 18.332C16.4715 18.418 16.5556 18.4807 16.6543 18.5064C16.7529 18.5321 16.858 18.5188 16.9465 18.4692C16.9904 18.4447 17.0288 18.4119 17.0597 18.3728C17.0905 18.3338 17.1131 18.2892 17.1262 18.2416C17.1393 18.194 17.1426 18.1444 17.136 18.0955C17.1294 18.0467 17.1129 17.9996 17.0876 17.957L16.7023 17.3075C16.6508 17.2221 16.5667 17.1599 16.4684 17.1346C16.37 17.1093 16.2654 17.1229 16.1772 17.1724C16.0891 17.2219 16.0247 17.3033 15.9981 17.3989C15.9714 17.4945 15.9847 17.5964 16.035 17.6825ZM18.9962 15.0748L19.6635 15.4498C19.7074 15.4745 19.7558 15.4906 19.806 15.4972C19.8562 15.5037 19.9073 15.5004 19.9562 15.4877C20.0051 15.4749 20.051 15.4529 20.0912 15.4228C20.1313 15.3928 20.165 15.3553 20.1902 15.3125C20.2413 15.2264 20.2552 15.124 20.2287 15.028C20.2023 14.9319 20.1377 14.85 20.0492 14.8002L19.3819 14.4252C19.2934 14.3755 19.1882 14.3619 19.0895 14.3877C18.9908 14.4134 18.9066 14.4762 18.8554 14.5623C18.8043 14.6484 18.7904 14.7508 18.8168 14.8469C18.8432 14.943 18.9077 15.025 18.9962 15.0748ZM19.8362 11C19.8362 11.0995 19.8767 11.1948 19.949 11.2652C20.0213 11.3355 20.1193 11.375 20.2214 11.375H20.992C21.0942 11.375 21.1922 11.3355 21.2644 11.2652C21.3367 11.1948 21.3773 11.0995 21.3773 11C21.3773 10.9005 21.3367 10.8052 21.2644 10.7348C21.1922 10.6645 21.0942 10.625 20.992 10.625H20.2214C20.1193 10.625 20.0213 10.6645 19.949 10.7348C19.8767 10.8052 19.8362 10.9005 19.8362 11ZM5.65006 14.4252L4.98275 14.8002C4.90898 14.8414 4.85126 14.9051 4.8186 14.9815C4.78594 15.0578 4.78019 15.1426 4.80223 15.2225C4.82427 15.3024 4.87287 15.373 4.94045 15.4232C5.00802 15.4734 5.09077 15.5004 5.17578 15.5C5.24128 15.5 5.30755 15.4839 5.36803 15.4498L6.03534 15.0748C6.07951 15.0503 6.11828 15.0176 6.14941 14.9785C6.18054 14.9394 6.20343 14.8947 6.21674 14.847C6.23005 14.7993 6.23353 14.7495 6.22698 14.7004C6.22043 14.6514 6.20398 14.6041 6.17858 14.5613C6.15317 14.5184 6.11931 14.4809 6.07895 14.4509C6.03859 14.4208 5.99252 14.3989 5.94339 14.3862C5.89427 14.3736 5.84306 14.3705 5.79272 14.3772C5.74238 14.3839 5.69389 14.4002 5.65006 14.4252ZM19.6639 6.55025L18.9966 6.92525C18.9228 6.96635 18.8651 7.03007 18.8325 7.10646C18.7998 7.18285 18.7941 7.26761 18.8161 7.34752C18.8381 7.42743 18.8867 7.49799 18.9543 7.54818C19.0219 7.59838 19.1046 7.62539 19.1896 7.625C19.2551 7.625 19.3214 7.60887 19.3819 7.57475L20.0492 7.19975C20.0934 7.17531 20.1322 7.1426 20.1633 7.10352C20.1944 7.06443 20.2173 7.01974 20.2306 6.97201C20.2439 6.92428 20.2474 6.87446 20.2409 6.82542C20.2343 6.77638 20.2179 6.72908 20.1924 6.68625C20.167 6.64342 20.1332 6.60591 20.0928 6.57587C20.0525 6.54583 20.0064 6.52385 19.9573 6.51121C19.9081 6.49857 19.8569 6.49551 19.8066 6.50221C19.7563 6.50891 19.7078 6.52524 19.6639 6.55025ZM8.32931 17.3075L7.94403 17.957C7.89375 18.0431 7.88048 18.145 7.90714 18.2406C7.9338 18.3362 7.99821 18.4176 8.08632 18.4671C8.17443 18.5166 8.27908 18.5302 8.37744 18.5049C8.4758 18.4796 8.55989 18.4174 8.61134 18.332L8.99662 17.6825C9.04691 17.5964 9.06017 17.4945 9.03351 17.3989C9.00686 17.3033 8.94245 17.2219 8.85434 17.1724C8.76623 17.1229 8.66157 17.1093 8.56321 17.1346C8.46485 17.1599 8.38077 17.2221 8.32931 17.3075ZM16.176 4.82975C16.2645 4.87948 16.3696 4.89295 16.4683 4.86721C16.567 4.84147 16.6512 4.77863 16.7023 4.6925L17.0876 4.043C17.1378 3.95692 17.1511 3.85497 17.1244 3.7594C17.0978 3.66383 17.0334 3.58241 16.9453 3.5329C16.8572 3.48338 16.7525 3.4698 16.6541 3.49511C16.5558 3.52042 16.4717 3.58257 16.4202 3.668L16.035 4.3175C16.0096 4.36013 15.9931 4.40722 15.9865 4.45605C15.9799 4.50488 15.9832 4.55451 15.9963 4.60209C16.0094 4.64967 16.032 4.69427 16.0629 4.73333C16.0937 4.7724 16.1321 4.80516 16.176 4.82975Z" stroke="#A9A9A9" stroke-width="0.4" mask="url(#path-3-outside-1_526_4383)"/>
</svg>
