<svg width="26" height="22" viewBox="0 0 26 22" fill="none" xmlns="http://www.w3.org/2000/svg">
<path d="M19.0983 2.05252L18.8806 1.84659C18.801 1.77122 16.8863 0 13.1539 0C9.42159 0 7.50691 1.77117 7.42725 1.84659L7.20959 2.05252V4.27444H0.472656V21.1494H25.8352V4.27444H19.0983V2.05252ZM8.69568 2.66761C9.22032 2.28577 10.6959 1.40625 13.1539 1.40625C15.614 1.40625 17.0867 2.28422 17.6122 2.66738V4.27444H8.69568V2.66761ZM1.95874 19.7432V13.4151H10.9248V18.7715L13.1539 17.7168L15.3831 18.7715V13.4151H24.3491V19.7432H1.95874ZM12.4109 14.0475C12.6511 14.0938 12.8995 14.1182 13.1539 14.1182C13.4084 14.1182 13.6568 14.0938 13.897 14.0475V16.4962L13.1539 16.1446L12.4109 16.4962V14.0475ZM13.1539 12.7119C11.9248 12.7119 10.9248 11.7657 10.9248 10.6026C10.9248 9.43945 11.9248 8.49319 13.1539 8.49319C14.3831 8.49319 15.3831 9.43945 15.3831 10.6026C15.3831 11.7657 14.3831 12.7119 13.1539 12.7119ZM24.3491 12.0088H16.558C16.7636 11.5655 16.8695 11.0866 16.8692 10.6026C16.8692 8.66405 15.2025 7.08694 13.1539 7.08694C11.1054 7.08694 9.43872 8.66405 9.43872 10.6026C9.43839 11.0866 9.54434 11.5655 9.74986 12.0088H1.95874V5.68069H24.3491V12.0088Z" fill="#A9A9A9"/>
</svg>
