<svg width="25" height="24" viewBox="0 0 25 24" fill="none" xmlns="http://www.w3.org/2000/svg">
<path d="M6.95482 9.20162C6.89151 9.05081 6.78341 8.92181 6.64436 8.83114C6.50531 8.74046 6.34162 8.69222 6.17424 8.6926H6.17342C6.00288 8.69235 5.83629 8.74257 5.69575 8.83659C5.55521 8.93061 5.44735 9.064 5.38648 9.21905L3.37073 14.3704C3.22876 14.7333 3.41586 15.1396 3.78872 15.2777C4.16181 15.416 4.57893 15.2338 4.72091 14.8709L5.04575 14.0408H7.28722L7.60831 14.8689C7.71754 15.1505 7.99239 15.324 8.28433 15.324C8.36905 15.324 8.4553 15.3093 8.53925 15.2785C8.91254 15.1414 9.10094 14.7357 8.96007 14.3724L6.96262 9.22074C6.96015 9.21432 6.95755 9.20794 6.95482 9.20162ZM5.59603 12.6346L6.17164 11.1636L6.742 12.6346H5.59603ZM20.613 10.1227C21.0119 10.1227 21.3354 9.8079 21.3354 9.41958C21.3354 9.03127 21.0119 8.71646 20.613 8.71646H18.3716C17.9727 8.71646 17.6492 9.03127 17.6492 9.41958V14.5969C17.6492 14.9852 17.9727 15.3 18.3716 15.3H20.613C21.0119 15.3 21.3354 14.9852 21.3354 14.5969C21.3354 14.2086 21.0119 13.8938 20.613 13.8938H19.0941V12.7113H20.4477C20.8467 12.7113 21.1701 12.3965 21.1701 12.0082C21.1701 11.6199 20.8467 11.3051 20.4477 11.3051H19.0941V10.1227H20.613ZM12.3294 10.2929C12.6061 10.1542 12.913 10.082 13.2242 10.0824C13.6172 10.0824 13.9962 10.1954 14.3204 10.4082C14.6512 10.6257 15.1001 10.5408 15.3235 10.2193C15.547 9.89724 15.4598 9.46037 15.1295 9.24287C14.5655 8.87208 13.9067 8.67615 13.2242 8.67615C12.9146 8.67615 12.6145 8.71646 12.3294 8.7924C10.8836 9.17584 9.81737 10.4649 9.81737 11.9921C9.81737 13.5188 10.8836 14.8079 12.3294 15.1913C12.621 15.2688 12.922 15.3079 13.2242 15.3076C15.0139 15.3076 16.2636 13.944 16.2636 11.9921C16.2636 11.6035 15.94 11.289 15.5412 11.289H13.9351C13.5363 11.289 13.2127 11.6035 13.2127 11.9921C13.2127 12.3802 13.5363 12.6952 13.9351 12.6952H14.7263C14.5472 13.3421 14.0921 13.9013 13.2242 13.9013C12.902 13.9013 12.5977 13.8254 12.3294 13.6908C11.6961 13.374 11.2622 12.7313 11.2622 11.9921C11.2622 11.2529 11.6961 10.6102 12.3294 10.2929Z" fill="#A9A9A9"/>
<path d="M23.9357 11.2969C23.5369 11.2969 23.2133 11.6119 23.2133 12C23.2133 14.8298 22.081 17.49 20.0255 19.4911C17.9696 21.4917 15.2365 22.5938 12.329 22.5938C9.4216 22.5938 6.6885 21.4917 4.63254 19.4911C2.57706 17.49 1.44481 14.8298 1.44481 12C1.44481 9.17016 2.57706 6.51 4.63254 4.50891C6.6885 2.50828 9.4216 1.40625 12.329 1.40625C13.7868 1.40625 15.2013 1.68187 16.5329 2.22516C17.2934 2.53561 18.015 2.9294 18.6838 3.39891L17.7264 3.51656C17.3305 3.56484 17.0497 3.91687 17.0998 4.30219C17.146 4.6575 17.4567 4.91719 17.8155 4.91719C17.8458 4.91719 17.8761 4.91531 17.907 4.91156L20.4912 4.59469C20.8756 4.56375 21.1814 4.20656 21.1409 3.8325L20.9107 1.30875C20.8756 0.922031 20.5245 0.636094 20.1271 0.670313C19.7298 0.705 19.4365 1.04625 19.4717 1.43297L19.5483 2.27203C18.785 1.73395 17.9607 1.28317 17.0916 0.928594C15.5823 0.312187 13.98 0 12.329 0C9.03583 0 5.93961 1.24828 3.61106 3.51469C1.28251 5.78109 0 8.79469 0 12C0 15.2053 1.28251 18.2189 3.61106 20.4853C5.93961 22.7517 9.03583 24 12.329 24C15.6222 24 18.7185 22.7517 21.047 20.4853C23.3756 18.2189 24.6581 15.2053 24.6581 12C24.6581 11.6119 24.3344 11.2969 23.9357 11.2969Z" fill="#A9A9A9"/>
</svg>
