<svg width="26" height="24" viewBox="0 0 26 24" fill="none" xmlns="http://www.w3.org/2000/svg">
<path d="M6.17251 19.8748H0.541992V4.68762H23.3282V15.2271M14.9418 19.8748H10.6307" stroke="#A9A9A9" stroke-miterlimit="10" stroke-linecap="round" stroke-linejoin="round"/>
<path d="M5.63724 11.1094H3.46457L0.541992 8.34383M16.0534 11.1094H7.81679M23.3282 8.34383L20.4056 11.1094H18.233M16.6682 4.68765H14.6868V2.34395H9.18336V4.68765H7.20195V1.40647C7.20195 0.888704 7.64549 0.468994 8.19266 0.468994H15.6775C16.2247 0.468994 16.6682 0.888704 16.6682 1.40647V4.68765Z" stroke="#A9A9A9" stroke-miterlimit="10" stroke-linecap="round" stroke-linejoin="round"/>
<path d="M19.8858 23.531C22.663 23.531 24.9143 21.4006 24.9143 18.7727C24.9143 16.1448 22.663 14.0144 19.8858 14.0144C17.1087 14.0144 14.8574 16.1448 14.8574 18.7727C14.8574 21.4006 17.1087 23.531 19.8858 23.531Z" stroke="#A9A9A9" stroke-miterlimit="10" stroke-linecap="round" stroke-linejoin="round"/>
<path d="M19.209 18.1322L19.8859 18.7727L22.0405 16.7339M6.72747 12.598C6.12562 12.598 5.6377 12.1363 5.6377 11.5667V10.0668H7.81724V11.5667C7.81724 12.1363 7.32932 12.598 6.72747 12.598ZM17.1436 12.598C17.7455 12.598 18.2334 12.1363 18.2334 11.5667V10.0668H16.0539V11.5667C16.0539 12.1363 16.5418 12.598 17.1436 12.598Z" stroke="#A9A9A9" stroke-miterlimit="10" stroke-linecap="round" stroke-linejoin="round"/>
</svg>
