<svg width="26" height="24" viewBox="0 0 26 24" fill="none" xmlns="http://www.w3.org/2000/svg">
<path d="M6.41107 16.8039V19.7344H4.24386C3.84456 19.7344 3.52145 20.0489 3.52145 20.4375C3.52145 20.8261 3.84456 21.1406 4.24386 21.1406H6.41107V23.2969C6.41107 23.6855 6.73418 24 7.13347 24C7.53277 24 7.85588 23.6855 7.85588 23.2969V21.1406H10.0231C10.4224 21.1406 10.7455 20.8261 10.7455 20.4375C10.7455 20.0489 10.4224 19.7344 10.0231 19.7344H7.85588V16.8068C8.34726 16.7454 8.82713 16.6483 9.2821 16.4919C8.86744 16.156 8.49126 15.7779 8.15404 15.3677C7.81825 15.435 7.4763 15.4688 7.13347 15.4688C4.34543 15.4688 2.07664 13.2605 2.07664 10.5469C2.07664 7.83323 4.34543 5.625 7.13347 5.625C10.0148 5.625 12.1903 8.01708 12.1903 10.5469C12.1903 11.3613 11.9664 12.1187 11.6049 12.7961C11.9207 13.1616 12.3069 13.4616 12.7492 13.678C13.2973 12.7507 13.6351 11.6912 13.6351 10.5469C13.6351 7.2855 10.8794 4.21875 7.13347 4.21875C3.54828 4.21875 0.631836 7.05736 0.631836 10.5469C0.631836 13.7956 3.16916 16.449 6.41107 16.8039Z" fill="#A9A9A9"/>
<path d="M24.5671 0H20.2327C19.8334 0 19.5103 0.314484 19.5103 0.703125C19.5103 1.09177 19.8334 1.40625 20.2327 1.40625H22.8232L18.3927 5.62467C17.2804 4.75861 15.8892 4.21875 14.3571 4.21875C13.6004 4.21875 12.8845 4.36945 12.2085 4.60181C12.6231 4.93777 12.9993 5.31586 13.3365 5.72602C13.6723 5.65875 14.0143 5.62491 14.3571 5.625C17.1452 5.625 19.4139 7.83323 19.4139 10.5469C19.4139 13.2605 17.1452 15.4688 14.3571 15.4688C11.4953 15.4688 9.30028 13.1029 9.30028 10.5469C9.30028 9.73242 9.52417 8.97506 9.88567 8.29767C9.56988 7.93214 9.18373 7.63214 8.74138 7.41577C8.19331 8.343 7.85547 9.40252 7.85547 10.5469C7.85547 13.84 10.6852 16.875 14.3571 16.875C17.9423 16.875 20.8587 14.0364 20.8587 10.5469C20.8587 9.05564 20.3041 7.70161 19.4143 6.61894L23.8447 2.40052V4.92188C23.8447 5.31052 24.1678 5.625 24.5671 5.625C24.9664 5.625 25.2895 5.31052 25.2895 4.92188V0.703125C25.2895 0.318422 24.9655 0 24.5671 0Z" fill="#A9A9A9"/>
</svg>
