<svg width="22" height="24" viewBox="0 0 22 24" fill="none" xmlns="http://www.w3.org/2000/svg">
<path d="M15.0278 15.8571C17.6517 11.8496 17.3219 12.3496 17.3975 12.2451C18.3528 10.9336 18.8577 9.39009 18.8577 7.78125C18.8577 3.51469 15.3005 0 10.9113 0C6.53628 0 2.96481 3.50775 2.96481 7.78125C2.96481 9.38906 3.48032 10.973 4.46693 12.3022L6.79461 15.8572C4.30593 16.2294 0.0751953 17.3387 0.0751953 19.7812C0.0751953 20.6716 0.672286 21.9405 3.51683 22.9293C5.50305 23.6197 8.12909 24 10.9113 24C16.1138 24 21.7473 22.5716 21.7473 19.7812C21.7473 17.3383 17.5215 16.2301 15.0278 15.8571ZM5.67378 11.5287C5.66584 11.5166 5.65754 11.5047 5.64888 11.4931C4.82789 10.3938 4.40962 9.09098 4.40962 7.78125C4.40962 4.26478 7.31879 1.40625 10.9113 1.40625C14.4963 1.40625 17.4129 4.26605 17.4129 7.78125C17.4129 9.09309 17.0025 10.3517 16.2259 11.4221C16.1563 11.5114 16.5194 10.9624 10.9113 19.5276L5.67378 11.5287ZM10.9113 22.5938C5.22863 22.5938 1.52 20.968 1.52 19.7812C1.52 18.9836 3.42561 17.6721 7.6483 17.1609L10.302 21.2138C10.3673 21.3135 10.4573 21.3956 10.5638 21.4525C10.6703 21.5093 10.7898 21.5391 10.9112 21.5391C11.0327 21.5391 11.1521 21.5093 11.2586 21.4525C11.3651 21.3956 11.4551 21.3135 11.5204 21.2138L14.1741 17.1609C18.3969 17.6721 20.3025 18.9836 20.3025 19.7812C20.3025 20.9579 16.6273 22.5938 10.9113 22.5938Z" fill="#A9A9A9"/>
<path d="M10.9108 4.26562C8.91918 4.26562 7.29883 5.84273 7.29883 7.78125C7.29883 9.71977 8.91918 11.2969 10.9108 11.2969C12.9025 11.2969 14.5229 9.71977 14.5229 7.78125C14.5229 5.84273 12.9025 4.26562 10.9108 4.26562ZM10.9108 9.89062C9.71585 9.89062 8.74364 8.94436 8.74364 7.78125C8.74364 6.61814 9.71585 5.67188 10.9108 5.67188C12.1059 5.67188 13.0781 6.61814 13.0781 7.78125C13.0781 8.94436 12.1059 9.89062 10.9108 9.89062Z" fill="#A9A9A9"/>
</svg>
