<svg width="21" height="24" viewBox="0 0 21 24" fill="none" xmlns="http://www.w3.org/2000/svg">
<path d="M20.3405 5.32753C20.3136 5.32753 20.3136 5.30141 20.2868 5.2753C20.26 5.24918 20.26 5.22307 20.2331 5.19695L15.6181 0.156692C15.5913 0.130577 15.5376 0.104461 15.5108 0.078346C15.484 0.078346 15.484 0.0522307 15.4572 0.0522307C15.4035 0.0261153 15.323 0 15.2425 0H3.91964C2.2561 0 0.887695 1.33188 0.887695 2.95103V21.049C0.887695 22.6681 2.2561 24 3.91964 24H17.3353C18.9989 24 20.3673 22.6681 20.3673 21.049V5.51034C20.3673 5.45811 20.3405 5.37976 20.3405 5.32753ZM15.7523 1.77584L18.7306 5.04026H15.7523V1.77584ZM19.3477 21.0229C19.3477 22.1197 18.4623 23.0076 17.3353 23.0076H3.91964C2.79273 23.0076 1.90729 22.1197 1.90729 21.049V2.92492C1.90729 1.82807 2.81956 0.966268 3.91964 0.966268H14.7327V5.51034C14.7327 5.77149 14.9474 6.00653 15.2425 6.00653H19.3477V21.0229Z" fill="#A9A9A9"/>
<path d="M4.5098 6.00654H8.99064C9.25896 6.00654 9.50044 5.79762 9.50044 5.51035C9.50044 5.22308 9.28579 5.01416 8.99064 5.01416H4.5098C4.24148 5.01416 4 5.22308 4 5.51035C4 5.79762 4.24148 6.00654 4.5098 6.00654ZM8.99064 17.9935H4.5098C4.24148 17.9935 4 18.2024 4 18.4897C4 18.7508 4.21465 18.9859 4.5098 18.9859H8.99064C9.25896 18.9859 9.50044 18.7769 9.50044 18.4897C9.50044 18.2285 9.25896 17.9935 8.99064 17.9935ZM4 8.80089C4 9.06204 4.21465 9.29708 4.5098 9.29708H16.4766C16.7449 9.29708 16.9864 9.08815 16.9864 8.80089C16.9864 8.53973 16.7717 8.30469 16.4766 8.30469H4.5098C4.24148 8.30469 4 8.51362 4 8.80089ZM16.4766 10.7595H4.5098C4.24148 10.7595 4 10.9685 4 11.2557C4 11.5169 4.21465 11.7519 4.5098 11.7519H16.4766C16.7449 11.7519 16.9864 11.543 16.9864 11.2557C16.9864 10.9685 16.7717 10.7595 16.4766 10.7595ZM16.4766 13.1883H4.5098C4.24148 13.1883 4 13.3972 4 13.6845C4 13.9456 4.21465 14.1806 4.5098 14.1806H16.4766C16.7449 14.1806 16.9864 13.9717 16.9864 13.6845C16.9864 13.3972 16.7717 13.1883 16.4766 13.1883ZM16.4766 15.617H4.5098C4.24148 15.617 4 15.8259 4 16.1132C4 16.3743 4.21465 16.6094 4.5098 16.6094H16.4766C16.7449 16.6094 16.9864 16.4005 16.9864 16.1132C16.9864 15.852 16.7717 15.617 16.4766 15.617Z" fill="#A9A9A9"/>
</svg>
