<svg width="26" height="24" viewBox="0 0 26 24" fill="none" xmlns="http://www.w3.org/2000/svg">
<path d="M25.2381 11.425C25.1919 11.13 25.1816 11.19 23.1165 9.875C24.9505 3.17 24.9094 3.56 24.7604 3.305C24.6114 3.05 24.8785 3.185 19.0736 1.67V0.5C19.0736 0.367392 19.0195 0.240215 18.9232 0.146447C18.8268 0.0526784 18.6962 0 18.5599 0L7.2583 0C7.12206 0 6.9914 0.0526784 6.89506 0.146447C6.79872 0.240215 6.74459 0.367392 6.74459 0.5V1.67L1.37119 3.07C1.3056 3.08682 1.24408 3.11612 1.19019 3.1562C1.13629 3.19628 1.09108 3.24636 1.05717 3.30353C1.02326 3.36071 1.00132 3.42386 0.99262 3.48933C0.983915 3.5548 0.988618 3.62131 1.00646 3.685L2.71197 9.875C0.687957 11.16 0.657135 11.12 0.595489 11.375C0.580078 11.5 0.580078 10.945 0.580078 22C0.580078 22.5304 0.796569 23.0391 1.18193 23.4142C1.56728 23.7893 2.08994 24 2.63492 24H23.1833C23.7283 24 24.2509 23.7893 24.6363 23.4142C25.0217 23.0391 25.2381 22.5304 25.2381 22V11.425ZM18.0719 16.32L24.2364 12.425C24.2364 22.88 24.2364 22.055 24.2004 22.255L18.0719 16.32ZM23.7843 11.5L22.4179 12.365L22.8237 10.89L23.7843 11.5ZM23.697 3.91C23.4299 4.88 24.6576 0.410001 21.1285 13.185L19.0736 14.5V4.775L20.2603 5.085C20.2804 5.30736 20.3502 5.52276 20.4646 5.71619C20.5791 5.90963 20.7355 6.07644 20.923 6.205L20.2346 8.705C20.1992 8.83363 20.2177 8.97069 20.2861 9.08602C20.3545 9.20136 20.4672 9.28552 20.5993 9.32C20.7315 9.35448 20.8723 9.33645 20.9908 9.26987C21.1093 9.2033 21.1958 9.09363 21.2312 8.965L22.0275 6.07C22.045 6.00496 22.0489 5.93714 22.0389 5.8706C22.0289 5.80406 22.0052 5.74017 21.9692 5.68276C21.9332 5.62534 21.8857 5.57558 21.8295 5.53644C21.7733 5.49731 21.7096 5.46961 21.6422 5.455C21.577 5.43764 21.5161 5.40796 21.4627 5.36764C21.4094 5.32733 21.3648 5.27718 21.3314 5.22006C21.298 5.16294 21.2765 5.09997 21.2681 5.03476C21.2597 4.96954 21.2646 4.90336 21.2826 4.84C21.3004 4.77631 21.3051 4.7098 21.2964 4.64433C21.2877 4.57886 21.2658 4.51571 21.2319 4.45853C21.198 4.40136 21.1527 4.35128 21.0988 4.3112C21.045 4.27112 20.9834 4.24182 20.9178 4.225L19.0736 3.74V2.705L23.697 3.91ZM18.0462 1V15.14L12.9091 18.405L7.77201 15.14V1H18.0462ZM1.64346 22.255C1.6075 22.055 1.6075 22.865 1.6075 12.425L7.77201 16.32L1.64346 22.255ZM6.74459 2.705V3.74L4.87983 4.24C4.81424 4.25682 4.75272 4.28612 4.69882 4.3262C4.64493 4.36628 4.59972 4.41636 4.56581 4.47353C4.5319 4.53071 4.50996 4.59386 4.50126 4.65933C4.49255 4.7248 4.49725 4.79131 4.51509 4.855C4.54761 4.97822 4.53065 5.10888 4.46766 5.22036C4.40466 5.33183 4.30038 5.41574 4.17605 5.455C4.04471 5.48904 3.93259 5.57234 3.86422 5.68667C3.79586 5.801 3.77684 5.93704 3.81131 6.065L4.58701 8.96C4.62244 9.08863 4.70891 9.1983 4.82741 9.26487C4.9459 9.33145 5.08672 9.34948 5.21888 9.315C5.35103 9.28052 5.46371 9.19636 5.53211 9.08102C5.60051 8.96569 5.61903 8.82863 5.58361 8.7L4.89524 6.2C5.08272 6.07144 5.23914 5.90463 5.35359 5.71119C5.46805 5.51776 5.53778 5.30236 5.55792 5.08L6.74459 4.775V14.5L4.68976 13.185C4.29934 11.775 2.5219 5.32 2.12121 3.91L6.74459 2.705ZM3.40034 12.365L2.03388 11.5L2.99451 10.89L3.40034 12.365ZM2.37292 22.965L8.62477 16.875C12.7755 19.515 12.791 19.675 13.1917 19.42L17.1934 16.875L23.4453 22.965C23.1833 23.03 2.58355 23 2.37292 22.965Z" fill="#A9A9A9"/>
<path d="M9.82722 6.5V3.915C10.0442 3.84045 10.2412 3.71957 10.4039 3.56124C10.5665 3.40291 10.6907 3.21114 10.7673 3H15.0517C15.1282 3.21114 15.2524 3.40291 15.4151 3.56124C15.5778 3.71957 15.7748 3.84045 15.9917 3.915V6.5C15.9917 6.63261 16.0459 6.75979 16.1422 6.85355C16.2385 6.94732 16.3692 7 16.5054 7C16.6417 7 16.7724 6.94732 16.8687 6.85355C16.965 6.75979 17.0192 6.63261 17.0192 6.5V3.5C17.0192 3.36739 16.965 3.24022 16.8687 3.14645C16.7724 3.05268 16.6417 3 16.5054 3C16.3692 3 16.2385 2.94732 16.1422 2.85355C16.0459 2.75979 15.9917 2.63261 15.9917 2.5C15.9917 2.36739 15.9376 2.24021 15.8413 2.14645C15.7449 2.05268 15.6143 2 15.478 2H10.3409C10.2047 2 10.074 2.05268 9.97769 2.14645C9.88135 2.24021 9.82722 2.36739 9.82722 2.5C9.82722 2.63261 9.7731 2.75979 9.67676 2.85355C9.58042 2.94732 9.44976 3 9.31351 3C9.17727 3 9.04661 3.05268 8.95027 3.14645C8.85393 3.24022 8.7998 3.36739 8.7998 3.5V6.5C8.7998 6.63261 8.85393 6.75979 8.95027 6.85355C9.04661 6.94732 9.17727 7 9.31351 7C9.44976 7 9.58042 6.94732 9.67676 6.85355C9.7731 6.75979 9.82722 6.63261 9.82722 6.5Z" fill="#A9A9A9"/>
<path d="M12.9095 15C13.7223 15 14.5169 14.7654 15.1927 14.3258C15.8685 13.8863 16.3953 13.2616 16.7063 12.5307C17.0174 11.7998 17.0988 10.9955 16.9402 10.2196C16.7816 9.44367 16.3902 8.73093 15.8155 8.17152C15.2407 7.61211 14.5084 7.23115 13.7112 7.07681C12.914 6.92247 12.0877 7.00168 11.3368 7.30443C10.5858 7.60718 9.94399 8.11987 9.49241 8.77767C9.04083 9.43547 8.7998 10.2088 8.7998 11C8.7998 12.0608 9.23279 13.0782 10.0035 13.8284C10.7742 14.5785 11.8195 15 12.9095 15ZM12.9095 7.99995C13.5191 7.99995 14.115 8.1759 14.6219 8.50554C15.1288 8.83519 15.5238 9.30372 15.7571 9.8519C15.9904 10.4001 16.0514 11.0033 15.9325 11.5852C15.8136 12.1672 15.52 12.7017 15.089 13.1213C14.6579 13.5408 14.1087 13.8266 13.5108 13.9423C12.9129 14.0581 12.2932 13.9987 11.73 13.7716C11.1667 13.5445 10.6854 13.16 10.3467 12.6667C10.008 12.1733 9.82722 11.5933 9.82722 11C9.82722 10.2043 10.152 9.44124 10.73 8.87863C11.308 8.31602 12.092 7.99995 12.9095 7.99995ZM12.7143 4.53995C12.6281 4.57442 12.5531 4.63107 12.4975 4.70383C12.4418 4.77658 12.4075 4.86271 12.3983 4.95297C12.3891 5.04324 12.4053 5.13425 12.4451 5.21625C12.485 5.29825 12.547 5.36815 12.6245 5.41847C12.7021 5.46878 12.7922 5.49762 12.8853 5.50189C12.9784 5.50616 13.071 5.48569 13.153 5.44269C13.2351 5.39969 13.3036 5.33577 13.3512 5.25778C13.3988 5.17978 13.4237 5.09066 13.4232 4.99995C13.4228 4.91806 13.4017 4.83752 13.3618 4.76542C13.3219 4.69331 13.2645 4.63184 13.1944 4.58642C13.1244 4.54099 13.044 4.513 12.9603 4.50489C12.8766 4.49679 12.7921 4.50883 12.7143 4.53995Z" fill="#A9A9A9"/>
</svg>
