<svg width="24" height="22" viewBox="0 0 24 22" fill="none" xmlns="http://www.w3.org/2000/svg">
<path d="M14.2168 13.25V12.8107C14.014 12.7392 13.836 12.611 13.7039 12.4413C13.5718 12.2717 13.491 12.0677 13.4713 11.8536C13.4516 11.6395 13.4937 11.4242 13.5926 11.2333C13.6915 11.0423 13.843 10.8838 14.0293 10.7764M14.2168 13.25L13.9195 10.1507M14.2168 13.25C14.2171 13.5483 14.3358 13.8342 14.5467 14.0451C14.7576 14.256 15.0435 14.3747 15.3418 14.375M14.2168 13.25L15.3418 14.375M14.0293 10.7764V10.2757C14.03 10.2438 14.0231 10.2122 14.0092 10.1834C13.9953 10.1547 13.9747 10.1297 13.9492 10.1104L13.9191 10.1503C13.9193 10.1505 13.9194 10.1506 13.9195 10.1507M14.0293 10.7764H13.9793V10.7479M14.0293 10.7764L14.0043 10.733C13.9959 10.7379 13.9876 10.7428 13.9793 10.7479M13.9195 10.1507C13.4155 9.78743 13.005 9.30956 12.722 8.75647C12.4389 8.20322 12.2915 7.59058 12.2918 6.9691M13.9195 10.1507C13.9385 10.1651 13.9538 10.1838 13.9642 10.2052C13.9747 10.2268 13.9798 10.2506 13.9793 10.2746L13.9793 10.2746V10.2757V10.7479M12.2918 6.9691C12.2878 4.85246 13.967 3.10486 16.0376 3.07533M12.2918 6.9691C12.2918 6.96908 12.2918 6.96906 12.2918 6.96904L12.3418 6.96907L12.2918 6.96917C12.2918 6.96915 12.2918 6.96912 12.2918 6.9691ZM16.0376 3.07533C16.5361 3.06759 17.0311 3.15986 17.4933 3.34667C17.9556 3.53348 18.3757 3.81105 18.7288 4.16297C19.1338 4.56561 19.4466 5.05143 19.6454 5.58683C19.8442 6.12223 19.9243 6.69442 19.8801 7.26383C19.836 7.83323 19.6687 8.38626 19.3898 8.88464C19.111 9.38292 18.7273 9.81469 18.2652 10.1501C18.2459 10.1645 18.2303 10.1833 18.2198 10.2049C18.2091 10.2266 18.2038 10.2506 18.2043 10.2747L18.2043 10.2757H18.2043V10.7476C18.3874 10.8594 18.5366 11.0192 18.6355 11.21C18.7387 11.4095 18.7827 11.6343 18.7621 11.858C18.7415 12.0816 18.6572 12.2946 18.5192 12.4718C18.3884 12.6396 18.2148 12.7686 18.0168 12.8453V13.25V13.2501C18.0164 13.5616 17.8925 13.8602 17.6723 14.0805C17.452 14.3007 17.1534 14.4246 16.8419 14.425H16.8418H15.3418H15.3417C15.0302 14.4246 14.7316 14.3007 14.5113 14.0805C14.2911 13.8602 14.1672 13.5616 14.1668 13.25L14.1668 13.25L14.1668 12.8455C13.9689 12.7689 13.7952 12.6399 13.6645 12.4721C13.5264 12.2949 13.4421 12.0818 13.4215 11.8582C13.4009 11.6346 13.4449 11.4097 13.5482 11.2103C13.647 11.0195 13.7962 10.8596 13.9793 10.7479M16.0376 3.07533C16.0376 3.07533 16.0376 3.07533 16.0376 3.07533L16.0383 3.12532L16.0375 3.07533C16.0376 3.07533 16.0376 3.07533 16.0376 3.07533ZM15.3418 14.375H16.8418M15.3418 14.375H16.8418M16.8418 14.375C17.1401 14.3746 17.426 14.256 17.6369 14.0451C17.8478 13.8342 17.9665 13.5483 17.9668 13.25L16.8418 14.375ZM13.142 6.96762L13.142 6.96778C13.1413 7.45422 13.2563 7.93386 13.4775 8.3671C13.6987 8.80033 14.0197 9.17475 14.4142 9.45945L14.4142 9.45946C14.5433 9.55276 14.6483 9.67549 14.7206 9.81748C14.7928 9.95945 14.8301 10.1166 14.8295 10.2759V10.2757H14.7795L14.8295 10.2759L14.8295 10.575H17.3545L17.3545 10.276C17.3545 10.276 17.3545 10.2759 17.3545 10.2759V10.2759H17.4045L13.142 6.96762ZM13.142 6.96762C13.1389 5.31182 14.4448 3.9482 16.05 3.92532L16.0711 3.92515L16.092 3.92499C16.8568 3.92498 17.5904 4.22821 18.1319 4.76821L18.1319 4.76823M13.142 6.96762L18.1319 4.76823M18.1319 4.76823C18.4488 5.08386 18.6934 5.46445 18.8489 5.88377M18.1319 4.76823L18.8489 5.88377M18.8489 5.88377C19.0045 6.30308 19.0672 6.75114 19.0328 7.19705M18.8489 5.88377L19.0328 7.19705M19.0328 7.19705C18.9985 7.64295 18.8678 8.0761 18.6498 8.46663M19.0328 7.19705L18.6498 8.46663M18.6498 8.46663C18.4319 8.85711 18.1319 9.19569 17.7705 9.45902L18.6498 8.46663ZM16.8419 13.575H15.342C15.2559 13.5749 15.1732 13.5406 15.1123 13.4797C15.0514 13.4187 15.0171 13.3361 15.017 13.2499V12.925H17.167V13.2499C17.1669 13.3361 17.1326 13.4187 17.0717 13.4797C17.0107 13.5406 16.9281 13.5749 16.8419 13.575ZM17.592 12.075H14.592C14.5058 12.075 14.4231 12.0408 14.3622 11.9798C14.3012 11.9189 14.267 11.8362 14.267 11.75C14.267 11.6638 14.3012 11.5811 14.3622 11.5202C14.4231 11.4592 14.5058 11.425 14.592 11.425H17.592C17.6782 11.425 17.7609 11.4592 17.8218 11.5202C17.8827 11.5811 17.917 11.6638 17.917 11.75C17.917 11.8362 17.8827 11.9189 17.8218 11.9798C17.7609 12.0408 17.6782 12.075 17.592 12.075Z" fill="#A9A9A9" stroke="#A9A9A9" stroke-width="0.1"/>
<mask id="path-2-outside-1_2204_9167" maskUnits="userSpaceOnUse" x="-0.25" y="-0.125" width="24" height="23" fill="black">
<rect fill="white" x="-0.25" y="-0.125" width="24" height="23"/>
<path d="M16.7002 5.4942C16.936 5.59315 17.1463 5.74416 17.3155 5.93594C17.4847 6.12771 17.6082 6.35527 17.677 6.60158C17.7051 6.69598 17.7692 6.77554 17.8554 6.82308C17.9417 6.87061 18.0432 6.8823 18.138 6.85562C18.2328 6.82894 18.3133 6.76603 18.3621 6.68048C18.4109 6.59493 18.4241 6.49362 18.3989 6.39842C18.2989 6.04253 18.1196 5.71387 17.8746 5.43706C17.6296 5.16025 17.3251 4.94245 16.984 4.79998C16.8919 4.76233 16.7887 4.76278 16.697 4.80125C16.6053 4.83971 16.5326 4.91303 16.4949 5.00509C16.4573 5.09714 16.4577 5.20038 16.4962 5.2921C16.5346 5.38382 16.608 5.4565 16.7 5.49416L16.7002 5.4942ZM16.4672 2V1.25C16.4672 1.15054 16.4277 1.05516 16.3574 0.984835C16.287 0.914509 16.1916 0.875 16.0922 0.875C15.9927 0.875 15.8973 0.914509 15.827 0.984835C15.7567 1.05516 15.7172 1.15054 15.7172 1.25V2C15.7172 2.09946 15.7567 2.19484 15.827 2.26516C15.8973 2.33549 15.9927 2.375 16.0922 2.375C16.1916 2.375 16.287 2.33549 16.3574 2.26516C16.4277 2.19484 16.4672 2.09946 16.4672 2ZM13.957 2.82898C14.0194 2.82887 14.0809 2.81316 14.1357 2.78329C14.1906 2.75342 14.2371 2.71033 14.2711 2.65793C14.3051 2.60552 14.3254 2.54547 14.3304 2.4832C14.3353 2.42094 14.3245 2.35843 14.2992 2.30136L13.9941 1.61619C13.9537 1.52533 13.8788 1.45426 13.7859 1.41862C13.6931 1.38298 13.5899 1.38568 13.499 1.42613C13.4081 1.46659 13.3371 1.54148 13.3014 1.63433C13.2658 1.72718 13.2685 1.83039 13.3089 1.92125L13.614 2.60642C13.6435 2.67273 13.6916 2.72905 13.7525 2.76856C13.8134 2.80806 13.8844 2.82905 13.957 2.82898ZM12.1905 4.11209C12.2664 4.11212 12.3404 4.08914 12.403 4.04619C12.4655 4.00324 12.5135 3.94233 12.5407 3.87152C12.5679 3.8007 12.573 3.7233 12.5553 3.64954C12.5376 3.57578 12.4979 3.50912 12.4415 3.45837L11.8842 2.95653C11.8102 2.88998 11.7129 2.85553 11.6136 2.86075C11.5142 2.86597 11.421 2.91044 11.3545 2.98438C11.2879 3.05831 11.2535 3.15565 11.2587 3.25499C11.2639 3.35432 11.3084 3.44751 11.3823 3.51406L11.9397 4.01562C12.0084 4.07778 12.0978 4.11216 12.1905 4.11209ZM11.4557 5.74348C11.4865 5.64889 11.4783 5.54598 11.4332 5.45737C11.388 5.36875 11.3095 5.30171 11.2149 5.27098L10.5016 5.03928C10.4547 5.02372 10.4052 5.01759 10.3559 5.02124C10.3066 5.0249 10.2585 5.03827 10.2144 5.06058C10.1702 5.0829 10.131 5.11371 10.0988 5.15126C10.0666 5.18881 10.0422 5.23234 10.0269 5.27936C10.0117 5.32639 10.0058 5.37596 10.0098 5.42524C10.0138 5.47452 10.0274 5.52254 10.05 5.56652C10.0726 5.6105 10.1036 5.64958 10.1414 5.68151C10.1791 5.71344 10.2228 5.73759 10.2699 5.75258L10.9832 5.98438C11.0301 5.99965 11.0795 6.00554 11.1286 6.0017C11.1777 5.99786 11.2256 5.98437 11.2694 5.96201C11.3133 5.93964 11.3524 5.90883 11.3843 5.87135C11.4163 5.83387 11.4406 5.79045 11.4557 5.74358V5.74348ZM10.8317 7.42583L10.0858 7.50425C10.0366 7.50907 9.98879 7.52359 9.94519 7.54696C9.90159 7.57034 9.86305 7.6021 9.83178 7.64044C9.80052 7.67877 9.77714 7.72291 9.76301 7.77032C9.74887 7.81772 9.74426 7.86746 9.74943 7.91665C9.7546 7.96585 9.76945 8.01354 9.79313 8.05697C9.81681 8.1004 9.84885 8.13872 9.8874 8.16971C9.92595 8.20071 9.97026 8.22377 10.0178 8.23758C10.0653 8.25138 10.115 8.25564 10.1642 8.25012L10.9101 8.1717C11.0086 8.16075 11.0987 8.11128 11.1608 8.03411C11.2229 7.95693 11.252 7.85831 11.2416 7.75979C11.2312 7.66127 11.1823 7.57085 11.1055 7.50828C11.0287 7.4457 10.9303 7.41606 10.8317 7.42583ZM21.2742 8.1717L22.02 8.25012C22.1187 8.26002 22.2172 8.23045 22.2941 8.16788C22.3711 8.10531 22.42 8.01483 22.4304 7.91623C22.4408 7.81763 22.4117 7.71894 22.3495 7.64174C22.2873 7.56453 22.1971 7.5151 22.0985 7.50425L21.3526 7.42583C21.3035 7.42036 21.2537 7.42466 21.2063 7.43849C21.1588 7.45231 21.1145 7.47539 21.076 7.50638C21.0375 7.53737 21.0055 7.57568 20.9819 7.61909C20.9582 7.66249 20.9434 7.71015 20.9382 7.75932C20.933 7.80848 20.9376 7.85818 20.9517 7.90556C20.9658 7.95294 20.9892 7.99707 21.0204 8.03539C21.0516 8.07372 21.0901 8.10549 21.1337 8.12889C21.1772 8.15228 21.225 8.16683 21.2742 8.1717ZM21.0851 6.00275C21.1245 6.00273 21.1636 5.9965 21.201 5.98428L21.9143 5.75258C21.9612 5.73736 22.0046 5.71307 22.042 5.68109C22.0795 5.6491 22.1102 5.61006 22.1326 5.56618C22.155 5.5223 22.1684 5.47445 22.1723 5.42536C22.1762 5.37626 22.1703 5.32689 22.1551 5.28006C22.1399 5.23322 22.1156 5.18984 22.0836 5.15239C22.0516 5.11494 22.0126 5.08416 21.9687 5.06181C21.9248 5.03945 21.877 5.02595 21.8279 5.02209C21.7788 5.01822 21.7294 5.02406 21.6826 5.03928L20.9693 5.27098C20.8843 5.2985 20.812 5.35547 20.7652 5.43161C20.7185 5.50776 20.7005 5.59809 20.7145 5.68633C20.7284 5.77457 20.7734 5.85494 20.8414 5.91295C20.9093 5.97096 20.9957 6.0028 21.0851 6.00275ZM20.2446 4.01562L20.8019 3.51406C20.8758 3.44751 20.9203 3.35432 20.9255 3.25499C20.9307 3.15566 20.8962 3.05834 20.8297 2.98442C20.7631 2.91051 20.6699 2.86606 20.5706 2.86085C20.4713 2.85565 20.3739 2.89012 20.3 2.95667L19.7427 3.45837C19.6702 3.52528 19.6269 3.61809 19.6224 3.71667C19.6178 3.81526 19.6523 3.91167 19.7183 3.985C19.7844 4.05834 19.8766 4.10267 19.9752 4.10841C20.0737 4.11414 20.1705 4.0808 20.2446 4.01562ZM18.2273 2.82898C18.2998 2.82902 18.3708 2.80801 18.4317 2.76851C18.4925 2.729 18.5406 2.6727 18.5701 2.60642L18.8752 1.92125C18.9156 1.83039 18.9183 1.72718 18.8827 1.63433C18.847 1.54148 18.776 1.46659 18.6851 1.42613C18.5942 1.38568 18.491 1.38298 18.3982 1.41862C18.3053 1.45426 18.2304 1.52533 18.19 1.61619L17.8849 2.30136C17.8596 2.35843 17.8488 2.42094 17.8537 2.4832C17.8586 2.54547 17.879 2.60552 17.913 2.65793C17.947 2.71033 17.9935 2.75342 18.0484 2.78329C18.1032 2.81316 18.1647 2.82887 18.2271 2.82898H18.2273ZM22.125 18.875H17.25V18.5C17.25 17.937 16.5173 17.5269 16.2927 17.4146C16.2735 17.405 16.2534 17.397 16.2328 17.3908L12.5625 16.2897C12.3302 16.0845 11.5 15.364 10.485 14.6332C8.86439 13.4665 7.60781 12.875 6.75 12.875H3.75V12.5C3.75 12.4005 3.71049 12.3052 3.64016 12.2348C3.56984 12.1645 3.47446 12.125 3.375 12.125H1.125C1.02554 12.125 0.930161 12.1645 0.859835 12.2348C0.789509 12.3052 0.75 12.4005 0.75 12.5V20.75C0.75 20.8495 0.789509 20.9448 0.859835 21.0152C0.930161 21.0855 1.02554 21.125 1.125 21.125H3.375C3.47446 21.125 3.56984 21.0855 3.64016 21.0152C3.71049 20.9448 3.75 20.8495 3.75 20.75V20.375H4.85752C5.09147 20.4061 7.00519 20.7839 8.69681 21.1179C12.0804 21.7859 12.5584 21.875 12.6639 21.875H22.125C22.4233 21.8747 22.7092 21.756 22.9201 21.5451C23.131 21.3342 23.2497 21.0483 23.25 20.75V20C23.2497 19.7017 23.131 19.4158 22.9201 19.2049C22.7092 18.994 22.4233 18.8753 22.125 18.875ZM3 20.375H1.5V12.875H3V20.375ZM22.5 20.75C22.4999 20.8494 22.4603 20.9447 22.39 21.015C22.3197 21.0853 22.2244 21.1249 22.125 21.125H12.6814C12.4474 21.0939 10.5337 20.7161 8.84231 20.3821C5.4585 19.7141 4.98052 19.625 4.875 19.625H3.75V13.625H6.75C8.16895 13.625 11.1105 15.9918 12.1242 16.9038C12.1653 16.9408 12.2142 16.9683 12.2672 16.9842L15.9844 18.0994C16.2179 18.2216 16.4641 18.4178 16.4998 18.5114V19.25C16.4996 19.3441 16.4642 19.4347 16.4005 19.5039C16.3368 19.5731 16.2494 19.6159 16.1556 19.6238L12.5082 18.8942L9.93605 17.4244C9.89328 17.3999 9.84611 17.3841 9.79722 17.3778C9.74833 17.3715 9.69869 17.375 9.65112 17.3879C9.60356 17.4008 9.55902 17.423 9.52004 17.4532C9.48106 17.4833 9.44841 17.5209 9.42395 17.5637C9.3995 17.6065 9.38372 17.6537 9.37753 17.7026C9.37133 17.7515 9.37483 17.8011 9.38783 17.8487C9.40084 17.8962 9.42308 17.9407 9.4533 17.9797C9.48352 18.0186 9.52112 18.0512 9.56395 18.0756L12.189 19.5756C12.2239 19.5956 12.2619 19.6099 12.3015 19.6178L16.0515 20.3678C16.0757 20.3726 16.1003 20.375 16.125 20.375C16.3576 20.3747 16.5844 20.3025 16.7743 20.1682C16.9642 20.0339 17.1079 19.8442 17.1857 19.625H22.125C22.2244 19.6251 22.3197 19.6647 22.39 19.735C22.4603 19.8053 22.4999 19.9006 22.5 20V20.75Z"/>
</mask>
<path d="M16.7002 5.4942C16.936 5.59315 17.1463 5.74416 17.3155 5.93594C17.4847 6.12771 17.6082 6.35527 17.677 6.60158C17.7051 6.69598 17.7692 6.77554 17.8554 6.82308C17.9417 6.87061 18.0432 6.8823 18.138 6.85562C18.2328 6.82894 18.3133 6.76603 18.3621 6.68048C18.4109 6.59493 18.4241 6.49362 18.3989 6.39842C18.2989 6.04253 18.1196 5.71387 17.8746 5.43706C17.6296 5.16025 17.3251 4.94245 16.984 4.79998C16.8919 4.76233 16.7887 4.76278 16.697 4.80125C16.6053 4.83971 16.5326 4.91303 16.4949 5.00509C16.4573 5.09714 16.4577 5.20038 16.4962 5.2921C16.5346 5.38382 16.608 5.4565 16.7 5.49416L16.7002 5.4942ZM16.4672 2V1.25C16.4672 1.15054 16.4277 1.05516 16.3574 0.984835C16.287 0.914509 16.1916 0.875 16.0922 0.875C15.9927 0.875 15.8973 0.914509 15.827 0.984835C15.7567 1.05516 15.7172 1.15054 15.7172 1.25V2C15.7172 2.09946 15.7567 2.19484 15.827 2.26516C15.8973 2.33549 15.9927 2.375 16.0922 2.375C16.1916 2.375 16.287 2.33549 16.3574 2.26516C16.4277 2.19484 16.4672 2.09946 16.4672 2ZM13.957 2.82898C14.0194 2.82887 14.0809 2.81316 14.1357 2.78329C14.1906 2.75342 14.2371 2.71033 14.2711 2.65793C14.3051 2.60552 14.3254 2.54547 14.3304 2.4832C14.3353 2.42094 14.3245 2.35843 14.2992 2.30136L13.9941 1.61619C13.9537 1.52533 13.8788 1.45426 13.7859 1.41862C13.6931 1.38298 13.5899 1.38568 13.499 1.42613C13.4081 1.46659 13.3371 1.54148 13.3014 1.63433C13.2658 1.72718 13.2685 1.83039 13.3089 1.92125L13.614 2.60642C13.6435 2.67273 13.6916 2.72905 13.7525 2.76856C13.8134 2.80806 13.8844 2.82905 13.957 2.82898ZM12.1905 4.11209C12.2664 4.11212 12.3404 4.08914 12.403 4.04619C12.4655 4.00324 12.5135 3.94233 12.5407 3.87152C12.5679 3.8007 12.573 3.7233 12.5553 3.64954C12.5376 3.57578 12.4979 3.50912 12.4415 3.45837L11.8842 2.95653C11.8102 2.88998 11.7129 2.85553 11.6136 2.86075C11.5142 2.86597 11.421 2.91044 11.3545 2.98438C11.2879 3.05831 11.2535 3.15565 11.2587 3.25499C11.2639 3.35432 11.3084 3.44751 11.3823 3.51406L11.9397 4.01562C12.0084 4.07778 12.0978 4.11216 12.1905 4.11209ZM11.4557 5.74348C11.4865 5.64889 11.4783 5.54598 11.4332 5.45737C11.388 5.36875 11.3095 5.30171 11.2149 5.27098L10.5016 5.03928C10.4547 5.02372 10.4052 5.01759 10.3559 5.02124C10.3066 5.0249 10.2585 5.03827 10.2144 5.06058C10.1702 5.0829 10.131 5.11371 10.0988 5.15126C10.0666 5.18881 10.0422 5.23234 10.0269 5.27936C10.0117 5.32639 10.0058 5.37596 10.0098 5.42524C10.0138 5.47452 10.0274 5.52254 10.05 5.56652C10.0726 5.6105 10.1036 5.64958 10.1414 5.68151C10.1791 5.71344 10.2228 5.73759 10.2699 5.75258L10.9832 5.98438C11.0301 5.99965 11.0795 6.00554 11.1286 6.0017C11.1777 5.99786 11.2256 5.98437 11.2694 5.96201C11.3133 5.93964 11.3524 5.90883 11.3843 5.87135C11.4163 5.83387 11.4406 5.79045 11.4557 5.74358V5.74348ZM10.8317 7.42583L10.0858 7.50425C10.0366 7.50907 9.98879 7.52359 9.94519 7.54696C9.90159 7.57034 9.86305 7.6021 9.83178 7.64044C9.80052 7.67877 9.77714 7.72291 9.76301 7.77032C9.74887 7.81772 9.74426 7.86746 9.74943 7.91665C9.7546 7.96585 9.76945 8.01354 9.79313 8.05697C9.81681 8.1004 9.84885 8.13872 9.8874 8.16971C9.92595 8.20071 9.97026 8.22377 10.0178 8.23758C10.0653 8.25138 10.115 8.25564 10.1642 8.25012L10.9101 8.1717C11.0086 8.16075 11.0987 8.11128 11.1608 8.03411C11.2229 7.95693 11.252 7.85831 11.2416 7.75979C11.2312 7.66127 11.1823 7.57085 11.1055 7.50828C11.0287 7.4457 10.9303 7.41606 10.8317 7.42583ZM21.2742 8.1717L22.02 8.25012C22.1187 8.26002 22.2172 8.23045 22.2941 8.16788C22.3711 8.10531 22.42 8.01483 22.4304 7.91623C22.4408 7.81763 22.4117 7.71894 22.3495 7.64174C22.2873 7.56453 22.1971 7.5151 22.0985 7.50425L21.3526 7.42583C21.3035 7.42036 21.2537 7.42466 21.2063 7.43849C21.1588 7.45231 21.1145 7.47539 21.076 7.50638C21.0375 7.53737 21.0055 7.57568 20.9819 7.61909C20.9582 7.66249 20.9434 7.71015 20.9382 7.75932C20.933 7.80848 20.9376 7.85818 20.9517 7.90556C20.9658 7.95294 20.9892 7.99707 21.0204 8.03539C21.0516 8.07372 21.0901 8.10549 21.1337 8.12889C21.1772 8.15228 21.225 8.16683 21.2742 8.1717ZM21.0851 6.00275C21.1245 6.00273 21.1636 5.9965 21.201 5.98428L21.9143 5.75258C21.9612 5.73736 22.0046 5.71307 22.042 5.68109C22.0795 5.6491 22.1102 5.61006 22.1326 5.56618C22.155 5.5223 22.1684 5.47445 22.1723 5.42536C22.1762 5.37626 22.1703 5.32689 22.1551 5.28006C22.1399 5.23322 22.1156 5.18984 22.0836 5.15239C22.0516 5.11494 22.0126 5.08416 21.9687 5.06181C21.9248 5.03945 21.877 5.02595 21.8279 5.02209C21.7788 5.01822 21.7294 5.02406 21.6826 5.03928L20.9693 5.27098C20.8843 5.2985 20.812 5.35547 20.7652 5.43161C20.7185 5.50776 20.7005 5.59809 20.7145 5.68633C20.7284 5.77457 20.7734 5.85494 20.8414 5.91295C20.9093 5.97096 20.9957 6.0028 21.0851 6.00275ZM20.2446 4.01562L20.8019 3.51406C20.8758 3.44751 20.9203 3.35432 20.9255 3.25499C20.9307 3.15566 20.8962 3.05834 20.8297 2.98442C20.7631 2.91051 20.6699 2.86606 20.5706 2.86085C20.4713 2.85565 20.3739 2.89012 20.3 2.95667L19.7427 3.45837C19.6702 3.52528 19.6269 3.61809 19.6224 3.71667C19.6178 3.81526 19.6523 3.91167 19.7183 3.985C19.7844 4.05834 19.8766 4.10267 19.9752 4.10841C20.0737 4.11414 20.1705 4.0808 20.2446 4.01562ZM18.2273 2.82898C18.2998 2.82902 18.3708 2.80801 18.4317 2.76851C18.4925 2.729 18.5406 2.6727 18.5701 2.60642L18.8752 1.92125C18.9156 1.83039 18.9183 1.72718 18.8827 1.63433C18.847 1.54148 18.776 1.46659 18.6851 1.42613C18.5942 1.38568 18.491 1.38298 18.3982 1.41862C18.3053 1.45426 18.2304 1.52533 18.19 1.61619L17.8849 2.30136C17.8596 2.35843 17.8488 2.42094 17.8537 2.4832C17.8586 2.54547 17.879 2.60552 17.913 2.65793C17.947 2.71033 17.9935 2.75342 18.0484 2.78329C18.1032 2.81316 18.1647 2.82887 18.2271 2.82898H18.2273ZM22.125 18.875H17.25V18.5C17.25 17.937 16.5173 17.5269 16.2927 17.4146C16.2735 17.405 16.2534 17.397 16.2328 17.3908L12.5625 16.2897C12.3302 16.0845 11.5 15.364 10.485 14.6332C8.86439 13.4665 7.60781 12.875 6.75 12.875H3.75V12.5C3.75 12.4005 3.71049 12.3052 3.64016 12.2348C3.56984 12.1645 3.47446 12.125 3.375 12.125H1.125C1.02554 12.125 0.930161 12.1645 0.859835 12.2348C0.789509 12.3052 0.75 12.4005 0.75 12.5V20.75C0.75 20.8495 0.789509 20.9448 0.859835 21.0152C0.930161 21.0855 1.02554 21.125 1.125 21.125H3.375C3.47446 21.125 3.56984 21.0855 3.64016 21.0152C3.71049 20.9448 3.75 20.8495 3.75 20.75V20.375H4.85752C5.09147 20.4061 7.00519 20.7839 8.69681 21.1179C12.0804 21.7859 12.5584 21.875 12.6639 21.875H22.125C22.4233 21.8747 22.7092 21.756 22.9201 21.5451C23.131 21.3342 23.2497 21.0483 23.25 20.75V20C23.2497 19.7017 23.131 19.4158 22.9201 19.2049C22.7092 18.994 22.4233 18.8753 22.125 18.875ZM3 20.375H1.5V12.875H3V20.375ZM22.5 20.75C22.4999 20.8494 22.4603 20.9447 22.39 21.015C22.3197 21.0853 22.2244 21.1249 22.125 21.125H12.6814C12.4474 21.0939 10.5337 20.7161 8.84231 20.3821C5.4585 19.7141 4.98052 19.625 4.875 19.625H3.75V13.625H6.75C8.16895 13.625 11.1105 15.9918 12.1242 16.9038C12.1653 16.9408 12.2142 16.9683 12.2672 16.9842L15.9844 18.0994C16.2179 18.2216 16.4641 18.4178 16.4998 18.5114V19.25C16.4996 19.3441 16.4642 19.4347 16.4005 19.5039C16.3368 19.5731 16.2494 19.6159 16.1556 19.6238L12.5082 18.8942L9.93605 17.4244C9.89328 17.3999 9.84611 17.3841 9.79722 17.3778C9.74833 17.3715 9.69869 17.375 9.65112 17.3879C9.60356 17.4008 9.55902 17.423 9.52004 17.4532C9.48106 17.4833 9.44841 17.5209 9.42395 17.5637C9.3995 17.6065 9.38372 17.6537 9.37753 17.7026C9.37133 17.7515 9.37483 17.8011 9.38783 17.8487C9.40084 17.8962 9.42308 17.9407 9.4533 17.9797C9.48352 18.0186 9.52112 18.0512 9.56395 18.0756L12.189 19.5756C12.2239 19.5956 12.2619 19.6099 12.3015 19.6178L16.0515 20.3678C16.0757 20.3726 16.1003 20.375 16.125 20.375C16.3576 20.3747 16.5844 20.3025 16.7743 20.1682C16.9642 20.0339 17.1079 19.8442 17.1857 19.625H22.125C22.2244 19.6251 22.3197 19.6647 22.39 19.735C22.4603 19.8053 22.4999 19.9006 22.5 20V20.75Z" fill="#A9A9A9"/>
<path d="M16.7002 5.4942C16.936 5.59315 17.1463 5.74416 17.3155 5.93594C17.4847 6.12771 17.6082 6.35527 17.677 6.60158C17.7051 6.69598 17.7692 6.77554 17.8554 6.82308C17.9417 6.87061 18.0432 6.8823 18.138 6.85562C18.2328 6.82894 18.3133 6.76603 18.3621 6.68048C18.4109 6.59493 18.4241 6.49362 18.3989 6.39842C18.2989 6.04253 18.1196 5.71387 17.8746 5.43706C17.6296 5.16025 17.3251 4.94245 16.984 4.79998C16.8919 4.76233 16.7887 4.76278 16.697 4.80125C16.6053 4.83971 16.5326 4.91303 16.4949 5.00509C16.4573 5.09714 16.4577 5.20038 16.4962 5.2921C16.5346 5.38382 16.608 5.4565 16.7 5.49416L16.7002 5.4942ZM16.4672 2V1.25C16.4672 1.15054 16.4277 1.05516 16.3574 0.984835C16.287 0.914509 16.1916 0.875 16.0922 0.875C15.9927 0.875 15.8973 0.914509 15.827 0.984835C15.7567 1.05516 15.7172 1.15054 15.7172 1.25V2C15.7172 2.09946 15.7567 2.19484 15.827 2.26516C15.8973 2.33549 15.9927 2.375 16.0922 2.375C16.1916 2.375 16.287 2.33549 16.3574 2.26516C16.4277 2.19484 16.4672 2.09946 16.4672 2ZM13.957 2.82898C14.0194 2.82887 14.0809 2.81316 14.1357 2.78329C14.1906 2.75342 14.2371 2.71033 14.2711 2.65793C14.3051 2.60552 14.3254 2.54547 14.3304 2.4832C14.3353 2.42094 14.3245 2.35843 14.2992 2.30136L13.9941 1.61619C13.9537 1.52533 13.8788 1.45426 13.7859 1.41862C13.6931 1.38298 13.5899 1.38568 13.499 1.42613C13.4081 1.46659 13.3371 1.54148 13.3014 1.63433C13.2658 1.72718 13.2685 1.83039 13.3089 1.92125L13.614 2.60642C13.6435 2.67273 13.6916 2.72905 13.7525 2.76856C13.8134 2.80806 13.8844 2.82905 13.957 2.82898ZM12.1905 4.11209C12.2664 4.11212 12.3404 4.08914 12.403 4.04619C12.4655 4.00324 12.5135 3.94233 12.5407 3.87152C12.5679 3.8007 12.573 3.7233 12.5553 3.64954C12.5376 3.57578 12.4979 3.50912 12.4415 3.45837L11.8842 2.95653C11.8102 2.88998 11.7129 2.85553 11.6136 2.86075C11.5142 2.86597 11.421 2.91044 11.3545 2.98438C11.2879 3.05831 11.2535 3.15565 11.2587 3.25499C11.2639 3.35432 11.3084 3.44751 11.3823 3.51406L11.9397 4.01562C12.0084 4.07778 12.0978 4.11216 12.1905 4.11209ZM11.4557 5.74348C11.4865 5.64889 11.4783 5.54598 11.4332 5.45737C11.388 5.36875 11.3095 5.30171 11.2149 5.27098L10.5016 5.03928C10.4547 5.02372 10.4052 5.01759 10.3559 5.02124C10.3066 5.0249 10.2585 5.03827 10.2144 5.06058C10.1702 5.0829 10.131 5.11371 10.0988 5.15126C10.0666 5.18881 10.0422 5.23234 10.0269 5.27936C10.0117 5.32639 10.0058 5.37596 10.0098 5.42524C10.0138 5.47452 10.0274 5.52254 10.05 5.56652C10.0726 5.6105 10.1036 5.64958 10.1414 5.68151C10.1791 5.71344 10.2228 5.73759 10.2699 5.75258L10.9832 5.98438C11.0301 5.99965 11.0795 6.00554 11.1286 6.0017C11.1777 5.99786 11.2256 5.98437 11.2694 5.96201C11.3133 5.93964 11.3524 5.90883 11.3843 5.87135C11.4163 5.83387 11.4406 5.79045 11.4557 5.74358V5.74348ZM10.8317 7.42583L10.0858 7.50425C10.0366 7.50907 9.98879 7.52359 9.94519 7.54696C9.90159 7.57034 9.86305 7.6021 9.83178 7.64044C9.80052 7.67877 9.77714 7.72291 9.76301 7.77032C9.74887 7.81772 9.74426 7.86746 9.74943 7.91665C9.7546 7.96585 9.76945 8.01354 9.79313 8.05697C9.81681 8.1004 9.84885 8.13872 9.8874 8.16971C9.92595 8.20071 9.97026 8.22377 10.0178 8.23758C10.0653 8.25138 10.115 8.25564 10.1642 8.25012L10.9101 8.1717C11.0086 8.16075 11.0987 8.11128 11.1608 8.03411C11.2229 7.95693 11.252 7.85831 11.2416 7.75979C11.2312 7.66127 11.1823 7.57085 11.1055 7.50828C11.0287 7.4457 10.9303 7.41606 10.8317 7.42583ZM21.2742 8.1717L22.02 8.25012C22.1187 8.26002 22.2172 8.23045 22.2941 8.16788C22.3711 8.10531 22.42 8.01483 22.4304 7.91623C22.4408 7.81763 22.4117 7.71894 22.3495 7.64174C22.2873 7.56453 22.1971 7.5151 22.0985 7.50425L21.3526 7.42583C21.3035 7.42036 21.2537 7.42466 21.2063 7.43849C21.1588 7.45231 21.1145 7.47539 21.076 7.50638C21.0375 7.53737 21.0055 7.57568 20.9819 7.61909C20.9582 7.66249 20.9434 7.71015 20.9382 7.75932C20.933 7.80848 20.9376 7.85818 20.9517 7.90556C20.9658 7.95294 20.9892 7.99707 21.0204 8.03539C21.0516 8.07372 21.0901 8.10549 21.1337 8.12889C21.1772 8.15228 21.225 8.16683 21.2742 8.1717ZM21.0851 6.00275C21.1245 6.00273 21.1636 5.9965 21.201 5.98428L21.9143 5.75258C21.9612 5.73736 22.0046 5.71307 22.042 5.68109C22.0795 5.6491 22.1102 5.61006 22.1326 5.56618C22.155 5.5223 22.1684 5.47445 22.1723 5.42536C22.1762 5.37626 22.1703 5.32689 22.1551 5.28006C22.1399 5.23322 22.1156 5.18984 22.0836 5.15239C22.0516 5.11494 22.0126 5.08416 21.9687 5.06181C21.9248 5.03945 21.877 5.02595 21.8279 5.02209C21.7788 5.01822 21.7294 5.02406 21.6826 5.03928L20.9693 5.27098C20.8843 5.2985 20.812 5.35547 20.7652 5.43161C20.7185 5.50776 20.7005 5.59809 20.7145 5.68633C20.7284 5.77457 20.7734 5.85494 20.8414 5.91295C20.9093 5.97096 20.9957 6.0028 21.0851 6.00275ZM20.2446 4.01562L20.8019 3.51406C20.8758 3.44751 20.9203 3.35432 20.9255 3.25499C20.9307 3.15566 20.8962 3.05834 20.8297 2.98442C20.7631 2.91051 20.6699 2.86606 20.5706 2.86085C20.4713 2.85565 20.3739 2.89012 20.3 2.95667L19.7427 3.45837C19.6702 3.52528 19.6269 3.61809 19.6224 3.71667C19.6178 3.81526 19.6523 3.91167 19.7183 3.985C19.7844 4.05834 19.8766 4.10267 19.9752 4.10841C20.0737 4.11414 20.1705 4.0808 20.2446 4.01562ZM18.2273 2.82898C18.2998 2.82902 18.3708 2.80801 18.4317 2.76851C18.4925 2.729 18.5406 2.6727 18.5701 2.60642L18.8752 1.92125C18.9156 1.83039 18.9183 1.72718 18.8827 1.63433C18.847 1.54148 18.776 1.46659 18.6851 1.42613C18.5942 1.38568 18.491 1.38298 18.3982 1.41862C18.3053 1.45426 18.2304 1.52533 18.19 1.61619L17.8849 2.30136C17.8596 2.35843 17.8488 2.42094 17.8537 2.4832C17.8586 2.54547 17.879 2.60552 17.913 2.65793C17.947 2.71033 17.9935 2.75342 18.0484 2.78329C18.1032 2.81316 18.1647 2.82887 18.2271 2.82898H18.2273ZM22.125 18.875H17.25V18.5C17.25 17.937 16.5173 17.5269 16.2927 17.4146C16.2735 17.405 16.2534 17.397 16.2328 17.3908L12.5625 16.2897C12.3302 16.0845 11.5 15.364 10.485 14.6332C8.86439 13.4665 7.60781 12.875 6.75 12.875H3.75V12.5C3.75 12.4005 3.71049 12.3052 3.64016 12.2348C3.56984 12.1645 3.47446 12.125 3.375 12.125H1.125C1.02554 12.125 0.930161 12.1645 0.859835 12.2348C0.789509 12.3052 0.75 12.4005 0.75 12.5V20.75C0.75 20.8495 0.789509 20.9448 0.859835 21.0152C0.930161 21.0855 1.02554 21.125 1.125 21.125H3.375C3.47446 21.125 3.56984 21.0855 3.64016 21.0152C3.71049 20.9448 3.75 20.8495 3.75 20.75V20.375H4.85752C5.09147 20.4061 7.00519 20.7839 8.69681 21.1179C12.0804 21.7859 12.5584 21.875 12.6639 21.875H22.125C22.4233 21.8747 22.7092 21.756 22.9201 21.5451C23.131 21.3342 23.2497 21.0483 23.25 20.75V20C23.2497 19.7017 23.131 19.4158 22.9201 19.2049C22.7092 18.994 22.4233 18.8753 22.125 18.875ZM3 20.375H1.5V12.875H3V20.375ZM22.5 20.75C22.4999 20.8494 22.4603 20.9447 22.39 21.015C22.3197 21.0853 22.2244 21.1249 22.125 21.125H12.6814C12.4474 21.0939 10.5337 20.7161 8.84231 20.3821C5.4585 19.7141 4.98052 19.625 4.875 19.625H3.75V13.625H6.75C8.16895 13.625 11.1105 15.9918 12.1242 16.9038C12.1653 16.9408 12.2142 16.9683 12.2672 16.9842L15.9844 18.0994C16.2179 18.2216 16.4641 18.4178 16.4998 18.5114V19.25C16.4996 19.3441 16.4642 19.4347 16.4005 19.5039C16.3368 19.5731 16.2494 19.6159 16.1556 19.6238L12.5082 18.8942L9.93605 17.4244C9.89328 17.3999 9.84611 17.3841 9.79722 17.3778C9.74833 17.3715 9.69869 17.375 9.65112 17.3879C9.60356 17.4008 9.55902 17.423 9.52004 17.4532C9.48106 17.4833 9.44841 17.5209 9.42395 17.5637C9.3995 17.6065 9.38372 17.6537 9.37753 17.7026C9.37133 17.7515 9.37483 17.8011 9.38783 17.8487C9.40084 17.8962 9.42308 17.9407 9.4533 17.9797C9.48352 18.0186 9.52112 18.0512 9.56395 18.0756L12.189 19.5756C12.2239 19.5956 12.2619 19.6099 12.3015 19.6178L16.0515 20.3678C16.0757 20.3726 16.1003 20.375 16.125 20.375C16.3576 20.3747 16.5844 20.3025 16.7743 20.1682C16.9642 20.0339 17.1079 19.8442 17.1857 19.625H22.125C22.2244 19.6251 22.3197 19.6647 22.39 19.735C22.4603 19.8053 22.4999 19.9006 22.5 20V20.75Z" stroke="#A9A9A9" stroke-width="0.2" mask="url(#path-2-outside-1_2204_9167)"/>
</svg>
