<svg width="26" height="24" viewBox="0 0 26 24" fill="none" xmlns="http://www.w3.org/2000/svg">
<path d="M22.4564 24.0001H2.90619C1.30305 24.0001 0 22.767 0 21.25V4.75C0 3.23298 1.30305 2.00012 2.90619 2.00012H22.4564C24.0595 2.00012 25.3626 3.23293 25.3626 4.75V21.25C25.3626 22.767 24.0595 24.0001 22.4564 24.0001ZM2.90619 3.50012C2.17801 3.50012 1.58516 4.06098 1.58516 4.75V21.25C1.58516 21.9391 2.17806 22.5001 2.90619 22.5001H22.4564C23.1846 22.5001 23.7774 21.939 23.7774 21.25V4.75C23.7774 4.06093 23.1845 3.50012 22.4564 3.50012H2.90619Z" fill="#A9A9A9"/>
<path d="M24.57 9.50006H0.792581C0.355076 9.50006 0 9.16406 0 8.75006C0 8.33606 0.355076 8.00006 0.792581 8.00006H24.57C25.0075 8.00006 25.3626 8.33606 25.3626 8.75006C25.3626 9.16406 25.0075 9.50006 24.57 9.50006ZM6.07652 6C5.63901 6 5.28394 5.664 5.28394 5.25V0.75C5.28394 0.336 5.63901 0 6.07652 0C6.51402 0 6.8691 0.336 6.8691 0.75V5.25C6.8691 5.664 6.51402 6 6.07652 6ZM19.2861 6C18.8486 6 18.4935 5.664 18.4935 5.25V0.75C18.4935 0.336 18.8486 0 19.2861 0C19.7236 0 20.0786 0.336 20.0786 0.75V5.25C20.0786 5.664 19.7236 6 19.2861 6Z" fill="#A9A9A9"/>
</svg>
