<svg width="26" height="21" viewBox="0 0 26 21" fill="none" xmlns="http://www.w3.org/2000/svg">
<path d="M20.3973 14.3735C22.2965 14.372 24.0287 13.3305 24.8605 11.6902C25.6924 10.0498 25.4783 8.09741 24.309 6.65955C23.1397 5.2217 21.2197 4.54988 19.3619 4.92854C18.5534 2.02188 15.8128 0 12.6813 0C9.54978 0 6.80914 2.02188 6.00072 4.92854C4.14289 4.54989 2.22289 5.22168 1.05359 6.6595C-0.115701 8.09732 -0.329785 10.0497 0.501978 11.6901C1.33374 13.3304 3.06588 14.3719 4.96506 14.3735H20.3973Z" fill="#B59FFF" fill-opacity="0.2"/>
<path d="M12.6808 8.58583C16.0086 8.58583 18.7063 11.1777 18.7063 14.3749C18.7063 17.5722 16.0086 20.1641 12.6808 20.1641C9.353 20.1641 6.65527 17.5722 6.65527 14.3749C6.65527 11.1777 9.353 8.58583 12.6808 8.58583Z" fill="#3BD4AE"/>
<path d="M11.5936 15.1201V12.3894H13.7692V15.1201H15.4634L12.6814 17.793L9.89941 15.1201H11.5936Z" fill="#EDF5FF"/>
<path d="M13.7684 10.5887H11.5928C11.3803 10.5887 11.208 10.7542 11.208 10.9584C11.208 11.1626 11.3803 11.3281 11.5928 11.3281H13.7684C13.9809 11.3281 14.1532 11.1626 14.1532 10.9584C14.1532 10.7542 13.9809 10.5887 13.7684 10.5887Z" fill="#EDF5FF"/>
</svg>
