<svg width="24" height="24" viewBox="0 0 24 24" fill="none" xmlns="http://www.w3.org/2000/svg">
<path d="M24 11.425C23.955 11.13 23.945 11.19 21.935 9.875C23.72 3.17 23.68 3.56 23.535 3.305C23.39 3.05 23.65 3.185 18 1.67V0.5C18 0.367392 17.9473 0.240215 17.8536 0.146447C17.7598 0.0526784 17.6326 0 17.5 0L6.5 0C6.36739 0 6.24021 0.0526784 6.14645 0.146447C6.05268 0.240215 6 0.367392 6 0.5V1.67L0.77 3.07C0.70616 3.08682 0.646284 3.11612 0.593826 3.1562C0.541368 3.19628 0.497367 3.24636 0.464363 3.30353C0.431359 3.36071 0.410004 3.42386 0.401532 3.48933C0.393059 3.5548 0.397637 3.62131 0.415 3.685L2.075 9.875C0.105 11.16 0.075 11.12 0.015 11.375C0 11.5 0 10.945 0 22C0 22.5304 0.210714 23.0391 0.585786 23.4142C0.960859 23.7893 1.46957 24 2 24H22C22.5304 24 23.0391 23.7893 23.4142 23.4142C23.7893 23.0391 24 22.5304 24 22V11.425ZM17.025 16.32L23.025 12.425C23.025 22.88 23.025 22.055 22.99 22.255L17.025 16.32ZM22.585 11.5L21.255 12.365L21.65 10.89L22.585 11.5ZM22.5 3.91C22.24 4.88 23.435 0.410001 20 13.185L18 14.5V4.775L19.155 5.085C19.1746 5.30736 19.2425 5.52276 19.3539 5.71619C19.4653 5.90963 19.6175 6.07644 19.8 6.205L19.13 8.705C19.0955 8.83363 19.1136 8.97069 19.1801 9.08602C19.2467 9.20136 19.3564 9.28552 19.485 9.32C19.6136 9.35448 19.7507 9.33645 19.866 9.26987C19.9814 9.2033 20.0655 9.09363 20.1 8.965L20.875 6.07C20.8921 6.00496 20.8959 5.93714 20.8861 5.8706C20.8764 5.80406 20.8533 5.74017 20.8183 5.68276C20.7833 5.62534 20.737 5.57558 20.6824 5.53644C20.6277 5.49731 20.5656 5.46961 20.5 5.455C20.4366 5.43764 20.3773 5.40796 20.3254 5.36764C20.2735 5.32733 20.23 5.27718 20.1975 5.22006C20.165 5.16294 20.1441 5.09997 20.1359 5.03476C20.1278 4.96954 20.1325 4.90336 20.15 4.84C20.1674 4.77631 20.1719 4.7098 20.1635 4.64433C20.155 4.57886 20.1336 4.51571 20.1006 4.45853C20.0676 4.40136 20.0236 4.35128 19.9712 4.3112C19.9187 4.27112 19.8588 4.24182 19.795 4.225L18 3.74V2.705L22.5 3.91ZM17 1V15.14L12 18.405L7 15.14V1H17ZM1.035 22.255C1 22.055 1 22.865 1 12.425L7 16.32L1.035 22.255ZM6 2.705V3.74L4.185 4.24C4.12116 4.25682 4.06128 4.28612 4.00883 4.3262C3.95637 4.36628 3.91237 4.41636 3.87936 4.47353C3.84636 4.53071 3.825 4.59386 3.81653 4.65933C3.80806 4.7248 3.81264 4.79131 3.83 4.855C3.86165 4.97822 3.84514 5.10888 3.78383 5.22036C3.72252 5.33183 3.62102 5.41574 3.5 5.455C3.37217 5.48904 3.26304 5.57234 3.1965 5.68667C3.12996 5.801 3.11144 5.93704 3.145 6.065L3.9 8.96C3.93448 9.08863 4.01864 9.1983 4.13398 9.26487C4.24931 9.33145 4.38637 9.34948 4.515 9.315C4.64363 9.28052 4.75329 9.19636 4.81987 9.08102C4.88645 8.96569 4.90448 8.82863 4.87 8.7L4.2 6.2C4.38248 6.07144 4.53472 5.90463 4.64612 5.71119C4.75752 5.51776 4.82539 5.30236 4.845 5.08L6 4.775V14.5L4 13.185C3.62 11.775 1.89 5.32 1.5 3.91L6 2.705ZM2.745 12.365L1.415 11.5L2.35 10.89L2.745 12.365ZM1.745 22.965L7.83 16.875C11.87 19.515 11.885 19.675 12.275 19.42L16.17 16.875L22.255 22.965C22 23.03 1.95 23 1.745 22.965Z" fill="#A9A9A9"/>
</svg>
