<svg width="26" height="24" viewBox="0 0 26 24" fill="none" xmlns="http://www.w3.org/2000/svg">
<path d="M6.39139 19.8748H0.911133V4.68762H23.0892V15.2271M14.9267 19.8748H10.7306" stroke="#A9A9A9" stroke-miterlimit="10" stroke-linecap="round" stroke-linejoin="round"/>
<path d="M5.8704 11.1094H3.75571L0.911133 8.34383M16.0086 11.1094H7.99178M23.0892 8.34383L20.2446 11.1094H18.13M16.607 4.68765H14.6785V2.34395H9.32189V4.68765H7.39336V1.40647C7.39336 0.888704 7.82506 0.468994 8.35762 0.468994H15.6427C16.1753 0.468994 16.607 0.888704 16.607 1.40647V4.68765Z" stroke="#A9A9A9" stroke-miterlimit="10" stroke-linecap="round" stroke-linejoin="round"/>
<path d="M19.738 23.531C22.441 23.531 24.6322 21.4006 24.6322 18.7727C24.6322 16.1448 22.441 14.0144 19.738 14.0144C17.035 14.0144 14.8438 16.1448 14.8438 18.7727C14.8438 21.4006 17.035 23.531 19.738 23.531Z" stroke="#A9A9A9" stroke-miterlimit="10" stroke-linecap="round" stroke-linejoin="round"/>
<path d="M19.0792 18.1322L19.7381 18.7727L21.8352 16.7339M6.93081 12.598C6.34502 12.598 5.87012 12.1363 5.87012 11.5667V10.0668H7.9915V11.5667C7.9915 12.1363 7.5166 12.598 6.93081 12.598ZM17.069 12.598C17.6548 12.598 18.1297 12.1363 18.1297 11.5667V10.0668H16.0083V11.5667C16.0083 12.1363 16.4832 12.598 17.069 12.598Z" stroke="#A9A9A9" stroke-miterlimit="10" stroke-linecap="round" stroke-linejoin="round"/>
</svg>
