<svg width="26" height="24" viewBox="0 0 26 24" fill="none" xmlns="http://www.w3.org/2000/svg">
<path d="M0.428711 23.2222H25.1144V24H0.428711V23.2222ZM1.62318 16.9996C1.51758 16.9996 1.41631 17.0406 1.34164 17.1135C1.26697 17.1865 1.22502 17.2854 1.22502 17.3885V22.0555C1.22502 22.1586 1.26697 22.2575 1.34164 22.3305C1.41631 22.4034 1.51758 22.4444 1.62318 22.4444H4.80843C4.91403 22.4444 5.01531 22.4034 5.08997 22.3305C5.16464 22.2575 5.20659 22.1586 5.20659 22.0555V17.3885C5.20659 17.2854 5.16464 17.1865 5.08997 17.1135C5.01531 17.0406 4.91403 16.9996 4.80843 16.9996H1.62318ZM4.41028 21.6665H2.02134V17.7775H4.41028V21.6665ZM7.99369 13.1105C7.88809 13.1105 7.78682 13.1515 7.71215 13.2244C7.63748 13.2974 7.59553 13.3963 7.59553 13.4994V22.0555C7.59553 22.1586 7.63748 22.2575 7.71215 22.3305C7.78682 22.4034 7.88809 22.4444 7.99369 22.4444H11.1789C11.2845 22.4444 11.3858 22.4034 11.4605 22.3305C11.5352 22.2575 11.5771 22.1586 11.5771 22.0555V13.4994C11.5771 13.3963 11.5352 13.2974 11.4605 13.2244C11.3858 13.1515 11.2845 13.1105 11.1789 13.1105H7.99369ZM10.7808 21.6665H8.39184V13.8884H10.7808V21.6665ZM14.3642 9.22144C14.2586 9.22144 14.1573 9.26242 14.0827 9.33535C14.008 9.40829 13.966 9.50721 13.966 9.61035V22.0555C13.966 22.1586 14.008 22.2575 14.0827 22.3305C14.1573 22.4034 14.2586 22.4444 14.3642 22.4444H17.5494C17.655 22.4444 17.7563 22.4034 17.831 22.3305C17.9057 22.2575 17.9476 22.1586 17.9476 22.0555V9.61035C17.9476 9.50721 17.9057 9.40829 17.831 9.33535C17.7563 9.26242 17.655 9.22144 17.5494 9.22144H14.3642ZM17.1513 21.6665H14.7624V9.99926H17.1513V21.6665ZM20.7347 5.33235C20.6291 5.33235 20.5278 5.37332 20.4532 5.44626C20.3785 5.51919 20.3365 5.61811 20.3365 5.72126V22.0555C20.3365 22.1586 20.3785 22.2575 20.4532 22.3305C20.5278 22.4034 20.6291 22.4444 20.7347 22.4444H23.92C24.0256 22.4444 24.1268 22.4034 24.2015 22.3305C24.2762 22.2575 24.3181 22.1586 24.3181 22.0555V5.72126C24.3181 5.61811 24.2762 5.51919 24.2015 5.44626C24.1268 5.37332 24.0256 5.33235 23.92 5.33235H20.7347ZM23.5218 21.6665H21.1329V6.11017H23.5218V21.6665ZM1.22502 16.2218H5.20659C5.31219 16.2218 5.41346 16.1808 5.48813 16.1079C5.5628 16.035 5.60475 15.936 5.60475 15.8329V13.4994C5.6036 13.125 5.46396 12.7635 5.21154 12.4816C4.95912 12.1998 4.61093 12.0165 4.23111 11.9656C4.48364 11.7615 4.66555 11.4862 4.75202 11.1774C4.83849 10.8686 4.8253 10.5412 4.71425 10.24C4.60321 9.93879 4.39972 9.67837 4.13154 9.49428C3.86337 9.31019 3.54358 9.21141 3.21581 9.21141C2.88803 9.21141 2.56824 9.31019 2.30007 9.49428C2.0319 9.67837 1.82841 9.93879 1.71736 10.24C1.60632 10.5412 1.59313 10.8686 1.6796 11.1774C1.76606 11.4862 1.94798 11.7615 2.20051 11.9656C1.82068 12.0165 1.47249 12.1998 1.22007 12.4816C0.967654 12.7635 0.828011 13.125 0.826868 13.4994V15.8329C0.826868 15.936 0.868816 16.035 0.943485 16.1079C1.01815 16.1808 1.11943 16.2218 1.22502 16.2218ZM3.21581 9.99926C3.3733 9.99926 3.52726 10.0449 3.65822 10.1303C3.78917 10.2158 3.89123 10.3373 3.95151 10.4794C4.01178 10.6216 4.02755 10.7779 3.99682 10.9288C3.96609 11.0797 3.89025 11.2183 3.77889 11.3271C3.66752 11.4359 3.52563 11.5099 3.37116 11.54C3.21669 11.57 3.05658 11.5546 2.91107 11.4957C2.76556 11.4368 2.6412 11.3371 2.5537 11.2092C2.4662 11.0813 2.41949 10.9309 2.41949 10.7771C2.41949 10.5708 2.50339 10.3729 2.65273 10.2271C2.80207 10.0812 3.00461 9.99926 3.21581 9.99926ZM1.62318 13.4994C1.62318 13.2932 1.70708 13.0953 1.85642 12.9494C2.00575 12.8036 2.2083 12.7216 2.41949 12.7216H4.01212C4.22332 12.7216 4.42586 12.8036 4.5752 12.9494C4.72454 13.0953 4.80843 13.2932 4.80843 13.4994V15.444H1.62318V13.4994ZM9.22797 7.97693L8.70519 9.01104L7.5366 9.17711C7.46306 9.18754 7.39398 9.21786 7.33717 9.26465C7.28036 9.31144 7.23808 9.37283 7.21513 9.44186C7.19218 9.5109 7.18947 9.58483 7.2073 9.65529C7.22513 9.72576 7.26279 9.78994 7.31603 9.84059L8.16171 10.6456L7.96263 11.782C7.95 11.8536 7.95812 11.9271 7.98608 11.9944C8.01404 12.0617 8.06073 12.12 8.12085 12.1627C8.18097 12.2054 8.25213 12.2308 8.32627 12.236C8.40041 12.2413 8.47457 12.2261 8.54036 12.1923L9.58632 11.6564L10.6311 12.1931C10.6884 12.2221 10.752 12.2374 10.8166 12.2374C10.8746 12.2374 10.9318 12.225 10.9844 12.2011C11.0369 12.1772 11.0835 12.1424 11.1209 12.0991C11.1582 12.0558 11.1854 12.0051 11.2006 11.9505C11.2158 11.8958 11.2186 11.8386 11.2088 11.7828L11.0097 10.6464L11.8554 9.84136C11.9086 9.79072 11.9463 9.72654 11.9641 9.65607C11.982 9.58561 11.9793 9.51168 11.9563 9.44264C11.9334 9.3736 11.8911 9.31222 11.8343 9.26543C11.7775 9.21864 11.7084 9.18832 11.6348 9.17789L10.4662 9.01182L9.94466 7.97693C9.9082 7.91567 9.85591 7.86482 9.79303 7.82948C9.73015 7.79414 9.65886 7.77553 9.58632 7.77553C9.51376 7.77553 9.44248 7.79414 9.3796 7.82948C9.31672 7.86482 9.26443 7.91567 9.22797 7.97693ZM10.1437 9.75153L10.7211 9.83359L10.303 10.2326C10.2568 10.2766 10.2223 10.331 10.2024 10.3909C10.1825 10.4509 10.1778 10.5147 10.1887 10.5768L10.2871 11.1384L9.76947 10.8735C9.71226 10.8441 9.64858 10.8287 9.58393 10.8287C9.51927 10.8287 9.45559 10.8441 9.39839 10.8735L8.88078 11.1384L8.97913 10.5768C8.99066 10.5151 8.98673 10.4515 8.96766 10.3916C8.9486 10.3316 8.91496 10.2771 8.86963 10.2326L8.45197 9.83514L9.02929 9.75308C9.09318 9.74402 9.15385 9.71992 9.20608 9.68286C9.25831 9.6458 9.30053 9.59689 9.32911 9.54035L9.58632 9.02699L9.84432 9.53802C9.87266 9.5948 9.91473 9.64399 9.9669 9.68133C10.0191 9.71866 10.0798 9.74302 10.1437 9.75231V9.75153ZM14.5338 6.75731L14.3347 7.89371C14.3221 7.96526 14.3302 8.03883 14.3582 8.10611C14.3861 8.17338 14.4328 8.23167 14.4929 8.27437C14.5531 8.31707 14.6242 8.34247 14.6984 8.34771C14.7725 8.35295 14.8467 8.33781 14.9125 8.30401L15.9568 7.76731L17.0016 8.30401C17.0589 8.33305 17.1225 8.34826 17.1871 8.34834C17.2451 8.34831 17.3023 8.33591 17.3549 8.31202C17.4074 8.28813 17.454 8.25332 17.4914 8.21003C17.5287 8.16673 17.5559 8.116 17.5711 8.06136C17.5863 8.00672 17.5891 7.94951 17.5793 7.89371L17.3802 6.75731L18.2259 5.95227C18.2792 5.90163 18.3168 5.83744 18.3346 5.76698C18.3525 5.69651 18.3498 5.62258 18.3268 5.55355C18.3039 5.48451 18.2616 5.42313 18.2048 5.37634C18.148 5.32955 18.0789 5.29922 18.0053 5.28879L16.8367 5.12273L16.3152 4.08784C16.2785 4.02729 16.2263 3.97712 16.1638 3.94227C16.1012 3.90742 16.0304 3.88909 15.9584 3.88909C15.8864 3.88909 15.8156 3.90742 15.7531 3.94227C15.6905 3.97712 15.6383 4.02729 15.6017 4.08784L15.0789 5.12195L13.9103 5.28801C13.8368 5.29844 13.7677 5.32877 13.7109 5.37556C13.654 5.42235 13.6118 5.48373 13.5888 5.55277C13.5659 5.6218 13.5632 5.69574 13.581 5.7662C13.5988 5.83667 13.6365 5.90085 13.6897 5.95149L14.5338 6.75731ZM15.399 5.86282C15.4629 5.85376 15.5236 5.82966 15.5758 5.7926C15.628 5.75554 15.6702 5.70663 15.6988 5.65009L15.9568 5.13789L16.2148 5.64892C16.2434 5.70547 16.2856 5.75437 16.3379 5.79143C16.3901 5.82849 16.4508 5.85259 16.5146 5.86166L17.092 5.94372L16.6735 6.34351C16.6273 6.38754 16.5928 6.44188 16.5729 6.50184C16.553 6.56179 16.5483 6.62558 16.5592 6.6877L16.6576 7.24928L16.14 6.98444C16.0828 6.95501 16.0191 6.93963 15.9544 6.93963C15.8898 6.93963 15.8261 6.95501 15.7689 6.98444L15.2513 7.24928L15.3496 6.6877C15.3612 6.62596 15.3572 6.5624 15.3382 6.50247C15.3191 6.44253 15.2855 6.388 15.2401 6.34351L14.8225 5.94605L15.399 5.86282ZM20.9043 2.86822L20.7052 4.00461C20.6926 4.07616 20.7007 4.14974 20.7287 4.21701C20.7567 4.28429 20.8033 4.34257 20.8635 4.38527C20.9236 4.42797 20.9947 4.45338 21.0689 4.45862C21.143 4.46385 21.2172 4.44871 21.283 4.41491L22.3273 3.87822L23.3721 4.41491C23.4294 4.44396 23.493 4.45916 23.5576 4.45925C23.6156 4.45921 23.6728 4.44682 23.7254 4.42293C23.7779 4.39904 23.8245 4.36423 23.8619 4.32094C23.8992 4.27764 23.9264 4.2269 23.9416 4.17227C23.9568 4.11763 23.9596 4.06041 23.9498 4.00461L23.7507 2.86822L24.5968 2.06318C24.6501 2.01253 24.6877 1.94835 24.7055 1.87788C24.7234 1.80742 24.7207 1.73349 24.6977 1.66445C24.6748 1.59542 24.6325 1.53403 24.5757 1.48724C24.5189 1.44045 24.4498 1.41013 24.3762 1.3997L23.2077 1.23363L22.6857 0.198746C22.649 0.1382 22.5968 0.0880296 22.5343 0.053179C22.4717 0.0183284 22.4009 0 22.3289 0C22.2569 0 22.1861 0.0183284 22.1236 0.053179C22.061 0.0880296 22.0088 0.1382 21.9722 0.198746L21.4478 1.23363L20.2792 1.3997C20.2056 1.41001 20.1364 1.44025 20.0795 1.48699C20.0226 1.53373 19.9802 1.5951 19.9572 1.66416C19.9341 1.73321 19.9314 1.80719 19.9491 1.87771C19.9669 1.94824 20.0046 2.01248 20.0578 2.06318L20.9043 2.86822ZM21.7695 1.97373C21.8334 1.96467 21.8941 1.94057 21.9463 1.90351C21.9985 1.86645 22.0408 1.81754 22.0693 1.76099L22.3273 1.2488L22.5853 1.75983C22.6139 1.81637 22.6561 1.86528 22.7084 1.90234C22.7606 1.9394 22.8213 1.9635 22.8851 1.97256L23.4625 2.05462L23.044 2.45442C22.9978 2.49845 22.9633 2.55278 22.9434 2.61274C22.9235 2.6727 22.9188 2.73648 22.9297 2.7986L23.0281 3.36019L22.5105 3.09534C22.4533 3.06591 22.3896 3.05053 22.3249 3.05053C22.2603 3.05053 22.1966 3.06591 22.1394 3.09534L21.6218 3.36019L21.7201 2.7986C21.7317 2.73686 21.7277 2.67331 21.7087 2.61338C21.6896 2.55344 21.656 2.4989 21.6106 2.45442L21.1922 2.05618L21.7695 1.97373ZM3.9516 6.55936L8.4225 4.14812L7.90888 5.17173L8.62556 5.51397L9.69382 3.38197C9.72196 3.32582 9.73582 3.26387 9.73424 3.20138C9.73266 3.13888 9.71568 3.07768 9.68474 3.02296C9.6538 2.96824 9.6098 2.92161 9.55649 2.88702C9.50318 2.85243 9.44212 2.83091 9.37848 2.82427L6.96167 2.57109L6.87885 3.34619L8.03987 3.46675L3.56658 5.87682L3.9516 6.55936Z" fill="#A9A9A9"/>
</svg>
