<svg width="16" height="16" viewBox="0 0 16 16" fill="none" xmlns="http://www.w3.org/2000/svg">
<g id="user type 1" clip-path="url(#clip0_3650_3837)">
<g id="Group">
<path id="Vector" d="M7.65901 0.647464C6.76018 0.646344 5.88442 0.931864 5.15898 1.46253C4.43353 1.9932 3.8962 2.74137 3.62507 3.59833C3.35393 4.45528 3.36312 5.37636 3.6513 6.22774C3.93947 7.07911 4.49162 7.81641 5.22751 8.3325C3.95407 8.84142 2.86204 9.71975 2.09194 10.8545C1.32184 11.9892 0.908901 13.3284 0.90625 14.6997C0.916688 14.8694 0.991446 15.0287 1.11528 15.1452C1.23912 15.2616 1.40271 15.3265 1.57271 15.3265C1.7427 15.3265 1.90629 15.2616 2.03013 15.1452C2.15397 15.0287 2.22873 14.8694 2.23916 14.6997C2.23693 13.7149 2.49834 12.7473 2.99625 11.8976C3.49416 11.0478 4.21042 10.3468 5.0707 9.8673C5.93098 9.38779 6.90392 9.14727 7.88853 9.1707C8.87314 9.19413 9.83353 9.48066 10.67 10.0005C10.7448 10.0469 10.828 10.078 10.9148 10.0922C11.0016 10.1064 11.0904 10.1033 11.176 10.0832C11.2616 10.0631 11.3425 10.0263 11.4139 9.97491C11.4853 9.92355 11.5459 9.85862 11.5922 9.78384C11.6386 9.70906 11.6697 9.62589 11.6839 9.53907C11.6981 9.45226 11.695 9.3635 11.6749 9.27786C11.6548 9.19223 11.618 9.11139 11.5666 9.03998C11.5152 8.96856 11.4503 8.90796 11.3755 8.86164C10.9883 8.62858 10.579 8.43446 10.1535 8.28211C11.2042 7.51361 11.8921 6.27644 11.8921 4.88054C11.8921 2.55487 9.98467 0.647464 7.65901 0.647464ZM7.65901 1.9829C9.26404 1.9829 10.5566 3.2755 10.5566 4.88054C10.5566 6.48557 9.26404 7.77565 7.65901 7.77565C6.05397 7.77565 4.76389 6.49061 4.76389 4.88054C4.76389 3.2755 6.05145 1.9829 7.65901 1.9829ZM14.4042 9.98542C14.2959 9.98849 14.1901 10.0179 14.0957 10.071C14.0013 10.1241 13.9213 10.1994 13.8625 10.2903L11.5645 13.7347L10.1233 12.7697C10.0503 12.7158 9.96716 12.6773 9.87889 12.6565C9.79061 12.6357 9.69904 12.6331 9.60971 12.6487C9.52037 12.6643 9.43514 12.6979 9.35917 12.7474C9.2832 12.797 9.21807 12.8614 9.16772 12.9368C9.11738 13.0123 9.08286 13.0971 9.06627 13.1863C9.04968 13.2754 9.05136 13.367 9.0712 13.4555C9.09104 13.544 9.12863 13.6276 9.18171 13.7011C9.23478 13.7746 9.30222 13.8367 9.37995 13.8834L11.3831 15.2163C11.5305 15.314 11.7107 15.3493 11.884 15.3143C12.0574 15.2793 12.2098 15.177 12.3078 15.0298L14.9762 11.0286C15.0454 10.9268 15.0852 10.8079 15.0911 10.6849C15.0971 10.562 15.0689 10.4397 15.0097 10.3318C14.9505 10.2239 14.8626 10.1344 14.7558 10.0733C14.6489 10.0121 14.5272 9.98173 14.4042 9.98542Z" fill="#0274B3"/>
</g>
</g>
<defs>
<clipPath id="clip0_3650_3837">
<rect width="16" height="16" fill="white"/>
</clipPath>
</defs>
</svg>
