<svg width="24" height="24" viewBox="0 0 24 24" fill="none" xmlns="http://www.w3.org/2000/svg">
<path d="M23.7116 6.87348L17.0195 0.18137C16.962 0.123871 16.8938 0.0782579 16.8187 0.0471377C16.7436 0.0160176 16.6631 0 16.5818 0C16.5005 0 16.42 0.0160176 16.3449 0.0471377C16.2698 0.0782579 16.2016 0.123871 16.1441 0.18137L16.1157 0.209726C15.9134 0.410972 15.7529 0.650364 15.6436 0.914043C15.5344 1.17772 15.4785 1.46045 15.4793 1.74587C15.4793 2.11969 15.5743 2.4784 15.7507 2.7965L8.74856 8.80597C8.21265 8.32703 7.52866 8.0649 6.80417 8.0649C6.42023 8.06383 6.0399 8.13893 5.68518 8.28586C5.33047 8.4328 5.00842 8.64863 4.7377 8.92088L4.69572 8.96286C4.63822 9.02033 4.59261 9.08856 4.56149 9.16367C4.53037 9.23877 4.51435 9.31927 4.51435 9.40057C4.51435 9.48186 4.53037 9.56236 4.56149 9.63747C4.59261 9.71257 4.63822 9.78081 4.69572 9.83828L8.70485 13.8474L4.80023 17.7519C4.7221 17.8323 2.87392 19.7368 1.65886 21.2524C0.501735 22.6953 0.272911 22.9596 0.261024 22.9732C0.157522 23.0912 0.102726 23.2441 0.107738 23.4009C0.11275 23.5578 0.177195 23.7068 0.288017 23.818C0.345497 23.8758 0.413858 23.9216 0.489154 23.9529C0.56445 23.9842 0.645192 24.0002 0.72672 24.0001C0.871964 24.0001 1.01758 23.9493 1.13472 23.8469C1.14499 23.838 1.40329 23.6135 2.8556 22.4491C4.37094 21.234 6.27545 19.3857 6.362 19.3014L10.2603 15.4031L14.0547 19.1975C14.1756 19.3185 14.3341 19.3789 14.4924 19.3789C14.6508 19.3789 14.8094 19.3185 14.9301 19.1975L14.9721 19.1555C15.2444 18.8848 15.4602 18.5628 15.6071 18.2081C15.754 17.8533 15.8292 17.473 15.8281 17.0891C15.83 16.3716 15.566 15.6789 15.087 15.1447L21.0965 8.14253C21.4179 8.32099 21.7795 8.41441 22.1471 8.41395C22.7275 8.41395 23.273 8.18797 23.6833 7.7775L23.7116 7.74915C23.7691 7.69166 23.8148 7.6234 23.8459 7.54827C23.877 7.47315 23.893 7.39263 23.893 7.31131C23.893 7.23 23.877 7.14948 23.8459 7.07435C23.8148 6.99923 23.7691 6.93097 23.7116 6.87348Z" fill="#919191"/>
</svg>
