<svg width="59" height="89" viewBox="0 0 59 89" fill="none" xmlns="http://www.w3.org/2000/svg">
<path d="M0.608282 80.24C10.7683 72.08 18.7283 65.4 24.4883 60.2C30.2483 54.92 35.0883 49.44 39.0083 43.76C43.0083 38 45.0083 32.36 45.0083 26.84C45.0083 21.64 43.7283 17.56 41.1683 14.6C38.6883 11.56 34.6483 10.04 29.0483 10.04C23.6083 10.04 19.3683 11.76 16.3283 15.2C13.3683 18.56 11.7683 23.08 11.5283 28.76H0.968281C1.28828 19.8 4.00828 12.88 9.12828 8C14.2483 3.11999 20.8483 0.679993 28.9283 0.679993C37.1683 0.679993 43.6883 2.95999 48.4883 7.52C53.3683 12.08 55.8083 18.36 55.8083 26.36C55.8083 33 53.8083 39.48 49.8083 45.8C45.8883 52.04 41.4083 57.56 36.3683 62.36C31.3283 67.08 24.8883 72.6 17.0483 78.92H58.3283V88.04H0.608282V80.24Z" fill="#EAEAEA" fill-opacity="0.5"/>
</svg>
