<svg width="59" height="90" viewBox="0 0 59 90" fill="none" xmlns="http://www.w3.org/2000/svg">
<path d="M1.86797 24.08C2.42797 16.72 5.26797 10.96 10.388 6.79999C15.508 2.63999 22.148 0.559994 30.308 0.559994C35.748 0.559994 40.428 1.56 44.348 3.56C48.348 5.48 51.348 8.12 53.348 11.48C55.428 14.84 56.468 18.64 56.468 22.88C56.468 27.84 55.028 32.12 52.148 35.72C49.348 39.32 45.668 41.64 41.108 42.68V43.28C46.308 44.56 50.428 47.08 53.468 50.84C56.508 54.6 58.028 59.52 58.028 65.6C58.028 70.16 56.988 74.28 54.908 77.96C52.828 81.56 49.708 84.4 45.548 86.48C41.388 88.56 36.388 89.6 30.548 89.6C22.068 89.6 15.108 87.4 9.66797 83C4.22797 78.52 1.18797 72.2 0.547969 64.04H11.108C11.668 68.84 13.628 72.76 16.988 75.8C20.348 78.84 24.828 80.36 30.428 80.36C36.028 80.36 40.268 78.92 43.148 76.04C46.108 73.08 47.588 69.28 47.588 64.64C47.588 58.64 45.588 54.32 41.588 51.68C37.588 49.04 31.548 47.72 23.468 47.72H20.708V38.6H23.588C30.948 38.52 36.508 37.32 40.268 35C44.028 32.6 45.908 28.92 45.908 23.96C45.908 19.72 44.508 16.32 41.708 13.76C38.988 11.2 35.068 9.92 29.948 9.92C24.988 9.92 20.988 11.2 17.948 13.76C14.908 16.32 13.108 19.76 12.548 24.08H1.86797Z" fill="#EAEAEA" fill-opacity="0.5"/>
</svg>
