<svg width="33" height="32" viewBox="0 0 33 32" fill="none" xmlns="http://www.w3.org/2000/svg">
<path d="M14.7858 10.1442C14.7858 11.0523 15.5219 11.7885 16.43 11.7885C17.3381 11.7885 18.0742 11.0523 18.0742 10.1442C18.0742 9.23615 17.3381 8.5 16.43 8.5C15.5219 8.5 14.7858 9.23615 14.7858 10.1442Z" fill="#333232"/>
<path d="M14.7857 22.1882C14.7857 23.0963 15.5218 23.8325 16.4299 23.8325C17.338 23.8325 18.0742 23.0963 18.0742 22.1882C18.0742 21.2801 17.338 20.544 16.4299 20.544C15.5218 20.544 14.7857 21.2801 14.7857 22.1882Z" fill="#333232"/>
<path d="M14.7858 16.1882C14.7858 17.0963 15.5219 17.8324 16.43 17.8324C17.3381 17.8324 18.0742 17.0963 18.0742 16.1882C18.0742 15.2801 17.3381 14.544 16.43 14.544C15.5219 14.544 14.7858 15.2801 14.7858 16.1882Z" fill="#333232"/>
<path d="M14.7858 10.1442C14.7858 11.0523 15.5219 11.7885 16.43 11.7885C17.3381 11.7885 18.0742 11.0523 18.0742 10.1442C18.0742 9.23615 17.3381 8.5 16.43 8.5C15.5219 8.5 14.7858 9.23615 14.7858 10.1442Z" stroke="#333232" stroke-linecap="round"/>
<path d="M14.7857 22.1882C14.7857 23.0963 15.5218 23.8325 16.4299 23.8325C17.338 23.8325 18.0742 23.0963 18.0742 22.1882C18.0742 21.2801 17.338 20.544 16.4299 20.544C15.5218 20.544 14.7857 21.2801 14.7857 22.1882Z" stroke="#333232" stroke-linecap="round"/>
<path d="M14.7858 16.1882C14.7858 17.0963 15.5219 17.8324 16.43 17.8324C17.3381 17.8324 18.0742 17.0963 18.0742 16.1882C18.0742 15.2801 17.3381 14.544 16.43 14.544C15.5219 14.544 14.7858 15.2801 14.7858 16.1882Z" stroke="#333232" stroke-linecap="round"/>
<rect x="-0.5" y="0.5" width="31.1491" height="31" rx="7.5" transform="matrix(-1 0 0 1 31.5742 0)" stroke="#999CA0"/>
</svg>
