<svg width="338" height="252" viewBox="0 0 338 252" fill="none" xmlns="http://www.w3.org/2000/svg">
<path d="M337.78 221.181H0V221.35H337.78V221.181Z" fill="#EBEBEB"/>
<path d="M57.8164 227.605H35.4419V227.774H57.8164V227.605Z" fill="#EBEBEB"/>
<path d="M152.002 227.692H115.616V227.861H152.002V227.692Z" fill="#EBEBEB"/>
<path d="M84.4233 231.098H71.4594V231.266H84.4233V231.098Z" fill="#EBEBEB"/>
<path d="M301.302 231.017H288.311V231.186H301.302V231.017Z" fill="#EBEBEB"/>
<path d="M282.286 231.017H261.824V231.186H282.286V231.017Z" fill="#EBEBEB"/>
<path d="M250.557 229.9H221.805V230.069H250.557V229.9Z" fill="#EBEBEB"/>
<path d="M160.114 191.048H29.6698C28.6479 191.047 27.6685 190.639 26.9465 189.916C26.2246 189.193 25.8191 188.213 25.8191 187.191V3.82367C25.828 2.80764 26.2374 1.83616 26.9584 1.12023C27.6794 0.404294 28.6537 0.0017405 29.6698 0H160.114C161.137 0 162.118 0.406409 162.841 1.12982C163.565 1.85323 163.971 2.83439 163.971 3.85745V187.191C163.971 188.214 163.565 189.195 162.841 189.919C162.118 190.642 161.137 191.048 160.114 191.048ZM29.6698 0.135113C28.6927 0.136902 27.7562 0.526305 27.0659 1.21785C26.3757 1.9094 25.988 2.84657 25.988 3.82367V187.191C25.988 188.168 26.3757 189.105 27.0659 189.797C27.7562 190.488 28.6927 190.878 29.6698 190.88H160.114C161.091 190.878 162.029 190.489 162.72 189.797C163.411 189.106 163.8 188.169 163.802 187.191V3.82367C163.8 2.84595 163.411 1.90879 162.72 1.21744C162.029 0.526086 161.091 0.136898 160.114 0.135113H29.6698Z" fill="#EBEBEB"/>
<path d="M306.236 191.048H175.785C174.763 191.047 173.783 190.64 173.06 189.917C172.337 189.194 171.93 188.213 171.928 187.191V3.82367C171.939 2.80703 172.349 1.83555 173.071 1.1198C173.794 0.404058 174.769 0.00172152 175.785 0H306.236C307.251 0.00351595 308.223 0.406856 308.943 1.1226C309.663 1.83834 310.071 2.80881 310.08 3.82367V187.191C310.08 188.212 309.675 189.191 308.955 189.914C308.234 190.637 307.257 191.045 306.236 191.048ZM175.785 0.135113C174.808 0.136898 173.87 0.526086 173.179 1.21744C172.488 1.90879 172.099 2.84595 172.097 3.82367V187.191C172.099 188.169 172.488 189.106 173.179 189.797C173.87 190.489 174.808 190.878 175.785 190.88H306.236C307.214 190.878 308.151 190.489 308.842 189.797C309.534 189.106 309.923 188.169 309.924 187.191V3.82367C309.923 2.84595 309.534 1.90879 308.842 1.21744C308.151 0.526086 307.214 0.136898 306.236 0.135113H175.785Z" fill="#EBEBEB"/>
<path d="M204.168 221.181H223.3V125.995H204.168V221.181Z" fill="#E6E6E6"/>
<path d="M207.796 221.178H204.161V210.842H211.606L207.796 221.178Z" fill="#B9B9B9"/>
<path d="M275.668 221.181H294.8V125.995H275.668V221.181Z" fill="#E6E6E6"/>
<path d="M204.173 214.839H278.849V125.996L204.173 125.996V214.839Z" fill="#B9B9B9"/>
<path d="M206.983 184.639V201.913H240.281V184.639H206.983Z" fill="#E6E6E6"/>
<path d="M242.723 184.639V201.913H276.021V184.639H242.723Z" fill="#E6E6E6"/>
<path d="M256.072 187.526H262.658C264.075 187.527 265.477 187.239 266.778 186.679C268.079 186.119 269.252 185.299 270.225 184.27H248.505C249.479 185.299 250.652 186.119 251.953 186.679C253.254 187.239 254.655 187.527 256.072 187.526Z" fill="#B9B9B9"/>
<path d="M220.004 187.526H226.591C228.007 187.527 229.409 187.239 230.71 186.679C232.011 186.119 233.184 185.299 234.157 184.27H212.438C213.411 185.299 214.584 186.119 215.885 186.679C217.186 187.239 218.587 187.527 220.004 187.526Z" fill="#B9B9B9"/>
<path d="M206.983 157.788V175.062H240.281V157.788H206.983Z" fill="#E6E6E6"/>
<path d="M242.723 157.788V175.062H276.021V157.788H242.723Z" fill="#E6E6E6"/>
<path d="M256.072 160.676H262.658C264.075 160.673 265.475 160.381 266.775 159.819C268.075 159.257 269.246 158.436 270.218 157.406H248.505C249.478 158.437 250.651 159.258 251.952 159.821C253.253 160.383 254.655 160.674 256.072 160.676Z" fill="#B9B9B9"/>
<path d="M220.004 160.67H226.591C228.006 160.67 229.407 160.382 230.708 159.824C232.009 159.265 233.182 158.447 234.157 157.42H212.438C213.412 158.447 214.585 159.265 215.886 159.824C217.187 160.382 218.588 160.67 220.004 160.67Z" fill="#B9B9B9"/>
<path d="M206.983 130.938V148.212H240.282V130.938H206.983Z" fill="#E6E6E6"/>
<path d="M242.723 130.938V148.212H276.021V130.938H242.723Z" fill="#E6E6E6"/>
<path d="M256.072 133.831H262.658C264.075 133.832 265.477 133.543 266.778 132.983C268.079 132.424 269.252 131.604 270.225 130.575H248.505C249.479 131.604 250.652 132.424 251.953 132.983C253.254 133.543 254.655 133.832 256.072 133.831Z" fill="#B9B9B9"/>
<path d="M220.004 133.831H226.591C228.007 133.832 229.409 133.543 230.71 132.983C232.011 132.424 233.184 131.604 234.157 130.575H212.438C213.411 131.604 214.584 132.424 215.885 132.983C217.186 133.543 218.587 133.832 220.004 133.831Z" fill="#B9B9B9"/>
<path d="M275.212 221.178H278.847V210.842H271.402L275.212 221.178Z" fill="#B9B9B9"/>
<path d="M278.36 60.641L281.285 68.6396H278.36L260.411 60.641H278.36Z" fill="#F5F5F5"/>
<path d="M281.286 60.641V68.6396L263.343 60.641H281.286Z" fill="#E6E6E6"/>
<path d="M207.989 60.641L210.914 68.6396H207.989L190.046 60.641H207.989Z" fill="#F5F5F5"/>
<path d="M210.912 60.641V68.6396L192.969 60.641H210.912Z" fill="#E6E6E6"/>
<path d="M294.459 54.9289H274.942V61.0157H294.459V54.9289Z" fill="#E6E6E6"/>
<path d="M177.912 61.0234L274.942 61.0234V54.9366L177.912 54.9366V61.0234Z" fill="#F5F5F5"/>
<path d="M255.234 33.7773C255.234 33.7773 255.43 54.9359 262.733 54.9359C270.035 54.9359 270.225 33.7773 270.225 33.7773H255.234Z" fill="#B9B9B9"/>
<path d="M209.948 48.0273C209.948 48.0273 210.461 54.9248 230.107 54.9248C249.752 54.9248 250.265 48.0273 250.265 48.0273H209.948Z" fill="#B9B9B9"/>
<path d="M151.561 221.183H152.865L156.601 202.774L157.276 199.544L161.33 179.48H176.989L185.454 221.183H186.765L178.138 178.717C178.109 178.572 178.031 178.441 177.916 178.347C177.801 178.253 177.658 178.202 177.509 178.204H160.81C160.662 178.203 160.519 178.254 160.406 178.347C160.292 178.441 160.215 178.572 160.188 178.717L156.608 196.336L155.932 199.558L151.561 221.183Z" fill="#B9B9B9"/>
<path d="M126.485 221.18H127.789L136.26 179.478H151.879L155.933 199.556L156.608 202.771L160.351 221.18H161.655L157.263 199.563L156.588 196.354L153.007 178.735C152.972 178.593 152.892 178.466 152.779 178.373C152.666 178.281 152.525 178.228 152.379 178.222H135.74C135.592 178.22 135.448 178.271 135.333 178.365C135.218 178.459 135.14 178.59 135.112 178.735L126.485 221.18Z" fill="#B9B9B9"/>
<path d="M179.335 173.333H133.891C132.848 173.334 131.849 173.749 131.112 174.486C130.375 175.223 129.961 176.222 129.959 177.264V177.4C129.959 177.781 130.11 178.147 130.38 178.417C130.65 178.687 131.016 178.839 131.398 178.839H181.828C182.21 178.839 182.576 178.687 182.846 178.417C183.116 178.147 183.267 177.781 183.267 177.4V177.264C183.265 176.222 182.851 175.223 182.114 174.486C181.377 173.749 180.378 173.334 179.335 173.333Z" fill="#B9B9B9"/>
<path d="M105.967 221.183H107.271L111.007 202.774L111.683 199.544L115.736 179.48H131.355L139.847 221.183H141.157L132.53 178.717C132.502 178.572 132.424 178.441 132.309 178.347C132.194 178.253 132.05 178.202 131.902 178.204H115.216C115.068 178.203 114.925 178.254 114.812 178.347C114.698 178.441 114.621 178.572 114.594 178.717L111.014 196.336L110.338 199.558L105.967 221.183Z" fill="#B9B9B9"/>
<path d="M80.8768 221.183H82.1874L90.6522 179.48H106.278L110.331 199.558L111.007 202.774L114.749 221.183H116.053L111.662 199.565L110.987 196.356L107.413 178.717C107.378 178.575 107.298 178.448 107.184 178.355C107.071 178.263 106.931 178.21 106.785 178.204H90.132C89.9838 178.202 89.8399 178.253 89.7252 178.347C89.6104 178.441 89.5321 178.572 89.5037 178.717L80.8768 221.183Z" fill="#B9B9B9"/>
<path d="M133.757 173.333H88.2784C87.2362 173.334 86.2372 173.749 85.5002 174.486C84.7633 175.223 84.3485 176.222 84.3467 177.264V177.4C84.3467 177.781 84.4983 178.147 84.7681 178.417C85.038 178.687 85.404 178.839 85.7856 178.839H136.223C136.412 178.839 136.598 178.801 136.773 178.729C136.947 178.656 137.105 178.55 137.238 178.417C137.371 178.283 137.476 178.124 137.548 177.95C137.62 177.775 137.656 177.588 137.655 177.4V177.264C137.653 176.228 137.243 175.234 136.514 174.498C135.784 173.762 134.793 173.343 133.757 173.333Z" fill="#B9B9B9"/>
<path d="M56.9753 119.98L122.268 119.98L122.268 15.3828L56.9753 15.3828L56.9753 119.98Z" fill="#E6E6E6"/>
<path d="M52.7068 119.98L120.27 119.98L120.27 15.3828L52.7068 15.3828L52.7068 119.98Z" fill="#B9B9B9"/>
<path d="M56.9753 127.898L122.268 127.898V119.967L56.9753 119.967V127.898Z" fill="#E6E6E6"/>
<path d="M45.608 127.898L113.171 127.898V119.967L45.608 119.967V127.898Z" fill="#B9B9B9"/>
<path d="M114.29 114.006V21.3528L58.6709 21.3528L58.6709 114.006H114.29Z" fill="#FAFAFA"/>
<path d="M114.77 113.999L95.206 21.3528H78.6548L98.219 113.999H114.77Z" fill="white"/>
<path d="M110.263 102.936C110.376 102.936 110.484 102.892 110.564 102.812C110.644 102.732 110.689 102.624 110.689 102.511V25.2403C110.689 25.1274 110.644 25.0192 110.564 24.9393C110.484 24.8595 110.376 24.8147 110.263 24.8147C110.15 24.8147 110.042 24.8595 109.962 24.9393C109.882 25.0192 109.838 25.1274 109.838 25.2403V102.511C109.838 102.624 109.882 102.732 109.962 102.812C110.042 102.892 110.15 102.936 110.263 102.936Z" fill="#B9B9B9"/>
<path d="M94.6694 113.999L75.1052 21.3528H68.6536L88.211 113.999H94.6694Z" fill="white"/>
<path d="M59.4333 114.006L59.4333 21.3528H58.6767L58.6767 114.006H59.4333Z" fill="#E6E6E6"/>
<path opacity="0.6" d="M51.2859 25.9414H116.579L117.133 23.6715H51.8398L51.2859 25.9414Z" fill="#B9B9B9"/>
<path opacity="0.6" d="M51.2859 31.218H116.579L117.133 28.9549H51.8398L51.2859 31.218Z" fill="#B9B9B9"/>
<path opacity="0.6" d="M51.2859 36.498H116.579L117.133 34.2281H51.8398L51.2859 36.498Z" fill="#B9B9B9"/>
<path opacity="0.6" d="M51.2859 41.7787H116.579L117.133 39.5156H51.8398L51.2859 41.7787Z" fill="#B9B9B9"/>
<path opacity="0.6" d="M51.2859 47.056H116.579L117.133 44.7929H51.8398L51.2859 47.056Z" fill="#B9B9B9"/>
<path opacity="0.6" d="M51.2859 52.3401H116.579L117.133 50.0703H51.8398L51.2859 52.3401Z" fill="#B9B9B9"/>
<path d="M168.897 251.696C241.238 251.696 299.882 248.272 299.882 244.049C299.882 239.825 241.238 236.402 168.897 236.402C96.5565 236.402 37.9128 239.825 37.9128 244.049C37.9128 248.272 96.5565 251.696 168.897 251.696Z" fill="#CCCCCC"/>
<path d="M164.246 140.331H122.976C122.394 140.331 121.922 140.803 121.922 141.385V158.598C121.922 159.18 122.394 159.652 122.976 159.652H164.246C164.828 159.652 165.3 159.18 165.3 158.598V141.385C165.3 140.803 164.828 140.331 164.246 140.331Z" fill="#0274B3"/>
<path opacity="0.6" d="M164.246 140.331H122.976C122.394 140.331 121.922 140.803 121.922 141.385V158.598C121.922 159.18 122.394 159.652 122.976 159.652H164.246C164.828 159.652 165.3 159.18 165.3 158.598V141.385C165.3 140.803 164.828 140.331 164.246 140.331Z" fill="white"/>
<path opacity="0.1" d="M164.236 140.331H122.952C122.673 140.331 122.405 140.442 122.207 140.639C122.009 140.837 121.898 141.105 121.898 141.385V146.904L143.381 151.133C143.513 151.16 143.648 151.16 143.78 151.133L165.269 146.904V141.385C165.269 141.109 165.161 140.843 164.968 140.646C164.775 140.449 164.512 140.336 164.236 140.331Z" fill="black"/>
<path d="M165.147 133.269H152.541V131.155C152.54 130.281 152.192 129.443 151.574 128.825C150.956 128.208 150.119 127.86 149.245 127.858H137.983C137.109 127.86 136.272 128.208 135.654 128.825C135.036 129.443 134.688 130.281 134.686 131.155V133.269H122.087C121.811 133.269 121.547 133.379 121.352 133.574C121.156 133.769 121.047 134.034 121.047 134.309V144.72C121.048 144.96 121.132 145.193 121.285 145.378C121.437 145.564 121.649 145.692 121.885 145.74L143.415 149.976C143.547 149.996 143.681 149.996 143.813 149.976L165.343 145.74C165.58 145.692 165.792 145.565 165.946 145.379C166.099 145.193 166.185 144.961 166.188 144.72V134.309C166.188 134.034 166.078 133.769 165.883 133.574C165.688 133.379 165.423 133.269 165.147 133.269ZM137.193 131.155C137.194 130.945 137.278 130.744 137.426 130.595C137.573 130.446 137.773 130.361 137.983 130.357H149.245C149.454 130.361 149.654 130.446 149.802 130.595C149.95 130.744 150.033 130.945 150.035 131.155V133.269H137.2L137.193 131.155Z" fill="#0274B3"/>
<path opacity="0.6" d="M165.147 133.269H152.541V131.155C152.54 130.281 152.192 129.443 151.574 128.825C150.956 128.208 150.119 127.86 149.245 127.858H137.983C137.109 127.86 136.272 128.208 135.654 128.825C135.036 129.443 134.688 130.281 134.686 131.155V133.269H122.087C121.811 133.269 121.547 133.379 121.352 133.574C121.156 133.769 121.047 134.034 121.047 134.309V144.72C121.048 144.96 121.132 145.193 121.285 145.378C121.437 145.564 121.649 145.692 121.885 145.74L143.415 149.976C143.547 149.996 143.681 149.996 143.813 149.976L165.343 145.74C165.58 145.692 165.792 145.565 165.946 145.379C166.099 145.193 166.185 144.961 166.188 144.72V134.309C166.188 134.034 166.078 133.769 165.883 133.574C165.688 133.379 165.423 133.269 165.147 133.269ZM137.193 131.155C137.194 130.945 137.278 130.744 137.426 130.595C137.573 130.446 137.773 130.361 137.983 130.357H149.245C149.454 130.361 149.654 130.446 149.802 130.595C149.95 130.744 150.033 130.945 150.035 131.155V133.269H137.2L137.193 131.155Z" fill="white"/>
<path d="M145.834 147.124H141.389C140.837 147.124 140.389 147.571 140.389 148.123V150.934C140.389 151.486 140.837 151.934 141.389 151.934H145.834C146.386 151.934 146.834 151.486 146.834 150.934V148.123C146.834 147.571 146.386 147.124 145.834 147.124Z" fill="#0274B3"/>
<path opacity="0.3" d="M145.834 147.124H141.389C140.837 147.124 140.389 147.571 140.389 148.123V150.934C140.389 151.486 140.837 151.934 141.389 151.934H145.834C146.386 151.934 146.834 151.486 146.834 150.934V148.123C146.834 147.571 146.386 147.124 145.834 147.124Z" fill="white"/>
<path d="M164.246 16.0477H122.976C122.394 16.0477 121.922 16.5196 121.922 17.1016V34.3149C121.922 34.8969 122.394 35.3687 122.976 35.3687H164.246C164.828 35.3687 165.3 34.8969 165.3 34.3149V17.1016C165.3 16.5196 164.828 16.0477 164.246 16.0477Z" fill="#0274B3"/>
<path opacity="0.6" d="M164.246 16.0477H122.976C122.394 16.0477 121.922 16.5196 121.922 17.1016V34.3149C121.922 34.8969 122.394 35.3687 122.976 35.3687H164.246C164.828 35.3687 165.3 34.8969 165.3 34.3149V17.1016C165.3 16.5196 164.828 16.0477 164.246 16.0477Z" fill="white"/>
<path opacity="0.1" d="M164.236 16.0477H122.952C122.673 16.0477 122.405 16.1588 122.207 16.3564C122.009 16.554 121.898 16.8221 121.898 17.1016V22.6209L143.381 26.8499C143.513 26.8769 143.648 26.8769 143.78 26.8499L165.269 22.6209V17.1016C165.269 16.8256 165.161 16.5605 164.968 16.3635C164.775 16.1664 164.512 16.053 164.236 16.0477Z" fill="black"/>
<path d="M165.147 8.98619H152.541V6.87168C152.54 5.99789 152.192 5.16039 151.574 4.54251C150.956 3.92464 150.119 3.57674 149.245 3.57495H137.983C137.109 3.57674 136.272 3.92464 135.654 4.54251C135.036 5.16039 134.688 5.99789 134.686 6.87168V8.98619H122.087C121.811 8.98619 121.547 9.0958 121.352 9.2909C121.156 9.48601 121.047 9.75063 121.047 10.0265V20.4369C121.047 20.6776 121.13 20.9108 121.283 21.0968C121.436 21.2828 121.648 21.4101 121.885 21.457L143.415 25.6658C143.546 25.6927 143.682 25.6927 143.813 25.6658L165.343 21.43C165.577 21.3857 165.788 21.2632 165.943 21.0827C166.098 20.9022 166.186 20.6745 166.195 20.4369V10.0265C166.195 9.88936 166.167 9.75352 166.115 9.62685C166.062 9.50019 165.985 9.3852 165.887 9.28851C165.79 9.19181 165.675 9.11531 165.548 9.06343C165.421 9.01155 165.285 8.98529 165.147 8.98619ZM137.193 6.87168C137.193 6.66143 137.276 6.45969 137.424 6.31038C137.572 6.16108 137.773 6.07631 137.983 6.07452H149.245C149.454 6.07629 149.654 6.16013 149.802 6.30798C149.95 6.45583 150.033 6.65585 150.035 6.86493V8.97943H137.2L137.193 6.87168Z" fill="#0274B3"/>
<path opacity="0.6" d="M165.147 8.98619H152.541V6.87168C152.54 5.99789 152.192 5.16039 151.574 4.54251C150.956 3.92464 150.119 3.57674 149.245 3.57495H137.983C137.109 3.57674 136.272 3.92464 135.654 4.54251C135.036 5.16039 134.688 5.99789 134.686 6.87168V8.98619H122.087C121.811 8.98619 121.547 9.0958 121.352 9.2909C121.156 9.48601 121.047 9.75063 121.047 10.0265V20.4369C121.047 20.6776 121.13 20.9108 121.283 21.0968C121.436 21.2828 121.648 21.4101 121.885 21.457L143.415 25.6658C143.546 25.6927 143.682 25.6927 143.813 25.6658L165.343 21.43C165.577 21.3857 165.788 21.2632 165.943 21.0827C166.098 20.9022 166.186 20.6745 166.195 20.4369V10.0265C166.195 9.88936 166.167 9.75352 166.115 9.62685C166.062 9.50019 165.985 9.3852 165.887 9.28851C165.79 9.19181 165.675 9.11531 165.548 9.06343C165.421 9.01155 165.285 8.98529 165.147 8.98619ZM137.193 6.87168C137.193 6.66143 137.276 6.45969 137.424 6.31038C137.572 6.16108 137.773 6.07631 137.983 6.07452H149.245C149.454 6.07629 149.654 6.16013 149.802 6.30798C149.95 6.45583 150.033 6.65585 150.035 6.86493V8.97943H137.2L137.193 6.87168Z" fill="white"/>
<path d="M145.834 22.8527H141.389C140.837 22.8527 140.389 23.3004 140.389 23.8526V26.6629C140.389 27.2151 140.837 27.6627 141.389 27.6627H145.834C146.386 27.6627 146.834 27.2151 146.834 26.6629V23.8526C146.834 23.3004 146.386 22.8527 145.834 22.8527Z" fill="#0274B3"/>
<path opacity="0.3" d="M145.834 22.8527H141.389C140.837 22.8527 140.389 23.3004 140.389 23.8526V26.6629C140.389 27.2151 140.837 27.6627 141.389 27.6627H145.834C146.386 27.6627 146.834 27.2151 146.834 26.6629V23.8526C146.834 23.3004 146.386 22.8527 145.834 22.8527Z" fill="white"/>
<path d="M99.9563 140.331H58.6863C58.1043 140.331 57.6324 140.803 57.6324 141.385V158.598C57.6324 159.18 58.1043 159.652 58.6863 159.652H99.9563C100.538 159.652 101.01 159.18 101.01 158.598V141.385C101.01 140.803 100.538 140.331 99.9563 140.331Z" fill="#0274B3"/>
<path opacity="0.6" d="M99.9563 140.331H58.6863C58.1043 140.331 57.6324 140.803 57.6324 141.385V158.598C57.6324 159.18 58.1043 159.652 58.6863 159.652H99.9563C100.538 159.652 101.01 159.18 101.01 158.598V141.385C101.01 140.803 100.538 140.331 99.9563 140.331Z" fill="white"/>
<path opacity="0.1" d="M99.9833 140.331H58.6863C58.4068 140.331 58.1388 140.442 57.9411 140.639C57.7435 140.837 57.6324 141.105 57.6324 141.385V146.904L79.1153 151.133C79.249 151.16 79.3868 151.16 79.5206 151.133L101.01 146.904V141.385C101.01 141.11 100.903 140.846 100.711 140.649C100.519 140.452 100.258 140.338 99.9833 140.331Z" fill="black"/>
<path d="M100.851 133.269H88.2455V131.155C88.2437 130.281 87.8958 129.443 87.2779 128.825C86.66 128.208 85.8225 127.86 84.9487 127.858H73.6939C72.8201 127.86 71.9826 128.208 71.3647 128.825C70.7469 129.443 70.399 130.281 70.3972 131.155V133.269H57.7912C57.5153 133.269 57.2507 133.379 57.0556 133.574C56.8605 133.769 56.7509 134.034 56.7509 134.309V144.72C56.7522 144.96 56.8362 145.193 56.9887 145.378C57.1413 145.564 57.3531 145.692 57.5885 145.74L79.1186 149.976C79.253 149.996 79.3896 149.996 79.524 149.976L101.054 145.74C101.29 145.692 101.501 145.564 101.654 145.378C101.806 145.193 101.89 144.96 101.892 144.72V134.309C101.892 134.034 101.782 133.769 101.587 133.574C101.392 133.379 101.127 133.269 100.851 133.269ZM72.8967 131.155C72.9002 130.944 72.9853 130.744 73.1341 130.595C73.2828 130.446 73.4836 130.361 73.6939 130.357H84.9487C85.1591 130.361 85.3598 130.446 85.5086 130.595C85.6573 130.744 85.7424 130.944 85.7459 131.155V133.269H72.9102L72.8967 131.155Z" fill="#0274B3"/>
<path opacity="0.6" d="M100.851 133.269H88.2455V131.155C88.2437 130.281 87.8958 129.443 87.2779 128.825C86.66 128.208 85.8225 127.86 84.9487 127.858H73.6939C72.8201 127.86 71.9826 128.208 71.3647 128.825C70.7469 129.443 70.399 130.281 70.3972 131.155V133.269H57.7912C57.5153 133.269 57.2507 133.379 57.0556 133.574C56.8605 133.769 56.7509 134.034 56.7509 134.309V144.72C56.7522 144.96 56.8362 145.193 56.9887 145.378C57.1413 145.564 57.3531 145.692 57.5885 145.74L79.1186 149.976C79.253 149.996 79.3896 149.996 79.524 149.976L101.054 145.74C101.29 145.692 101.501 145.564 101.654 145.378C101.806 145.193 101.89 144.96 101.892 144.72V134.309C101.892 134.034 101.782 133.769 101.587 133.574C101.392 133.379 101.127 133.269 100.851 133.269ZM72.8967 131.155C72.9002 130.944 72.9853 130.744 73.1341 130.595C73.2828 130.446 73.4836 130.361 73.6939 130.357H84.9487C85.1591 130.361 85.3598 130.446 85.5086 130.595C85.6573 130.744 85.7424 130.944 85.7459 131.155V133.269H72.9102L72.8967 131.155Z" fill="white"/>
<path d="M81.5421 147.124H77.0969C76.5447 147.124 76.097 147.571 76.097 148.123V150.934C76.097 151.486 76.5447 151.934 77.0969 151.934H81.5421C82.0942 151.934 82.5419 151.486 82.5419 150.934V148.123C82.5419 147.571 82.0942 147.124 81.5421 147.124Z" fill="#0274B3"/>
<path opacity="0.3" d="M81.5421 147.124H77.0969C76.5447 147.124 76.097 147.571 76.097 148.123V150.934C76.097 151.486 76.5447 151.934 77.0969 151.934H81.5421C82.0942 151.934 82.5419 151.486 82.5419 150.934V148.123C82.5419 147.571 82.0942 147.124 81.5421 147.124Z" fill="white"/>
<path d="M99.9563 16.0477H58.6863C58.1043 16.0477 57.6324 16.5196 57.6324 17.1016V34.3149C57.6324 34.8969 58.1043 35.3687 58.6863 35.3687H99.9563C100.538 35.3687 101.01 34.8969 101.01 34.3149V17.1016C101.01 16.5196 100.538 16.0477 99.9563 16.0477Z" fill="#0274B3"/>
<path opacity="0.6" d="M99.9563 16.0477H58.6863C58.1043 16.0477 57.6324 16.5196 57.6324 17.1016V34.3149C57.6324 34.8969 58.1043 35.3687 58.6863 35.3687H99.9563C100.538 35.3687 101.01 34.8969 101.01 34.3149V17.1016C101.01 16.5196 100.538 16.0477 99.9563 16.0477Z" fill="white"/>
<path opacity="0.1" d="M99.9833 16.0477H58.6863C58.4068 16.0477 58.1388 16.1588 57.9411 16.3564C57.7435 16.554 57.6324 16.8221 57.6324 17.1016V22.6209L79.1153 26.8499C79.249 26.8771 79.3868 26.8771 79.5206 26.8499L101.01 22.6209V17.1016C101.01 16.8267 100.903 16.5627 100.711 16.3658C100.519 16.1689 100.258 16.0548 99.9833 16.0477Z" fill="black"/>
<path d="M100.851 8.98619H88.2455V6.87168C88.2437 5.99789 87.8958 5.16039 87.2779 4.54251C86.66 3.92464 85.8225 3.57674 84.9487 3.57495H73.6939C72.8201 3.57674 71.9826 3.92464 71.3647 4.54251C70.7469 5.16039 70.399 5.99789 70.3972 6.87168V8.98619H57.7912C57.5153 8.98619 57.2507 9.0958 57.0556 9.2909C56.8605 9.48601 56.7509 9.75063 56.7509 10.0265V20.4369C56.7509 20.6776 56.8345 20.9108 56.9872 21.0968C57.14 21.2828 57.3525 21.4101 57.5885 21.457L79.1186 25.6658C79.2524 25.6929 79.3902 25.6929 79.524 25.6658L101.054 21.43C101.29 21.3831 101.503 21.2558 101.655 21.0698C101.808 20.8838 101.892 20.6506 101.892 20.4099V10.0265C101.892 9.75063 101.782 9.48601 101.587 9.2909C101.392 9.0958 101.127 8.98619 100.851 8.98619ZM72.8967 6.87168C72.8985 6.66081 72.9831 6.45907 73.1322 6.30996C73.2813 6.16084 73.483 6.07629 73.6939 6.07452H84.9487C85.1584 6.07626 85.3592 6.15988 85.5081 6.30755C85.6571 6.45521 85.7424 6.65523 85.7459 6.86493V8.97943H72.9102L72.8967 6.87168Z" fill="#0274B3"/>
<path opacity="0.6" d="M100.851 8.98619H88.2455V6.87168C88.2437 5.99789 87.8958 5.16039 87.2779 4.54251C86.66 3.92464 85.8225 3.57674 84.9487 3.57495H73.6939C72.8201 3.57674 71.9826 3.92464 71.3647 4.54251C70.7469 5.16039 70.399 5.99789 70.3972 6.87168V8.98619H57.7912C57.5153 8.98619 57.2507 9.0958 57.0556 9.2909C56.8605 9.48601 56.7509 9.75063 56.7509 10.0265V20.4369C56.7509 20.6776 56.8345 20.9108 56.9872 21.0968C57.14 21.2828 57.3525 21.4101 57.5885 21.457L79.1186 25.6658C79.2524 25.6929 79.3902 25.6929 79.524 25.6658L101.054 21.43C101.29 21.3831 101.503 21.2558 101.655 21.0698C101.808 20.8838 101.892 20.6506 101.892 20.4099V10.0265C101.892 9.75063 101.782 9.48601 101.587 9.2909C101.392 9.0958 101.127 8.98619 100.851 8.98619ZM72.8967 6.87168C72.8985 6.66081 72.9831 6.45907 73.1322 6.30996C73.2813 6.16084 73.483 6.07629 73.6939 6.07452H84.9487C85.1584 6.07626 85.3592 6.15988 85.5081 6.30755C85.6571 6.45521 85.7424 6.65523 85.7459 6.86493V8.97943H72.9102L72.8967 6.87168Z" fill="white"/>
<path d="M81.5421 22.8527H77.0969C76.5447 22.8527 76.097 23.3004 76.097 23.8526V26.6629C76.097 27.2151 76.5447 27.6627 77.0969 27.6627H81.5421C82.0942 27.6627 82.5419 27.2151 82.5419 26.6629V23.8526C82.5419 23.3004 82.0942 22.8527 81.5421 22.8527Z" fill="#0274B3"/>
<path opacity="0.3" d="M81.5421 22.8527H77.0969C76.5447 22.8527 76.097 23.3004 76.097 23.8526V26.6629C76.097 27.2151 76.5447 27.6627 77.0969 27.6627H81.5421C82.0942 27.6627 82.5419 27.2151 82.5419 26.6629V23.8526C82.5419 23.3004 82.0942 22.8527 81.5421 22.8527Z" fill="white"/>
<path d="M94.5795 97.5072H58.687C58.4057 97.5072 58.1359 97.3954 57.937 97.1965C57.7381 96.9976 57.6263 96.7278 57.6263 96.4465V79.24C57.6274 79.0981 57.6573 78.9579 57.7142 78.8279C57.7416 78.7673 57.7732 78.7086 57.8087 78.6523C57.8464 78.5945 57.8918 78.5422 57.9439 78.4969C58.1406 78.299 58.4079 78.1873 58.687 78.1862H92.6609C92.3782 80.5439 92.2856 82.9205 92.3839 85.2931C92.3839 85.6781 92.3839 86.0632 92.4447 86.4415C92.492 87.1508 92.546 87.8669 92.6271 88.5763C92.9748 91.6115 93.6289 94.6037 94.5795 97.5072Z" fill="#0274B3"/>
<path opacity="0.6" d="M94.5795 97.5072H58.687C58.4057 97.5072 58.1359 97.3954 57.937 97.1965C57.7381 96.9976 57.6263 96.7278 57.6263 96.4465V79.24C57.6274 79.0981 57.6573 78.9579 57.7142 78.8279C57.7416 78.7673 57.7732 78.7086 57.8087 78.6523C57.8464 78.5945 57.8918 78.5422 57.9439 78.4969C58.1406 78.299 58.4079 78.1873 58.687 78.1862H92.6609C92.3782 80.5439 92.2856 82.9205 92.3839 85.2931C92.3839 85.6781 92.3839 86.0632 92.4447 86.4415C92.492 87.1508 92.546 87.8669 92.6271 88.5763C92.9748 91.6115 93.6289 94.6037 94.5795 97.5072Z" fill="white"/>
<path opacity="0.1" d="M92.6602 78.1862C92.3776 80.5439 92.285 82.9205 92.3833 85.2931C92.3833 85.6781 92.3832 86.0632 92.444 86.4415L82.5403 88.3871L79.5138 88.9816C79.3831 89.0154 79.246 89.0154 79.1153 88.9816L76.0955 88.3939L57.6324 84.7594V79.2333C57.6346 79.0944 57.6621 78.957 57.7135 78.8279C57.741 78.7673 57.7726 78.7086 57.8081 78.6523C57.8457 78.5945 57.8912 78.5422 57.9432 78.4969C58.14 78.299 58.4072 78.1873 58.6863 78.1862H92.6602Z" fill="black"/>
<path d="M94.0756 71.1226H88.2522V69.0081C88.2487 68.1337 87.8992 67.2962 87.2803 66.6785C86.6614 66.0608 85.8232 65.7131 84.9487 65.7114H73.6939C72.8196 65.7114 71.981 66.0587 71.3628 66.677C70.7445 67.2952 70.3972 68.1338 70.3972 69.0081V71.1226H57.7912C57.6546 71.1226 57.5193 71.1495 57.3931 71.2018C57.2669 71.2541 57.1522 71.3307 57.0556 71.4273C56.959 71.5239 56.8823 71.6386 56.83 71.7648C56.7778 71.8911 56.7509 72.0263 56.7509 72.163V82.5666C56.751 82.809 56.8352 83.0439 56.9892 83.2312C57.1432 83.4185 57.3574 83.5465 57.5953 83.5934H57.6358L76.0989 87.2347L79.1187 87.8224C79.2501 87.8494 79.3857 87.8494 79.5172 87.8224L82.5437 87.228L92.3867 85.2891C92.2884 82.9165 92.381 80.5399 92.6636 78.1822C92.9442 75.795 93.4164 73.4341 94.0756 71.1226ZM72.8967 69.0081C72.9003 68.7984 72.9856 68.5984 73.1345 68.4507C73.2834 68.303 73.4842 68.2194 73.6939 68.2177H84.9487C85.1578 68.2195 85.3578 68.3033 85.5057 68.4511C85.6535 68.599 85.7374 68.799 85.7391 69.0081V71.1226H72.9035L72.8967 69.0081Z" fill="#0274B3"/>
<path opacity="0.6" d="M94.0756 71.1226H88.2522V69.0081C88.2487 68.1337 87.8992 67.2962 87.2803 66.6785C86.6614 66.0608 85.8232 65.7131 84.9487 65.7114H73.6939C72.8196 65.7114 71.981 66.0587 71.3628 66.677C70.7445 67.2952 70.3972 68.1338 70.3972 69.0081V71.1226H57.7912C57.6546 71.1226 57.5193 71.1495 57.3931 71.2018C57.2669 71.2541 57.1522 71.3307 57.0556 71.4273C56.959 71.5239 56.8823 71.6386 56.83 71.7648C56.7778 71.8911 56.7509 72.0263 56.7509 72.163V82.5666C56.751 82.809 56.8352 83.0439 56.9892 83.2312C57.1432 83.4185 57.3574 83.5465 57.5953 83.5934H57.6358L76.0989 87.2347L79.1187 87.8224C79.2501 87.8494 79.3857 87.8494 79.5172 87.8224L82.5437 87.228L92.3867 85.2891C92.2884 82.9165 92.381 80.5399 92.6636 78.1822C92.9442 75.795 93.4164 73.4341 94.0756 71.1226ZM72.8967 69.0081C72.9003 68.7984 72.9856 68.5984 73.1345 68.4507C73.2834 68.303 73.4842 68.2194 73.6939 68.2177H84.9487C85.1578 68.2195 85.3578 68.3033 85.5057 68.4511C85.6535 68.599 85.7374 68.799 85.7391 69.0081V71.1226H72.9035L72.8967 69.0081Z" fill="white"/>
<path d="M81.5421 84.9911H77.0969C76.5447 84.9911 76.097 85.4388 76.097 85.991V88.8013C76.097 89.3535 76.5447 89.8011 77.0969 89.8011H81.5421C82.0942 89.8011 82.5419 89.3535 82.5419 88.8013V85.991C82.5419 85.4388 82.0942 84.9911 81.5421 84.9911Z" fill="#0274B3"/>
<path opacity="0.3" d="M81.5421 84.9911H77.0969C76.5447 84.9911 76.097 85.4388 76.097 85.991V88.8013C76.097 89.3535 76.5447 89.8011 77.0969 89.8011H81.5421C82.0942 89.8011 82.5419 89.3535 82.5419 88.8013V85.991C82.5419 85.4388 82.0942 84.9911 81.5421 84.9911Z" fill="white"/>
<path d="M187.256 159.645H228.526C229.108 159.645 229.58 159.173 229.58 158.591V141.378C229.58 140.795 229.108 140.324 228.526 140.324H187.256C186.674 140.324 186.203 140.795 186.203 141.378V158.591C186.203 159.173 186.674 159.645 187.256 159.645Z" fill="#0274B3"/>
<path opacity="0.6" d="M187.256 159.645H228.526C229.108 159.645 229.58 159.173 229.58 158.591V141.378C229.58 140.795 229.108 140.324 228.526 140.324H187.256C186.674 140.324 186.203 140.795 186.203 141.378V158.591C186.203 159.173 186.674 159.645 187.256 159.645Z" fill="white"/>
<path opacity="0.1" d="M187.267 140.331H228.53C228.81 140.331 229.078 140.442 229.276 140.64C229.473 140.837 229.584 141.105 229.584 141.385V146.904L208.074 151.133C207.943 151.16 207.807 151.16 207.676 151.133L186.186 146.904V141.385C186.186 141.244 186.214 141.105 186.269 140.975C186.324 140.846 186.404 140.728 186.504 140.63C186.605 140.532 186.725 140.455 186.856 140.403C186.987 140.352 187.127 140.327 187.267 140.331Z" fill="black"/>
<path d="M186.37 133.269H198.976V131.155C198.978 130.281 199.326 129.443 199.944 128.825C200.562 128.208 201.399 127.86 202.273 127.858H213.534C214.408 127.86 215.246 128.208 215.864 128.825C216.481 129.443 216.829 130.281 216.831 131.155V133.269H229.43C229.567 133.269 229.702 133.296 229.828 133.348C229.955 133.401 230.069 133.477 230.166 133.574C230.263 133.67 230.339 133.785 230.391 133.911C230.444 134.038 230.471 134.173 230.471 134.309V144.72C230.469 144.96 230.385 145.193 230.233 145.378C230.08 145.564 229.868 145.692 229.633 145.74L208.076 149.976C207.942 149.996 207.805 149.996 207.671 149.976L186.14 145.74C185.905 145.692 185.693 145.564 185.541 145.378C185.388 145.193 185.304 144.96 185.303 144.72V134.309C185.303 134.171 185.33 134.033 185.384 133.905C185.438 133.777 185.517 133.661 185.617 133.564C185.716 133.467 185.834 133.391 185.964 133.34C186.093 133.29 186.231 133.265 186.37 133.269ZM214.325 131.155C214.323 130.945 214.239 130.744 214.092 130.595C213.944 130.446 213.744 130.361 213.534 130.357H202.273C202.062 130.361 201.862 130.446 201.713 130.595C201.564 130.744 201.479 130.944 201.476 131.155V133.269H214.311L214.325 131.155Z" fill="#0274B3"/>
<path opacity="0.6" d="M186.37 133.269H198.976V131.155C198.978 130.281 199.326 129.443 199.944 128.825C200.562 128.208 201.399 127.86 202.273 127.858H213.534C214.408 127.86 215.246 128.208 215.864 128.825C216.481 129.443 216.829 130.281 216.831 131.155V133.269H229.43C229.567 133.269 229.702 133.296 229.828 133.348C229.955 133.401 230.069 133.477 230.166 133.574C230.263 133.67 230.339 133.785 230.391 133.911C230.444 134.038 230.471 134.173 230.471 134.309V144.72C230.469 144.96 230.385 145.193 230.233 145.378C230.08 145.564 229.868 145.692 229.633 145.74L208.076 149.976C207.942 149.996 207.805 149.996 207.671 149.976L186.14 145.74C185.905 145.692 185.693 145.564 185.541 145.378C185.388 145.193 185.304 144.96 185.303 144.72V134.309C185.303 134.171 185.33 134.033 185.384 133.905C185.438 133.777 185.517 133.661 185.617 133.564C185.716 133.467 185.834 133.391 185.964 133.34C186.093 133.29 186.231 133.265 186.37 133.269ZM214.325 131.155C214.323 130.945 214.239 130.744 214.092 130.595C213.944 130.446 213.744 130.361 213.534 130.357H202.273C202.062 130.361 201.862 130.446 201.713 130.595C201.564 130.744 201.479 130.944 201.476 131.155V133.269H214.311L214.325 131.155Z" fill="white"/>
<path d="M205.683 151.938H210.128C210.68 151.938 211.128 151.49 211.128 150.938V148.128C211.128 147.576 210.68 147.128 210.128 147.128H205.683C205.131 147.128 204.683 147.576 204.683 148.128V150.938C204.683 151.49 205.131 151.938 205.683 151.938Z" fill="#0274B3"/>
<path opacity="0.3" d="M205.683 151.938H210.128C210.68 151.938 211.128 151.49 211.128 150.938V148.128C211.128 147.576 210.68 147.128 210.128 147.128H205.683C205.131 147.128 204.683 147.576 204.683 148.128V150.938C204.683 151.49 205.131 151.938 205.683 151.938Z" fill="white"/>
<path d="M187.256 35.3718L228.526 35.3718C229.108 35.3718 229.58 34.8999 229.58 34.3179V17.1046C229.58 16.5226 229.108 16.0507 228.526 16.0507L187.256 16.0507C186.674 16.0507 186.203 16.5226 186.203 17.1046V34.3179C186.203 34.8999 186.674 35.3718 187.256 35.3718Z" fill="#0274B3"/>
<path opacity="0.6" d="M187.256 35.3718L228.526 35.3718C229.108 35.3718 229.58 34.8999 229.58 34.3179V17.1046C229.58 16.5226 229.108 16.0507 228.526 16.0507L187.256 16.0507C186.674 16.0507 186.203 16.5226 186.203 17.1046V34.3179C186.203 34.8999 186.674 35.3718 187.256 35.3718Z" fill="white"/>
<path opacity="0.1" d="M187.266 16.0477H228.53C228.809 16.0477 229.077 16.1588 229.275 16.3564C229.472 16.554 229.583 16.8221 229.583 17.1016V22.6209L208.074 26.8499C207.942 26.8769 207.807 26.8769 207.675 26.8499L186.213 22.6209V17.1016C186.213 16.8221 186.324 16.554 186.521 16.3564C186.719 16.1588 186.987 16.0477 187.266 16.0477Z" fill="black"/>
<path d="M186.37 8.98625H198.976V6.87175C198.978 5.99795 199.326 5.16045 199.944 4.54258C200.562 3.92471 201.399 3.5768 202.273 3.57501H213.534C213.969 3.57234 214.401 3.6556 214.803 3.82C215.206 3.98439 215.572 4.2267 215.881 4.53301C216.19 4.83931 216.435 5.20359 216.603 5.60494C216.77 6.00628 216.857 6.43678 216.858 6.87175V8.98625H229.457C229.733 8.98625 229.998 9.09586 230.193 9.29096C230.388 9.48607 230.498 9.75069 230.498 10.0266V20.437C230.498 20.6777 230.414 20.9109 230.261 21.0969C230.109 21.2829 229.896 21.4102 229.66 21.4571L208.076 25.6658C207.942 25.6929 207.804 25.6929 207.671 25.6658L186.14 21.4301C185.904 21.3832 185.692 21.2559 185.539 21.0699C185.386 20.8839 185.303 20.6507 185.303 20.41V10.0266C185.303 9.88768 185.33 9.75016 185.384 9.62214C185.438 9.49413 185.517 9.37821 185.617 9.28124C185.716 9.18428 185.834 9.10822 185.964 9.05755C186.093 9.00689 186.231 8.98264 186.37 8.98625ZM214.325 6.87175C214.325 6.66149 214.242 6.45975 214.094 6.31044C213.946 6.16114 213.745 6.07637 213.534 6.07459H202.273C202.063 6.07632 201.862 6.15994 201.713 6.30761C201.564 6.45528 201.479 6.65529 201.476 6.86499V8.9795H214.311L214.325 6.87175Z" fill="#0274B3"/>
<path opacity="0.6" d="M186.37 8.98625H198.976V6.87175C198.978 5.99795 199.326 5.16045 199.944 4.54258C200.562 3.92471 201.399 3.5768 202.273 3.57501H213.534C213.969 3.57234 214.401 3.6556 214.803 3.82C215.206 3.98439 215.572 4.2267 215.881 4.53301C216.19 4.83931 216.435 5.20359 216.603 5.60494C216.77 6.00628 216.857 6.43678 216.858 6.87175V8.98625H229.457C229.733 8.98625 229.998 9.09586 230.193 9.29096C230.388 9.48607 230.498 9.75069 230.498 10.0266V20.437C230.498 20.6777 230.414 20.9109 230.261 21.0969C230.109 21.2829 229.896 21.4102 229.66 21.4571L208.076 25.6658C207.942 25.6929 207.804 25.6929 207.671 25.6658L186.14 21.4301C185.904 21.3832 185.692 21.2559 185.539 21.0699C185.386 20.8839 185.303 20.6507 185.303 20.41V10.0266C185.303 9.88768 185.33 9.75016 185.384 9.62214C185.438 9.49413 185.517 9.37821 185.617 9.28124C185.716 9.18428 185.834 9.10822 185.964 9.05755C186.093 9.00689 186.231 8.98264 186.37 8.98625ZM214.325 6.87175C214.325 6.66149 214.242 6.45975 214.094 6.31044C213.946 6.16114 213.745 6.07637 213.534 6.07459H202.273C202.063 6.07632 201.862 6.15994 201.713 6.30761C201.564 6.45528 201.479 6.65529 201.476 6.86499V8.9795H214.311L214.325 6.87175Z" fill="white"/>
<path d="M205.683 27.657H210.128C210.68 27.657 211.128 27.2094 211.128 26.6572V23.8469C211.128 23.2947 210.68 22.8471 210.128 22.8471H205.683C205.131 22.8471 204.683 23.2947 204.683 23.8469V26.6572C204.683 27.2094 205.131 27.657 205.683 27.657Z" fill="#0274B3"/>
<path opacity="0.3" d="M205.683 27.657H210.128C210.68 27.657 211.128 27.2094 211.128 26.6572V23.8469C211.128 23.2947 210.68 22.8471 210.128 22.8471H205.683C205.131 22.8471 204.683 23.2947 204.683 23.8469V26.6572C204.683 27.2094 205.131 27.657 205.683 27.657Z" fill="white"/>
<path d="M192.671 97.5072H228.544C228.824 97.5054 229.092 97.3929 229.289 97.1941C229.487 96.9954 229.597 96.7267 229.597 96.4465V79.24C229.596 79.0981 229.566 78.9579 229.51 78.8279C229.485 78.766 229.453 78.7071 229.415 78.6523C229.377 78.5945 229.332 78.5422 229.28 78.4969C229.183 78.3983 229.067 78.3201 228.94 78.2667C228.812 78.2133 228.675 78.186 228.537 78.1862H194.57C194.852 80.5439 194.945 82.9205 194.847 85.2931C194.847 85.6781 194.847 86.0632 194.786 86.4415C194.745 87.1508 194.684 87.8669 194.603 88.5763C194.262 91.6108 193.615 94.603 192.671 97.5072Z" fill="#0274B3"/>
<path opacity="0.6" d="M192.671 97.5072H228.544C228.824 97.5054 229.092 97.3929 229.289 97.1941C229.487 96.9954 229.597 96.7267 229.597 96.4465V79.24C229.596 79.0981 229.566 78.9579 229.51 78.8279C229.485 78.766 229.453 78.7071 229.415 78.6523C229.377 78.5945 229.332 78.5422 229.28 78.4969C229.183 78.3983 229.067 78.3201 228.94 78.2667C228.812 78.2133 228.675 78.186 228.537 78.1862H194.57C194.852 80.5439 194.945 82.9205 194.847 85.2931C194.847 85.6781 194.847 86.0632 194.786 86.4415C194.745 87.1508 194.684 87.8669 194.603 88.5763C194.262 91.6108 193.615 94.603 192.671 97.5072Z" fill="white"/>
<path opacity="0.1" d="M194.565 78.1862C194.848 80.5439 194.94 82.9205 194.842 85.2931C194.842 85.6781 194.842 86.0632 194.781 86.4415L204.699 88.3871L207.725 88.9816C207.856 89.0154 207.993 89.0154 208.124 88.9816L211.143 88.3939L229.606 84.7594V79.2333C229.604 79.0944 229.577 78.957 229.525 78.8279C229.501 78.766 229.469 78.7071 229.431 78.6523C229.393 78.5945 229.348 78.5422 229.296 78.4969C229.199 78.3983 229.083 78.3201 228.955 78.2667C228.828 78.2133 228.691 78.186 228.553 78.1862H194.565Z" fill="black"/>
<path d="M193.143 71.1226H198.973V69.0081C198.975 68.1343 199.323 67.2968 199.941 66.6789C200.559 66.0611 201.396 65.7131 202.27 65.7114H213.525C214.4 65.7114 215.239 66.0585 215.858 66.6765C216.478 67.2946 216.826 68.1331 216.828 69.0081V71.1226H229.427C229.703 71.1226 229.968 71.2322 230.163 71.4273C230.358 71.6224 230.468 71.887 230.468 72.163V82.5666C230.468 82.8081 230.385 83.0422 230.232 83.2294C230.079 83.4165 229.867 83.5451 229.63 83.5934H229.583L211.12 87.2347L208.073 87.8157C207.941 87.8426 207.806 87.8426 207.674 87.8157L204.648 87.2212L194.805 85.2823C194.997 80.4938 194.427 75.7053 193.116 71.0956L193.143 71.1226ZM214.322 69.0081C214.318 68.7984 214.233 68.5984 214.084 68.4507C213.935 68.303 213.734 68.2194 213.525 68.2177H202.27C202.061 68.2195 201.861 68.3033 201.713 68.4511C201.565 68.599 201.481 68.799 201.48 69.0081V71.1226H214.315L214.322 69.0081Z" fill="#0274B3"/>
<path opacity="0.6" d="M193.143 71.1226H198.973V69.0081C198.975 68.1343 199.323 67.2968 199.941 66.6789C200.559 66.0611 201.396 65.7131 202.27 65.7114H213.525C214.4 65.7114 215.239 66.0585 215.858 66.6765C216.478 67.2946 216.826 68.1331 216.828 69.0081V71.1226H229.427C229.703 71.1226 229.968 71.2322 230.163 71.4273C230.358 71.6224 230.468 71.887 230.468 72.163V82.5666C230.468 82.8081 230.385 83.0422 230.232 83.2294C230.079 83.4165 229.867 83.5451 229.63 83.5934H229.583L211.12 87.2347L208.073 87.8157C207.941 87.8426 207.806 87.8426 207.674 87.8157L204.648 87.2212L194.805 85.2823C194.997 80.4938 194.427 75.7053 193.116 71.0956L193.143 71.1226ZM214.322 69.0081C214.318 68.7984 214.233 68.5984 214.084 68.4507C213.935 68.303 213.734 68.2194 213.525 68.2177H202.27C202.061 68.2195 201.861 68.3033 201.713 68.4511C201.565 68.599 201.481 68.799 201.48 69.0081V71.1226H214.315L214.322 69.0081Z" fill="white"/>
<path d="M205.683 89.7975H210.128C210.68 89.7975 211.128 89.3498 211.128 88.7977V85.9873C211.128 85.4351 210.68 84.9875 210.128 84.9875H205.683C205.131 84.9875 204.683 85.4351 204.683 85.9873V88.7977C204.683 89.3498 205.131 89.7975 205.683 89.7975Z" fill="#0274B3"/>
<path opacity="0.3" d="M205.683 89.7975H210.128C210.68 89.7975 211.128 89.3498 211.128 88.7977V85.9873C211.128 85.4351 210.68 84.9875 210.128 84.9875H205.683C205.131 84.9875 204.683 85.4351 204.683 85.9873V88.7977C204.683 89.3498 205.131 89.7975 205.683 89.7975Z" fill="white"/>
<path d="M175.444 73.9937H116.144C115.308 73.9937 114.63 74.6712 114.63 75.5069V100.239C114.63 101.075 115.308 101.752 116.144 101.752H175.444C176.28 101.752 176.958 101.075 176.958 100.239V75.5069C176.958 74.6712 176.28 73.9937 175.444 73.9937Z" fill="#0274B3"/>
<path d="M153.874 69.583H137.694C136.468 69.5812 135.292 69.0931 134.424 68.2257C133.557 67.3582 133.069 66.1822 133.067 64.9554V60.8007C133.069 59.574 133.557 58.398 134.424 57.5305C135.292 56.6631 136.468 56.1749 137.694 56.1732H153.874C155.101 56.1732 156.279 56.6607 157.146 57.5285C158.014 58.3964 158.502 59.5734 158.502 60.8007V64.9352C158.504 65.5446 158.387 66.1485 158.155 66.7123C157.924 67.2761 157.584 67.7886 157.154 68.2205C156.724 68.6523 156.213 68.995 155.65 69.2288C155.087 69.4627 154.484 69.583 153.874 69.583ZM137.694 59.5712C137.369 59.5747 137.057 59.7052 136.827 59.9348C136.596 60.1644 136.463 60.4751 136.458 60.8007V64.9352C136.458 65.2666 136.59 65.5845 136.824 65.8189C137.059 66.0533 137.377 66.185 137.708 66.185H153.888C154.219 66.185 154.537 66.0533 154.771 65.8189C155.006 65.5845 155.137 65.2666 155.137 64.9352V60.8007C155.137 60.4693 155.006 60.1514 154.771 59.917C154.537 59.6826 154.219 59.551 153.888 59.551L137.694 59.5712Z" fill="#0274B3"/>
<path opacity="0.2" d="M175.438 73.9937H116.15C115.951 73.9928 115.754 74.0313 115.569 74.1069C115.385 74.1826 115.217 74.2939 115.076 74.4345C114.935 74.5751 114.823 74.7422 114.746 74.9263C114.67 75.1103 114.63 75.3076 114.63 75.5069V83.4448L145.503 89.5248C145.693 89.5659 145.888 89.5659 146.078 89.5248L176.958 83.4448V75.5069C176.958 75.3076 176.918 75.1103 176.842 74.9263C176.765 74.7422 176.653 74.5751 176.512 74.4345C176.371 74.2939 176.203 74.1826 176.019 74.1069C175.834 74.0313 175.637 73.9928 175.438 73.9937Z" fill="black"/>
<path d="M177.006 81.7324L146.072 87.8124C145.88 87.8463 145.684 87.8463 145.491 87.8124L114.558 81.7324C114.218 81.6653 113.912 81.4826 113.691 81.2154C113.471 80.9482 113.35 80.6128 113.348 80.2664V65.3365C113.348 65.1405 113.387 64.9463 113.462 64.7652C113.537 64.5841 113.647 64.4195 113.786 64.2809C113.924 64.1422 114.089 64.0322 114.27 63.9572C114.451 63.8822 114.645 63.8436 114.841 63.8436H176.736C176.932 63.8436 177.126 63.8822 177.307 63.9572C177.489 64.0322 177.653 64.1422 177.792 64.2809C177.93 64.4195 178.04 64.5841 178.115 64.7652C178.19 64.9463 178.229 65.1405 178.229 65.3365V80.2934C178.222 80.6375 178.097 80.9686 177.874 81.2308C177.651 81.493 177.345 81.6702 177.006 81.7324Z" fill="#0274B3"/>
<path d="M148.998 83.7755H142.6C141.809 83.7755 141.168 84.4167 141.168 85.2076V89.2542C141.168 90.0452 141.809 90.6864 142.6 90.6864H148.998C149.789 90.6864 150.43 90.0452 150.43 89.2542V85.2076C150.43 84.4167 149.789 83.7755 148.998 83.7755Z" fill="#0274B3"/>
<path opacity="0.4" d="M148.998 83.7755H142.6C141.809 83.7755 141.168 84.4167 141.168 85.2076V89.2542C141.168 90.0452 141.809 90.6864 142.6 90.6864H148.998C149.789 90.6864 150.43 90.0452 150.43 89.2542V85.2076C150.43 84.4167 149.789 83.7755 148.998 83.7755Z" fill="black"/>
<path d="M257.319 89.303C258.096 90.9041 258.67 92.4174 259.345 93.9982C260.021 95.579 260.514 97.153 261.041 98.7676C262.109 102.041 262.898 105.4 263.399 108.806C263.466 109.232 263.5 109.691 263.547 110.158L263.615 110.833C263.615 110.955 263.615 111.043 263.615 111.184V111.624C263.638 112.648 263.549 113.672 263.351 114.677C263.017 116.424 262.54 118.141 261.926 119.811C260.772 122.986 259.334 126.05 257.629 128.965L254.198 127.513C254.961 124.432 255.731 121.291 256.312 118.258C256.596 116.804 256.797 115.336 256.913 113.86C256.953 113.256 256.94 112.65 256.873 112.049L256.799 111.624L256.704 111.083C256.63 110.725 256.582 110.367 256.495 110.002C255.821 107.02 254.95 104.086 253.887 101.22C253.373 99.754 252.806 98.2947 252.239 96.8288C251.671 95.3628 251.043 93.8901 250.462 92.539L257.319 89.303Z" fill="#FFBF9D"/>
<path d="M254.348 126.621L251.714 129.188L257.463 131.89C257.463 131.89 258.854 129.458 257.895 127.256L254.348 126.621Z" fill="#FFBF9D"/>
<path d="M249.586 133.013L254.437 134.999L257.456 131.858L251.707 129.183L249.586 133.013Z" fill="#FFBF9D"/>
<path opacity="0.2" d="M151.188 130.25C160.747 129.179 169.775 125.298 177.128 119.097C184.482 112.896 189.833 104.654 192.503 95.413C195.173 86.1718 195.043 76.3463 192.129 67.1789C189.216 58.0115 183.649 49.9139 176.134 43.9097C168.619 37.9056 159.492 34.2646 149.907 33.4471C140.323 32.6296 130.711 34.6723 122.288 39.317C113.864 43.9616 107.007 50.9997 102.583 59.5412C98.1589 68.0828 96.3668 77.7443 97.4333 87.3042C98.1417 93.6542 100.094 99.8023 103.179 105.397C106.264 110.993 110.422 115.925 115.413 119.913C120.405 123.901 126.134 126.867 132.272 128.64C138.41 130.414 144.838 130.961 151.188 130.25Z" fill="#0274B3"/>
<path opacity="0.1" d="M115.799 43.5891L189.773 102.674C190.091 101.998 190.388 101.322 190.678 100.647C192.532 96.2359 193.716 91.5725 194.191 86.8114L130.297 35.7931C125.053 37.5418 120.149 40.1788 115.799 43.5891Z" fill="white"/>
<path opacity="0.1" d="M98.7335 69.4941L168.276 125.059C174.883 121.613 180.611 116.694 185.016 110.683L109.07 49.9907C104.175 55.6139 100.639 62.2868 98.7335 69.4941Z" fill="white"/>
<path d="M265.606 136.536C265.517 135.307 265.114 134.121 264.437 133.091C263.945 132.334 263.256 131.724 262.444 131.328L257.83 129.065C254.763 127.545 251.676 126.065 248.588 124.586C245.501 123.106 242.393 121.654 239.299 120.188C236.205 118.722 233.084 117.297 229.956 115.898C223.714 113.07 217.431 110.318 211.108 107.643C207.947 106.292 204.778 104.995 201.583 103.725C200.65 103.357 199.891 102.649 199.461 101.743C199.031 100.838 198.961 99.8023 199.266 98.847C203.543 85.3616 202.569 70.7582 196.539 57.9603C190.508 45.1623 179.867 35.1142 166.744 29.8274C153.622 24.5406 138.987 24.4052 125.768 29.4483C112.55 34.4914 101.725 44.3409 95.4587 57.0251C89.1927 69.7093 87.9487 84.2921 91.9757 97.8543C96.0027 111.417 105.004 122.957 117.176 130.167C129.349 137.376 143.796 139.721 157.624 136.734C171.453 133.746 183.642 125.645 191.753 114.054C192.328 113.23 193.193 112.655 194.175 112.446C195.158 112.236 196.183 112.408 197.043 112.926C199.997 114.682 202.965 116.409 205.947 118.107C211.905 121.503 217.909 124.813 223.957 128.038C226.977 129.673 230.037 131.247 233.044 132.848C236.05 134.449 239.124 136.01 242.184 137.577C245.244 139.144 248.264 140.678 251.365 142.191L255.965 144.474C256.774 144.881 257.678 145.058 258.58 144.988C259.807 144.901 260.992 144.498 262.018 143.819C263.242 143.067 264.229 141.984 264.864 140.696C265.498 139.407 265.756 137.965 265.606 136.536ZM126.19 121.593C118.337 117.718 111.809 111.601 107.433 104.016C103.056 96.4302 101.027 87.7174 101.602 78.9789C102.178 70.2404 105.331 61.8688 110.665 54.9229C115.998 47.9769 123.272 42.7685 131.565 39.9564C139.859 37.1443 148.8 36.8548 157.258 39.1245C165.716 41.3942 173.311 46.1212 179.083 52.7077C184.855 59.2941 188.543 67.4442 189.683 76.1271C190.822 84.8101 189.361 93.6359 185.484 101.488C182.911 106.702 179.336 111.358 174.964 115.19C170.592 119.022 165.507 121.955 160.001 123.822C154.495 125.689 148.675 126.453 142.874 126.07C137.073 125.688 131.404 124.167 126.19 121.593Z" fill="#0274B3"/>
<path d="M231.842 68.4261C231.842 68.8247 231.633 69.149 231.369 69.149C231.106 69.149 230.896 68.8247 230.896 68.4261C230.896 68.0276 231.106 67.6965 231.369 67.6965C231.633 67.6965 231.842 68.0208 231.842 68.4261Z" fill="#263238"/>
<path d="M231.666 69.1497C231.191 70.3735 230.55 71.526 229.761 72.5748C230.034 72.7703 230.347 72.9037 230.677 72.9655C231.008 73.0274 231.347 73.0162 231.673 72.9329L231.666 69.1497Z" fill="#F2A881"/>
<path d="M233.257 66.2003C233.306 66.1989 233.354 66.1823 233.393 66.1528C233.432 66.1232 233.461 66.0822 233.476 66.0355C233.491 65.9887 233.491 65.9385 233.476 65.8917C233.461 65.845 233.432 65.8041 233.392 65.7747C233.094 65.5509 232.747 65.4012 232.379 65.3378C232.011 65.2744 231.634 65.2991 231.278 65.4099C231.246 65.4186 231.216 65.4339 231.191 65.4547C231.165 65.4756 231.144 65.5017 231.129 65.5312C231.114 65.5607 231.106 65.593 231.104 65.626C231.102 65.659 231.107 65.692 231.119 65.7229C231.131 65.7537 231.149 65.7818 231.173 65.8052C231.196 65.8285 231.224 65.8468 231.255 65.8587C231.286 65.8705 231.319 65.8758 231.352 65.8741C231.385 65.8725 231.417 65.8639 231.447 65.849C231.73 65.7646 232.03 65.7482 232.321 65.801C232.612 65.8538 232.886 65.9744 233.122 66.153C233.16 66.1841 233.208 66.2009 233.257 66.2003Z" fill="#263238"/>
<path d="M245.51 71.4402C244.794 75.0747 244.084 81.729 246.624 84.1475C246.624 84.1475 245.631 87.8293 238.889 87.8293C231.458 87.8293 235.343 84.1475 235.343 84.1475C239.396 83.1814 239.288 80.1752 238.579 77.3919L245.51 71.4402Z" fill="#FFBF9D"/>
<path d="M247.925 81.8761C248.485 82.0585 247.756 85.3957 247.756 85.3957C247.756 85.3957 246.83 87.7264 235.332 86.9157C234.447 86.8482 234.785 83.646 235.629 83.1799C238.352 81.6937 246.114 81.2816 247.925 81.8761Z" fill="#263238"/>
<path d="M271.278 221.439C271.899 221.378 272.805 220.237 273.061 219.818C273.073 219.799 273.079 219.778 273.079 219.757C273.079 219.735 273.073 219.714 273.061 219.696C273.05 219.676 273.033 219.66 273.013 219.65C272.992 219.641 272.969 219.638 272.947 219.642C272.879 219.642 271.244 219.953 270.846 220.588C270.804 220.654 270.776 220.729 270.764 220.807C270.753 220.885 270.757 220.964 270.778 221.04C270.866 221.338 271.035 221.419 271.17 221.439H271.278ZM272.703 219.933C272.264 220.541 271.541 221.25 271.197 221.203C271.163 221.203 271.062 221.203 271.001 220.973C270.988 220.929 270.985 220.882 270.992 220.837C270.999 220.791 271.016 220.748 271.041 220.709C271.507 220.293 272.085 220.023 272.703 219.933Z" fill="#0274B3"/>
<path d="M272.637 219.941C272.758 219.931 272.878 219.91 272.995 219.88C273.015 219.874 273.033 219.862 273.048 219.847C273.062 219.831 273.072 219.813 273.077 219.792C273.081 219.771 273.079 219.75 273.072 219.729C273.065 219.709 273.052 219.691 273.036 219.677C272.996 219.637 271.901 218.705 271.158 218.779C271.069 218.785 270.981 218.809 270.902 218.851C270.823 218.893 270.754 218.951 270.699 219.022C270.635 219.083 270.595 219.165 270.587 219.253C270.578 219.341 270.601 219.429 270.651 219.502C270.895 219.887 271.962 220.008 272.637 219.941ZM272.692 219.704C272.016 219.786 271.03 219.65 270.84 219.373C270.84 219.373 270.786 219.286 270.881 219.164C270.919 219.119 270.965 219.083 271.018 219.056C271.07 219.029 271.127 219.013 271.185 219.009C271.745 219.086 272.269 219.328 272.692 219.704Z" fill="#0274B3"/>
<path d="M224.839 239.215C225.351 239.213 225.862 239.168 226.366 239.08C226.389 239.074 226.409 239.062 226.426 239.045C226.442 239.029 226.454 239.008 226.461 238.985C226.465 238.961 226.461 238.936 226.45 238.915C226.439 238.893 226.422 238.875 226.4 238.864C226.326 238.816 224.596 237.83 223.765 238.053C223.61 238.093 223.476 238.192 223.394 238.33C223.341 238.405 223.312 238.495 223.312 238.587C223.312 238.679 223.341 238.768 223.394 238.843C223.61 239.141 224.204 239.215 224.839 239.215ZM225.988 238.904C225.062 239.033 223.806 239.026 223.576 238.708C223.542 238.668 223.515 238.593 223.576 238.445C223.601 238.403 223.634 238.367 223.674 238.339C223.713 238.311 223.758 238.292 223.806 238.283C224.339 238.141 225.38 238.593 225.988 238.904Z" fill="#0274B3"/>
<path d="M226.308 239.077C226.332 239.084 226.358 239.084 226.382 239.077C226.398 239.064 226.41 239.047 226.418 239.028C226.426 239.01 226.43 238.989 226.429 238.969C226.429 238.915 226.288 237.577 225.659 237.057C225.566 236.98 225.458 236.922 225.342 236.887C225.226 236.852 225.104 236.841 224.984 236.854C224.659 236.888 224.572 237.05 224.545 237.186C224.457 237.746 225.646 238.82 226.24 239.091L226.308 239.077ZM225.099 237.05C225.249 237.055 225.395 237.109 225.511 237.206C225.886 237.634 226.121 238.167 226.186 238.733C225.571 238.368 224.768 237.523 224.835 237.186C224.835 237.186 224.835 237.077 225.065 237.057L225.099 237.05Z" fill="#0274B3"/>
<path d="M231.79 238.964H226.831L226.331 227.466H231.297L231.79 238.964Z" fill="#FFBF9D"/>
<path d="M277.402 216.192L273.531 219.293L263.681 212.456L267.559 209.355L277.402 216.192Z" fill="#FFBF9D"/>
<path d="M272.82 219.097L276.779 215.172C276.85 215.104 276.941 215.061 277.04 215.051C277.138 215.042 277.236 215.065 277.319 215.118L281.122 217.563C281.215 217.623 281.292 217.703 281.349 217.797C281.406 217.891 281.44 217.997 281.45 218.106C281.46 218.216 281.444 218.326 281.405 218.428C281.366 218.531 281.304 218.623 281.224 218.698C279.819 220.05 279.069 220.631 277.326 222.353C276.258 223.421 273.644 226.596 272.165 228.062C270.685 229.528 269.037 228.258 269.516 227.521C271.644 224.238 272.367 221.529 272.462 219.881C272.482 219.585 272.609 219.306 272.82 219.097Z" fill="#263238"/>
<path d="M226.865 238.393H232.27C232.368 238.392 232.463 238.425 232.539 238.487C232.616 238.548 232.668 238.634 232.688 238.73L233.668 243.142C233.693 243.248 233.693 243.358 233.669 243.464C233.644 243.57 233.596 243.669 233.528 243.754C233.459 243.839 233.372 243.907 233.274 243.953C233.175 243.999 233.068 244.022 232.959 244.02C231 244.02 228.176 243.878 225.717 243.878C222.846 243.878 220.366 244.033 216.995 244.033C214.969 244.033 214.394 241.973 215.246 241.784C219.13 240.939 222.298 240.845 225.649 238.778C226.011 238.538 226.432 238.405 226.865 238.393Z" fill="#263238"/>
<path d="M256.406 85.6307C260.71 87.6574 262.486 101.547 262.486 101.547L252.59 105.431C251.053 101.671 249.809 97.7972 248.867 93.8455C247.482 87.5763 251.982 83.5229 256.406 85.6307Z" fill="#0274B3"/>
<path opacity="0.3" d="M256.406 85.6307C260.71 87.6574 262.486 101.547 262.486 101.547L252.59 105.431C251.053 101.671 249.809 97.7972 248.867 93.8455C247.482 87.5763 251.982 83.5229 256.406 85.6307Z" fill="white"/>
<path opacity="0.2" d="M249.991 89.7082C249.654 89.5444 249.3 89.4154 248.937 89.3231C248.542 90.8043 248.528 92.3613 248.896 93.8494C249.834 97.8014 251.076 101.675 252.612 105.435L255.875 104.158C255.274 100.531 253.429 91.3566 249.991 89.7082Z" fill="black"/>
<path d="M227.707 85.5238C227.707 85.5238 222.424 91.489 227.41 128.422H253.959C254.142 124.368 251.582 104.466 255.513 85.2671C252.577 84.7024 249.607 84.3278 246.623 84.1457C242.865 83.9293 239.099 83.9293 235.341 84.1457C232.764 84.4053 230.212 84.866 227.707 85.5238Z" fill="#0274B3"/>
<path opacity="0.2" d="M233.06 93.4412C231.858 89.8337 228.966 88.6785 226.021 90.82C225.427 94.3194 225.008 99.9604 225.487 108.905L230.669 108.857C230.669 108.857 234.837 98.8119 233.06 93.4412Z" fill="black"/>
<path d="M232.091 91.9626C231.875 93.7731 231.578 95.4147 231.247 97.1239C230.916 98.8331 230.531 100.502 230.092 102.184C229.225 105.622 228.044 108.973 226.565 112.196C226.18 113.027 225.734 113.844 225.261 114.661C225.018 115.074 224.775 115.486 224.498 115.891C224.139 116.454 223.715 116.974 223.235 117.438C222.302 118.302 221.197 118.959 219.992 119.363C219.013 119.706 218.001 119.944 216.972 120.073C215.136 120.3 213.28 120.323 211.439 120.14C210.539 120.068 209.66 119.953 208.805 119.796C207.926 119.64 207.095 119.478 206.19 119.242L206.629 115.54C209.713 115.41 212.774 114.957 215.763 114.189C216.371 114.009 216.961 113.773 217.526 113.486C217.897 113.316 218.222 113.059 218.472 112.736C218.418 112.783 218.911 111.966 219.201 111.385C219.492 110.804 219.816 110.034 220.093 109.358C220.661 107.967 221.147 106.494 221.593 104.987C222.039 103.481 222.431 101.947 222.795 100.394C223.16 98.8398 223.471 97.2725 223.809 95.6647C224.147 94.0569 224.39 92.4625 224.633 90.9695L232.091 91.9626Z" fill="#FFBF9D"/>
<path d="M234.338 89.162C235.737 93.695 230.062 107.206 230.062 107.206L218.111 104.2C218.843 99.9293 220.074 95.7595 221.78 91.7764C225.63 83.3454 232.656 83.6967 234.338 89.162Z" fill="#0274B3"/>
<path opacity="0.3" d="M234.338 89.162C235.737 93.695 230.062 107.206 230.062 107.206L218.111 104.2C218.843 99.9293 220.074 95.7595 221.78 91.7764C225.63 83.3454 232.656 83.6967 234.338 89.162Z" fill="white"/>
<path d="M206.797 115.558L201.177 115.416L203.879 121.26C203.879 121.26 206.162 121.564 208.04 118.476L210.02 116.119L207.743 115.659C207.431 115.598 207.115 115.564 206.797 115.558Z" fill="#FFBF9D"/>
<path d="M197.632 116.504L200.855 121.347L203.888 121.26L201.179 115.416L197.632 116.504Z" fill="#FFBF9D"/>
<path opacity="0.2" d="M226.341 227.474L226.591 233.398H231.557L231.3 227.474H226.341Z" fill="black"/>
<path opacity="0.2" d="M267.559 209.355L263.681 212.456L268.761 215.982L272.639 212.882L267.559 209.355Z" fill="black"/>
<path d="M245.228 67.5497C244.931 72.4678 245.012 75.3592 242.526 77.8858C238.796 81.6825 232.723 79.4396 231.548 74.508C230.487 70.0898 231.156 62.7938 235.966 60.8279C237.027 60.3892 238.182 60.2296 239.322 60.3645C240.462 60.4994 241.548 60.9242 242.477 61.5984C243.406 62.2726 244.146 63.1736 244.628 64.2155C245.11 65.2574 245.316 66.4053 245.228 67.5497Z" fill="#FFBF9D"/>
<path d="M249.197 62.978C249.197 62.978 251.785 63.7481 250.974 66.7003C249.751 71.186 246.873 76.3473 243.158 76.6716C238.53 77.0837 236.443 72.3075 235.835 67.3691C233.065 65.4708 231.011 63.6941 231.673 61.7214C232.687 58.6814 236.362 56.0603 242.212 56.7358C248.062 57.4114 250.974 61.1945 249.197 62.978Z" fill="#263238"/>
<path d="M238.647 68.3899C238.557 69.6096 238.068 70.7658 237.255 71.6798C236.174 72.8688 235.039 72.1257 234.85 70.68C234.681 69.3694 235.033 67.1739 236.357 66.5186C237.681 65.8633 238.735 66.9171 238.647 68.3899Z" fill="#FFBF9D"/>
<path d="M236.829 128.428C236.829 128.428 235.154 161.882 238.417 176.055C243.585 198.497 266.304 216.481 266.304 216.481L273.6 210.637C273.6 210.637 254.907 196.727 253.225 178.041C251.718 161.26 253.948 141.987 253.948 128.428H236.829Z" fill="#0274B3"/>
<path opacity="0.2" d="M236.829 128.428C236.829 128.428 235.154 161.882 238.417 176.055C243.585 198.497 266.304 216.481 266.304 216.481L273.6 210.637C273.6 210.637 254.907 196.727 253.225 178.041C251.718 161.26 253.948 141.987 253.948 128.428H236.829Z" fill="black"/>
<path opacity="0.2" d="M239.321 138.334C238.645 137.03 237.328 140.914 236.409 145.9C236.409 152.777 236.531 160.6 237.132 167.227C241.719 158.749 240.746 141.036 239.321 138.334Z" fill="black"/>
<path d="M262.987 215.035L265.757 217.183L274.181 210.353L271.654 208.063L262.987 215.035Z" fill="#2C6BDB"/>
<path opacity="0.4" d="M262.987 215.035L265.757 217.183L274.181 210.353L271.654 208.063L262.987 215.035Z" fill="#FAFAFA"/>
<path d="M227.409 128.428C227.409 128.428 219.937 160.112 219.41 175.244C218.823 192.221 224.741 232.255 224.741 232.255H233.151C233.151 232.255 234.185 191.91 234.563 176.447C234.969 159.592 244.859 128.428 244.859 128.428H227.409Z" fill="#0274B3"/>
<path opacity="0.2" d="M227.409 128.428C227.409 128.428 219.937 160.112 219.41 175.244C218.823 192.221 224.741 232.255 224.741 232.255H233.151C233.151 232.255 234.185 191.91 234.563 176.447C234.969 159.592 244.859 128.428 244.859 128.428H227.409Z" fill="black"/>
<path d="M223.129 228.895C223.089 228.895 223.602 232.387 223.602 232.387H233.83L234.107 229.273L223.129 228.895Z" fill="#2C6BDB"/>
<path opacity="0.4" d="M223.129 228.895C223.089 228.895 223.602 232.387 223.602 232.387H233.83L234.107 229.273L223.129 228.895Z" fill="#FAFAFA"/>
</svg>
