<svg width="173" height="180" viewBox="0 0 173 180" fill="none" xmlns="http://www.w3.org/2000/svg">
<path d="M160.977 78.5099C160.977 78.5099 160.977 78.4733 160.977 78.4122V78.1434C160.977 77.899 160.977 77.5529 160.977 77.1131C160.977 76.209 160.977 74.9058 160.944 73.2686L161.005 73.3297L141.193 73.3664C141.237 73.3216 141.091 73.4682 141.294 73.2686V75.9239C141.294 76.7954 141.294 77.6588 141.294 78.5018L141.197 78.4L155.316 78.4448L159.482 78.4733H160.61H160.903C160.939 78.4698 160.974 78.4698 161.009 78.4733H160.92H160.635H159.531L155.344 78.5669L141.156 78.6117H141.058V78.514C141.058 77.671 141.058 76.8076 141.058 75.9361V73.2727L141.16 73.1709L160.973 73.2075H161.046V73.2727C161.046 74.9261 161.022 76.2415 161.013 77.1538C161.013 77.5895 161.013 77.9276 161.013 78.1719C161.013 78.2778 161.013 78.3633 161.013 78.4285C161.005 78.4571 160.992 78.4845 160.977 78.5099Z" fill="white"/>
<path d="M87.9656 161.084L83.4858 163.01L83.7872 136.437C83.9257 133.256 82.4636 131.9 81.6695 130.996C74.4571 122.794 63.7017 128.744 63.6081 137.056L63.3393 160.803L58.9777 160.754L59.4093 135.912C59.4419 133.114 61.6166 128.259 63.8117 126.52C75.9477 116.905 88.3647 126.838 88.2466 137.345L87.9656 161.084Z" fill="#BBBBBB"/>
<path d="M87.9657 161.084V160.607C87.9657 160.294 87.9657 159.833 87.9657 159.231C87.9657 158.009 87.9901 156.237 88.0064 153.936C88.0227 151.636 88.0512 148.846 88.0797 145.592C88.096 143.963 88.1123 142.229 88.1286 140.391C88.1286 138.551 88.2956 136.592 87.9168 134.58C87.5376 132.473 86.6839 130.48 85.4204 128.752C85.2534 128.528 85.0946 128.3 84.9195 128.08C84.7444 127.86 84.5448 127.673 84.3575 127.449C83.9747 127.024 83.5667 126.623 83.1357 126.248C82.928 126.048 82.6837 125.889 82.4556 125.706C82.2276 125.523 82.0036 125.335 81.747 125.189C81.2536 124.86 80.7394 124.563 80.2076 124.301C79.1195 123.754 77.9677 123.343 76.7786 123.079L75.8582 122.929L75.398 122.851L74.9297 122.823L73.9849 122.762C73.6672 122.762 73.3496 122.782 73.0319 122.794C70.3991 122.914 67.8508 123.759 65.6689 125.238C63.3728 126.792 61.573 128.975 60.4846 131.526C59.9379 132.841 59.5788 134.227 59.4176 135.643C59.2955 137.068 59.328 138.538 59.2995 140.009C59.2344 145.901 59.1651 152.002 59.0959 158.253C59.0959 159.087 59.0864 159.918 59.0674 160.746L58.9656 160.64L63.3272 160.689L63.2254 160.79C63.277 156.066 63.3299 151.451 63.3842 146.944C63.4087 144.701 63.4344 142.49 63.4616 140.31C63.4616 139.224 63.4738 138.145 63.4982 137.072C63.5216 136.002 63.6999 134.94 64.0277 133.92C64.6961 131.936 65.9551 130.204 67.6359 128.956C67.835 128.799 68.043 128.653 68.259 128.52L68.9106 128.113C69.3527 127.879 69.8114 127.677 70.283 127.51C70.7491 127.34 71.2268 127.204 71.7124 127.103C71.9527 127.05 72.1971 127.03 72.4373 126.989L72.7998 126.94H73.1663C74.1231 126.887 75.0826 126.968 76.017 127.18C76.9279 127.399 77.8066 127.734 78.6316 128.178C80.979 129.481 82.7305 131.643 83.5185 134.209C83.7487 135.005 83.8854 135.825 83.9258 136.653C83.9258 136.856 83.9258 137.06 83.9461 137.26C83.9665 137.459 83.9461 137.667 83.9461 137.858C83.9461 138.266 83.9461 138.648 83.9461 139.039C83.9461 139.817 83.9462 140.583 83.9176 141.332C83.8769 144.329 83.8443 147.082 83.8118 149.567C83.7425 154.531 83.6896 158.416 83.6529 160.998L83.6244 160.97L86.915 161.023H87.7295H87.9942H86.9272L83.6204 161.002H83.5918V160.974C83.5918 158.392 83.6489 154.507 83.6937 149.542C83.7181 147.058 83.7466 144.301 83.7751 141.304C83.7751 140.554 83.7751 139.789 83.7995 139.011C83.7995 138.604 83.7995 138.229 83.7995 137.83C83.7995 137.634 83.7995 137.423 83.7995 137.235L83.7751 136.637C83.7145 134.968 83.219 133.343 82.3375 131.925C81.4185 130.406 80.1167 129.154 78.5623 128.296C77.7512 127.862 76.8875 127.533 75.9926 127.319C75.0698 127.112 74.1226 127.035 73.1785 127.091H72.8201L72.4658 127.144C72.2256 127.18 71.9853 127.201 71.7491 127.254C70.7923 127.458 69.8675 127.791 69.0002 128.243L68.3608 128.626C68.1494 128.75 67.9455 128.886 67.7499 129.033C66.098 130.262 64.8627 131.967 64.2109 133.92C63.8902 134.921 63.7173 135.964 63.6978 137.015C63.6978 138.085 63.6856 139.164 63.6611 140.253C63.6367 142.425 63.6123 144.636 63.5878 146.887C63.539 151.367 63.486 155.997 63.4331 160.733V160.835H63.3313L58.9656 160.786H58.8638V160.685C58.8638 159.87 58.8733 159.039 58.8923 158.192C58.9656 151.945 59.0348 145.844 59.104 139.947C59.1326 138.473 59.104 137.019 59.2221 135.561C59.3883 134.127 59.7543 132.724 60.3095 131.391C60.8773 130.118 61.6113 128.925 62.4923 127.844C63.3849 126.791 64.4134 125.861 65.5508 125.079C67.7611 123.58 70.3436 122.723 73.0116 122.603C73.3333 122.603 73.655 122.566 73.9767 122.574L75.0722 122.639L75.675 122.709L76.5872 122.859L76.9944 122.949C78.1252 123.214 79.2194 123.616 80.2524 124.146C80.792 124.411 81.3131 124.712 81.8122 125.046C82.0687 125.197 82.2887 125.401 82.5249 125.572C82.7611 125.743 83.0013 125.918 83.2172 126.117C83.6483 126.5 84.0563 126.908 84.4389 127.339L85.0091 127.978C85.1842 128.202 85.343 128.435 85.51 128.663C86.7851 130.41 87.6445 132.426 88.0227 134.556C88.4014 136.592 88.21 138.563 88.2222 140.404C88.2345 142.244 88.1734 143.996 88.153 145.625C88.1082 148.883 88.0675 151.684 88.0349 153.977C88.0023 156.27 87.9779 158.05 87.9575 159.247C87.9575 159.842 87.9575 160.302 87.9331 160.611C87.9087 160.921 87.9657 161.084 87.9657 161.084Z" fill="#989898"/>
<path d="M53.9954 145.242L93.4958 145.69C93.8998 145.695 94.2853 145.86 94.5677 146.148C94.8501 146.437 95.0062 146.826 95.0016 147.23L94.6552 177.76C94.651 178.127 94.5012 178.477 94.2386 178.734C93.976 178.991 93.6222 179.133 93.2549 179.129L53.6323 178.679L54.0117 145.242L53.9954 145.242Z" fill="#989898"/>
<path d="M53.996 145.157L88.7342 145.504C89.1727 145.508 89.5915 145.687 89.8985 146C90.2055 146.313 90.3755 146.736 90.3711 147.174L90.0738 176.903C90.0684 177.443 89.8487 177.959 89.463 178.337C89.0773 178.715 88.5572 178.924 88.0172 178.919L53.7188 178.576C53.2651 178.572 52.8319 178.387 52.5143 178.063C52.1968 177.739 52.0209 177.302 52.0254 176.848L52.326 146.794C52.3304 146.355 52.5088 145.936 52.822 145.629C53.1351 145.322 53.5574 145.152 53.996 145.157Z" fill="#BBBBBB"/>
<path d="M76.2774 159.263C76.2846 158.638 76.1662 158.018 75.9292 157.44C75.6922 156.862 75.3414 156.338 74.8977 155.898C74.454 155.458 73.9264 155.112 73.3463 154.88C72.7662 154.648 72.1454 154.534 71.5207 154.547C70.3191 154.583 69.1765 155.076 68.3265 155.926C67.4765 156.776 66.9831 157.919 66.9473 159.12C66.9285 160.139 67.2452 161.136 67.8487 161.957C68.4521 162.779 69.3088 163.379 70.2868 163.665L67.1713 170.067L75.2145 170.308L72.8361 163.682C73.8119 163.419 74.6755 162.846 75.2964 162.048C75.9173 161.251 76.2617 160.273 76.2774 159.263Z" fill="#E0E0E0"/>
<path d="M89.8511 175.936C89.7941 175.936 89.8511 170.116 89.9529 162.94C90.0547 155.765 90.2013 149.941 90.2583 149.941C90.3154 149.941 90.2583 155.761 90.1565 162.94C90.0547 170.12 89.9081 175.94 89.8511 175.936Z" fill="#FAFAFA"/>
<path d="M81.3637 146.577C81.3637 146.634 76.2446 146.691 69.9282 146.704C63.6118 146.716 58.4886 146.679 58.4886 146.622C58.4886 146.565 63.6077 146.512 69.9282 146.5C76.2487 146.488 81.3637 146.512 81.3637 146.577Z" fill="white"/>
<path d="M66.7684 161.67C66.6887 161.583 66.624 161.484 66.577 161.377C66.4309 161.093 66.3135 160.796 66.2268 160.489C65.9354 159.466 65.9625 158.379 66.3044 157.372C66.6464 156.365 67.287 155.486 68.1409 154.852C68.3947 154.661 68.6676 154.495 68.9554 154.36C69.0567 154.303 69.1669 154.265 69.2812 154.246C69.2812 154.278 68.8373 154.47 68.2264 154.966C67.424 155.607 66.8222 156.464 66.4923 157.437C66.1624 158.409 66.1183 159.455 66.3653 160.452C66.5648 161.238 66.801 161.645 66.7684 161.67Z" fill="white"/>
<path d="M68.6008 163.901C68.5723 163.95 68.2995 163.832 67.99 163.641C67.6805 163.449 67.4565 163.254 67.485 163.205C67.5135 163.156 67.7904 163.274 68.0999 163.466C68.4094 163.657 68.6008 163.852 68.6008 163.901Z" fill="white"/>
<path d="M72.478 123.841C72.2183 123.89 71.9558 123.924 71.692 123.942C70.9807 124.038 70.2781 124.189 69.5906 124.394C67.3063 125.057 65.258 126.357 63.6851 128.141C62.1122 129.925 61.0798 132.12 60.7085 134.47C60.586 135.177 60.5247 135.894 60.5253 136.612C60.5253 137.117 60.5253 137.402 60.5253 137.402C60.5034 137.336 60.4924 137.267 60.4927 137.198C60.4927 137.064 60.4519 136.868 60.4479 136.612C60.4191 135.887 60.46 135.162 60.5701 134.445C60.9098 132.056 61.9416 129.819 63.5381 128.01C65.1346 126.201 67.2259 124.899 69.5539 124.264C70.2504 124.06 70.9651 123.923 71.6879 123.857C71.9404 123.828 72.14 123.832 72.2744 123.828C72.3425 123.826 72.4107 123.83 72.478 123.841Z" fill="white"/>
<path d="M60.3091 141.006C60.2163 140.606 60.1915 140.193 60.2358 139.785C60.208 139.373 60.2506 138.96 60.362 138.563C60.4848 139.374 60.4669 140.201 60.3091 141.006Z" fill="white"/>
<path d="M85.4078 27.5674H65.5952V32.8087H85.4078V27.5674Z" fill="white"/>
<path d="M77.0308 38.3309C77.0308 38.3309 77.0308 38.2983 77.0308 38.2373V37.9685C77.0308 37.7201 77.0308 37.3739 77.0308 36.9341C77.0308 36.03 77.0308 34.7309 76.9983 33.0896L77.0593 33.1507L57.2467 33.1915C57.2915 33.1467 57.1449 33.2892 57.3486 33.0896V35.7449C57.3486 36.6191 57.3486 37.4784 57.3486 38.3228L57.2508 38.225L71.3701 38.2698L75.5362 38.2983H76.6643H76.9575C76.9927 38.2949 77.0282 38.2949 77.0634 38.2983H76.9738H76.6887H75.5851L71.4393 38.3269L57.2508 38.3716H57.1531V38.2739C57.1531 37.4295 57.1531 36.5703 57.1531 35.696V33.0408L57.2549 32.939L77.0675 32.9797H77.1286V33.0408C77.1286 34.6942 77.1041 36.0096 77.096 36.9218C77.096 37.3576 77.096 37.6956 77.096 37.94C77.096 38.0458 77.096 38.1314 77.096 38.1965C77.096 38.2617 77.0349 38.3309 77.0308 38.3309Z" fill="white"/>
<path d="M156.652 118.082H136.839V123.324H156.652V118.082Z" fill="white"/>
<path d="M148.274 128.846C148.272 128.813 148.272 128.781 148.274 128.748V128.479C148.274 128.235 148.274 127.889 148.274 127.449C148.274 126.545 148.254 125.246 148.242 123.605L148.303 123.666L128.49 123.707C128.535 123.662 128.389 123.804 128.588 123.605V128.838L128.49 128.74L142.61 128.785L146.776 128.813H147.904H148.197H148.303H148.209H147.928H146.825L142.679 128.842L128.466 128.944H128.364V123.613L128.466 123.511L148.279 123.552H148.34V123.613C148.34 125.266 148.315 126.582 148.307 127.494C148.307 127.93 148.307 128.268 148.307 128.512C148.307 128.618 148.307 128.703 148.307 128.769C148.298 128.795 148.287 128.821 148.274 128.846Z" fill="white"/>
<path d="M26.7605 19.3569C26.7569 19.3257 26.7569 19.2943 26.7605 19.2632C26.7605 19.194 26.7605 19.1044 26.7605 18.9944C26.7605 18.746 26.7605 18.4039 26.7605 17.96C26.7605 17.0559 26.7605 15.7568 26.7279 14.1156L26.789 14.1767L6.94788 14.2215C6.99268 14.1767 6.84607 14.3233 7.04562 14.1197V19.3569L6.94788 19.2591L21.0672 19.3039L25.2333 19.3324H26.3614H26.6546H26.7605C26.7294 19.3363 26.6979 19.3363 26.6668 19.3324H26.3858H25.2781L21.1364 19.3609L6.94788 19.4057H6.84607V14.1237L6.94788 14.0219L26.7605 14.0626H26.8216V14.1237C26.8216 15.7812 26.7971 17.0926 26.789 18.0048C26.789 18.4405 26.789 18.7826 26.789 19.0229C26.789 19.1288 26.789 19.2143 26.789 19.2836C26.7814 19.3087 26.7719 19.3332 26.7605 19.3569Z" fill="white"/>
<path d="M144.903 11.8312C144.903 11.8312 144.903 11.7946 144.903 11.7335V11.4647C144.903 11.2204 144.903 10.8742 144.903 10.4344C144.903 9.53027 144.903 8.22708 144.87 6.58994L144.931 6.65103L125.119 6.68768L125.221 6.58994V9.25334C125.221 10.1303 125.221 10.9896 125.221 11.8312L125.123 11.7335L139.242 11.7783L143.408 11.8027H144.536H144.834C144.868 11.7994 144.902 11.7994 144.935 11.8027H144.846H144.561H143.457L139.311 11.8312L125.123 11.876H125.025V11.7783C125.025 10.9353 125.025 10.076 125.025 9.2004V6.59809L125.127 6.49628L144.94 6.537H145.001V6.59809C145.001 8.25151 144.976 9.56693 144.968 10.4792C144.968 10.9149 144.968 11.2529 144.968 11.4973V11.7538C144.95 11.7827 144.928 11.8088 144.903 11.8312Z" fill="#E0E0E0"/>
<path d="M147.607 6.58996C147.604 6.55609 147.604 6.52202 147.607 6.48815C147.607 6.41484 147.607 6.32118 147.607 6.21122C147.607 5.95466 147.607 5.60442 147.607 5.16052C147.607 4.24014 147.583 2.94509 147.566 1.34868L147.64 1.41792L135.736 1.44642L135.833 1.34868V4.04059C135.833 4.91617 135.833 5.76732 135.833 6.58182L135.74 6.48408L144.255 6.52887L146.735 6.55738H147.403H147.644C147.572 6.5632 147.5 6.5632 147.428 6.55738H146.776L144.333 6.58182L135.752 6.62661H135.654V6.53295C135.654 5.71845 135.654 4.8673 135.654 3.99172V1.35683C135.63 1.35683 135.846 1.16542 135.756 1.25502L147.66 1.28352H147.733V1.35683C147.733 2.98582 147.701 4.28087 147.693 5.21346C147.693 5.64922 147.693 5.99131 147.693 6.24787C147.693 6.50444 147.607 6.59403 147.607 6.58996Z" fill="#E0E0E0"/>
<path d="M19.8778 136.803C19.876 136.772 19.876 136.741 19.8778 136.71C19.8778 136.64 19.8778 136.551 19.8778 136.441C19.8778 136.192 19.8778 135.85 19.8778 135.41C19.8778 134.506 19.8778 133.203 19.8452 131.562L19.9063 131.623L0.0936668 131.664L0.195479 131.562V134.221C0.195479 135.096 0.195479 135.955 0.195479 136.799L0.0977401 136.701L14.217 136.746L18.3832 136.775H19.5112H19.8085H19.9103C19.9103 136.775 19.8818 136.775 19.8207 136.775H19.5357H18.432L14.2862 136.803L0.0977401 136.848H0V136.803C0 135.96 0 135.101 0 134.225V131.566C0.203624 131.366 0.0570147 131.513 0.101812 131.468L19.9144 131.505H19.9755V131.566C19.9755 133.224 19.9511 134.535 19.9429 135.451C19.9429 135.887 19.9429 136.225 19.9429 136.469V136.726C19.8818 136.803 19.8818 136.803 19.8778 136.803Z" fill="#E0E0E0"/>
<path d="M22.5821 131.57C22.5789 131.538 22.5789 131.505 22.5821 131.472C22.5821 131.395 22.5821 131.305 22.5821 131.195C22.5821 130.935 22.5821 130.584 22.5821 130.145C22.5821 129.224 22.5577 127.925 22.5414 126.329L22.6147 126.402L10.7108 126.431C10.6212 126.52 10.833 126.308 10.8086 126.329V129.025C10.8086 129.904 10.8086 130.751 10.8086 131.566L10.7149 131.472L19.2305 131.517L21.7106 131.546H22.3785H22.6188C22.5469 131.551 22.4748 131.551 22.4029 131.546H21.7513L19.3078 131.574L10.7271 131.619H10.6294V131.521C10.6294 130.707 10.6294 129.86 10.6294 128.98V126.284L10.7312 126.182L22.5821 126.255H22.6554V126.329C22.6554 127.958 22.6228 129.257 22.6147 130.185C22.6147 130.621 22.6147 130.967 22.6147 131.224C22.6147 131.48 22.5821 131.578 22.5821 131.57Z" fill="#E0E0E0"/>
<path d="M82.2683 93.7124C82.2647 93.6812 82.2647 93.6498 82.2683 93.6187V93.3499C82.2683 93.1015 82.2683 92.7594 82.2683 92.3196C82.2683 91.4114 82.248 90.1123 82.2358 88.4711L82.2969 88.5322L62.4843 88.5729C62.5291 88.5281 62.3824 88.6747 62.582 88.4711V93.7042L62.4843 93.6065L76.6035 93.6513L80.7697 93.6798H81.8978H82.191H82.2969H82.2032H81.9222H80.8145L76.6728 93.7042L62.4843 93.749H62.3824V88.4141L62.4843 88.3123L82.2969 88.353H82.3579V88.4141C82.3579 90.0716 82.3335 91.3829 82.3254 92.2992C82.3254 92.7309 82.3254 93.073 82.3254 93.3133V93.5739C82.3134 93.6227 82.2942 93.6693 82.2683 93.7124Z" fill="#E0E0E0"/>
<path d="M84.9558 88.4713C84.95 88.439 84.95 88.4059 84.9558 88.3736C84.9558 88.2962 84.9558 88.2066 84.9558 88.0926L84.9354 87.0419C84.9354 86.1255 84.9354 84.8264 84.8988 83.23L84.9721 83.3033L73.0642 83.3318L73.166 83.23V85.926C73.166 86.8016 73.166 87.6527 73.166 88.4672L73.0682 88.3736L81.5838 88.4184L84.068 88.4428H84.7359H84.9761C84.9029 88.4482 84.8294 88.4482 84.7562 88.4428H84.1087L81.6652 88.4713L73.0845 88.5161H72.9908V88.4184C72.9908 87.6039 72.9908 86.7527 72.9908 85.8771V83.1812C72.9908 83.2015 73.1863 82.9897 73.0927 83.0793L85.0006 83.1078H85.0739V83.1812C85.0739 84.8101 85.0454 86.1093 85.0372 87.0378C85.0372 87.4735 85.0372 87.8197 85.0169 88.0722C84.9965 88.3247 84.9599 88.4754 84.9558 88.4713Z" fill="#E0E0E0"/>
<path d="M172.557 179.118C172.557 179.172 135.665 179.218 90.1709 179.218C44.6765 179.218 7.77417 179.16 7.77417 179.118C7.77417 179.075 44.6583 179.017 90.1709 179.017C135.683 179.017 172.557 179.063 172.557 179.118Z" fill="#263238"/>
<path d="M8.90637 156.595L1.58813 166.532L13.9114 175.703C14.7259 174.482 10.0955 167.363 10.0955 167.363L15.0477 161.189L8.90637 156.595Z" fill="#042F86"/>
<path d="M6.69934 164C6.55443 163.947 6.39509 163.95 6.25217 164.008C6.10924 164.066 5.99287 164.174 5.92557 164.313C5.86833 164.457 5.86806 164.617 5.92483 164.761C5.98159 164.904 6.0911 165.021 6.231 165.087C6.38455 165.141 6.55267 165.136 6.70303 165.074C6.85338 165.012 6.97536 164.896 7.0455 164.749C7.09049 164.593 7.07319 164.425 6.99724 164.282C6.92128 164.138 6.79259 164.03 6.63825 163.979" fill="#362C2C"/>
<path d="M1.57214 166.557L2.34999 165.49L13.8629 174.759C13.8629 174.759 14.2294 175.411 13.8629 175.749L1.57214 166.557Z" fill="#263238"/>
<path d="M10.3644 167.453C10.3196 167.514 9.99789 167.318 9.54992 167.29C9.10194 167.261 8.76393 167.4 8.73542 167.335C8.70691 167.27 9.049 166.989 9.57842 167.029C10.1078 167.07 10.397 167.408 10.3644 167.453Z" fill="#263238"/>
<path d="M11.2398 168.951C11.2072 169.021 10.8733 168.927 10.4783 169.029C10.0832 169.131 9.82667 169.359 9.76559 169.31C9.7045 169.261 9.92441 168.902 10.4172 168.776C10.91 168.65 11.2805 168.894 11.2398 168.951Z" fill="#263238"/>
<path d="M10.8206 171.045C10.7554 171.016 10.8979 170.637 11.297 170.438C11.6961 170.238 12.0749 170.304 12.0627 170.373C12.0505 170.442 11.745 170.487 11.4233 170.67C11.1016 170.853 10.8857 171.081 10.8206 171.045Z" fill="#263238"/>
<path d="M11.3175 165.921C11.2483 165.958 11.0365 165.669 10.6781 165.441C10.3197 165.213 9.97765 165.119 9.98173 165.034C9.9858 164.948 10.389 164.932 10.8207 165.209C11.2523 165.486 11.3827 165.897 11.3175 165.921Z" fill="#263238"/>
<path d="M38.7007 114.999C38.9206 116.245 39.2709 126.846 39.4948 132.438C39.7188 138.029 39.1609 140.778 38.5215 142.032C37.8821 143.287 13.769 161.055 11.9323 165.311L5.82361 160.387C5.82361 160.387 14.7831 144.305 18.603 141.381C22.423 138.457 29.7738 135.773 29.7738 135.773L27.6847 105.152L37.6989 104.606L38.7007 114.999Z" fill="#263238"/>
<path d="M16.2898 166.422L16.184 178.75L31.5413 178.961C31.472 177.495 23.5674 174.437 23.5674 174.437L23.9746 166.532L16.2898 166.422Z" fill="#042F86"/>
<path d="M18.8275 173.724C18.6793 173.767 18.5521 173.863 18.4702 173.994C18.3883 174.125 18.3575 174.281 18.3836 174.433C18.4213 174.583 18.5148 174.713 18.645 174.796C18.7752 174.879 18.9322 174.91 19.084 174.881C19.2405 174.835 19.3744 174.732 19.46 174.593C19.5457 174.454 19.5771 174.288 19.5483 174.128C19.4937 173.975 19.382 173.85 19.2369 173.779C19.0917 173.707 18.9244 173.695 18.7704 173.745" fill="#362C2C"/>
<path d="M16.1799 178.794V177.471L30.9427 178.236C30.9427 178.236 31.6187 178.55 31.5332 179.031L16.1799 178.794Z" fill="#263238"/>
<path d="M23.8037 174.38C23.8037 174.458 23.425 174.486 23.0544 174.722C22.6838 174.959 22.4801 175.268 22.4109 175.24C22.3417 175.211 22.4598 174.775 22.9159 174.498C23.372 174.221 23.8363 174.311 23.8037 174.38Z" fill="#263238"/>
<path d="M25.4325 175.085C25.4325 175.158 25.1189 175.28 24.8624 175.594C24.6058 175.907 24.5244 176.245 24.4551 176.237C24.3859 176.229 24.337 175.81 24.6669 175.423C24.9968 175.036 25.4325 174.999 25.4325 175.085Z" fill="#263238"/>
<path d="M26.3081 177.011C26.2388 177.011 26.1411 176.649 26.3366 176.241C26.5321 175.834 26.8904 175.675 26.9189 175.736C26.9474 175.797 26.7316 176.017 26.5728 176.355C26.414 176.693 26.3814 177.003 26.3081 177.011Z" fill="#263238"/>
<path d="M23.7059 172.568C23.6734 172.637 23.3313 172.527 22.8914 172.568C22.4516 172.609 22.134 172.719 22.0769 172.654C22.0199 172.588 22.3579 172.328 22.8589 172.307C23.3598 172.287 23.7426 172.511 23.7059 172.568Z" fill="#263238"/>
<path d="M39.8081 103.34C39.8081 104.061 40.9769 122.309 35.0107 135.512C35.0107 135.512 32.946 139.642 32.5672 141.446C32.1885 143.25 24.4712 173.175 24.4712 173.175L15.5524 172.849C15.5524 172.849 14.1271 157.858 15.5524 149.18C16.9778 140.501 19.6249 141.519 19.6249 135.916C19.6249 130.312 18.2932 118.693 18.2932 118.693C18.2932 118.693 16.3466 115.521 15.6828 109.367C15.1411 104.37 17.495 99.0148 17.495 99.0148L19.8204 94.8975L39.4945 93.8672L39.8081 103.34Z" fill="#263238"/>
<path d="M39.8086 103.34C39.8086 103.34 39.8086 103.128 39.8086 102.717C39.8086 102.305 39.7842 101.695 39.7679 100.892C39.7312 99.2836 39.6702 96.9134 39.5968 93.8509V93.8062H39.548L19.8738 94.808H19.8331L19.8087 94.8446C19.0879 96.1234 18.2937 97.5202 17.4792 98.9619C16.8735 100.423 16.4005 101.936 16.0661 103.482C15.6966 105.11 15.5311 106.778 15.5733 108.447C15.6973 110.189 15.9698 111.918 16.3878 113.615C16.7911 115.396 17.425 117.117 18.2734 118.734V118.693C18.6114 121.731 18.925 124.879 19.1897 128.121C19.32 129.75 19.434 131.379 19.5155 133.053C19.5562 133.867 19.5888 134.722 19.5928 135.565C19.5928 135.973 19.5928 136.408 19.5684 136.828C19.5394 137.248 19.4878 137.667 19.4137 138.082C19.247 138.918 18.9516 139.723 18.5381 140.469C18.1308 141.23 17.7236 141.984 17.3163 142.778C16.5788 144.389 16.0413 146.085 15.7158 147.828C15.0072 151.33 14.8647 154.971 14.824 158.64C14.824 163.482 15.052 168.239 15.4511 172.837V172.934H15.5448L24.4635 173.26H24.5491L24.5694 173.175C27.1554 163.152 29.5663 153.786 31.6922 145.364L32.4619 142.248C32.5963 141.731 32.6818 141.218 32.8406 140.729C32.9994 140.241 33.1786 139.756 33.366 139.283C33.7488 138.339 34.1805 137.422 34.5877 136.53L34.9054 135.867C35.0182 135.65 35.1188 135.427 35.2067 135.199C35.39 134.747 35.5732 134.303 35.7565 133.859C37.023 130.574 37.9655 127.174 38.5706 123.706C39.4428 118.766 39.8924 113.761 39.9145 108.744C39.9389 105.234 39.7964 103.328 39.7964 103.328C39.7964 103.328 39.7964 103.446 39.7964 103.678C39.7964 103.91 39.7964 104.264 39.8208 104.72C39.8453 105.637 39.8616 106.989 39.8208 108.744C39.7832 113.756 39.3296 118.757 38.4647 123.694C37.8456 127.151 36.8909 130.539 35.614 133.81L35.0683 135.142C34.9787 135.37 34.8768 135.586 34.7669 135.806C34.6569 136.026 34.5511 136.249 34.4452 136.473C34.0379 137.365 33.6062 138.282 33.2234 139.231C33.032 139.707 32.8488 140.192 32.6899 140.689C32.5311 141.185 32.4374 141.711 32.3071 142.216C32.0505 143.242 31.794 144.276 31.5293 145.331C29.3668 153.745 26.96 163.112 24.3821 173.134L24.488 173.057L15.5692 172.727L15.6751 172.824C15.2679 168.235 15.0317 163.482 15.048 158.648C15.0887 154.983 15.2312 151.358 15.9358 147.88C16.2602 146.154 16.7921 144.474 17.52 142.875C17.8865 142.089 18.3345 141.344 18.7417 140.57C19.1525 139.805 19.4436 138.981 19.6051 138.127C19.6823 137.703 19.7353 137.274 19.7639 136.844C19.7639 136.437 19.8046 135.989 19.7883 135.569C19.7883 134.722 19.7517 133.879 19.7109 133.044C19.6295 131.375 19.5114 129.729 19.377 128.109C19.1055 124.851 18.7974 121.705 18.4526 118.673V118.648C17.6039 117.052 16.9672 115.351 16.5589 113.59C16.1432 111.906 15.8707 110.189 15.7444 108.459C15.7005 106.806 15.8619 105.153 16.2249 103.539C16.5531 102.009 17.015 100.51 17.6055 99.0596L19.9268 94.9383L19.8616 94.979L39.5358 93.9161L39.4828 93.8713C39.5806 96.9297 39.6539 99.2999 39.7027 100.909C39.7312 101.723 39.7516 102.318 39.7679 102.733C39.7842 103.148 39.8086 103.34 39.8086 103.34Z" fill="#042F86"/>
<path d="M33.4105 65.9708C33.4105 65.9708 28.1163 65.0341 28.609 71.8474C28.9186 75.9199 30.1159 82.9082 30.7797 87.3676C31.0077 88.9111 31.5127 91.6722 33.553 93.2931L48.1732 103.409L52.7873 97.8909L39.731 85.4576L37.6947 73.1587L33.4105 65.9708Z" fill="#042F86"/>
<path d="M34.0336 41.4139C34.8727 42.0897 35.5367 42.9577 35.9691 43.9445C36.4016 44.9313 36.5898 46.0078 36.5178 47.0828C36.4363 48.1254 36.1472 49.3105 36.8273 50.1046C37.5074 50.8987 38.8106 50.8702 39.454 51.6766C40.2074 52.6295 39.5762 54.0468 39.8613 55.2319C40.0066 55.7854 40.3441 56.2692 40.8134 56.5967C41.2827 56.9243 41.8532 57.0742 42.4229 57.0197C41.0863 58.1134 39.4744 58.8179 37.764 59.0559L36.4282 57.3903C36.925 57.9767 36.7906 58.9093 36.3142 59.508C35.7965 60.0652 35.1291 60.4611 34.3919 60.6482C32.6375 61.188 30.7822 61.3156 28.9704 61.021C27.1585 60.7265 25.4392 60.0177 23.946 58.95" fill="#263238"/>
<path d="M14.4734 50.6052C14.7341 49.7908 15.1739 49.0699 15.349 48.2514C15.7237 46.488 14.8644 44.5006 15.7196 42.9123C16.3305 41.7843 17.6255 41.2304 18.8554 40.8517C20.0853 40.4729 21.3966 40.1553 22.3129 39.2553C22.9808 38.5955 23.3636 37.6833 24.0315 37.0235C24.9845 36.0787 26.3936 35.757 27.7293 35.6755C29.1086 35.5423 30.499 35.7681 31.7652 36.3312C32.3939 36.6181 32.9463 37.0488 33.3779 37.5886C33.8094 38.1283 34.108 38.7621 34.2494 39.4385C34.3553 40.0983 34.2738 40.7947 34.4856 41.434C34.7136 42.1345 35.2634 42.6802 35.6055 43.3359C35.9481 44.04 36.0472 44.838 35.8873 45.6046C35.7273 46.3711 35.3174 47.0629 34.7218 47.5713L25.2818 59.7642C23.2985 60.5136 18.493 59.6095 16.9617 58.1353C15.4304 56.661 13.8177 52.6211 14.4734 50.6052Z" fill="#263238"/>
<path d="M34.4736 46.0237C34.0663 43.2544 31.9772 39.9842 29.2282 40.4892L20.7412 43.3399C19.9267 43.4947 20.505 44.859 20.5864 45.702L22.4313 64.8426C22.4313 64.8426 21.2828 65.6571 20.8756 65.5024C20.8524 65.4943 20.8273 65.4936 20.8037 65.5004C20.7801 65.5073 20.7592 65.5213 20.744 65.5406C20.7287 65.5599 20.7199 65.5834 20.7187 65.608C20.7174 65.6325 20.7239 65.6568 20.7371 65.6775C21.7675 67.1639 26.5689 73.627 31.5414 71.6437C32.6491 71.1998 31.4233 67.7097 31.5414 66.4187L31.3948 63.1159C31.2848 61.4299 31.2319 60.7376 31.2319 60.7539C31.2319 60.7701 34.7424 59.8905 35.1211 55.1949C35.3125 52.8695 34.9053 49.0984 34.4736 46.0237Z" fill="#FFBF9D"/>
<path d="M33.883 50.2836C33.8956 50.4386 33.8474 50.5924 33.7486 50.7125C33.6498 50.8326 33.5081 50.9095 33.3536 50.927C33.2783 50.9391 33.2013 50.936 33.1273 50.9178C33.0533 50.8996 32.9836 50.8668 32.9225 50.8212C32.8613 50.7756 32.81 50.7183 32.7714 50.6525C32.7328 50.5868 32.7078 50.5139 32.6979 50.4383C32.6853 50.2833 32.7335 50.1295 32.8323 50.0094C32.9311 49.8893 33.0728 49.8123 33.2273 49.7949C33.3026 49.7828 33.3795 49.7859 33.4536 49.8041C33.5276 49.8223 33.5973 49.8551 33.6584 49.9007C33.7196 49.9462 33.7709 50.0036 33.8095 50.0694C33.8481 50.1351 33.8731 50.208 33.883 50.2836Z" fill="#263238"/>
<path d="M28.0997 50.6459C28.1135 50.8005 28.0662 50.9544 27.9681 51.0746C27.8699 51.1948 27.7286 51.2719 27.5744 51.2894C27.4992 51.3009 27.4224 51.2973 27.3486 51.2789C27.2748 51.2605 27.2053 51.2276 27.1443 51.1821C27.0833 51.1367 27.032 51.0795 26.9932 51.014C26.9545 50.9486 26.9292 50.876 26.9187 50.8007C26.9061 50.6456 26.9543 50.4918 27.0531 50.3717C27.1519 50.2516 27.2936 50.1747 27.4481 50.1572C27.5232 50.1451 27.5999 50.1483 27.6737 50.1665C27.7475 50.1847 27.8169 50.2176 27.8777 50.2632C27.9385 50.3088 27.9895 50.3662 28.0276 50.432C28.0658 50.4977 28.0903 50.5705 28.0997 50.6459Z" fill="#263238"/>
<path d="M34.0947 48.3207C34.0295 48.4306 33.4757 48.0804 32.7833 48.1822C32.091 48.284 31.6471 48.7564 31.5616 48.6709C31.4761 48.5854 31.5616 48.4428 31.7611 48.227C32.0117 47.9457 32.3543 47.7629 32.7275 47.7114C33.1007 47.6599 33.48 47.7431 33.7974 47.946C34.0254 48.1048 34.1272 48.2718 34.0947 48.3207Z" fill="#263238"/>
<path d="M27.876 48.8375C27.7946 48.9393 27.2529 48.5443 26.5077 48.5769C25.7624 48.6094 25.233 49.0289 25.1475 48.9352C25.0619 48.8416 25.1841 48.7153 25.4162 48.528C25.7209 48.2765 26.1005 48.1332 26.4954 48.1207C26.8885 48.1053 27.2754 48.2214 27.595 48.4506C27.8271 48.6176 27.9127 48.7886 27.876 48.8375Z" fill="#263238"/>
<path d="M30.2097 53.2239C30.5385 53.0897 30.8836 52.9993 31.2359 52.9551C31.3948 52.9266 31.5495 52.8818 31.5658 52.7678C31.568 52.5975 31.5167 52.4309 31.4192 52.2913C31.2359 51.9085 31.0445 51.5053 30.8409 51.0696C30.0264 49.3469 29.4359 47.9297 29.5051 47.8971C29.5744 47.8645 30.2871 49.2329 31.0934 50.9515C31.2889 51.3791 31.4762 51.766 31.6513 52.1732C31.7705 52.3622 31.8181 52.5875 31.7857 52.8085C31.7671 52.8681 31.735 52.9226 31.6919 52.9678C31.6488 53.013 31.5959 53.0477 31.5373 53.0692C31.4491 53.0994 31.3574 53.1185 31.2645 53.1262C30.918 53.2004 30.5639 53.2332 30.2097 53.2239Z" fill="#263238"/>
<path d="M31.2315 60.7621C29.0507 60.9624 26.8571 60.5535 24.8948 59.5811C24.8948 59.5811 26.707 62.7169 31.313 61.9269L31.2315 60.7621Z" fill="#FF9A6C"/>
<path d="M28.2587 55.0893C28.3313 54.9283 28.4434 54.7882 28.5845 54.682C28.7571 54.5999 28.9532 54.5812 29.1383 54.6291C29.4134 54.6692 29.6678 54.7979 29.8632 54.9956C29.9591 55.0954 30.0266 55.2189 30.0589 55.3535C30.0911 55.4881 30.0868 55.6288 30.0465 55.7612C29.9732 56.03 29.5741 56.1685 29.3012 56.2255C29.0185 56.2668 28.7303 56.2077 28.4867 56.0585C28.3807 56.0102 28.2882 55.9368 28.2172 55.8445C28.1462 55.7522 28.0989 55.6439 28.0795 55.5291C28.0975 55.3688 28.1595 55.2166 28.2587 55.0893Z" fill="#FF9A6C"/>
<path d="M28.3895 54.189C28.4913 54.189 28.5483 54.8691 29.1795 55.317C29.8108 55.765 30.5438 55.6306 30.556 55.7243C30.5683 55.818 30.4054 55.8709 30.0918 55.9035C29.6849 55.9408 29.278 55.8325 28.9433 55.598C28.6205 55.3752 28.3981 55.0344 28.3243 54.6492C28.2836 54.3682 28.3406 54.189 28.3895 54.189Z" fill="#263238"/>
<path d="M27.819 46.333C27.7661 46.5081 27.1226 46.4755 26.3773 46.6262C25.6321 46.7769 25.0416 47.0334 24.9316 46.8746C24.8827 46.8054 24.9723 46.6343 25.2045 46.447C25.5154 46.2153 25.8754 46.0581 26.2567 45.9875C26.6379 45.9169 27.0303 45.9348 27.4036 46.0398C27.6887 46.1212 27.8394 46.2475 27.819 46.333Z" fill="#263238"/>
<path d="M33.6997 45.9868C33.5816 46.1416 33.0684 46.0316 32.4779 46.0723C31.8874 46.1131 31.3661 46.2556 31.2358 46.1131C31.1788 46.0438 31.2358 45.8891 31.4598 45.7343C31.7543 45.5402 32.0969 45.4317 32.4494 45.4207C32.7997 45.3955 33.15 45.4704 33.4594 45.6366C33.6712 45.7588 33.7526 45.9054 33.6997 45.9868Z" fill="#263238"/>
<path d="M18.8634 44.008C19.2707 43.3483 20.0607 43.0102 20.7938 42.7292C23.9596 41.5068 27.2599 40.666 30.6247 40.2247C31.032 40.9129 30.6573 41.8537 30.0261 42.3546C29.3948 42.8555 28.5803 43.055 27.8269 43.336C27.0735 43.617 26.2957 44.0569 25.9821 44.8021C25.6685 45.5474 25.9332 46.5289 25.64 47.3352C25.1391 48.728 23.1965 49.176 22.7119 50.5647C22.3372 51.6195 22.9481 52.7394 23.1192 53.8471C23.1974 54.4093 23.1548 54.9817 22.9942 55.5261C22.8336 56.0705 22.5588 56.5744 22.188 57.0042C21.8172 57.4339 21.359 57.7797 20.844 58.0183C20.329 58.2569 19.769 58.3829 19.2014 58.3879C18.9734 54.3996 18.744 50.414 18.5132 46.4311C18.4439 45.6003 18.4114 44.7044 18.8634 44.008Z" fill="#263238"/>
<path d="M10.8329 54.079C11.4641 53.513 12.2542 53.0243 12.5026 52.2179C12.8691 51.041 11.9243 49.6604 12.5352 48.5893C13.089 47.6119 14.7221 47.6649 15.2393 46.6671C15.6465 45.8852 15.1782 45.197 15.3289 44.5128C15.4796 43.8286 16.457 43.23 17.1493 43.3114L22.582 51.1998C23.0869 53.8469 23.596 55.2723 23.0299 56.8035C22.6555 57.628 22.3728 58.4911 22.1869 59.3773C22.0648 60.2733 22.2969 61.2873 23.0259 61.8208C19.7679 62.0774 16.7217 60.3751 13.9035 58.7257L10.9347 56.9827C10.6097 56.8272 10.3294 56.5918 10.1202 56.2985C9.67628 55.5736 10.2057 54.641 10.8329 54.079Z" fill="#263238"/>
<path d="M13.834 57.9234C13.9477 57.9599 14.0652 57.9831 14.1842 57.9926C14.524 58.0251 14.8667 58.0003 15.1983 57.9193C15.7275 57.7925 16.2145 57.53 16.6114 57.1577C17.1356 56.6532 17.4646 55.9795 17.5399 55.2559C17.5889 54.8362 17.5529 54.4111 17.4341 54.0056C17.288 53.5735 17.0854 53.1627 16.8313 52.7839C16.562 52.3993 16.3519 51.9765 16.2082 51.5296C16.1319 51.3011 16.108 51.0583 16.1383 50.8193C16.1687 50.5803 16.2524 50.3512 16.3834 50.149C16.6766 49.7418 17.2264 49.6562 17.7395 49.4526C18.0166 49.353 18.2577 49.1729 18.4318 48.9354C18.5921 48.6814 18.6703 48.3842 18.6558 48.0843C18.5854 47.5092 18.4613 46.942 18.2852 46.3901C18.2227 46.1222 18.2227 45.8435 18.2852 45.5756C18.3569 45.3055 18.5231 45.0699 18.7535 44.9118C19.2491 44.6261 19.8105 44.4745 20.3825 44.472C20.9745 44.4524 21.5518 44.2829 22.0604 43.9792C22.5552 43.6776 22.957 43.2448 23.221 42.7289C23.4378 42.2336 23.5752 41.7073 23.6283 41.1692C23.6848 40.6711 23.7912 40.1799 23.9459 39.7031C24.1175 39.2695 24.3783 38.8768 24.7116 38.5506C25.3262 37.9673 26.1197 37.6086 26.9636 37.5325C27.6673 37.4723 28.3735 37.6135 28.9999 37.9397C29.471 38.1808 29.8957 38.5034 30.2542 38.8927C30.5538 39.2324 30.8135 39.6055 31.028 40.0045C31.028 40.0045 31.028 39.976 30.9995 39.9189C30.966 39.8381 30.928 39.7592 30.8854 39.6827C30.7299 39.3871 30.5399 39.111 30.3194 38.8601C29.9611 38.4552 29.5336 38.1173 29.0569 37.8623C28.424 37.5144 27.7047 37.3548 26.984 37.4021C26.0996 37.4669 25.2643 37.8335 24.6179 38.4406C24.2618 38.7846 23.984 39.2013 23.8034 39.6624C23.6419 40.148 23.5301 40.6488 23.4695 41.157C23.413 41.6774 23.2756 42.1858 23.0622 42.6638C22.8139 43.1445 22.4394 43.5485 21.9789 43.8326C21.4937 44.1172 20.9448 44.2754 20.3825 44.2928C19.7697 44.2915 19.1678 44.4546 18.6395 44.7652C18.3752 44.945 18.1844 45.2138 18.1019 45.5227C18.0306 45.8239 18.0306 46.1377 18.1019 46.439C18.2744 46.9805 18.3971 47.5367 18.4685 48.1005C18.4853 48.3624 18.4198 48.623 18.2811 48.8458C18.1238 49.0524 17.9103 49.2094 17.6662 49.2979C17.4259 49.3997 17.1653 49.4689 16.9128 49.5748C16.6499 49.674 16.418 49.8413 16.2408 50.0594C16.097 50.2843 16.0048 50.5383 15.971 50.8031C15.9372 51.0679 15.9626 51.3369 16.0453 51.5907C16.1978 52.052 16.4174 52.4883 16.6969 52.8857C16.945 53.2458 17.1436 53.6375 17.2874 54.0504C17.4028 54.4356 17.4416 54.8396 17.4015 55.2396C17.3347 55.9361 17.0264 56.5873 16.53 57.0804C16.15 57.4483 15.6815 57.712 15.1698 57.846C14.734 57.9598 14.28 57.9861 13.834 57.9234Z" fill="#042F86"/>
<path d="M9.49294 52.3158C9.43966 52.3957 9.4036 52.4859 9.38705 52.5805C9.33289 52.8598 9.3821 53.1493 9.52552 53.395C9.62489 53.5704 9.76446 53.7198 9.93276 53.8308C10.1426 53.9577 10.384 54.0226 10.6292 54.0181C10.9271 54.0116 11.2175 53.9235 11.4688 53.7633C11.7201 53.6032 11.9227 53.3772 12.0545 53.1099C12.2094 52.8032 12.289 52.464 12.2867 52.1203C12.2768 51.751 12.1995 51.3867 12.0586 51.0452C11.802 50.3407 11.3296 49.6524 11.3215 48.8298C11.3061 48.6272 11.3317 48.4236 11.3968 48.2312C11.4618 48.0388 11.565 47.8615 11.7002 47.7098C12.0304 47.4372 12.4547 47.3055 12.8812 47.3433C13.3559 47.378 13.833 47.3284 14.2903 47.1967C14.53 47.0991 14.7325 46.928 14.8686 46.708C14.9997 46.4893 15.0817 46.2448 15.1089 45.9912C15.1323 45.5049 15.0926 45.0176 14.9908 44.5414C14.9179 44.0946 14.9443 43.6371 15.0682 43.2016C15.299 42.3702 15.8397 41.659 16.579 41.2142C17.2809 40.8567 18.0599 40.6777 18.8474 40.693C19.5473 40.6945 20.2429 40.5846 20.9081 40.3672C21.4489 40.1687 21.9446 39.8641 22.366 39.4712C22.6887 39.1731 22.9635 38.8269 23.1805 38.445C23.3716 38.1281 23.5027 37.7789 23.5674 37.4146C23.4462 37.7585 23.2949 38.091 23.1154 38.4083C22.6023 39.2646 21.812 39.9198 20.8755 40.2653C20.2159 40.4671 19.529 40.5661 18.8393 40.5586C18.0289 40.5357 17.2256 40.7149 16.5017 41.0798C15.7242 41.5358 15.1502 42.2714 14.8971 43.1364C14.7668 43.5958 14.7376 44.0779 14.8116 44.5496C14.9069 45.0102 14.9466 45.4805 14.9297 45.9505C14.9201 46.174 14.8493 46.3905 14.725 46.5765C14.6008 46.7625 14.4279 46.9108 14.2252 47.0053C13.79 47.1288 13.3364 47.1743 12.8853 47.1397C12.413 47.0984 11.9434 47.2447 11.578 47.5469C11.4289 47.7168 11.3158 47.9152 11.2458 48.1302C11.1758 48.3451 11.1503 48.5721 11.1708 48.7972C11.1888 49.22 11.2898 49.6351 11.4681 50.0189C11.6269 50.3854 11.802 50.7275 11.9364 51.0696C12.0731 51.3939 12.1503 51.7402 12.1645 52.0918C12.17 52.413 12.1003 52.731 11.9609 53.0203C11.8427 53.27 11.6583 53.4825 11.4279 53.6347C11.1974 53.7869 10.9296 53.873 10.6536 53.8837C10.4272 53.8918 10.203 53.8368 10.0061 53.7249C9.83748 53.6265 9.69719 53.4862 9.59882 53.3176C9.45606 53.091 9.397 52.8216 9.43185 52.5561C9.45221 52.4095 9.50515 52.3199 9.49294 52.3158Z" fill="#263238"/>
<path d="M43.7954 54.2583C43.8923 54.5338 43.8923 54.834 43.7954 55.1095C43.7416 55.2676 43.6529 55.4116 43.5359 55.5307C43.4189 55.6499 43.2765 55.7411 43.1194 55.7977C42.9098 55.8595 42.6872 55.8617 42.4765 55.8042C42.2658 55.7467 42.0752 55.6316 41.9261 55.4719C41.7551 55.2839 41.6556 55.0417 41.6451 54.7877C41.6373 54.5108 41.6801 54.2348 41.7714 53.9732C41.9424 53.4235 42.2967 52.8248 42.2438 52.104C42.2181 51.7385 42.1164 51.3824 41.9453 51.0585C41.7742 50.7345 41.5374 50.4498 41.2501 50.2225C40.9492 49.9816 40.605 49.8005 40.236 49.689C39.8592 49.5845 39.4705 49.5284 39.0795 49.522C38.7005 49.5189 38.3228 49.4793 37.9514 49.4039C37.6047 49.3324 37.2945 49.1406 37.0758 48.8623C36.8821 48.5767 36.7734 48.242 36.7622 47.8971C36.7441 47.561 36.7715 47.224 36.8437 46.8953C37.0224 46.2751 37.121 45.6346 37.1369 44.9894C37.1041 44.4165 36.9013 43.8664 36.5545 43.4092C36.2612 43.0465 35.902 42.7425 35.4957 42.5133C35.1988 42.3376 34.9144 42.1417 34.6445 41.9268C34.4232 41.7373 34.243 41.5045 34.1151 41.2427C34.1151 41.2427 34.1151 41.2427 34.1151 41.2997C34.1312 41.3548 34.153 41.408 34.1803 41.4585C34.2818 41.6565 34.42 41.8333 34.5875 41.9798C34.8515 42.2096 35.1334 42.4179 35.4305 42.6029C35.8191 42.834 36.1615 43.135 36.4405 43.4907C36.7633 43.9289 36.9477 44.4537 36.9699 44.9975C36.9457 45.6281 36.8431 46.2533 36.6645 46.8586C36.5857 47.203 36.5542 47.5565 36.5708 47.9093C36.586 48.2894 36.7073 48.6576 36.9211 48.9722C37.1638 49.2864 37.5101 49.5043 37.8984 49.5872C38.2805 49.6656 38.6691 49.7079 39.0591 49.7134C39.436 49.7184 39.8109 49.7704 40.175 49.8682C40.5205 49.9756 40.8435 50.1454 41.1279 50.3691C41.3956 50.5801 41.6166 50.8443 41.7772 51.145C41.9377 51.4457 42.0341 51.7764 42.0605 52.1162C42.1175 52.7719 41.7917 53.3379 41.6125 53.9284C41.5184 54.2117 41.477 54.5099 41.4904 54.8081C41.5081 55.0927 41.6248 55.3621 41.8202 55.5696C41.9875 55.7449 42.2007 55.8695 42.4355 55.9293C42.6703 55.9891 42.9171 55.9816 43.1479 55.9077C43.3164 55.8423 43.4678 55.7394 43.5906 55.6067C43.7134 55.474 43.8043 55.3151 43.8565 55.142C43.9303 54.9298 43.9416 54.7008 43.8891 54.4823C43.8714 54.4027 43.8396 54.3268 43.7954 54.2583Z" fill="#263238"/>
<path d="M39.9023 86.1582V81.654C40.4073 79.125 40.167 76.1277 38.9901 73.8186C38.1362 72.3303 37.1924 70.8955 36.1638 69.5221L31.684 63.7026C29.2161 65.4985 25.3513 64.1994 22.0364 62.994C22.0364 62.994 18.7784 64.8062 17.239 66.5085C15.6385 68.3004 21.1119 90.7194 21.1119 90.7194C18.6318 95.6797 15.4308 100.086 14.9462 104.607L40.8471 105.604L39.7475 93.7289L39.9023 86.1582Z" fill="#042F86"/>
<path d="M39.5438 93.8551C39.5181 93.6867 39.5112 93.5159 39.5235 93.346C39.5235 92.9754 39.5235 92.5315 39.5235 91.9654C39.5438 90.7437 39.5683 89.1677 39.5968 87.4124C39.6253 85.6572 39.6782 84.0241 39.7352 82.8594C39.7637 82.277 39.7922 81.8046 39.8167 81.4788C39.8195 81.3099 39.8414 81.1419 39.8818 80.9779C39.8983 81.1458 39.8983 81.315 39.8818 81.4829C39.8818 81.8535 39.8818 82.2974 39.8818 82.8635C39.8615 84.0852 39.833 85.6613 39.8045 87.4165C39.7759 89.1717 39.7271 90.8048 39.6701 91.9695C39.6416 92.5519 39.613 93.0243 39.5845 93.3501C39.5909 93.5194 39.5772 93.6889 39.5438 93.8551Z" fill="#263238"/>
<path d="M51.3741 97.952C51.3741 97.952 53.899 98.0905 55.4465 99.0679C56.9941 100.045 59.519 101.568 60.5575 103.454C61.034 104.321 59.6778 104.505 59.0059 104.004C58.3339 103.503 57.3117 102.55 56.8027 102.436L56.2936 102.318C56.7584 103.37 57.2762 104.397 57.8452 105.397C58.3706 106.211 58.8267 107.563 57.2466 107.624C57.2466 107.624 56.1837 109.009 55.1085 107.983C55.1085 107.983 54.2696 109.241 52.9175 107.498C52.9175 107.498 52.1275 108.496 51.8017 108.113C51.4759 107.73 50.3967 107.127 50.0831 105.881C49.6126 104.431 49.0689 103.005 48.4541 101.609L51.3741 97.952Z" fill="#FFBF9D"/>
<path d="M107.904 62.9529C108.185 62.9529 119.747 61.7312 119.747 61.7312C119.747 61.7312 120.728 57.0315 120.675 55.8098C120.622 54.5881 119.8 46.5042 119.8 46.5042L124.129 44.468C124.129 44.468 129.916 63.9833 128.653 65.6041C127.391 67.225 125.017 68.6788 124.813 68.687C124.609 68.6951 113.61 73.5739 105.957 71.0368C98.3053 68.4996 107.904 62.9529 107.904 62.9529Z" fill="#FFBF9D"/>
<path d="M97.772 73.4886C99.4743 75.1787 102.406 76.5837 107.302 75.362C116.978 72.9429 124.231 70.8822 127.114 69.3347C129.997 67.7872 128.873 60.8721 129.118 60.5585C129.847 59.6137 129.045 57.5856 128.006 57.2679C125.045 56.372 119.894 56.7263 119.633 56.9951C118.114 58.5915 119.499 60.53 119.499 60.53L106.74 62.2038C105.171 62.1302 103.599 62.2299 102.052 62.5011" fill="#042F86"/>
<path d="M102.052 62.5008L102.358 62.4357C102.561 62.399 102.863 62.3461 103.262 62.2972C104.416 62.1518 105.581 62.1028 106.744 62.1506L119.499 60.4402L119.438 60.5827C119.019 59.9663 118.813 59.2297 118.851 58.4854C118.886 58.1004 119.012 57.7291 119.218 57.4021C119.321 57.2378 119.438 57.0825 119.568 56.9378C119.619 56.9001 119.675 56.8699 119.735 56.8482L119.881 56.8116C119.979 56.7871 120.073 56.779 120.167 56.7586C121.747 56.5764 123.341 56.5437 124.927 56.6609C125.76 56.7116 126.588 56.826 127.403 57.003C127.607 57.0478 127.811 57.1089 128.022 57.1618C128.24 57.2311 128.438 57.3479 128.605 57.5039C128.928 57.8116 129.175 58.191 129.326 58.6116C129.487 59.0329 129.544 59.487 129.493 59.9352C129.455 60.1684 129.368 60.3907 129.236 60.5868C129.199 60.6275 129.203 60.7374 129.199 60.8433V61.1691C129.228 62.0447 129.269 62.9366 129.244 63.8325C129.251 65.1044 129.043 66.3683 128.629 67.5711C128.417 68.1736 128.052 68.711 127.57 69.1308C127.321 69.3258 127.047 69.4873 126.756 69.6114C126.487 69.7539 126.202 69.8639 125.941 69.9942C124.825 70.4707 123.706 70.8616 122.602 71.2159C121.498 71.5702 120.415 71.9123 119.344 72.2259C115.084 73.4476 111.199 74.4373 107.965 75.2477C107.193 75.4519 106.41 75.6137 105.62 75.7323C104.912 75.831 104.196 75.8691 103.482 75.8463C102.334 75.8218 101.201 75.5756 100.146 75.1214C99.4847 74.8295 98.8678 74.4457 98.3137 73.9811C98.1184 73.8234 97.936 73.6504 97.7679 73.4639C97.7679 73.4639 97.9553 73.6431 98.3422 73.9486C98.9035 74.3962 99.5227 74.7661 100.183 75.0481C101.231 75.4808 102.352 75.7115 103.486 75.7282C104.193 75.7452 104.9 75.7016 105.599 75.5979C106.384 75.4741 107.162 75.3082 107.929 75.1011C111.187 74.2866 115.039 73.2847 119.287 72.0386C120.35 71.725 121.433 71.391 122.545 71.0245C123.657 70.658 124.76 70.2711 125.864 69.8028C126.133 69.6765 126.414 69.5666 126.678 69.424C126.95 69.3043 127.206 69.1511 127.44 68.9679C127.895 68.5729 128.239 68.0662 128.438 67.4978C128.839 66.3108 129.039 65.0651 129.028 63.8122C129.053 62.9203 129.028 62.0366 128.983 61.1569V60.823C128.983 60.766 128.983 60.7089 128.983 60.6479C128.98 60.6154 128.98 60.5826 128.983 60.5501C128.993 60.525 129.004 60.5005 129.016 60.4768L129.036 60.4442C129.151 60.2773 129.226 60.0865 129.256 59.8863C129.304 59.4722 129.25 59.0527 129.098 58.6646C128.961 58.2756 128.735 57.9242 128.438 57.6383C128.294 57.503 128.121 57.4015 127.933 57.341C127.729 57.2881 127.526 57.231 127.326 57.1822C126.521 57.0077 125.704 56.8947 124.882 56.8442C123.313 56.7242 121.735 56.7542 120.171 56.9338C120.077 56.9338 119.983 56.9582 119.894 56.9826L119.763 57.0111C119.735 57.0222 119.708 57.0359 119.682 57.0519C119.559 57.1856 119.449 57.3301 119.352 57.4835C119.158 57.7832 119.041 58.1257 119.01 58.4813C118.975 59.1812 119.166 59.8739 119.556 60.4564L119.637 60.5827H119.495L106.731 62.2117C105.575 62.153 104.417 62.1857 103.266 62.3094C102.859 62.3501 102.561 62.3949 102.358 62.4235C102.154 62.452 102.052 62.5008 102.052 62.5008Z" fill="#263238"/>
<path d="M67.5066 75.7641L62.3095 66.4268L160.607 11.715C161.74 11.0846 163.076 10.93 164.323 11.2851C165.569 11.6402 166.624 12.4759 167.254 13.6084L167.7 14.409C168.33 15.5415 168.485 16.878 168.13 18.1246C167.774 19.3711 166.939 20.4255 165.806 21.0558L67.5085 75.7676L67.5066 75.7641Z" fill="#0274B3"/>
<path d="M149.934 26.3828L137.898 4.75824C137.84 4.65357 137.803 4.53844 137.789 4.41944C137.775 4.30044 137.785 4.17989 137.818 4.06467C137.851 3.94946 137.906 3.84184 137.98 3.74796C138.055 3.65408 138.147 3.57577 138.251 3.51751L143.774 0.443635C143.879 0.385373 143.994 0.348296 144.113 0.334527C144.232 0.320758 144.352 0.330561 144.468 0.36338C144.583 0.3962 144.691 0.451394 144.784 0.525805C144.878 0.600217 144.957 0.692389 145.015 0.797063L157.051 22.4216L149.934 26.3828Z" fill="#0274B3"/>
<path d="M126.256 16.3138L135.028 32.074C135.382 32.7107 136.186 32.9396 136.823 32.5852L141.634 29.9075C142.27 29.5531 142.499 28.7496 142.145 28.1128L133.373 12.3526C133.018 11.7159 132.215 11.487 131.578 11.8414L126.767 14.5191C126.131 14.8735 125.902 15.677 126.256 16.3138Z" fill="#0274B3"/>
<path d="M134.001 15.3935L139.432 25.1506L150.484 18.9989L145.054 9.24174L134.001 15.3935Z" fill="#0274B3"/>
<path d="M159.169 12.5359C159.197 12.5848 139.906 23.3768 116.09 36.6368C92.274 49.8968 72.9216 60.6074 72.9216 60.5545C72.9216 60.5015 92.1804 49.7135 116.004 36.4495C139.828 23.1854 159.14 12.483 159.169 12.5359Z" fill="#263238"/>
<path d="M27.697 93.8021C34.946 106.834 50.23 112.128 61.8366 105.673C73.4432 99.2185 76.9862 83.4173 69.7372 70.4016C62.4882 57.386 47.2083 52.0755 35.5976 58.5304C23.987 64.9852 20.4521 80.7864 27.697 93.8021ZM63.4493 73.9039C68.5277 83.0263 66.0475 94.0912 57.9107 98.6157C49.7739 103.14 39.0674 99.4302 33.989 90.2997C28.9106 81.1692 31.3908 70.1125 39.5235 65.5839C47.6562 61.0553 58.3709 64.7816 63.4493 73.9039Z" fill="#0274B3"/>
<path d="M78.8562 57.1045L84.2196 66.7407C84.9328 68.0221 86.5497 68.4826 87.8311 67.7694L88.2652 67.5278C89.5466 66.8146 90.0071 65.1977 89.2939 63.9164L83.9305 54.2802C83.2173 52.9988 81.6004 52.5383 80.3191 53.2514L79.885 53.4931C78.6036 54.2063 78.143 55.8232 78.8562 57.1045Z" fill="#0274B3"/>
<path d="M89.1566 51.3709L94.5201 61.0071C95.2332 62.2885 96.8501 62.7491 98.1315 62.0359L98.5656 61.7942C99.847 61.081 100.308 59.4641 99.5944 58.1828L94.2309 48.5466C93.5177 47.2653 91.9008 46.8047 90.6195 47.5179L90.1854 47.7595C88.904 48.4727 88.4434 50.0896 89.1566 51.3709Z" fill="#0274B3"/>
<path d="M83.8153 54.132C83.8683 54.1035 85.1104 56.2904 86.5968 59.019C88.0833 61.7475 89.2439 63.9711 89.191 63.9996C89.1381 64.0281 87.896 61.8453 86.4095 59.1126C84.9231 56.38 83.7624 54.132 83.8153 54.132Z" fill="#263238"/>
<path d="M79.0874 57.4916C79.1404 57.4631 80.354 59.5523 81.8038 62.1505C83.2536 64.7488 84.3816 66.8868 84.3328 66.9153C84.2839 66.9438 83.0662 64.8547 81.6327 62.2768C80.1992 59.6989 79.0386 57.5201 79.0874 57.4916Z" fill="#263238"/>
<path d="M94.1801 48.4589C94.233 48.4304 95.4995 50.6051 97.0104 53.3174C98.5213 56.0296 99.7023 58.2573 99.6494 58.2858C99.5964 58.3143 98.334 56.1355 96.8231 53.4232C95.3122 50.711 94.1312 48.4874 94.1801 48.4589Z" fill="#263238"/>
<path d="M89.2076 51.4606C89.2564 51.4321 90.4985 53.5946 91.9728 56.2906C93.447 58.9865 94.6077 61.1775 94.5547 61.2223C94.5018 61.2671 93.2678 59.0884 91.7895 56.3924C90.3112 53.6964 89.1546 51.4891 89.2076 51.4606Z" fill="#263238"/>
<path d="M118.745 36.7713C119.219 36.8271 119.697 36.7044 120.086 36.4272C120.475 36.1499 120.746 35.7379 120.848 35.2714C120.95 34.8049 120.874 34.3172 120.636 33.9034C120.398 33.4896 120.014 33.1792 119.56 33.0327C119.853 32.7319 120.045 32.3464 120.107 31.9306C120.17 31.5149 120.1 31.09 119.908 30.7162C119.715 30.3423 119.41 30.0385 119.036 29.8476C118.661 29.6567 118.236 29.5885 117.821 29.6526C117.803 29.2391 117.68 28.837 117.461 28.4855C117.243 28.134 116.937 27.845 116.574 27.6466C116.211 27.4482 115.802 27.3472 115.389 27.3533C114.975 27.3594 114.57 27.4724 114.212 27.6815C113.747 27.3007 113.167 27.0866 112.565 27.0734C111.964 27.0601 111.375 27.2483 110.893 27.6082C110.488 27.5309 110.069 27.5861 109.698 27.7658C109.327 27.9455 109.023 28.24 108.833 28.6057C108.642 28.9714 108.574 29.3887 108.64 29.7959C108.705 30.2031 108.9 30.5784 109.195 30.8662" fill="#263238"/>
<path d="M110.482 29.5057H110.89C112.943 29.5075 114.92 30.2824 116.428 31.6763C117.936 33.0701 118.864 34.9807 119.026 37.0276C119.332 40.9738 119.617 45.3355 119.584 47.4531C119.507 51.8514 115.133 52.503 115.133 52.503L115.487 57.7728L104.846 57.4266L103.962 38.3267C103.588 33.7696 105.921 29.7582 110.482 29.5057Z" fill="#FFBF9D"/>
<path d="M115.17 52.5031C113.134 52.4975 111.142 51.9082 109.432 50.8049C109.432 50.8049 110.841 54.1239 115.214 53.7411L115.17 52.5031Z" fill="#FF9A6C"/>
<path d="M116.62 41.1613C116.621 41.3245 116.558 41.4816 116.444 41.5988C116.331 41.7161 116.176 41.7842 116.013 41.7885C115.933 41.794 115.853 41.7837 115.778 41.7581C115.702 41.7326 115.633 41.6924 115.573 41.6397C115.513 41.5871 115.464 41.5231 115.429 41.4514C115.394 41.3798 115.374 41.302 115.369 41.2224C115.369 41.0591 115.432 40.9022 115.545 40.7845C115.659 40.6668 115.813 40.5975 115.976 40.5912C116.056 40.5856 116.136 40.5961 116.212 40.6219C116.288 40.6476 116.357 40.6883 116.417 40.7413C116.477 40.7944 116.526 40.8589 116.561 40.931C116.595 41.0031 116.615 41.0814 116.62 41.1613Z" fill="#263238"/>
<path d="M118.077 39.1818C118 39.2633 117.524 38.913 116.856 38.913C116.188 38.913 115.687 39.247 115.614 39.1655C115.54 39.0841 115.658 38.9823 115.874 38.8234C116.166 38.6227 116.513 38.5174 116.868 38.5221C117.218 38.5206 117.559 38.632 117.841 38.8397C118.045 38.9985 118.114 39.1492 118.077 39.1818Z" fill="#263238"/>
<path d="M110.547 40.8682C110.551 41.0339 110.488 41.1941 110.374 41.3139C110.259 41.4337 110.102 41.5034 109.937 41.5076C109.857 41.5131 109.777 41.5028 109.702 41.4773C109.626 41.4518 109.557 41.4115 109.497 41.3589C109.437 41.3062 109.388 41.2422 109.353 41.1706C109.318 41.099 109.298 41.0211 109.293 40.9416C109.292 40.778 109.355 40.6204 109.468 40.5025C109.581 40.3846 109.736 40.3156 109.9 40.3103C109.979 40.3042 110.059 40.3138 110.134 40.3386C110.21 40.3634 110.279 40.4028 110.34 40.4547C110.4 40.5065 110.449 40.5697 110.485 40.6407C110.52 40.7117 110.542 40.789 110.547 40.8682Z" fill="#263238"/>
<path d="M111.455 39.2879C111.378 39.3694 110.902 39.0192 110.234 39.0192C109.566 39.0192 109.065 39.3531 108.992 39.2717C108.918 39.1902 109.036 39.0884 109.252 38.9296C109.544 38.7288 109.892 38.6235 110.246 38.6282C110.596 38.6267 110.937 38.7381 111.219 38.9459C111.423 39.1047 111.492 39.2513 111.455 39.2879Z" fill="#263238"/>
<path d="M113.883 44.2931C114.238 44.1814 114.607 44.1157 114.979 44.0977C115.15 44.0977 115.313 44.0488 115.345 43.9307C115.36 43.7534 115.32 43.5759 115.231 43.4216L114.726 42.1103C114.026 40.241 113.504 38.7057 113.594 38.6813C113.684 38.6568 114.299 40.1433 114.999 42.0085C115.166 42.4687 115.329 42.9085 115.484 43.328C115.589 43.5367 115.619 43.7755 115.569 44.004C115.544 44.0643 115.505 44.118 115.455 44.1611C115.406 44.2041 115.347 44.2354 115.284 44.2524C115.19 44.2803 115.093 44.294 114.995 44.2931C114.626 44.3393 114.252 44.3393 113.883 44.2931Z" fill="#263238"/>
<path d="M112.046 36.6978C111.956 36.8688 111.382 36.6978 110.669 36.6571C109.957 36.6163 109.362 36.7507 109.297 36.5715C109.269 36.486 109.395 36.3353 109.651 36.1969C109.982 36.0334 110.35 35.9576 110.718 35.977C111.084 35.9899 111.439 36.0995 111.749 36.2946C111.981 36.4534 112.087 36.6204 112.046 36.6978Z" fill="#263238"/>
<path d="M118.118 36.4086C117.976 36.5593 117.418 36.4086 116.75 36.4086C116.082 36.4086 115.528 36.5104 115.386 36.3475C115.329 36.2702 115.418 36.1154 115.667 35.9729C116.009 35.7935 116.393 35.7078 116.779 35.7245C117.163 35.7296 117.538 35.8379 117.866 36.038C118.102 36.1765 118.18 36.3313 118.118 36.4086Z" fill="#263238"/>
<path d="M118.611 35.0321C118.611 35.0321 117.462 32.2832 116.139 31.6398C114.538 30.8578 113.846 32.6131 112.319 32.1814C110.792 31.7497 109.265 31.0045 107.701 32.1814C105.99 33.4683 106.788 34.3765 106.674 36.3231C106.226 44.2074 104.777 46.431 104.382 42.7169C104.337 42.3097 103.209 41.9839 103.046 40.2734C102.834 38.0458 102.757 35.3376 103.262 33.7574C103.669 32.4257 104.447 31.5054 105.811 30.4995C107.969 28.9031 110.926 28.8705 112.934 29.0863C114.942 29.3022 118.802 31.595 118.611 35.0321Z" fill="#263238"/>
<path d="M104.658 42.5945C104.654 42.4336 104.617 42.2753 104.549 42.1292C104.482 41.9831 104.385 41.8522 104.266 41.7444C104.146 41.6367 104.006 41.5543 103.854 41.5023C103.701 41.4503 103.54 41.4298 103.38 41.442C102.565 41.5194 101.649 41.9796 101.698 43.6697C101.783 46.667 104.776 45.9625 104.781 45.8729C104.785 45.7833 104.707 43.8488 104.658 42.5945Z" fill="#FFBF9D"/>
<path d="M104.092 44.7654C104.092 44.7654 104.044 44.8061 103.954 44.8469C103.832 44.9027 103.694 44.91 103.567 44.8672C103.369 44.7502 103.206 44.5824 103.095 44.3811C102.984 44.1799 102.929 43.9526 102.936 43.7229C102.92 43.4671 102.962 43.2111 103.058 42.9735C103.084 42.8796 103.132 42.7935 103.199 42.7225C103.266 42.6515 103.349 42.5979 103.441 42.5663C103.501 42.5481 103.565 42.5516 103.622 42.5762C103.68 42.6008 103.726 42.6449 103.754 42.7007C103.795 42.7821 103.779 42.8432 103.795 42.8473C103.812 42.8514 103.856 42.7943 103.828 42.6722C103.812 42.5979 103.768 42.5324 103.706 42.4889C103.664 42.4587 103.618 42.437 103.568 42.4251C103.518 42.4132 103.467 42.4114 103.416 42.4197C103.294 42.4473 103.18 42.506 103.087 42.5902C102.993 42.6743 102.923 42.7811 102.883 42.9002C102.762 43.1626 102.707 43.4507 102.724 43.7392C102.761 44.3419 103.087 44.8998 103.539 45.0138C103.619 45.0351 103.704 45.0377 103.786 45.0215C103.867 45.0053 103.945 44.9706 104.011 44.9202C104.093 44.8387 104.105 44.7654 104.092 44.7654Z" fill="#FF9A6C"/>
<path d="M104.736 36.7875C105.103 37.0864 105.538 37.2893 106.003 37.378C106.236 37.4146 106.475 37.3654 106.674 37.2396C106.874 37.1139 107.022 36.92 107.09 36.6938C107.127 36.4861 107.09 36.2418 107.212 36.0829C107.334 35.9241 107.68 35.9526 107.929 35.9811C108.8 36.0748 109.823 35.1137 110.047 34.2666C110.16 34.4291 110.331 34.5423 110.524 34.5831C110.718 34.624 110.92 34.5894 111.089 34.4865C111.366 34.3173 111.611 34.1009 111.814 33.8472C111.932 33.6856 112.087 33.5549 112.267 33.4663C112.446 33.3777 112.644 33.3337 112.844 33.3381C113.055 33.4109 113.274 33.4588 113.496 33.4806C113.903 33.4481 114.082 32.9879 114.143 32.5969C114.205 32.2059 114.253 31.7539 114.587 31.5421C114.93 31.4078 115.309 31.3978 115.658 31.5136C116.021 31.5706 116.473 31.4851 116.583 31.1308C116.598 31.0361 116.594 30.9394 116.571 30.8464C116.547 30.7533 116.506 30.6659 116.448 30.5892C116.206 30.2259 115.848 29.9551 115.433 29.8206C115.018 29.6861 114.569 29.6957 114.16 29.848C114.016 29.3468 113.726 28.8998 113.327 28.564C112.927 28.2283 112.438 28.0189 111.919 27.9625C111.401 27.9062 110.877 28.0054 110.415 28.2477C109.953 28.4899 109.574 28.8641 109.326 29.3226C109.009 29.0321 108.626 28.8227 108.21 28.7121C107.794 28.6014 107.358 28.593 106.939 28.6874C106.519 28.7818 106.128 28.9763 105.8 29.2542C105.472 29.5322 105.216 29.8854 105.054 30.2837C104.687 30.1859 104.3 30.1981 103.94 30.3188C103.58 30.4394 103.264 30.6632 103.03 30.9623C102.797 31.2613 102.656 31.6225 102.627 32.0008C102.597 32.379 102.679 32.7577 102.863 33.0897C102.584 33.2275 102.344 33.434 102.167 33.6897C101.989 33.9454 101.88 34.242 101.849 34.5517C101.849 35.1707 102.439 35.7734 103.038 35.6268C102.914 35.8708 102.888 36.153 102.965 36.4155C103.042 36.678 103.217 36.901 103.454 37.0386C103.691 37.1761 103.971 37.2179 104.237 37.1553C104.504 37.0927 104.736 36.9305 104.887 36.702" fill="#263238"/>
<path d="M114.379 30.7274C114.379 30.7274 114.379 30.7274 114.379 30.7844C114.379 30.8414 114.379 30.874 114.359 30.9432C114.317 31.1464 114.243 31.3417 114.139 31.5215C113.974 31.8033 113.747 32.0441 113.475 32.226C113.116 32.4708 112.687 32.5923 112.253 32.5722L112.302 32.507C112.39 32.7759 112.368 33.0688 112.241 33.3215C112.107 33.5895 111.934 33.8364 111.728 34.0546C111.628 34.1818 111.515 34.2978 111.39 34.4007C111.168 34.5465 110.902 34.6089 110.639 34.5768C110.376 34.5447 110.133 34.4203 109.952 34.2256L110.062 34.193C110.02 34.5042 109.913 34.8031 109.749 35.0704C109.584 35.3377 109.365 35.5674 109.105 35.7446C108.821 35.9564 108.475 36.0693 108.12 36.0664C107.787 36.0482 107.46 35.9753 107.151 35.8505L107.232 35.8139C107.075 36.1765 106.83 36.4943 106.519 36.7383C106.377 36.8599 106.21 36.9481 106.03 36.9968C105.85 37.0454 105.661 37.0531 105.477 37.0193C105.162 36.9508 104.874 36.7917 104.648 36.5617C104.422 36.3316 104.269 36.0405 104.206 35.7243L104.275 35.7569C103.958 35.921 103.595 35.9727 103.245 35.9035C102.984 35.8537 102.739 35.7435 102.528 35.5817C102.397 35.479 102.285 35.3551 102.194 35.2152C102.161 35.1666 102.137 35.113 102.121 35.0564C102.235 35.2437 102.383 35.408 102.557 35.541C102.764 35.6911 103.004 35.7902 103.257 35.8302C103.59 35.8931 103.934 35.8384 104.231 35.6754L104.288 35.6428V35.708C104.349 36.0023 104.495 36.2723 104.708 36.4849C104.921 36.6976 105.191 36.8436 105.485 36.9053C105.653 36.9346 105.825 36.9261 105.989 36.8803C106.154 36.8345 106.305 36.7526 106.434 36.6406C106.726 36.4086 106.955 36.1077 107.102 35.765L107.126 35.7121H107.183C107.478 35.8306 107.79 35.8994 108.108 35.9157C108.436 35.9183 108.756 35.814 109.02 35.6184C109.264 35.4509 109.47 35.2344 109.626 34.9826C109.782 34.7309 109.883 34.4495 109.924 34.1564V34.0138L110.018 34.1238C110.124 34.2408 110.256 34.3301 110.405 34.3841C110.553 34.438 110.712 34.4549 110.869 34.4333C111.015 34.4139 111.154 34.3609 111.276 34.2786C111.394 34.1838 111.5 34.0758 111.594 33.9568C111.795 33.7491 111.965 33.5131 112.099 33.2564C112.159 33.142 112.195 33.0169 112.207 32.8882C112.218 32.7596 112.203 32.63 112.164 32.507L112.139 32.4337H112.217C112.633 32.4595 113.046 32.3495 113.394 32.1201C113.661 31.9481 113.886 31.7185 114.053 31.4482C114.204 31.2291 114.314 30.985 114.379 30.7274Z" fill="#042F86"/>
<path d="M113.875 46.5286C113.85 46.4187 113.121 46.5978 112.445 46.101C111.769 45.6042 111.659 44.8059 111.557 44.8263C111.456 44.8467 111.456 45.0381 111.529 45.3679C111.629 45.7983 111.879 46.1793 112.233 46.4431C112.572 46.6955 112.996 46.8064 113.414 46.7526C113.728 46.7037 113.891 46.5775 113.875 46.5286Z" fill="#263238"/>
<path d="M136.46 160.473L139.352 170.324C139.352 170.324 150.347 170.69 151.052 172.462L132.131 178.75L126.992 163.58L136.46 160.473Z" fill="#042F86"/>
<path d="M133.235 171.452C133.072 171.568 132.957 171.74 132.913 171.936C132.868 172.131 132.898 172.336 132.995 172.511C133.104 172.678 133.274 172.798 133.469 172.844C133.663 172.89 133.868 172.86 134.041 172.759C134.215 172.636 134.336 172.453 134.382 172.245C134.428 172.037 134.395 171.82 134.29 171.635C134.157 171.472 133.966 171.367 133.758 171.341C133.549 171.315 133.338 171.371 133.17 171.497" fill="#8A8989"/>
<path d="M149.985 171.749C149.985 171.749 150.95 171.835 151.052 172.462L132.132 178.75L131.675 177.198L149.969 171.741" fill="#263238"/>
<path d="M139.625 170.124C139.653 170.218 139.217 170.414 138.851 170.862C138.484 171.31 138.383 171.778 138.285 171.77C138.187 171.762 138.15 171.183 138.59 170.65C139.03 170.116 139.617 170.035 139.625 170.124Z" fill="#362C2C"/>
<path d="M141.881 170.283C141.934 170.369 141.588 170.658 141.4 171.15C141.213 171.643 141.266 172.091 141.172 172.116C141.079 172.14 140.846 171.639 141.087 171.028C141.327 170.417 141.852 170.197 141.881 170.283Z" fill="#362C2C"/>
<path d="M143.799 172.283C143.722 172.332 143.441 171.912 143.51 171.33C143.579 170.748 143.942 170.397 144.007 170.462C144.072 170.528 143.893 170.87 143.844 171.367C143.795 171.863 143.889 172.234 143.799 172.283Z" fill="#362C2C"/>
<path d="M138.717 167.954C138.717 168.051 138.24 168.064 137.731 168.271C137.222 168.479 136.868 168.78 136.794 168.719C136.721 168.658 137.002 168.198 137.609 167.958C138.216 167.717 138.741 167.864 138.717 167.954Z" fill="#362C2C"/>
<path d="M92.3395 160.558L88.2222 169.965C88.2222 169.965 96.4038 177.296 95.8133 179.12L77.2836 171.79L83.095 156.868L92.3395 160.558Z" fill="#042F86"/>
<path d="M82.8095 166.899C82.6102 166.883 82.4121 166.942 82.2529 167.062C82.0937 167.183 81.9845 167.359 81.9462 167.555C81.9234 167.754 81.9773 167.954 82.0968 168.114C82.2164 168.274 82.3926 168.383 82.5896 168.418C82.8012 168.434 83.0111 168.371 83.1793 168.242C83.3476 168.113 83.4624 167.926 83.5018 167.718C83.5018 167.31 83.1312 166.846 82.7321 166.903" fill="#8A8989"/>
<path d="M95.4509 177.89C95.4509 177.89 96.1351 178.579 95.8133 179.112L77.2836 171.782L77.9311 170.303L95.4427 177.878" fill="#263238"/>
<path d="M88.5558 169.99C88.5192 170.079 88.0508 169.941 87.4888 170.055C86.9268 170.169 86.5399 170.462 86.4707 170.389C86.4015 170.316 86.7436 169.851 87.4237 169.725C88.1038 169.599 88.6128 169.912 88.5558 169.99Z" fill="#362C2C"/>
<path d="M90.1849 171.562C90.1849 171.656 89.7207 171.656 89.2605 171.917C88.8003 172.177 88.5559 172.548 88.446 172.511C88.336 172.475 88.503 171.937 89.0772 171.623C89.6514 171.31 90.2175 171.477 90.1849 171.562Z" fill="#362C2C"/>
<path d="M90.3723 174.323C90.2827 174.323 90.3357 173.81 90.7796 173.407C91.2235 173.003 91.7081 172.971 91.7162 173.06C91.7244 173.15 91.3579 173.313 91.0117 173.651C90.6655 173.989 90.466 174.351 90.3723 174.323Z" fill="#362C2C"/>
<path d="M89.2603 167.754C89.1911 167.819 88.8246 167.534 88.2992 167.347C87.7739 167.159 87.3137 167.184 87.2974 167.09C87.2811 166.996 87.7901 166.821 88.4051 167.025C89.02 167.229 89.3336 167.689 89.2603 167.754Z" fill="#362C2C"/>
<path d="M99.2748 108.878L92.7832 135.211C92.7832 135.211 81.0748 154.921 79.0916 164.785L89.8022 168.996C89.8022 168.996 97.5928 149.998 99.8775 146.512C100.905 144.95 102.087 143.494 103.404 142.166C104.261 141.317 104.875 140.254 105.184 139.088L110.099 120.301L99.2748 108.878Z" fill="#263238"/>
<path d="M96.5096 104.667C96.5096 104.667 97.4137 111.721 104.203 114.849L118.505 138.143C118.505 138.143 119.625 145.718 121.763 152.1C123.901 158.481 128.222 170.78 128.222 170.78L139.987 166.382L132.49 140.75L131.268 131.859L119.597 102.13L109.57 96.1193L96.5096 104.667Z" fill="#263238"/>
<path d="M96.5096 104.667L96.7255 104.521L97.373 104.089L99.9142 102.411L109.55 96.0786L109.582 96.0582L109.615 96.0786L119.649 102.077V102.102L131.346 131.802V131.823C131.732 134.633 132.16 137.642 132.567 140.713C134.604 147.636 136.762 155.044 138.994 162.676C139.355 163.906 139.713 165.127 140.069 166.341L140.097 166.435L140.004 166.467L128.238 170.866L128.136 170.902L128.104 170.8C126.068 164.891 124.097 159.202 122.235 153.806C121.767 152.458 121.307 151.122 120.924 149.786C120.541 148.451 120.195 147.123 119.882 145.812C119.263 143.189 118.766 140.627 118.375 138.143V138.176L104.154 114.873L104.178 114.893C102.458 114.089 100.93 112.925 99.6984 111.481C98.7953 110.42 98.0542 109.232 97.4993 107.954C97.1559 107.165 96.8833 106.347 96.6848 105.51C96.6155 105.234 96.5748 105.018 96.5504 104.871C96.5259 104.724 96.5219 104.651 96.5219 104.651C96.5219 104.651 96.5219 104.724 96.5667 104.867C96.6115 105.01 96.6359 105.225 96.7133 105.506C96.9235 106.333 97.2041 107.139 97.5522 107.917C98.1141 109.182 98.8577 110.358 99.7595 111.407C100.996 112.837 102.523 113.987 104.239 114.779L118.57 138.058V138.078C118.978 140.554 119.466 143.112 120.085 145.73C120.399 147.037 120.741 148.361 121.128 149.693C121.515 151.024 121.971 152.352 122.439 153.7C124.308 159.096 126.275 164.785 128.32 170.69L128.185 170.629L139.951 166.231L139.886 166.357C139.533 165.144 139.174 163.922 138.81 162.692L132.392 140.725C131.985 137.655 131.553 134.645 131.17 131.835V131.859L119.519 102.13L119.552 102.167L109.533 96.1437H109.595L99.959 102.448L97.3934 104.101L96.7336 104.529L96.5096 104.667Z" fill="#042F86"/>
<path d="M102.81 54.3438C102.81 54.3438 99.3807 56.9828 97.715 59.9313C95.7195 63.4621 95.5037 68.6952 95.4426 76.8239C95.3815 84.3417 96.5055 86.4309 96.0738 89.2653C95.2227 94.7998 94.5914 113.374 94.5914 113.374C94.5914 113.374 105.587 109.151 107.721 107.266L109.867 105.4L123.628 109.949L120.851 93.0405L118.945 71.9654L116.501 60.7865L116.094 56.4004L104.276 51.6519L102.81 54.3438Z" fill="#042F86"/>
<path d="M115.65 56.1684C115.793 56.1969 115.312 57.1621 114.465 58.5793L114.428 58.6364L114.363 58.6119C113.17 58.1477 111.59 57.5653 109.863 56.9341C107.916 56.2255 106.157 55.5657 104.899 55.0526C104.268 54.796 103.763 54.5802 103.416 54.4213C103.233 54.3502 103.055 54.263 102.887 54.1607C103.08 54.2038 103.269 54.2666 103.449 54.348L104.952 54.9141L109.936 56.7345C111.663 57.3657 113.239 57.9563 114.416 58.4612L114.318 58.4938C115.206 57.1051 115.732 56.1888 115.65 56.1684Z" fill="#263238"/>
<path d="M129.871 47.3878C129.871 47.3878 129 46.0317 128.177 44.7815C127.355 43.5312 126.109 42.9163 125.909 42.2647C125.709 41.6131 124.614 38.7094 124.439 37.9886C124.287 37.2905 124.216 36.5771 124.227 35.8627C124.227 35.8627 125.127 35.4799 125.559 36.7668C125.819 37.5406 126.65 40.1673 126.829 40.2977C127.009 40.428 127.237 40.2366 127.237 40.2366C126.867 39.253 126.547 38.2513 126.28 37.2352C126.239 36.7587 126.406 33.5984 126.406 33.5984C126.629 33.5534 126.861 33.5899 127.06 33.7012C127.259 33.8125 127.411 33.9913 127.489 34.2052C127.917 35.0197 127.933 37.056 127.933 37.056L128.581 39.3284L128.352 37.0804L128.678 32.9468C128.995 32.9919 129.29 33.1334 129.523 33.352C129.756 33.5706 129.916 33.8557 129.981 34.1686C130.254 35.2844 129.892 36.8401 130.075 37.17C130.258 37.4999 130.458 39.4954 130.458 39.4954C130.458 39.4954 130.682 34.6491 131.199 34.5107C131.716 34.3722 132.14 34.8853 132.067 35.8627C131.993 36.8401 131.973 38.9089 132.242 39.8212C132.51 40.7334 135.268 44.3009 135.044 45.8647C134.906 46.8096 134.821 47.7613 134.787 48.7155H130.063L129.871 47.3878Z" fill="#FFBF9D"/>
<path d="M113.3 59.5933C113.565 59.6951 124.849 62.4889 124.849 62.4889C124.849 62.4889 127.37 58.4164 127.741 57.2354C128.112 56.0543 130.095 48.1863 130.095 48.1863L134.864 47.7383C134.864 47.7383 133.642 68.0559 131.915 69.1514C130.188 70.2469 127.435 70.8008 127.256 70.7397C127.077 70.6786 115.059 71.5135 108.727 66.5247C102.394 61.5359 113.3 59.5933 113.3 59.5933Z" fill="#FFBF9D"/>
<g opacity="0.3">
<path d="M105.212 70.3487C106.424 71.7196 108.04 72.6695 109.827 73.0609C112.82 73.7207 119.193 74.8895 119.193 74.8895L118.884 71.7618L105.037 70.2794" fill="black"/>
</g>
<path d="M100.187 66.0483C101.213 68.2148 103.494 70.528 108.507 71.0533C118.432 72.0796 125.945 72.6253 129.191 72.1366C132.437 71.6479 133.728 64.7776 134.078 64.5659C135.088 63.9306 135.023 61.7477 134.151 61.0961C131.675 59.2432 126.711 57.8381 126.377 57.9888C124.402 58.9703 125.045 61.2672 125.045 61.2672L112.461 58.4897C111.012 57.8869 109.5 57.4471 107.953 57.1784" fill="#042F86"/>
<path d="M107.953 57.1783C107.953 57.1783 108.059 57.1783 108.263 57.219C108.466 57.2597 108.772 57.3086 109.163 57.3941C110.298 57.6516 111.409 58.003 112.486 58.4448L125.062 61.1815L124.956 61.2955C124.769 60.5738 124.827 59.8108 125.119 59.1249C125.279 58.7737 125.522 58.4664 125.827 58.229C125.982 58.1086 126.147 58.0023 126.32 57.9113C126.379 57.8936 126.441 57.884 126.503 57.8828H126.654C126.756 57.8828 126.845 57.9154 126.943 57.9317C128.49 58.2976 130 58.809 131.451 59.4589C132.216 59.792 132.955 60.1813 133.663 60.6236C133.838 60.7376 134.013 60.8639 134.188 60.986C134.369 61.1237 134.517 61.3005 134.62 61.5032C134.818 61.9031 134.921 62.3436 134.921 62.7901C134.931 63.242 134.831 63.6895 134.628 64.0933C134.515 64.3017 134.356 64.4814 134.163 64.6187C134.115 64.6431 134.082 64.749 134.041 64.8467L133.935 65.1522C133.667 65.9667 133.398 66.8382 133.072 67.6771C132.645 68.8802 132.02 70.0034 131.223 71.0003C130.934 71.3791 130.566 71.69 130.143 71.9109C129.721 72.1319 129.256 72.2575 128.78 72.279C128.474 72.3238 128.169 72.332 127.867 72.3564C126.646 72.4297 125.473 72.4134 124.312 72.3808C123.152 72.3483 122.015 72.2872 120.912 72.2179C116.485 71.9329 112.514 71.5297 109.183 71.1835C108.387 71.1138 107.596 70.9996 106.813 70.8414C106.118 70.6928 105.437 70.4857 104.776 70.2224C103.707 69.8069 102.727 69.1904 101.889 68.4061C101.366 67.9056 100.917 67.3339 100.553 66.7079C100.423 66.4931 100.31 66.2684 100.215 66.0359C100.215 66.0359 100.329 66.268 100.59 66.6875C100.966 67.2979 101.422 67.8553 101.946 68.345C102.783 69.1123 103.759 69.7122 104.821 70.1125C105.482 70.3675 106.164 70.5678 106.858 70.7111C107.639 70.8608 108.427 70.9682 109.22 71.0328C112.551 71.3627 116.522 71.7496 120.94 72.0265C122.048 72.0917 123.18 72.1487 124.337 72.1772C125.493 72.2057 126.678 72.222 127.876 72.1528C128.173 72.1243 128.478 72.1161 128.776 72.0713C129.072 72.0557 129.366 71.9995 129.647 71.9044C130.21 71.6874 130.706 71.3282 131.089 70.8618C131.869 69.8842 132.48 68.783 132.897 67.6038C133.223 66.7893 133.487 65.93 133.756 65.0911L133.87 64.7734C133.87 64.7246 133.911 64.6716 133.935 64.6146C133.95 64.5832 133.968 64.5532 133.988 64.525C134.004 64.5054 134.022 64.4876 134.041 64.4721L134.07 64.4476C134.239 64.3306 134.378 64.1759 134.477 63.9956C134.667 63.6172 134.76 63.1972 134.746 62.7739C134.747 62.3618 134.654 61.955 134.473 61.5847C134.384 61.4098 134.258 61.2568 134.102 61.1367C133.927 61.0186 133.76 60.8924 133.585 60.7824C132.888 60.3434 132.158 59.9581 131.402 59.6299C129.967 58.9829 128.474 58.4729 126.943 58.1068C126.849 58.1068 126.756 58.0661 126.666 58.0579H126.532H126.442C126.282 58.1436 126.129 58.2431 125.986 58.3552C125.702 58.5692 125.474 58.8487 125.322 59.1697C125.052 59.8139 124.997 60.5277 125.163 61.206L125.2 61.3485L125.057 61.3159L112.502 58.5059C111.435 58.0571 110.335 57.6922 109.211 57.4145C108.804 57.3208 108.523 57.2557 108.32 57.2149C108.116 57.1742 107.953 57.1783 107.953 57.1783Z" fill="#263238"/>
<path d="M129.191 65.1968C128.902 65.1251 128.626 65.0053 128.377 64.8425C127.752 64.4941 127.177 64.0641 126.666 63.5637C126.153 63.0652 125.704 62.5043 125.33 61.894C125.161 61.644 125.03 61.3693 124.944 61.0795C125.502 61.9021 126.127 62.6772 126.813 63.3968C127.55 64.0666 128.346 64.6691 129.191 65.1968Z" fill="#263238"/>
<path d="M40.5904 98.7377C40.5904 98.7377 43.1153 98.8721 44.6629 99.8536C46.2104 100.835 48.7353 102.35 49.7738 104.24C50.2503 105.107 48.8942 105.29 48.2263 104.785C47.5584 104.28 46.528 103.336 46.019 103.217L45.5099 103.103C45.9741 104.154 46.492 105.181 47.0615 106.178C47.5869 106.993 48.043 108.345 46.467 108.41C46.467 108.41 45.4 109.795 44.3248 108.768C44.3248 108.768 43.4859 110.023 42.1338 108.284C42.1338 108.284 41.3479 109.277 41.018 108.899C40.6881 108.52 39.613 107.913 39.2994 106.667C38.8315 105.215 38.2877 103.789 37.6704 102.395L40.5904 98.7377Z" fill="#FFBF9D"/>
<path d="M19.1042 65.535C17.8099 65.9518 16.6928 66.7907 15.9317 67.9174C14.9625 69.408 14.6652 71.9899 14.9421 73.9121C15.5285 77.9642 17.3856 84.8019 18.4322 89.1921C18.7906 90.707 19.5277 93.4193 21.6902 94.8569L37.1208 104.11L41.2462 98.0008L27.1799 86.5368L24.3984 70.8252L19.1042 65.535Z" fill="#042F86"/>
<path d="M16.4364 80.9781C16.4576 81.0294 16.4739 81.0826 16.4853 81.1369L16.6156 81.6134C16.7255 82.0451 16.8803 82.6641 17.0839 83.4582C17.4912 85.0872 18.0695 87.4004 18.7903 90.2796C19.2088 91.8479 20.0952 93.2515 21.3315 94.3033C22.0377 94.8686 22.7927 95.3701 23.5877 95.8019L26.0678 97.3006L37.1816 104.012L37.0391 104.045L38.5255 101.841L41.1645 97.9196L41.1848 98.0622L27.2448 86.5818H27.2203V86.5533C26.2999 82.6804 25.632 79.5079 25.2085 77.3007C25.0008 76.197 24.8542 75.3377 24.7605 74.7513C24.7198 74.4662 24.6872 74.2422 24.6628 74.0834C24.6384 73.9246 24.6343 73.8553 24.6343 73.8553C24.6564 73.9289 24.6741 74.0037 24.6872 74.0793C24.7157 74.2382 24.7565 74.4581 24.8053 74.7431C24.9153 75.3255 25.0741 76.1848 25.3022 77.2844C25.7461 79.4835 26.4384 82.6478 27.3791 86.5167L27.3506 86.4719L41.3152 97.8993L41.3885 97.9603L41.3355 98.0377L38.6966 101.96L37.2101 104.163L37.1572 104.244L37.0676 104.195L25.9701 97.4635L23.494 95.9608C22.6938 95.5245 21.9334 95.019 21.2216 94.4499C19.9639 93.3727 19.067 91.9356 18.6518 90.3326C17.9554 87.4452 17.3975 85.1117 17.0228 83.4949C16.8396 82.6804 16.693 82.0736 16.5912 81.6419L16.4731 81.141C16.457 81.0876 16.4448 81.0332 16.4364 80.9781Z" fill="#263238"/>
<path d="M16.6891 67.706C16.7849 67.6431 16.891 67.5976 17.0027 67.5716C17.2983 67.4803 17.6006 67.4122 17.9068 67.368C18.9282 67.2105 19.9734 67.3519 20.9163 67.7752C21.8276 68.2503 22.6016 68.9515 23.1643 69.8115C23.3349 70.0714 23.4718 70.3519 23.5716 70.6463C23.6153 70.7511 23.6401 70.8628 23.6449 70.9762C23.4689 70.6023 23.2661 70.2416 23.0381 69.897C22.4584 69.0944 21.6999 68.4377 20.8227 67.9788C19.9128 67.5756 18.9122 67.421 17.923 67.5309C17.1615 67.592 16.7013 67.7426 16.6891 67.706Z" fill="#263238"/>
</svg>
