<svg width="17" height="16" viewBox="0 0 17 16" fill="none" xmlns="http://www.w3.org/2000/svg">
<path d="M16.1908 2.18737C15.9554 1.95159 15.5735 1.95118 15.3381 2.18637L8.10396 9.40143L5.4939 6.56665C5.26837 6.32184 4.88705 6.30596 4.64184 6.53146C4.3968 6.75699 4.38112 7.13849 4.60665 7.38352L7.64184 10.6798C7.69682 10.7396 7.76333 10.7876 7.83735 10.821C7.91137 10.8544 7.99139 10.8725 8.07259 10.8742C8.07699 10.8744 8.08124 10.8744 8.08546 10.8744C8.24503 10.8743 8.3981 10.8111 8.51118 10.6985L16.1896 3.04021C16.4256 2.80506 16.426 2.42315 16.1908 2.18737Z" fill="#0DBE92"/>
<path d="M16.0454 7.39697C15.7123 7.39697 15.4424 7.66691 15.4424 8C15.4424 11.7463 12.3948 14.794 8.64844 14.794C4.90231 14.794 1.85447 11.7463 1.85447 8C1.85447 4.25387 4.90231 1.20603 8.64844 1.20603C8.9815 1.20603 9.25147 0.936094 9.25147 0.603031C9.25147 0.269938 8.9815 0 8.64844 0C4.23719 0 0.648438 3.58875 0.648438 8C0.648438 12.4111 4.23719 16 8.64844 16C13.0595 16 16.6484 12.4111 16.6484 8C16.6484 7.66694 16.3785 7.39697 16.0454 7.39697Z" fill="#0DBE92"/>
</svg>
