<svg width="21" height="20" viewBox="0 0 21 20" fill="none" xmlns="http://www.w3.org/2000/svg">
<path d="M20.0754 2.73409C19.7812 2.43936 19.3038 2.43885 19.0096 2.73284L9.96687 11.7517L6.70429 8.20819C6.42237 7.90217 5.94573 7.88233 5.63921 8.1642C5.33292 8.44612 5.31331 8.92299 5.59522 9.22928L9.38921 13.3496C9.45794 13.4243 9.54107 13.4844 9.6336 13.5261C9.72613 13.5679 9.82615 13.5905 9.92765 13.5926C9.93315 13.5928 9.93847 13.5928 9.94374 13.5928C10.1432 13.5928 10.3345 13.5137 10.4759 13.373L20.0739 3.80014C20.3689 3.5062 20.3694 3.02881 20.0754 2.73409Z" fill="#0DBE92"/>
<path d="M19.8937 9.24621C19.4773 9.24621 19.1399 9.58363 19.1399 10C19.1399 14.6829 15.3304 18.4925 10.6475 18.4925C5.9648 18.4925 2.155 14.6829 2.155 10C2.155 5.31734 5.9648 1.50754 10.6475 1.50754C11.0638 1.50754 11.4012 1.17012 11.4012 0.753789C11.4012 0.337422 11.0638 0 10.6475 0C5.1334 0 0.647461 4.48594 0.647461 10C0.647461 15.5138 5.1334 20 10.6475 20C16.1613 20 20.6475 15.5138 20.6475 10C20.6475 9.58367 20.31 9.24621 19.8937 9.24621Z" fill="#0DBE92"/>
</svg>
