<svg width="18" height="18" viewBox="0 0 18 18" fill="none" xmlns="http://www.w3.org/2000/svg">
<path d="M5.14288 3.21387H16.0714C17.1366 3.21387 18 4.07732 18 5.14244V16.071C18 17.1361 17.1366 17.9996 16.0714 17.9996H5.14288C4.07776 17.9996 3.21431 17.1361 3.21431 16.071V5.14244C3.21431 4.07732 4.07776 3.21387 5.14288 3.21387ZM4.50001 16.071C4.50001 16.4261 4.78782 16.7139 5.14288 16.7139H16.0714C16.4265 16.7139 16.7143 16.4261 16.7143 16.071V5.14244C16.7143 4.78738 16.4265 4.49957 16.0714 4.49957H5.14288C4.78782 4.49957 4.50001 4.78738 4.50001 5.14244V16.071Z" fill="#0274B3"/>
<path d="M1.92847 0H13.4999C14.565 0 15.4285 0.863449 15.4285 1.92857C15.4285 2.28362 15.1407 2.57144 14.7856 2.57144C14.4305 2.57144 14.1428 2.28362 14.1428 1.92857C14.1428 1.57352 13.8549 1.2857 13.4999 1.2857H1.92847C1.57342 1.2857 1.2856 1.57352 1.2856 1.92857V13.5C1.2856 13.855 1.57342 14.1429 1.92847 14.1429C2.28353 14.1429 2.57134 14.4307 2.57134 14.7857C2.57134 15.1408 2.28353 15.4286 1.92847 15.4286C0.863354 15.4286 -9.63211e-05 14.5651 -9.63211e-05 13.5V1.92857C-9.63211e-05 0.863449 0.863354 0 1.92847 0Z" fill="#0274B3"/>
</svg>
