<svg width="18" height="18" viewBox="0 0 18 18" fill="none" xmlns="http://www.w3.org/2000/svg">
<path d="M5.14288 3.21436H16.0714C17.1366 3.21436 18 4.07781 18 5.14293V16.0715C18 17.1366 17.1366 18 16.0714 18H5.14288C4.07776 18 3.21431 17.1366 3.21431 16.0715V5.14293C3.21431 4.07781 4.07776 3.21436 5.14288 3.21436ZM4.50001 16.0715C4.50001 16.4266 4.78782 16.7144 5.14288 16.7144H16.0714C16.4265 16.7144 16.7143 16.4266 16.7143 16.0715V5.14293C16.7143 4.78787 16.4265 4.50006 16.0714 4.50006H5.14288C4.78782 4.50006 4.50001 4.78787 4.50001 5.14293V16.0715Z" fill="#0274B3"/>
<path d="M1.92872 0H13.5001C14.5653 0 15.4287 0.863449 15.4287 1.92857C15.4287 2.28362 15.1409 2.57144 14.7858 2.57144C14.4308 2.57144 14.143 2.28362 14.143 1.92857C14.143 1.57352 13.8552 1.2857 13.5001 1.2857H1.92872C1.57367 1.2857 1.28585 1.57352 1.28585 1.92857V13.5C1.28585 13.855 1.57367 14.1429 1.92872 14.1429C2.28377 14.1429 2.57159 14.4307 2.57159 14.7857C2.57159 15.1408 2.28377 15.4286 1.92872 15.4286C0.863598 15.4286 0.00014782 14.5651 0.00014782 13.5V1.92857C0.00014782 0.863449 0.863598 0 1.92872 0Z" fill="#0274B3"/>
</svg>
