<svg width="26" height="24" viewBox="0 0 26 24" fill="none" xmlns="http://www.w3.org/2000/svg">
<mask id="mask0_434_3993" style="mask-type:alpha" maskUnits="userSpaceOnUse" x="0" y="0" width="26" height="24">
<ellipse cx="13.2286" cy="12" rx="12.3429" ry="12" fill="#D9D9D9"/>
</mask>
<g mask="url(#mask0_434_3993)">
<path d="M-5.28564 16.0181V20.7097C-5.28564 22.6551 -3.69669 24.0283 -1.75462 24.0283H27.6705C29.6126 24.0283 31.2016 22.6551 31.2016 20.7097V16.0181H-5.28564Z" fill="#2E2F30"/>
<path d="M27.6705 0H-1.75462C-3.69669 0 -5.28564 1.37317 -5.28564 3.31851V8.01018H31.2016V3.31851C31.2016 1.37317 29.6126 0 27.6705 0Z" fill="#CC3434"/>
<path d="M-5.28564 8.01099H31.2016V16.0212H-5.28564V8.01099Z" fill="#F5FEFF"/>
<path d="M27.5533 24.0283C29.4954 24.0283 31.202 22.6551 31.202 20.7097V16.0181H17.9019L27.5533 24.0283Z" fill="#292929"/>
<path d="M27.6737 0H-1.75146L8.01769 8.01018H31.2047V3.31851C31.2047 1.37317 29.6158 0 27.6737 0Z" fill="#BA2B2B"/>
<path d="M17.9626 16.0212H31.2039V8.01099H7.95801L17.9626 16.0212Z" fill="#D9E2E1"/>
<path d="M27.6737 0H-1.75146L25.4962 8.01018H31.2047V3.31851C31.2047 1.37317 29.6158 0 27.6737 0Z" fill="#A32323"/>
<path d="M31.1995 9.61302V8.01099H25.1968L31.1995 9.61302Z" fill="#C9D3D1"/>
<path d="M31.2016 20.6566C31.2604 22.7163 29.6126 24.0323 27.6705 24.0323H-1.75462C-3.69669 24.0323 -5.28564 22.5447 -5.28564 20.5994" fill="#292929"/>
<path d="M15.8972 14.8176C15.8384 14.0166 15.8384 13.2156 15.7795 12.4145C15.7795 12.0713 15.7795 11.728 15.7207 11.3847C15.6618 10.8125 15.7207 10.2404 15.603 9.72541C15.4853 9.61098 15.3087 9.49655 15.1322 9.55377C14.6614 9.61098 14.2494 10.0687 13.7786 10.0115C13.6609 9.83985 13.5432 9.61098 13.4844 9.26769V8.80997C13.4844 8.52389 13.4255 8.29502 13.249 8.18059C13.1313 8.12338 12.8959 8.06616 12.7193 8.06616C12.6605 8.06616 12.6016 8.12338 12.5428 8.18059C12.3074 8.06616 11.9543 8.00895 12.0131 8.35224C12.2485 8.23781 12.4839 8.52389 12.4839 8.75275C12.5428 9.21047 12.3662 9.78263 12.1308 9.95428C11.6012 9.95428 11.2481 9.55377 10.7773 9.49655C10.3653 9.43934 10.2476 9.72541 10.2476 10.1259C10.2476 10.4692 10.2476 10.8697 10.1888 11.213C10.1888 11.5563 10.1888 11.8996 10.1299 12.2429V12.8151C10.0711 13.1584 10.1299 13.6161 10.0711 13.9594C10.0711 14.2454 10.0711 14.5315 10.0122 14.7604C10.1888 14.7032 10.483 14.7604 10.7184 14.7604C10.7184 14.8176 10.7773 14.8176 10.7773 14.932C10.6007 14.9893 10.6007 15.1037 10.4242 15.1609C10.5419 15.2181 10.5419 15.447 10.6596 15.5042C10.6596 15.6186 10.6596 15.6758 10.7184 15.6758C10.8361 15.7331 11.1892 15.7903 11.3658 15.8475C12.4251 15.9619 14.014 15.9619 15.0145 15.7903C15.2499 15.7331 15.3676 15.7331 15.3676 15.5042C15.4853 15.447 15.4853 15.2753 15.603 15.1609C15.4853 15.1037 15.4264 15.0465 15.3676 14.9892C15.3087 14.932 15.3087 14.9893 15.2499 14.932C15.2499 14.8748 15.2499 14.8176 15.3087 14.8176C15.4264 14.8176 15.7207 14.7604 15.8972 14.8176ZM10.9538 14.7032C10.895 14.7604 10.8361 14.7604 10.7773 14.8176C10.7184 14.7032 10.8361 14.5887 10.9538 14.5887V14.7032ZM13.9552 14.932C13.7198 14.932 13.4844 14.9893 13.249 14.932C13.1901 14.8748 13.1901 14.7604 13.249 14.7032H13.9552C14.2494 14.646 14.6025 14.5887 14.8379 14.5315C14.8968 14.5315 14.8968 14.646 14.8968 14.7032C14.7202 14.8176 14.426 14.8176 14.1906 14.8748C14.1906 14.646 13.9552 14.7032 13.9552 14.932ZM14.1906 14.932L14.0729 15.0465C14.014 14.9893 13.9552 14.9892 13.9552 14.9892C13.9552 14.7604 14.1906 14.7032 14.1906 14.932ZM12.5428 12.9295C12.6016 12.9867 12.6605 13.0439 12.7193 13.0439C12.7193 13.1584 12.6605 13.2728 12.6605 13.3872C12.6016 13.2728 12.3662 13.0439 12.5428 12.9295ZM12.2485 13.2156C12.1897 12.9867 12.1897 12.7578 12.1897 12.529L12.5428 12.8723C12.4839 12.9867 12.3662 13.1011 12.2485 13.2156ZM12.7193 14.5315C12.7782 14.2454 12.7782 13.9022 12.837 13.6161C12.8959 13.8449 12.7782 14.2454 12.7782 14.4743C12.7782 14.5887 12.8959 14.5887 12.8959 14.7032L13.0724 14.5315C13.0724 14.2454 13.0136 13.9022 13.0136 13.6161C13.0724 13.9022 13.1313 14.1882 13.1313 14.4743C13.1901 14.5315 13.249 14.5315 13.249 14.5887C13.3078 14.5887 13.3078 14.5315 13.3667 14.5315C13.4255 14.5887 13.3667 14.646 13.4255 14.7032H13.1901C13.1313 14.7032 13.1313 14.7604 13.0724 14.7604H12.7193C12.6605 14.646 12.4839 14.7032 12.3662 14.7032C12.3662 14.646 12.3662 14.5887 12.4251 14.5887C12.4251 14.5315 12.4839 14.646 12.5428 14.646C12.6016 14.5887 12.6605 14.5887 12.7193 14.5315ZM13.6609 13.2156C13.5432 13.1584 13.4844 12.9867 13.3667 12.8723L13.7198 12.529C13.7198 12.7578 13.6609 12.9867 13.6609 13.2156ZM13.8963 12.1857C13.9552 12.4718 14.1906 12.7578 14.014 13.0439C13.8963 12.9867 13.8375 12.8151 13.7198 12.7578C13.7198 12.529 13.7786 12.3573 13.8963 12.1857ZM13.4255 13.0439C13.3667 13.1584 13.3078 13.33 13.249 13.4444C13.1901 13.33 13.1901 13.2156 13.1313 13.1011C13.1901 13.0439 13.249 13.0439 13.3078 12.9295C13.3667 12.9295 13.4255 12.9867 13.4255 13.0439ZM12.837 15.1037C12.7782 15.1037 12.7193 15.0465 12.6605 14.9892C12.6605 14.932 12.7193 14.932 12.7193 14.8176C12.837 14.8176 12.8959 14.9893 12.837 15.1037ZM12.837 14.8176H13.0724C13.0136 14.8748 13.0136 14.9893 12.8959 14.932C12.8959 14.8748 12.837 14.8748 12.837 14.8176ZM13.1313 14.8176C13.1901 14.8176 13.1901 14.932 13.249 14.9892C13.249 15.0465 13.1313 15.0465 13.1313 15.1037C13.0136 15.0465 13.0724 14.8748 13.1313 14.8176ZM13.8375 14.5315C13.8963 14.5315 13.9552 14.646 13.9552 14.7032H13.7786C13.7786 14.646 13.8375 14.5887 13.8375 14.5315ZM14.1317 14.646C14.1317 14.5315 14.1906 14.4743 14.2494 14.4171C14.3083 14.4743 14.3671 14.5315 14.3671 14.5887C14.3083 14.5887 14.1906 14.646 14.1317 14.646ZM14.426 14.5887C14.3671 14.5315 14.3083 14.4171 14.1906 14.3027C14.1317 14.4171 14.0729 14.5315 14.0729 14.646H14.014C13.9552 14.5887 13.8963 14.4743 13.8963 14.4171C13.8375 14.4743 13.8375 14.5887 13.7786 14.7032H13.6021C13.4844 14.5315 13.5432 14.3027 13.6021 14.0738C13.7198 14.131 13.7786 14.2454 13.8375 14.3599C13.8963 14.2454 13.8963 14.131 13.9552 14.0166C14.0729 14.0738 14.1317 14.1882 14.1906 14.3027C14.2494 14.1882 14.3083 14.0166 14.3671 13.9022H14.426L14.6025 14.5887H14.426ZM14.1906 14.1882C14.0729 14.131 14.0729 14.0166 13.9552 13.9022C13.8963 14.0166 13.8963 14.131 13.8375 14.2454C13.7198 14.1882 13.6609 14.0166 13.5432 13.9594C13.4844 14.0738 13.4844 14.1882 13.4844 14.3027C13.4255 14.131 13.3667 13.9022 13.3078 13.6733C13.3667 13.6733 13.4844 13.8449 13.5432 13.9022C13.6021 13.7305 13.6021 13.5589 13.6609 13.4444C13.7786 13.5016 13.7786 13.6161 13.8375 13.6733L14.014 13.33C14.1317 13.3872 14.1906 13.5016 14.3083 13.5589C14.426 13.8449 14.2494 14.0166 14.1906 14.1882ZM14.014 13.33C13.9552 13.4444 13.9552 13.5016 13.8963 13.6161C13.7786 13.5589 13.7786 13.4444 13.7198 13.3872C13.6609 13.5016 13.6021 13.7305 13.6021 13.9022C13.4844 13.7877 13.3078 13.7305 13.3078 13.5589C13.3078 13.5016 13.3667 13.3872 13.3667 13.33C13.4255 13.2728 13.4255 13.2156 13.4844 13.1011C13.5432 13.1584 13.6021 13.2728 13.7198 13.33C13.7198 13.1584 13.7198 12.9867 13.7786 12.8151C13.8963 12.8723 13.9552 12.9867 14.0729 13.1011C14.1317 13.0439 14.1317 12.9867 14.1317 12.9295C14.2494 13.1011 14.3083 13.3872 14.3083 13.5589C14.1906 13.5016 14.1317 13.3872 14.014 13.33ZM14.1317 12.4718C14.1317 12.1285 14.0729 11.7852 14.1317 11.4991H14.1906C14.1906 12.0713 14.2494 12.6434 14.2494 13.2156C14.1317 12.9867 14.1317 12.7006 14.1317 12.4718ZM12.9547 13.1584C12.1897 12.7006 11.7189 11.8996 11.7189 10.6981C12.2485 10.6981 12.6605 10.5836 12.9547 10.3548L13.3078 10.5264C13.5432 10.6409 13.8375 10.6981 14.1906 10.6981C14.1906 11.8996 13.7198 12.7006 12.9547 13.1584ZM12.1897 12.7578C12.1308 12.8723 12.0131 12.9867 11.8954 13.0439C11.66 12.8151 11.9543 12.4718 11.9543 12.1857C12.1308 12.3001 12.1897 12.529 12.1897 12.7578ZM11.7189 11.4991C11.8366 11.6135 11.7777 11.8996 11.7777 12.1285C11.7777 12.529 11.7777 12.8723 11.66 13.1584C11.66 12.6434 11.7189 12.014 11.7189 11.4991ZM11.8366 12.9295C11.8366 12.9867 11.8954 13.0439 11.8954 13.1011L12.1897 12.8151C12.2485 12.9295 12.2485 13.1584 12.2485 13.33C12.3074 13.2728 12.3662 13.1584 12.4839 13.1011C12.5428 13.2728 12.6016 13.3872 12.6605 13.5589C12.6016 13.7305 12.4839 13.7877 12.3662 13.9022L12.1897 13.3872C12.072 13.4444 12.1308 13.6161 12.0131 13.6161C11.9543 13.5016 11.9543 13.4444 11.8954 13.33C11.7777 13.3872 11.7189 13.5016 11.6012 13.5589C11.6012 13.5016 11.66 13.4444 11.66 13.3872C11.7189 13.2156 11.7189 13.0439 11.8366 12.9295ZM11.8366 13.3872C11.8954 13.4444 11.9543 13.6161 12.0131 13.7305C12.072 13.6733 12.072 13.5589 12.1897 13.5016C12.2485 13.6733 12.3074 13.8449 12.3662 13.9594L12.6016 13.7305C12.5428 13.9022 12.4839 14.131 12.4839 14.3027C12.4251 14.2454 12.4251 14.0738 12.4251 13.9594C12.3074 14.0166 12.2485 14.1882 12.1308 14.2454C12.072 14.131 12.0131 14.0166 12.0131 13.9022C11.8954 13.9594 11.8954 14.0738 11.7777 14.1882C11.7189 14.0166 11.5423 13.8449 11.6012 13.6161C11.7189 13.5589 11.7777 13.4444 11.8366 13.3872ZM11.7189 14.2454C11.7777 14.131 11.8366 14.0738 11.9543 13.9594C12.0131 14.0738 12.072 14.1882 12.072 14.3027C12.1897 14.2454 12.2485 14.0738 12.3074 14.0166C12.3662 14.1882 12.4251 14.4743 12.3074 14.646H12.1308C12.072 14.5887 12.072 14.4743 12.0131 14.3599C11.9543 14.4171 11.8954 14.5315 11.8366 14.5887H11.7777C11.7189 14.4743 11.66 14.3599 11.66 14.2454C11.6012 14.3027 11.5423 14.4171 11.4835 14.4743C11.4246 14.4743 11.3658 14.4743 11.3069 14.4171C11.3658 14.1882 11.4246 13.9594 11.5423 13.6733C11.6012 13.9022 11.66 14.131 11.7189 14.2454ZM12.1308 14.7032H11.9543C11.9543 14.646 12.0131 14.5887 12.0131 14.5315C12.072 14.5315 12.072 14.646 12.1308 14.7032ZM11.7777 14.646C11.66 14.646 11.6012 14.5887 11.5423 14.5887C11.5423 14.4743 11.66 14.4743 11.66 14.3599C11.7189 14.4743 11.7777 14.5315 11.7777 14.646ZM11.7777 14.7032C12.1308 14.7604 12.3662 14.7604 12.6605 14.7604C12.7193 14.8176 12.6605 14.8748 12.6605 14.9892C12.4251 15.0465 12.1897 14.9892 11.9543 14.9892C11.9543 14.7604 11.7777 14.7032 11.7777 14.932C11.5423 14.8748 11.1892 14.8748 11.1892 14.7604V14.5887C11.1892 14.5315 11.1304 14.5315 11.2481 14.5315C11.4246 14.5887 11.5423 14.646 11.7777 14.7032ZM11.8954 14.932C11.8366 14.932 11.8366 14.9892 11.8366 14.9892C11.7189 14.9892 11.7189 14.7032 11.8954 14.7604V14.932ZM14.9556 14.5887C15.0733 14.5887 15.1322 14.7032 15.1322 14.8176C15.0733 14.8176 15.0145 14.7604 14.9556 14.7604V14.5887ZM14.6025 14.5315C14.4848 14.131 14.3671 13.7877 14.2494 13.3872C14.3671 13.4444 14.426 13.5589 14.4848 13.6161C14.4848 12.6434 14.3671 11.6135 14.3671 10.5836C14.2494 10.6409 14.1317 10.6981 13.8963 10.6981C13.4844 10.6981 13.1313 10.5264 12.8959 10.3548C12.7193 10.4692 12.4251 10.6409 12.1308 10.6981C11.8366 10.7553 11.6012 10.7553 11.4246 10.5836C11.3658 11.6135 11.3069 12.5862 11.3069 13.6161C11.4246 13.5589 11.4835 13.4444 11.6012 13.3872C11.4835 13.7877 11.3658 14.2454 11.2481 14.5887C11.0127 14.5315 10.7184 14.3599 10.6596 14.7604H10.1888C10.2476 14.7604 10.2476 14.646 10.3653 14.5315C10.4242 12.9867 10.483 11.4991 10.5419 9.89706C10.4242 9.89706 10.3065 9.95428 10.2476 10.0115C10.2476 9.78263 10.3653 9.55377 10.6007 9.55377C11.1304 9.49655 11.5423 10.0115 12.072 10.0115C12.072 10.0687 12.0131 10.0687 11.9543 10.1259C12.072 10.1259 12.2485 10.1259 12.3074 10.0687C12.3074 10.1259 12.2485 10.1831 12.1897 10.2404C12.4251 10.2404 12.6016 10.1259 12.6605 10.0115L12.837 10.1831L13.0136 10.0115C13.1313 10.1259 13.3078 10.2404 13.5432 10.2404C13.5432 10.1831 13.4255 10.1259 13.4255 10.0687C13.5432 10.1259 13.7198 10.1259 13.7786 10.1259C13.7786 10.0687 13.6609 10.0687 13.6609 10.0115C14.2494 10.0115 14.5437 9.49655 15.1322 9.55377C15.3676 9.55377 15.4853 9.72541 15.4853 10.0115C15.3676 9.95428 15.3087 9.89706 15.191 9.89706C15.2499 11.1558 15.3087 12.7006 15.3676 13.9594C15.3676 14.131 15.3087 14.3599 15.3676 14.4743C15.4264 14.5887 15.603 14.646 15.6618 14.7604H15.0733C15.191 14.5315 14.8968 14.4743 14.6025 14.5315Z" fill="#DB9C00"/>
<path d="M13.9595 10.698C13.5476 10.698 13.1945 10.5264 12.9591 10.3547C12.7825 10.4692 12.4882 10.6408 12.194 10.698C11.8997 10.7552 11.6643 10.7552 11.4878 10.5836V10.8125L11.782 11.0413V10.7552C12.3117 10.7552 12.7236 10.6408 13.0179 10.412L13.371 10.5836C13.6064 10.698 13.9007 10.7552 14.2538 10.7552C14.2538 11.499 14.0184 12.1284 13.6653 12.5861H13.7241L13.783 12.5289V12.6434C13.783 12.4717 13.8418 12.3001 13.9595 12.1856H14.0184C14.0184 12.4145 14.1949 12.7006 14.1361 12.9294L14.1949 12.9867C14.1361 12.8722 14.1361 12.6434 14.1361 12.4717C14.1361 12.1284 14.0772 11.7851 14.1361 11.499H14.1949C14.1949 12.014 14.2538 12.5861 14.2538 13.1011L14.548 13.3299C14.548 12.4145 14.4892 11.499 14.4303 10.5836C14.3126 10.6408 14.1949 10.698 13.9595 10.698Z" fill="#996A00"/>
<path d="M16.0512 12.5061C16.0512 12.1628 16.0512 11.8195 15.9924 11.4762C15.9335 10.9041 15.9924 10.3319 15.8747 9.81697C15.757 9.70254 15.5804 9.58811 15.4039 9.64532C14.933 9.70254 14.5211 10.1603 14.0503 10.103C13.9326 9.9314 13.8149 9.70254 13.756 9.35924V8.90152C13.756 8.61544 13.6972 8.38658 13.5206 8.27215C13.4029 8.21493 13.1675 8.15771 12.991 8.15771C12.9321 8.15771 12.8733 8.21493 12.8144 8.27215C12.579 8.15772 12.2259 8.1005 12.2848 8.44379C12.5202 8.32936 12.7556 8.61544 12.7556 8.8443C12.8144 9.30203 12.6379 9.87418 12.4025 10.0458C11.8728 10.0458 11.5197 9.64532 11.0489 9.5881C10.7547 9.5881 10.637 9.70254 10.5781 9.87418C10.637 9.75975 10.7547 9.64532 10.9312 9.64532C11.4609 9.58811 11.8728 10.103 12.4025 10.103C12.4025 10.1603 12.3436 10.1603 12.2848 10.2175C12.4025 10.2175 12.579 10.2175 12.6379 10.1603C12.6379 10.2175 12.579 10.2747 12.5202 10.3319C12.7556 10.3319 12.9321 10.2175 12.991 10.103L13.1675 10.2747L13.3441 10.103C13.4618 10.2175 13.6383 10.3319 13.8737 10.3319C13.8737 10.2747 13.756 10.2175 13.756 10.1603C13.8737 10.2175 14.0503 10.2175 14.1091 10.2175C14.1091 10.1603 13.9914 10.1603 13.9914 10.103C14.5799 10.103 14.8742 9.58811 15.4627 9.64532C15.6981 9.64532 15.8158 9.81697 15.8158 10.103C15.6981 10.0458 15.6393 9.98861 15.5216 9.98861C15.5804 11.2474 15.6393 12.7922 15.6981 14.0509V14.2226L16.0512 14.5086C16.1101 13.8221 16.1101 13.1927 16.0512 12.5061Z" fill="#996A00"/>
<path d="M10.6077 10.0698V9.89819C10.5489 9.89819 10.49 9.89819 10.4312 9.95541L10.6077 10.0698Z" fill="#996A00"/>
<path d="M10.6668 9.95532C10.6079 11.4429 10.5491 12.9305 10.4902 14.3609C10.6079 14.3037 10.7256 14.1321 10.8433 14.0748C10.9022 12.7017 10.961 11.5574 11.0199 10.2414C10.9022 10.127 10.7845 10.0125 10.6668 9.95532Z" fill="#DB9C00"/>
<path d="M10.6577 10.127L11.0108 10.413V10.2414C10.8931 10.127 10.7754 10.0125 10.6577 9.95532V10.127Z" fill="#996A00"/>
<path d="M15.2535 9.95532C15.1946 10.0698 14.9592 10.127 14.9004 10.2414V10.7563C15.0181 11.7862 14.9592 12.9305 15.0181 14.0176L15.1946 14.1893C15.2535 14.2465 15.3123 14.3609 15.3712 14.3037C15.3712 12.9305 15.3123 11.2713 15.2535 9.95532Z" fill="#DB9C00"/>
<path d="M15.2535 9.95532C15.1946 10.0698 14.9592 10.127 14.9004 10.2414V10.7563C14.9592 11.6718 14.9592 12.7017 15.0181 13.7316L15.3712 14.0176C15.3712 12.7017 15.3123 11.2141 15.2535 9.95532Z" fill="#996A00"/>
<path d="M10.9595 13.9594C11.0183 13.845 11.1949 13.7878 11.2537 13.6733C11.3126 13.5589 11.2537 13.3873 11.2537 13.2156C11.3126 12.3574 11.3714 11.3275 11.3714 10.5265C11.2537 10.4693 11.1949 10.3548 11.0772 10.2976C11.0772 11.4991 11.0183 12.7579 10.9595 13.9594Z" fill="#DB9C00"/>
<path d="M11.0771 10.4693L11.3714 10.6981V10.5265C11.2537 10.4693 11.1948 10.3548 11.0771 10.2976C11.136 10.3548 11.0771 10.412 11.0771 10.4693Z" fill="#996A00"/>
<path d="M14.5439 10.5264C14.6028 11.5563 14.6028 12.6434 14.6616 13.6732L14.897 13.9021L14.9559 13.9593C14.897 12.7578 14.8382 11.4418 14.7793 10.3547C14.7205 10.412 14.6028 10.4692 14.5439 10.5264Z" fill="#DB9C00"/>
<path d="M14.7793 10.2976C14.7205 10.3548 14.6028 10.412 14.5439 10.5265C14.6028 11.4991 14.6028 12.4718 14.6616 13.4445L14.9559 13.6733C14.897 12.529 14.8382 11.3275 14.7793 10.2976Z" fill="#996A00"/>
<path d="M11.7812 10.7571C11.8401 11.8442 12.2521 12.588 12.9583 13.0457C13.6645 12.588 14.0764 11.8442 14.0764 10.7571C13.6056 10.7571 13.1937 10.6427 12.9583 10.4138C12.7229 10.6427 12.2521 10.7571 11.7812 10.7571Z" fill="#DB9C00"/>
<path d="M11.7812 10.7571C11.7812 10.8715 11.8401 10.9288 11.8401 11.0432L13.5468 12.4736C13.8999 12.0159 14.0764 11.4437 14.0764 10.7571C13.6056 10.7571 13.1937 10.6427 12.9583 10.4138C12.7229 10.6427 12.2521 10.7571 11.7812 10.7571Z" fill="#996A00"/>
<path d="M11.0771 14.6474C11.136 14.6474 11.1948 14.7047 11.2537 14.7047C11.2537 14.5902 11.136 14.5902 11.0771 14.6474ZM14.667 14.7047C14.7259 14.7047 14.7847 14.6474 14.8436 14.6474C14.8436 14.5902 14.667 14.5902 14.667 14.7047ZM11.6068 14.7619C11.548 14.7047 11.4891 14.7047 11.3714 14.7047C11.4303 14.7619 11.548 14.7619 11.6068 14.7619ZM14.3139 14.7619C14.3728 14.7619 14.5493 14.7619 14.5493 14.7047C14.4316 14.7047 14.3139 14.7619 14.3139 14.7619ZM13.6666 14.8763H13.902C13.902 14.7619 13.7254 14.7619 13.6666 14.8763ZM12.2542 14.8191C12.1953 14.8191 12.0188 14.7619 12.0188 14.8763C12.0776 14.8191 12.2542 14.8763 12.2542 14.8191ZM12.6073 14.8191C12.5484 14.8191 12.3719 14.8191 12.3719 14.8763C12.4307 14.8763 12.5484 14.8763 12.6073 14.8191ZM13.3135 14.8763C13.3723 14.8763 13.4312 14.8763 13.5489 14.9335C13.5489 14.8191 13.3723 14.8191 13.3135 14.8763Z" fill="#DB9C00"/>
<path d="M15.079 15.2771C14.9024 15.2771 14.9613 14.9911 14.8436 14.9338C14.7847 14.9338 14.7259 14.9338 14.667 14.9911C14.8436 14.8766 14.9024 15.1627 14.9024 15.3343C14.8436 15.3343 14.8436 15.2771 14.7847 15.2771C14.667 15.2771 14.667 15.3916 14.5493 15.3916C14.5493 15.3343 14.4905 15.3343 14.3728 15.3343C14.3139 15.2771 14.3728 15.1627 14.3139 15.1627C14.3139 15.2199 14.3728 15.2771 14.3728 15.3343C14.3139 15.3916 14.3139 15.3916 14.3139 15.4488H14.1962C14.1962 15.3916 14.1962 15.3343 14.1374 15.3343C14.1374 15.3916 14.0197 15.3916 14.0785 15.4488C14.0785 15.4488 14.1374 15.4488 14.1962 15.506C14.1962 15.5632 14.1374 15.5632 14.1374 15.6204C14.1962 15.6204 14.1962 15.5632 14.2551 15.506C14.3728 15.506 14.4905 15.4488 14.5493 15.506C14.6082 15.506 14.6082 15.3916 14.667 15.3916C14.7847 15.506 14.9024 15.3343 14.9613 15.3343H15.1378V15.2771C15.079 15.2199 15.1378 15.2771 15.079 15.2771ZM14.0785 15.4488C14.0785 15.3916 14.0785 15.3916 14.1374 15.3916V15.4488C14.1374 15.4488 14.1374 15.506 14.0785 15.4488ZM14.3728 15.4488V15.3343C14.4316 15.3343 14.4316 15.3916 14.3728 15.4488ZM14.5493 15.3916H14.4905C14.3728 15.3343 14.5493 15.2771 14.5493 15.3916ZM14.4905 15.4488C14.4905 15.3916 14.5493 15.3916 14.5493 15.3916C14.5493 15.4488 14.4905 15.506 14.4905 15.4488ZM14.667 15.3916C14.667 15.2771 14.7847 15.2771 14.8436 15.3343C14.8436 15.3916 14.7259 15.3916 14.667 15.3916ZM11.136 15.0483C11.136 14.9911 11.136 14.9911 11.136 15.0483C11.0772 14.9911 11.0772 14.9911 11.0183 14.9911V15.0483H11.136ZM11.0772 15.1055H10.9595C11.0183 15.1627 11.0183 15.1627 11.0772 15.1055ZM13.4312 15.2771V15.2199H13.3723C13.3723 15.2199 13.3723 15.2771 13.4312 15.2771ZM12.0776 15.6204C12.0188 15.5632 12.0188 15.506 11.9599 15.4488C12.0776 15.3916 12.0188 15.2199 11.9599 15.2199C11.9011 15.2199 11.9011 15.2771 11.8422 15.2771C11.8422 15.3343 11.9011 15.3343 11.9011 15.3916C11.8422 15.3916 11.7245 15.4488 11.6657 15.3916C11.6657 15.3343 11.6657 15.2771 11.6068 15.2771C11.6068 15.3343 11.6657 15.4488 11.548 15.506C11.6068 15.506 11.6068 15.4488 11.6657 15.4488C11.7245 15.506 11.8422 15.4488 11.9011 15.4488C12.0188 15.506 12.0188 15.6776 12.0776 15.6204C12.1953 15.6204 12.1953 15.3343 12.1365 15.2199C12.1365 15.3343 12.2542 15.6204 12.0776 15.6204ZM11.8422 15.3916C11.8422 15.2199 12.0776 15.3916 11.9011 15.4488L11.8422 15.3916ZM12.313 15.5632C12.313 15.4488 12.3719 15.2771 12.313 15.2199C12.313 15.2771 12.2542 15.4488 12.313 15.5632ZM13.7254 15.3343C13.6666 15.3916 13.7843 15.3916 13.7254 15.4488C13.7254 15.506 13.6666 15.506 13.6077 15.506C13.49 15.4488 13.6077 15.2199 13.5489 15.1627C13.5489 15.2199 13.6077 15.3343 13.5489 15.4488C13.49 15.4488 13.4312 15.4488 13.4312 15.506H13.7843C13.7843 15.506 13.8431 15.3343 13.7254 15.3343Z" fill="#F5FEFF"/>
<path d="M13.4898 15.3365C13.4898 15.2792 13.4309 15.3365 13.4309 15.3365C13.3132 15.3365 13.4898 15.3937 13.4898 15.3365ZM13.9017 15.3365C13.8429 15.3937 13.9606 15.4509 13.9606 15.5081C13.9606 15.5653 13.9017 15.5653 13.9017 15.6225C13.9606 15.6225 14.0194 15.3937 13.9017 15.3365ZM13.9606 15.5081C13.9017 15.5081 13.9017 15.4509 13.9017 15.4509C13.9017 15.3937 13.9606 15.4509 13.9606 15.5081ZM14.961 15.3937C15.0199 15.3937 15.0787 15.4509 15.0787 15.3937C15.0199 15.3937 14.961 15.3365 14.961 15.3937ZM13.1367 15.5653H13.0778C13.0778 15.5081 13.0778 15.4509 13.019 15.4509C12.9013 15.5081 12.7247 15.4509 12.607 15.3937C12.607 15.4509 12.6659 15.5081 12.5482 15.5653C12.4893 15.5653 12.4893 15.4509 12.4305 15.4509C12.3716 15.5081 12.4893 15.5653 12.4893 15.5653C12.4893 15.6225 12.4305 15.6798 12.3716 15.737C12.4305 15.737 12.4893 15.6225 12.5482 15.5653H12.9013C12.9013 15.6225 12.9601 15.6225 13.019 15.6798C13.0778 15.6798 13.0778 15.5653 13.0778 15.5653C13.1955 15.5653 13.2544 15.5653 13.3132 15.5081C13.3132 15.3937 13.1367 15.4509 13.1367 15.5653ZM12.9601 15.6798C12.9013 15.6798 12.9013 15.6225 12.9013 15.5653H12.6659C12.6659 15.3365 12.9013 15.5653 13.019 15.4509C13.0778 15.5653 13.019 15.6225 12.9601 15.6798ZM13.1955 15.5653C13.1367 15.5081 13.2544 15.4509 13.2544 15.5081C13.2544 15.5653 13.2544 15.5653 13.1955 15.5653ZM11.0769 15.5653V15.5081C11.0769 15.5081 11.0769 15.4509 11.0181 15.5081C11.0181 15.4509 11.0181 15.5081 11.0769 15.5653ZM11.1358 15.5653C11.1946 15.6225 11.2535 15.5653 11.2535 15.5081C11.1946 15.4509 11.1358 15.5081 11.1358 15.5653ZM11.3123 15.5653H11.3712C11.3712 15.4509 11.2535 15.5081 11.3123 15.5653ZM13.5486 15.6225C13.4898 15.6225 13.4898 15.737 13.5486 15.737V15.6225ZM13.6075 15.6798C13.6075 15.737 13.6663 15.737 13.6663 15.737C13.784 15.6798 13.6075 15.5653 13.6075 15.6798Z" fill="#F5FEFF"/>
<path d="M11.4889 15.2751C11.6066 15.4467 11.3712 15.504 11.3123 15.3895C11.3123 15.3323 11.3712 15.3323 11.3712 15.2751C11.3123 15.2751 11.3123 15.3895 11.3123 15.3895C11.0769 15.3895 11.2535 15.1034 11.2535 14.989H11.1946C11.1946 15.1034 11.1358 15.2179 11.0181 15.2751C11.0181 15.3895 11.1358 15.3895 11.2535 15.4467C11.3123 15.504 11.43 15.504 11.4889 15.504C11.4889 15.3895 11.6066 15.2751 11.4889 15.2751Z" fill="#F5FEFF"/>
</g>
</svg>
