<svg width="252" height="225" viewBox="0 0 252 225" fill="none" xmlns="http://www.w3.org/2000/svg">
<g clip-path="url(#clip0_7197_7270)">
<path d="M235.798 122.586L55.4433 199.692C52.8787 200.785 49.9126 199.597 48.813 197.036L1.23542 85.9029C0.434066 84.0253 1.30483 81.8538 3.18191 81.0488L185.961 2.90671C187.872 2.0921 190.083 2.97738 190.902 4.88565L238.455 115.96C239.549 118.523 238.36 121.487 235.798 122.586Z" fill="#F2F2F2"/>
<path d="M227.458 119.22L59.3719 191.081C56.908 192.134 54.1003 191.115 53.1133 188.809L11.6821 92.033C10.9501 90.323 11.8399 88.2967 13.6657 87.5161L184.011 14.6898C185.867 13.8962 187.983 14.6648 188.727 16.403L230.136 113.128C231.123 115.434 229.921 118.167 227.458 119.22Z" fill="white"/>
<path d="M191.061 5.43283L1.41878 86.5091L0.407348 84.1466C-0.689262 81.5748 0.504235 78.6013 3.07529 77.4996L183.396 0.408306C185.969 -0.689157 188.946 0.501681 190.05 3.07029L191.061 5.43283Z" fill="#0274B3"/>
<path d="M8.38932 80.6969C9.11347 80.6969 9.70051 80.1102 9.70051 79.3866C9.70051 78.6629 9.11347 78.0763 8.38932 78.0763C7.66517 78.0763 7.07812 78.6629 7.07812 79.3866C7.07812 80.1102 7.66517 80.6969 8.38932 80.6969Z" fill="white"/>
<path d="M12.9635 78.7406C13.6877 78.7406 14.2747 78.1539 14.2747 77.4303C14.2747 76.7066 13.6877 76.12 12.9635 76.12C12.2394 76.12 11.6523 76.7066 11.6523 77.4303C11.6523 78.1539 12.2394 78.7406 12.9635 78.7406Z" fill="white"/>
<path d="M17.5417 76.7843C18.2658 76.7843 18.8529 76.1976 18.8529 75.474C18.8529 74.7503 18.2658 74.1637 17.5417 74.1637C16.8175 74.1637 16.2305 74.7503 16.2305 75.474C16.2305 76.1976 16.8175 76.7843 17.5417 76.7843Z" fill="white"/>
<path d="M93.0222 111.278L70.6062 120.862C68.0415 121.955 65.0755 120.767 63.9759 118.207L51.6019 89.303C50.5082 86.7401 51.6968 83.7761 54.2589 82.6773L76.6749 73.0939C79.2396 72.001 82.2056 73.1887 83.3052 75.7491L95.6792 104.653C96.7729 107.216 95.5843 110.18 93.0222 111.278Z" fill="#F2F2F2"/>
<path d="M130.952 95.0627L108.536 104.646C105.971 105.739 103.005 104.551 101.906 101.991L89.5316 73.0873C88.4379 70.5244 89.6265 67.5604 92.1886 66.4616L114.605 56.8782C117.169 55.7853 120.135 56.973 121.235 59.5334L133.609 88.437C134.703 90.9999 133.514 93.9639 130.952 95.0627Z" fill="#F2F2F2"/>
<path d="M168.882 78.847L146.466 88.4304C143.901 89.5234 140.935 88.3356 139.835 85.7752L127.461 56.8716C126.368 54.3087 127.556 51.3448 130.118 50.2459L152.534 40.6625C155.099 39.5696 158.065 40.7573 159.165 43.3177L171.539 72.2213C172.632 74.7842 171.444 77.7482 168.882 78.847Z" fill="#F2F2F2"/>
<path d="M112.167 155.996L89.7507 165.579C87.186 166.672 84.22 165.484 83.1204 162.924L70.7464 134.02C69.6527 131.458 70.8413 128.494 73.4035 127.395L95.8195 117.811C98.3841 116.718 101.35 117.906 102.45 120.467L114.824 149.37C115.917 151.933 114.729 154.897 112.167 155.996Z" fill="#F2F2F2"/>
<path d="M150.096 139.78L127.68 149.363C125.116 150.456 122.15 149.269 121.05 146.708L108.676 117.805C107.582 115.242 108.771 112.278 111.333 111.179L133.749 101.596C136.314 100.503 139.28 101.69 140.379 104.251L152.753 133.154C153.847 135.717 152.659 138.681 150.096 139.78Z" fill="#F2F2F2"/>
<path d="M188.026 123.564L165.61 133.148C163.045 134.241 160.079 133.053 158.98 130.493L146.606 101.589C145.512 99.0261 146.701 96.0622 149.263 94.9633L171.679 85.3799C174.244 84.287 177.21 85.4748 178.309 88.0351L190.683 116.939C191.777 119.502 190.588 122.466 188.026 123.564Z" fill="#F2F2F2"/>
<path d="M246.947 225H50.7813C47.9931 224.997 45.7336 222.739 45.7305 219.953V99.076C45.7327 97.0347 47.388 95.3805 49.4307 95.3782H248.234C250.312 95.3805 251.996 97.0633 251.998 99.1399V219.953C251.995 222.739 249.736 224.997 246.947 225Z" fill="#E6E6E6"/>
<path d="M240.608 218.627H57.786C55.1061 218.627 52.9258 216.587 52.9258 214.079V108.818C52.9258 106.958 54.5414 105.445 56.5273 105.445H241.807C243.826 105.445 245.468 106.983 245.468 108.874V214.079C245.468 216.587 243.288 218.627 240.608 218.627Z" fill="white"/>
<path d="M251.928 99.705H45.6602V97.1353C45.6642 94.3398 47.9319 92.0751 50.7293 92.0728H246.859C249.657 92.0751 251.924 94.3398 251.928 97.1353V99.705Z" fill="#0274B3"/>
<path d="M54.8737 97.2068C55.5978 97.2068 56.1849 96.6201 56.1849 95.8965C56.1849 95.1728 55.5978 94.5862 54.8737 94.5862C54.1495 94.5862 53.5625 95.1728 53.5625 95.8965C53.5625 96.6201 54.1495 97.2068 54.8737 97.2068Z" fill="white"/>
<path d="M59.8503 97.2068C60.5744 97.2068 61.1614 96.6201 61.1614 95.8965C61.1614 95.1728 60.5744 94.5862 59.8503 94.5862C59.1261 94.5862 58.5391 95.1728 58.5391 95.8965C58.5391 96.6201 59.1261 97.2068 59.8503 97.2068Z" fill="white"/>
<path d="M64.8268 97.2068C65.551 97.2068 66.138 96.6201 66.138 95.8965C66.138 95.1728 65.551 94.5862 64.8268 94.5862C64.1027 94.5862 63.5156 95.1728 63.5156 95.8965C63.5156 96.6201 64.1027 97.2068 64.8268 97.2068Z" fill="white"/>
<path d="M230.708 134.994H144.088C140.62 134.994 137.809 137.799 137.809 141.259V141.28C137.809 144.74 140.62 147.544 144.088 147.544H230.708C234.176 147.544 236.988 144.74 236.988 141.28V141.259C236.988 137.799 234.176 134.994 230.708 134.994Z" fill="#E6E6E6"/>
<path d="M230.708 155.761H144.088C140.62 155.761 137.809 158.566 137.809 162.026V162.047C137.809 165.507 140.62 168.311 144.088 168.311H230.708C234.176 168.311 236.988 165.507 236.988 162.047V162.026C236.988 158.566 234.176 155.761 230.708 155.761Z" fill="#E6E6E6"/>
<path d="M230.708 176.528H144.088C140.62 176.528 137.809 179.333 137.809 182.793V182.814C137.809 186.274 140.62 189.079 144.088 189.079H230.708C234.176 189.079 236.988 186.274 236.988 182.814V182.793C236.988 179.333 234.176 176.528 230.708 176.528Z" fill="#E6E6E6"/>
<path d="M129.664 162.036C129.664 180.62 114.589 195.685 95.9923 195.685C77.3958 195.685 62.3203 180.62 62.3203 162.036C62.3203 143.453 77.3958 128.388 95.9923 128.388C114.586 128.393 129.658 143.455 129.664 162.036Z" fill="white"/>
<path d="M95.9944 196.603C77.9613 196.588 62.9708 182.72 61.5672 164.754C60.1636 146.788 72.8186 130.763 90.6308 127.951C108.443 125.139 125.425 136.486 129.631 154.009C133.838 171.533 123.855 189.343 106.704 194.912C103.246 196.036 99.6312 196.607 95.9944 196.603ZM95.9944 129.305C82.744 129.303 70.7974 137.279 65.7259 149.511C60.6543 161.744 63.4567 175.826 72.8261 185.189C82.1955 194.552 96.2866 197.352 108.528 192.284C120.769 187.216 128.75 175.278 128.748 162.036C128.728 143.968 114.075 129.326 95.9944 129.305Z" fill="#3F3D56"/>
<path d="M129.664 162.036C129.664 180.62 114.589 195.685 95.9923 195.685C77.3958 195.685 62.3203 180.62 62.3203 162.036C62.3203 143.453 77.3958 128.388 95.9923 128.388C114.586 128.393 129.658 143.455 129.664 162.036Z" fill="white"/>
<mask id="mask0_7197_7270" style="mask-type:luminance" maskUnits="userSpaceOnUse" x="62" y="128" width="68" height="68">
<path d="M129.664 162.036C129.664 180.62 114.589 195.685 95.9923 195.685C77.3958 195.685 62.3203 180.62 62.3203 162.036C62.3203 143.453 77.3958 128.388 95.9923 128.388C114.586 128.393 129.658 143.455 129.664 162.036Z" fill="white"/>
</mask>
<g mask="url(#mask0_7197_7270)">
<path d="M96.819 169.216C101.746 169.216 105.74 165.251 105.74 160.36C105.74 155.468 101.746 151.503 96.819 151.503C91.8923 151.503 87.8984 155.468 87.8984 160.36C87.8984 165.251 91.8923 169.216 96.819 169.216Z" fill="#FFB8B8"/>
<path d="M104.057 165.76C105.413 164.341 105.771 162.249 104.963 160.465C104.155 158.681 102.342 157.558 100.372 157.623C99.1388 157.664 97.9765 158.166 96.7992 158.533C95.0151 159.136 93.1116 159.306 91.2477 159.03C89.3727 158.741 87.6807 157.749 86.5202 156.258C85.4165 154.752 85.0723 152.663 85.852 150.969C86.7522 149.014 88.8548 147.936 90.8328 147.061C91.6305 146.664 92.4825 146.386 93.3616 146.236C94.2518 146.089 95.1635 146.317 95.8772 146.865C96.4331 147.34 96.7589 148.053 97.3637 148.465C98.0446 148.928 98.9291 148.916 99.7503 148.997C103.538 149.374 106.695 152.037 107.681 155.687C108.666 159.337 107.274 163.212 104.184 165.419L104.057 165.76Z" fill="#2F2E41"/>
<path d="M102.639 172.382H91.2992C84.3404 172.382 78.6992 178.01 78.6992 184.952V197.522C78.6992 204.464 84.3404 210.091 91.2992 210.091H102.639C109.598 210.091 115.239 204.464 115.239 197.522V184.952C115.239 178.01 109.598 172.382 102.639 172.382Z" fill="#FFC629"/>
</g>
</g>
<defs>
<clipPath id="clip0_7197_7270">
<rect width="252" height="225" fill="white"/>
</clipPath>
</defs>
</svg>
