<svg width="42" height="42" viewBox="0 0 42 42" fill="none" xmlns="http://www.w3.org/2000/svg">
<path d="M31.6331 15.3344C31.3878 14.0742 30.5797 12.9948 29.4347 12.4018C29.053 10.4451 27.3342 9 25.3009 9H17.6091C15.5755 9 13.857 10.4455 13.4753 12.4017C12.3308 12.9945 11.5223 14.0736 11.2769 15.3343C9.92568 16.0368 9 17.449 9 19.0743V28.2315C9 30.5547 10.89 32.4447 13.2132 32.4447H29.6968C32.02 32.4447 33.91 30.5547 33.91 28.2315V19.0743C33.91 17.449 32.9843 16.0368 31.6331 15.3344ZM17.6091 10.4653H25.3009C26.3403 10.4653 27.2661 11.0624 27.7311 11.9376C27.6538 11.9331 27.5763 11.9308 27.4988 11.9306H15.4112C15.3334 11.9306 15.2561 11.9334 15.1789 11.9376C15.6439 11.0624 16.5696 10.4653 17.6091 10.4653ZM15.4112 13.3959H27.4988C28.5382 13.3959 29.4638 13.9928 29.9288 14.8679C29.8516 14.8635 29.7742 14.8613 29.6968 14.8612H13.2132C13.1353 14.8612 13.058 14.8637 12.9812 14.8679C13.4462 13.9928 14.3718 13.3959 15.4112 13.3959ZM32.4447 28.2315C32.4447 29.7468 31.2121 30.9794 29.6968 30.9794H13.2132C11.6979 30.9794 10.4653 29.7468 10.4653 28.2315V19.0743C10.4653 17.5591 11.6979 16.3265 13.2132 16.3265H29.6968C31.2121 16.3265 32.4447 17.5591 32.4447 19.0743V28.2315Z" fill="#0274B3"/>
<path d="M21.5926 19C21.3896 19 21.1949 19.0806 21.0514 19.2242C20.9078 19.3677 20.8272 19.5624 20.8272 19.7654V22.8272H17.7654C17.5624 22.8272 17.3677 22.9078 17.2242 23.0514C17.0806 23.1949 17 23.3896 17 23.5926C17 23.7956 17.0806 23.9903 17.2242 24.1338C17.3677 24.2774 17.5624 24.358 17.7654 24.358H20.8272V27.4198C20.8272 27.6228 20.9078 27.8174 21.0514 27.961C21.1949 28.1045 21.3896 28.1852 21.5926 28.1852C21.7956 28.1852 21.9903 28.1045 22.1338 27.961C22.2774 27.8174 22.358 27.6228 22.358 27.4198V24.358H25.4198C25.6228 24.358 25.8174 24.2774 25.961 24.1338C26.1045 23.9903 26.1852 23.7956 26.1852 23.5926C26.1852 23.3896 26.1045 23.1949 25.961 23.0514C25.8174 22.9078 25.6228 22.8272 25.4198 22.8272H22.358V19.7654C22.358 19.5624 22.2774 19.3677 22.1338 19.2242C21.9903 19.0806 21.7956 19 21.5926 19Z" fill="#0274B3"/>
<rect x="0.5" y="0.5" width="41" height="41" rx="9.5" stroke="#EEEEEE"/>
</svg>
