<svg width="137" height="46" viewBox="0 0 137 46" fill="none" xmlns="http://www.w3.org/2000/svg">
<g clip-path="url(#clip0_6441_8569)">
<path d="M132.616 0.51709H4.38263C2.24694 0.51709 0.515625 2.2484 0.515625 4.38409V41.6171C0.515625 43.7528 2.24694 45.4841 4.38263 45.4841H132.616C134.751 45.4841 136.483 43.7528 136.483 41.6171V4.38409C136.483 2.2484 134.751 0.51709 132.616 0.51709Z" stroke="white" stroke-width="0.967"/>
<path fill-rule="evenodd" clip-rule="evenodd" d="M94.353 32.2158L93.3656 33.1365C93.138 33.2605 92.911 33.4045 92.6846 33.5067C91.9988 33.8147 91.3013 33.8921 90.6816 33.8921C90.0221 33.8921 88.9881 33.8503 87.934 33.096C86.4687 32.0749 85.8281 30.3212 85.8281 28.7925C85.8281 25.6275 88.4338 24.0752 90.5586 24.0752C91.302 24.0752 92.0649 24.2591 92.6853 24.6469C93.7168 25.3208 93.9835 26.1973 94.1316 26.6673L89.2775 28.6062L87.688 28.7284C88.2025 31.3229 89.978 32.8322 91.9401 32.8322C92.9202 32.8322 93.6476 32.5165 94.3151 32.1898C94.3151 32.1898 94.4485 32.1214 94.353 32.2158ZM91.4249 27.0539C91.8195 26.9123 92.0239 26.7895 92.0239 26.5058C92.0239 25.6904 91.0909 24.7491 89.9774 24.7491C89.1521 24.7491 87.6042 25.3843 87.6042 27.5893C87.6042 27.9335 87.6452 28.3001 87.6666 28.6667L91.4249 27.0539Z" fill="white"/>
<path fill-rule="evenodd" clip-rule="evenodd" d="M84.2053 32.0573C84.2053 32.8509 84.3485 32.9744 85.0269 33.0361C85.3806 33.0772 85.733 33.0959 86.0823 33.1365L85.3188 33.5859H81.6804C82.1576 32.9738 82.2396 32.9133 82.2396 32.5049V32.0494L82.2316 19.9126H80.625L82.171 19.1758H85.1236C84.4837 19.5418 84.2928 19.7656 84.2102 20.4794L84.2053 32.0573Z" fill="white"/>
<path fill-rule="evenodd" clip-rule="evenodd" d="M78.5606 25.077C79.0341 25.4623 80.024 26.2796 80.024 27.8313C80.024 29.343 79.162 30.0556 78.2926 30.7301C78.0258 30.9957 77.7144 31.2836 77.7144 31.7288C77.7144 32.1801 78.0264 32.4251 78.251 32.6078L78.9968 33.1771C79.9035 33.9338 80.73 34.6277 80.73 36.0372C80.73 37.9579 78.8505 39.8937 75.299 39.8937C72.3073 39.8937 70.861 38.4854 70.861 36.9748C70.861 36.2392 71.2305 35.1982 72.4523 34.4855C73.7322 33.7118 75.4666 33.6084 76.3948 33.5479C76.1048 33.1777 75.7738 32.7899 75.7738 32.1571C75.7738 31.8111 75.879 31.6048 75.9806 31.3617C75.7548 31.3828 75.5272 31.4046 75.3204 31.4046C73.1308 31.4046 71.8925 29.7894 71.8925 28.1972C71.8925 27.2584 72.3256 26.2173 73.2152 25.4617C74.3923 24.5035 75.7958 24.3384 76.9111 24.3384H81.1656L79.8429 25.077H78.5606ZM77.0971 34.1395C76.9283 34.1177 76.8267 34.1177 76.6223 34.1177C76.4351 34.1177 75.3198 34.1577 74.4559 34.4444C73.9989 34.6096 72.678 35.0977 72.678 36.5484C72.678 37.9954 74.1042 39.0383 76.3109 39.0383C78.2926 39.0383 79.3455 38.0988 79.3455 36.8339C79.3449 35.7928 78.6639 35.2435 77.0971 34.1395ZM77.6912 30.2607C78.1684 29.79 78.21 29.1391 78.21 28.7689C78.21 27.3007 77.3247 25.0141 75.6086 25.0141C75.0733 25.0141 74.4933 25.2802 74.1641 25.6904C73.8154 26.1157 73.7108 26.6674 73.7108 27.1979C73.7108 28.565 74.5165 30.8323 76.2907 30.8323C76.8077 30.8323 77.3645 30.5837 77.6912 30.2607ZM65.7603 33.8504C62.4786 33.8504 60.7227 31.3229 60.7227 29.0357C60.7227 26.3625 62.9301 24.0752 66.0699 24.0752C69.1051 24.0752 71.006 26.4248 71.006 28.8917C71.006 31.3006 69.1271 33.8504 65.7603 33.8504ZM68.3422 32.1989C68.8414 31.5456 68.9625 30.7301 68.9625 29.9352C68.9625 28.1373 68.0962 24.7086 65.5358 24.7086C64.8549 24.7086 64.169 24.9717 63.6747 25.4018C62.8683 26.1163 62.7245 27.0134 62.7245 27.8942C62.7245 29.911 63.7322 33.2376 66.2345 33.2376C67.0427 33.2376 67.8668 32.851 68.3422 32.1989ZM54.7729 33.8504C51.4905 33.8504 49.7371 31.3229 49.7371 29.0357C49.7371 26.3625 51.9451 24.0752 55.0837 24.0752C58.117 24.0752 60.0161 26.4248 60.0161 28.8917C60.0167 31.3006 58.1403 33.8504 54.7729 33.8504ZM57.3553 32.1989C57.8509 31.5456 57.9745 30.7301 57.9745 29.9352C57.9745 28.1373 57.1057 24.7086 54.5477 24.7086C53.8644 24.7086 53.1859 24.9717 52.6903 25.4018C51.8827 26.1163 51.7396 27.0134 51.7396 27.8942C51.7396 29.911 52.7515 33.2376 55.2495 33.2376C56.0559 33.2376 56.8787 32.851 57.3553 32.1989ZM48.4254 33.142L45.6576 33.7681C44.5361 33.9429 43.5291 34.0972 42.4627 34.0972C37.1235 34.0972 35.0898 30.2111 35.0898 27.1707C35.0898 23.4564 37.9721 20.0137 42.9075 20.0137C43.9519 20.0137 44.9571 20.1655 45.8723 20.4117C47.3229 20.8152 48.0008 21.3113 48.4254 21.6028L46.8176 23.1128L46.1397 23.2628L46.623 22.5006C45.9684 21.8684 44.765 20.7015 42.4811 20.7015C39.4276 20.7015 37.1235 22.9966 37.1235 26.3473C37.1235 29.9461 39.7543 33.3313 43.9721 33.3313C45.2116 33.3313 45.8497 33.0851 46.4291 32.8552V29.7701L43.5071 29.9255L45.0562 29.1028H49.1571L48.656 29.5801C48.5202 29.6938 48.5025 29.7326 48.4646 29.885C48.4444 30.0592 48.426 30.6133 48.426 30.8081L48.4254 33.142ZM100.302 32.3029V37.503H99.258V24.2718H100.302V25.7781C100.982 24.8048 102.225 24.0323 103.67 24.0323C106.259 24.0323 108.004 25.9747 108.004 29.0496C108.004 32.1039 106.259 34.0869 103.67 34.0869C102.307 34.0875 101.085 33.3924 100.302 32.3029ZM106.882 29.0502C106.882 26.7327 105.66 24.9651 103.494 24.9651C102.148 24.9651 100.862 26.011 100.302 26.922V31.1572C100.862 32.0706 102.148 33.1541 103.494 33.1541C105.66 33.1541 106.882 31.3713 106.882 29.0502Z" fill="white"/>
<path fill-rule="evenodd" clip-rule="evenodd" d="M109.43 33.8491V20.6191H110.474V33.8491H109.43Z" fill="white"/>
<path fill-rule="evenodd" clip-rule="evenodd" d="M122.194 36.6473C122.417 36.7453 122.798 36.8064 123.041 36.8064C123.679 36.8064 124.124 36.548 124.524 35.6352L125.285 33.9293L121.171 24.2721H122.336L125.865 32.6408L129.359 24.2721H130.541L125.523 35.9552C125.003 37.159 124.183 37.738 123.058 37.738C122.721 37.738 122.276 37.6781 122.015 37.5994L122.194 36.6473ZM119.144 33.821C119.074 33.4889 119.022 33.1967 118.983 32.9517C118.951 32.7079 118.933 32.4587 118.933 32.2052C118.574 32.7249 118.067 33.1574 117.419 33.4986C116.771 33.841 116.155 34.0097 115.31 34.0097C114.292 34.0097 113.503 33.7623 112.939 33.2602C112.377 32.7587 112.095 32.0794 112.095 31.2198C112.095 30.3614 112.504 29.6645 113.32 29.1315C114.136 28.5962 115.192 28.3306 116.497 28.3306H118.932V27.1401C118.932 26.4547 118.696 25.9163 118.224 25.5249C117.751 25.1341 117.086 24.9357 116.224 24.9357C115.437 24.9357 114.798 25.1166 114.312 25.4687C113.83 25.828 113.588 26.2732 113.588 26.8098H112.519L112.497 26.7584C112.458 26.0355 112.793 25.4003 113.504 24.8528C114.212 24.3054 115.141 24.0301 116.283 24.0301C117.421 24.0301 118.342 24.3011 119.038 24.8419C119.731 25.3773 120.079 26.151 120.079 27.1625V31.8876C120.079 32.227 120.095 32.5549 120.139 32.8743C120.183 33.1943 120.253 33.5137 120.347 33.8222H119.144V33.821ZM115.438 33.0685C116.325 33.0685 116.963 32.8725 117.615 32.4847C118.262 32.0988 118.702 31.596 118.933 30.9875V29.1485H116.486C115.551 29.1485 114.777 29.3529 114.169 29.7661C113.559 30.1775 113.249 30.6753 113.249 31.2543C113.249 31.7999 113.445 32.2373 113.835 32.5682C114.224 32.9027 114.758 33.0685 115.438 33.0685ZM35.0664 9.76575C35.0664 7.73256 36.5941 6.42529 38.4944 6.42529C39.7675 6.42529 40.5996 7.02539 41.119 7.7616L40.1885 8.29454C39.8361 7.80999 39.2187 7.43251 38.4944 7.43251C37.2022 7.43251 36.2417 8.40101 36.2417 9.76575C36.2417 11.1117 37.2016 12.099 38.4944 12.099C39.1606 12.099 39.748 11.7989 40.0416 11.5182V10.5207H38.0832V9.52377H41.1777V11.9344C40.5415 12.6416 39.6207 13.1159 38.4944 13.1159C36.5941 13.1159 35.0664 11.7899 35.0664 9.76575Z" fill="white"/>
<path fill-rule="evenodd" clip-rule="evenodd" d="M42.5938 12.9902V6.53125H47.0687V7.52825H43.7388V9.19425H47.0007V10.1912H43.7388V11.9932H47.0687V12.9902H42.5938Z" fill="white"/>
<path fill-rule="evenodd" clip-rule="evenodd" d="M50.2397 12.9902V7.52923H48.2617V6.53223H53.3627V7.52923H51.3857V12.9902H50.2397Z" fill="white"/>
<path fill-rule="evenodd" clip-rule="evenodd" d="M57.3438 12.9902V6.53125H58.4888V12.9902H57.3438Z" fill="white"/>
<path fill-rule="evenodd" clip-rule="evenodd" d="M61.6811 12.9902V7.52923H59.7031V6.53223H64.8051V7.52923H62.8271V12.9902H61.6811Z" fill="white"/>
<path fill-rule="evenodd" clip-rule="evenodd" d="M68.5039 9.76575C68.5039 7.83842 69.8848 6.42529 71.8438 6.42529C73.7918 6.42529 75.183 7.83903 75.183 9.76575C75.183 11.6925 73.7918 13.1062 71.8438 13.1062C69.8841 13.1062 68.5039 11.6925 68.5039 9.76575ZM74.0077 9.76575C74.0077 8.42944 73.1555 7.43251 71.8438 7.43251C70.5216 7.43251 69.6792 8.42944 69.6792 9.76575C69.6792 11.0918 70.5216 12.099 71.8438 12.099C73.1555 12.099 74.0077 11.0918 74.0077 9.76575Z" fill="white"/>
<path fill-rule="evenodd" clip-rule="evenodd" d="M81.0764 12.9902L77.6694 8.37125V12.9902H76.5234V6.53125H77.6984L81.0384 11.0052V6.53125H82.1844V12.9902H81.0764Z" fill="white"/>
<path fill-rule="evenodd" clip-rule="evenodd" d="M10.2741 38.3001C9.89747 38.1995 9.65234 37.8286 9.65234 37.2547V18.3104C9.65234 17.7789 9.85989 17.4204 10.1889 17.29L19.5741 27.8474L10.2741 38.3001ZM11.566 37.898L22.8628 31.5469L20.1113 28.4517L11.566 37.898ZM22.9406 24.0637L11.8012 17.7996L20.1276 27.2253L22.9406 24.0637ZM23.6964 24.4887L28.0602 26.9426C28.8864 27.4072 28.894 28.1562 28.0602 28.6249L23.586 31.1403L20.6677 27.8367L23.6964 24.4887Z" fill="white"/>
</g>
<defs>
<clipPath id="clip0_6441_8569">
<rect width="137" height="46" fill="white"/>
</clipPath>
</defs>
</svg>
