<svg width="177" height="152" viewBox="0 0 177 152" fill="none" xmlns="http://www.w3.org/2000/svg">
<path fill-rule="evenodd" clip-rule="evenodd" d="M84.4024 7.98427L1.96905 56.6614C0.467148 57.5483 -0.0276066 59.4783 0.863984 60.9723C1.13225 61.4218 1.5089 61.7977 1.95989 62.0661L84.7534 111.332C86.6684 112.471 89.0454 112.523 91.0084 111.467L172.079 67.8706C173.615 67.0443 174.187 65.1356 173.357 63.6073C173.113 63.1595 172.764 62.7772 172.34 62.4931L91.1614 8.17401C89.1343 6.81761 86.5031 6.74374 84.4024 7.98427Z" fill="#012367"/>
<path fill-rule="evenodd" clip-rule="evenodd" d="M25.573 0H151.427C154.88 0 157.68 2.79948 157.68 6.25282V124.438C157.68 127.891 154.88 130.691 151.427 130.691H25.573C22.1195 130.691 19.3198 127.891 19.3198 124.438V6.25282C19.3198 2.79948 22.1195 0 25.573 0Z" fill="#F6F8FB"/>
<path fill-rule="evenodd" clip-rule="evenodd" d="M0.356445 58.597V142.619C0.356445 147.799 4.55589 151.998 9.73617 151.998H167.263C172.443 151.998 176.643 147.799 176.643 142.619V68.9502C176.643 65.4969 173.843 62.6974 170.39 62.6974C169.376 62.6974 168.377 62.944 167.479 63.4161L91.7499 103.24C89.9342 104.195 87.7656 104.199 85.9468 103.25L0.356445 58.597Z" fill="#042F86"/>
<path fill-rule="evenodd" clip-rule="evenodd" d="M78.1796 91.7964L6.50854 143.507C4.40809 145.023 3.93394 147.954 5.44951 150.054C6.3311 151.276 7.74603 152 9.25271 152H89.2439H167.932C170.522 152 172.622 149.9 172.622 147.31C172.622 145.816 171.91 144.412 170.705 143.528L100.248 91.8797C93.6875 87.0709 84.7758 87.0373 78.1796 91.7964Z" fill="#012367"/>
<path fill-rule="evenodd" clip-rule="evenodd" d="M33.3984 16.3375H67.0467C68.6159 16.3375 69.888 17.6095 69.888 19.1786C69.888 20.7477 68.6159 22.0197 67.0467 22.0197H33.3984C31.8292 22.0197 30.5571 20.7477 30.5571 19.1786C30.5571 17.6095 31.8292 16.3375 33.3984 16.3375Z" fill="#0274B3"/>
<path fill-rule="evenodd" clip-rule="evenodd" d="M33.3984 28.4102H59.321C60.8902 28.4102 62.1623 29.6822 62.1623 31.2513C62.1623 32.8204 60.8902 34.0924 59.321 34.0924H33.3984C31.8292 34.0924 30.5571 32.8204 30.5571 31.2513C30.5571 29.6822 31.8292 28.4102 33.3984 28.4102Z" fill="#0274B3"/>
<path fill-rule="evenodd" clip-rule="evenodd" d="M88.1487 76.7103C99.7854 76.7103 109.219 67.1703 109.219 55.402C109.219 43.6338 99.7854 34.0938 88.1487 34.0938C76.512 34.0938 67.0786 43.6338 67.0786 55.402C67.0786 67.1703 76.512 76.7103 88.1487 76.7103Z" fill="#0274B3"/>
</svg>
