<svg width="146" height="152" viewBox="0 0 146 152" fill="none" xmlns="http://www.w3.org/2000/svg">
<path d="M27.7206 16.9421L28.7941 15.7531C28.8152 15.7329 28.8375 15.714 28.8609 15.6966L31.126 14.0966C31.2386 14.0211 31.3743 13.9882 31.5089 14.0038C31.6435 14.0193 31.7681 14.0822 31.8605 14.1813L43.271 26.8939L46.1242 30.0758C46.211 30.1638 46.2596 30.2823 46.2596 30.4058C46.2596 30.5294 46.211 30.6479 46.1242 30.7359C46.1242 30.7359 45.2202 31.7631 45.0482 31.9249L45.0276 31.948L42.9731 33.7817C42.8752 33.869 42.7468 33.914 42.6158 33.9067C42.4849 33.8995 42.3622 33.8407 42.2745 33.7432L27.7258 17.538C27.6473 17.459 27.6028 17.3524 27.6018 17.2411C27.6009 17.1297 27.6435 17.0224 27.7206 16.9421Z" fill="#093C9A"/>
<path d="M27.721 16.9424L28.7945 15.7534C28.8155 15.7332 28.8378 15.7143 28.8612 15.6969L31.1264 14.0969C31.1951 14.0512 31.2729 14.0208 31.3545 14.008C31.4361 13.9951 31.5194 14 31.5989 14.0224L27.8468 17.6872L27.7133 17.5383C27.6365 17.4576 27.5943 17.3501 27.5957 17.2388C27.5972 17.1274 27.6421 17.0211 27.721 16.9424Z" fill="#B74D00"/>
<path d="M27.7877 16.886L30.0528 15.286C30.1653 15.2106 30.3011 15.1777 30.4356 15.1932C30.5702 15.2087 30.6949 15.2717 30.7873 15.3708L42.2003 28.0833L45.0536 31.2653C45.0981 31.3111 45.1329 31.3655 45.1558 31.4252C45.1787 31.4848 45.1893 31.5485 45.1869 31.6123C45.1845 31.6762 45.1691 31.7389 45.1418 31.7967C45.1145 31.8544 45.0757 31.9061 45.0279 31.9484L42.9733 33.7821C42.8755 33.8694 42.747 33.9143 42.6161 33.9071C42.4852 33.8999 42.3624 33.8411 42.2748 33.7436L27.726 17.5383C27.6824 17.4938 27.649 17.4402 27.6281 17.3814C27.6073 17.3226 27.5995 17.26 27.6054 17.1979C27.6113 17.1358 27.6306 17.0757 27.6621 17.0218C27.6936 16.968 27.7364 16.9216 27.7877 16.886Z" fill="#367CFF"/>
<path d="M46.7252 18.7609L40.7722 24.1079L38.525 23.9846L35.7462 26.4809L36.8095 27.6674L34.0256 30.1739L30.8333 33.0375C30.7453 33.125 30.6262 33.1741 30.502 33.1741C30.3779 33.1741 30.2588 33.125 30.1707 33.0375C30.1707 33.0375 29.1434 32.136 28.9842 31.9665C28.9759 31.9595 28.9681 31.9518 28.9611 31.9434L27.1249 29.8889C27.0377 29.7903 26.9932 29.6612 27.0009 29.5299C27.0086 29.3985 27.0679 29.2755 27.1659 29.1878C29.6519 26.9586 40.8852 16.8605 43.3712 14.639C43.4505 14.5606 43.5575 14.5166 43.6691 14.5166C43.7806 14.5166 43.8877 14.5606 43.967 14.639L45.1561 15.7099C45.1763 15.731 45.1951 15.7533 45.2126 15.7767L46.81 18.0418C46.8818 18.1528 46.9126 18.2854 46.8972 18.4167C46.8817 18.5479 46.8209 18.6697 46.7252 18.7609Z" fill="#093C9A"/>
<path d="M43.9672 14.6204L45.1563 15.6939C45.1764 15.7143 45.1944 15.7367 45.2102 15.7607L46.8102 18.0258C46.857 18.094 46.8882 18.1718 46.9015 18.2535C46.9148 18.3351 46.9099 18.4188 46.8872 18.4983L43.2224 14.7462L43.3714 14.6127C43.452 14.5359 43.5595 14.4937 43.6708 14.4952C43.7822 14.4966 43.8885 14.5415 43.9672 14.6204Z" fill="#B74D00"/>
<path d="M44.0235 14.687L45.6209 16.9522C45.6966 17.0644 45.73 17.2 45.7149 17.3345C45.6999 17.4691 45.6374 17.5939 45.5387 17.6867L32.8262 29.0997L29.6442 31.9529C29.5985 31.9978 29.5442 32.0329 29.4845 32.056C29.4248 32.0791 29.3611 32.0898 29.2971 32.0874C29.2331 32.085 29.1703 32.0695 29.1125 32.042C29.0548 32.0145 29.0032 31.9754 28.9611 31.9272L27.1248 29.8599C27.0385 29.7614 26.9944 29.6329 27.0021 29.5022C27.0098 29.3714 27.0686 29.249 27.1659 29.1613L43.3711 14.6125C43.4166 14.5695 43.4709 14.537 43.5302 14.5172C43.5895 14.4974 43.6525 14.4908 43.7146 14.4979C43.7768 14.505 43.8366 14.5256 43.89 14.5583C43.9433 14.5909 43.9889 14.6349 44.0235 14.687Z" fill="#367CFF"/>
<path d="M127.643 16.6581L126.477 15.5538C126.456 15.5338 126.433 15.5166 126.408 15.5024L124.03 14.0745C123.913 14.0078 123.775 13.9849 123.643 14.0098C123.51 14.0347 123.391 14.1059 123.306 14.2106L114.024 26.24L110.298 23.3919C110.192 23.3107 110.059 23.2737 109.927 23.2886C109.795 23.3034 109.674 23.369 109.589 23.4715L107.111 26.335C107.031 26.4298 106.992 26.5521 107.001 26.6755C107.011 26.7989 107.069 26.9137 107.162 26.995C107.162 26.995 108.138 27.9427 108.32 28.1019L108.346 28.1199L114.846 33.0868C114.951 33.1655 115.082 33.2 115.212 33.1827C115.341 33.1654 115.459 33.0977 115.539 32.9943L127.695 17.2539C127.766 17.1677 127.801 17.0569 127.791 16.9455C127.781 16.834 127.728 16.7308 127.643 16.6581Z" fill="#093C9A"/>
<path d="M127.643 16.6584L126.477 15.5541C126.456 15.5341 126.433 15.5169 126.408 15.5027L124.03 14.0748C123.958 14.034 123.878 14.0092 123.795 14.0021C123.713 13.995 123.63 14.0058 123.552 14.0337L127.566 17.4109L127.687 17.2542C127.759 17.169 127.795 17.0588 127.787 16.9474C127.779 16.8359 127.727 16.7322 127.643 16.6584Z" fill="#B74D00"/>
<path d="M127.574 16.6096L125.193 15.1817C125.076 15.1145 124.939 15.0913 124.806 15.1162C124.673 15.1412 124.554 15.2126 124.469 15.3178L115.177 27.3446L111.448 24.499C111.343 24.4179 111.21 24.3809 111.078 24.3958C110.945 24.4106 110.824 24.4762 110.739 24.5787L108.269 27.4422C108.228 27.4911 108.197 27.5478 108.178 27.6089C108.16 27.6701 108.154 27.7343 108.161 27.7978C108.169 27.8612 108.189 27.9225 108.22 27.978C108.252 28.0334 108.295 28.0818 108.346 28.1202L114.846 33.0871C114.95 33.1658 115.082 33.2003 115.212 33.183C115.341 33.1657 115.459 33.098 115.539 32.9946L127.694 17.2542C127.734 17.2058 127.763 17.1494 127.778 17.0889C127.793 17.0284 127.795 16.9652 127.784 16.9038C127.772 16.8424 127.748 16.7843 127.711 16.7335C127.675 16.6826 127.628 16.6404 127.574 16.6096Z" fill="#367CFF"/>
<path d="M114.024 26.2399L115.18 27.3468L111.451 24.4987C111.344 24.4176 111.209 24.3816 111.076 24.3985L109.92 23.2916C110.052 23.2761 110.184 23.312 110.29 23.3918L114.024 26.2399Z" fill="#B74D00"/>
<path d="M84.2414 65.5898C84.0868 65.7637 83.918 65.9244 83.7368 66.0703L82.3106 67.3242C81.102 68.3757 79.413 69.82 77.5427 71.4002L77.2617 71.6419L77.1892 71.7024L77.1197 71.6359L75.0046 69.6689H75.1375L72.0254 72.2342L71.1189 72.9563C71.0146 73.0481 70.9012 73.1291 70.7805 73.198C70.8708 73.0874 70.972 72.9861 71.0827 72.8959L71.9498 72.1284L75.0106 69.5027L75.0771 69.4453L75.1436 69.5057L77.2738 71.4637H77.1318L77.4127 71.225C79.2831 69.6417 80.9842 68.2186 82.22 67.1973L83.6915 65.9887C83.8639 65.8414 84.0478 65.708 84.2414 65.5898Z" fill="white"/>
<path d="M133.053 67.686C133.607 67.3377 134.202 67.068 134.824 66.884L135.189 65.0548L138.154 65L138.58 66.8147C139.208 66.9765 139.813 67.2249 140.378 67.5533L141.882 66.5291L144.015 68.6756L143.086 70.2739C143.42 70.8509 143.68 71.4719 143.857 72.1204L145.608 72.5012L145.661 75.5912L143.921 76.0384C143.767 76.6926 143.53 77.3224 143.216 77.9108L144.198 79.4745L142.137 81.6989L140.607 80.7295C140.055 81.0774 139.46 81.3471 138.84 81.5316L138.475 83.3607L135.512 83.4155L135.086 81.6008C134.458 81.4403 133.853 81.1919 133.289 80.8622L131.792 81.8864L129.66 79.7399L130.589 78.1445C130.253 77.5671 129.993 76.945 129.817 76.2951L128.053 75.9143L128 72.8244L129.74 72.3801C129.896 71.7252 130.134 71.0946 130.448 70.5048L129.463 68.9526L131.521 66.7282L133.053 67.6947V67.686ZM134.633 71.803C134.194 72.2742 133.899 72.8708 133.785 73.5171C133.671 74.1634 133.744 74.8303 133.994 75.4334C134.245 76.0364 134.661 76.5484 135.19 76.9044C135.72 77.2604 136.339 77.4444 136.969 77.4331C137.598 77.4217 138.211 77.2156 138.728 76.8407C139.246 76.4658 139.645 75.9391 139.875 75.3274C140.105 74.7157 140.156 74.0466 140.021 73.4047C139.886 72.7629 139.571 72.1773 139.116 71.7223C138.51 71.1161 137.698 70.7844 136.859 70.7995C136.019 70.8147 135.219 71.1754 134.633 71.803Z" fill="#F5F5F5"/>
<path d="M79.3312 30.2071C79.7133 29.9257 80.1301 29.6996 80.5703 29.5349L80.7418 28.1962L82.8772 28L83.2727 29.2839C83.7338 29.3675 84.1822 29.5149 84.6059 29.7224L85.6376 28.903L87.2778 30.3456L86.6887 31.5458C86.9568 31.9453 87.1735 32.3799 87.3331 32.8383L88.6165 33.0201L88.8046 35.2445L87.571 35.6599C87.4915 36.1398 87.351 36.6065 87.1533 37.0477L87.9361 38.1238L86.5531 39.8375L85.4025 39.2201C85.0194 39.4998 84.6028 39.7259 84.1633 39.8924L83.9974 41.2166L81.862 41.4128L81.4665 40.1289C81.0054 40.0453 80.557 39.8978 80.1333 39.6904L79.1044 40.5098L77.4614 39.0672L78.0505 37.8814C77.7824 37.486 77.5657 37.0553 77.4061 36.6005L76.1144 36.4072L75.9263 34.1799L77.1599 33.7673C77.2404 33.2868 77.3808 32.8193 77.5775 32.3767L76.7948 31.3034L78.1778 29.5897L79.3312 30.2071ZM80.6699 33.0922C80.377 33.4548 80.1937 33.8999 80.1433 34.3711C80.0929 34.8424 80.1776 35.3186 80.3867 35.7397C80.5958 36.1607 80.9198 36.5077 81.3179 36.7366C81.716 36.9655 82.1703 37.0662 82.6232 37.0258C83.0762 36.9855 83.5075 36.8059 83.8626 36.5099C84.2177 36.2139 84.4807 35.8147 84.6184 35.3627C84.756 34.9108 84.762 34.4265 84.6357 33.971C84.5094 33.5155 84.2565 33.1092 83.9089 32.8037C83.4424 32.3946 82.8394 32.1953 82.2322 32.2494C81.625 32.3035 81.0631 32.6066 80.6699 33.0922Z" fill="#F5F5F5"/>
<path d="M133.608 38.0422C133.606 38.0191 133.606 37.996 133.608 37.9729V37.7825C133.608 37.6094 133.608 37.3642 133.608 37.0526C133.608 36.4121 133.594 35.4889 133.586 34.3291L133.627 34.3723L120.171 34.3983L120.237 34.3291V38.0422L120.168 37.9729L129.761 38.0047L132.59 38.022H133.356H133.555H133.627H133.564H133.373H132.621L129.774 38.0797L120.138 38.1114H120.094V34.3348L120.163 34.2627L133.619 34.2915H133.647V34.3348C133.647 35.5062 133.627 36.4381 133.622 37.0843C133.622 37.393 133.622 37.6325 133.622 37.8056V37.9873C133.618 38.0059 133.614 38.0242 133.608 38.0422Z" fill="#E0E0E0"/>
<path d="M135.431 34.3303C135.431 34.3303 135.431 34.3043 135.431 34.2581C135.431 34.212 135.431 34.1398 135.431 34.0619L135.417 33.3176C135.417 32.6656 135.403 31.7481 135.392 30.6171L135.439 30.6662L127.354 30.6864C127.293 30.7527 127.437 30.5998 127.423 30.6171V32.5242C127.423 33.1445 127.423 33.7475 127.423 34.3245L127.357 34.2552L133.14 34.287L134.825 34.3072H135.281H135.442C135.393 34.3113 135.344 34.3113 135.295 34.3072H134.855L133.196 34.3245L127.368 34.3562H127.285V32.53C127.285 32.2184 127.285 31.9039 127.285 31.5836V30.6229L127.354 30.5508L135.439 30.571H135.489V30.6229C135.489 31.7769 135.469 32.6944 135.464 33.3551C135.464 33.6638 135.464 33.9061 135.45 34.0879C135.45 34.1691 135.444 34.2502 135.431 34.3303Z" fill="#E0E0E0"/>
<path d="M132.385 133.888C132.383 133.866 132.383 133.844 132.385 133.822V133.631C132.385 133.455 132.385 133.213 132.385 132.899C132.385 132.258 132.372 131.338 132.36 130.175L132.405 130.218L118.948 130.247C118.979 130.216 118.879 130.317 119.015 130.175V133.882L118.946 133.813L128.535 133.845L131.368 133.865H132.134H132.333H132.405C132.384 133.868 132.362 133.868 132.341 133.865H132.15H131.398L128.582 133.885L118.946 133.917H118.879V131.084C118.879 130.928 118.879 130.769 118.879 130.611V130.141C119.017 129.996 118.918 130.1 118.951 130.068L132.408 130.097H132.449V130.141C132.449 131.315 132.43 132.244 132.424 132.89C132.424 133.199 132.424 133.438 132.424 133.611V133.796C132.415 133.828 132.402 133.86 132.385 133.888Z" fill="#E0E0E0"/>
<path d="M134.201 130.175C134.201 130.175 134.201 130.149 134.201 130.103C134.201 130.057 134.201 129.988 134.201 129.907C134.201 129.725 134.201 129.477 134.201 129.163C134.201 128.514 134.184 127.593 134.173 126.462L134.223 126.514L126.138 126.534L126.207 126.462V127.423C126.207 127.743 126.207 128.058 126.207 128.369V130.17L126.141 130.1L131.925 130.135L133.609 130.152H134.063H134.226C134.177 130.156 134.128 130.156 134.079 130.152H133.64L131.98 130.17L126.152 130.204H126.086V130.135C126.086 129.558 126.086 128.955 126.086 128.335V126.428L126.155 126.355L134.24 126.376H134.29V126.428C134.29 127.582 134.27 128.502 134.262 129.16C134.262 129.468 134.262 129.714 134.262 129.893C134.248 129.988 134.228 130.083 134.201 130.175Z" fill="#E0E0E0"/>
<path d="M134.013 151.577C134.013 151.617 107.592 151.652 75.0092 151.652C42.4261 151.652 16 151.617 16 151.577C16 151.537 42.415 151.502 75.0092 151.502C107.603 151.502 134.013 151.534 134.013 151.577Z" fill="#263238"/>
<path d="M95.5035 77.1747C95.3947 77.193 95.2845 77.2011 95.1742 77.1989L94.2375 77.217L90.7839 77.2533L79.3928 77.2835H78.4863V77.1747C78.4863 72.9204 78.5105 69.1073 78.5196 66.3275C78.5347 64.9648 78.5437 63.8589 78.5528 63.0672C78.5528 62.7016 78.5679 62.4055 78.5739 62.185C78.5703 62.0838 78.5774 61.9825 78.5951 61.8828C78.6086 61.9829 78.6147 62.0839 78.6132 62.185C78.6132 62.4055 78.6132 62.7016 78.6344 63.0672C78.6344 63.8589 78.6525 64.9648 78.6676 66.3275C78.6676 69.1073 78.6888 72.9204 78.7009 77.1747L78.5951 77.069H79.4049L90.796 77.0992L94.2496 77.1354L95.1862 77.1536C95.2923 77.1541 95.3983 77.1611 95.5035 77.1747Z" fill="white"/>
<path d="M93.6211 69.134C93.5628 68.7857 93.5386 68.4325 93.5485 68.0795C93.5304 67.4238 93.5153 66.5174 93.5153 65.5052L93.6211 65.6139H93.4398C92.3883 65.6139 91.4335 65.6139 90.7446 65.5807C90.3713 65.5927 89.9978 65.5674 89.6296 65.5052C89.9978 65.4429 90.3713 65.4176 90.7446 65.4296C91.4335 65.4115 92.3883 65.3994 93.4398 65.3994H93.7419V65.5052C93.7419 66.5174 93.7419 67.4238 93.7087 68.0795C93.7167 68.4331 93.6874 68.7866 93.6211 69.134Z" fill="white"/>
<path d="M72.2409 141.686L72.9751 147.778C72.9751 147.778 67.0469 150.44 67.0741 151.582L78.9184 150.712L78.163 141.182L72.2409 141.686Z" fill="#5D5E5F"/>
<path d="M76.5226 146.983C76.6402 147.009 76.7442 147.077 76.8149 147.175C76.8857 147.272 76.9183 147.392 76.9066 147.512C76.8864 147.631 76.8211 147.738 76.7243 147.81C76.6274 147.882 76.5064 147.914 76.3865 147.899C76.2614 147.872 76.1506 147.8 76.0758 147.696C76.0009 147.592 75.9673 147.464 75.9814 147.337C76.0161 147.215 76.0966 147.112 76.2059 147.048C76.3152 146.984 76.445 146.965 76.5679 146.995" fill="#E0E0E0"/>
<path d="M78.9184 150.713L78.8579 149.951L67.3762 151.027C67.277 151.101 67.1939 151.194 67.132 151.301C67.0702 151.408 67.0309 151.526 67.0166 151.649L78.9184 150.713Z" fill="#263238"/>
<path d="M72.8696 147.83C72.8696 147.887 73.1719 147.89 73.4743 148.053C73.7766 148.217 73.9519 148.449 74.0033 148.422C74.0547 148.395 73.9398 148.066 73.568 147.872C73.1961 147.679 72.8514 147.775 72.8696 147.83Z" fill="#263238"/>
<path d="M71.6609 148.452C71.6609 148.509 71.9118 148.585 72.1326 148.818C72.3533 149.05 72.4349 149.304 72.4893 149.295C72.5437 149.286 72.5558 148.954 72.2777 148.673C71.9995 148.391 71.6579 148.394 71.6609 148.452Z" fill="#263238"/>
<path d="M71.075 150.011C71.1294 150.011 71.1869 149.709 71.0085 149.406C70.8301 149.104 70.549 148.995 70.5278 149.046C70.5066 149.098 70.6911 149.255 70.8301 149.509C70.9692 149.763 71.0176 150.011 71.075 150.011Z" fill="#263238"/>
<path d="M72.8576 146.41C72.8848 146.461 73.1599 146.359 73.4774 146.353C73.7948 146.346 74.0821 146.431 74.1032 146.377C74.1244 146.322 73.8644 146.138 73.4744 146.15C73.0843 146.162 72.8243 146.368 72.8576 146.41Z" fill="#263238"/>
<path d="M72.5339 145.109C72.7362 145.148 72.9454 145.131 73.1382 145.058C73.3488 145 73.5517 144.917 73.7425 144.81C73.8577 144.748 73.9678 144.678 74.0719 144.599C74.1363 144.557 74.1935 144.505 74.2411 144.445C74.273 144.401 74.2902 144.348 74.2902 144.294C74.2902 144.239 74.273 144.186 74.2411 144.142C74.2079 144.105 74.1668 144.076 74.1208 144.056C74.0748 144.037 74.025 144.028 73.9752 144.031C73.8987 144.038 73.8235 144.055 73.7516 144.082C73.627 144.123 73.5066 144.175 73.392 144.239C73.1972 144.348 73.0208 144.486 72.8693 144.65C72.6155 144.928 72.537 145.155 72.5672 145.164C72.5974 145.173 72.7152 144.988 72.9811 144.753C73.1347 144.616 73.3053 144.499 73.4887 144.405C73.5965 144.351 73.7087 144.307 73.8241 144.272C73.948 144.227 74.0538 144.218 74.093 144.272C74.1323 144.327 74.1081 144.3 74.093 144.339C74.0575 144.383 74.0158 144.422 73.9692 144.454C73.872 144.528 73.7712 144.598 73.667 144.662C73.4892 144.768 73.3021 144.858 73.108 144.931C72.9125 144.976 72.7206 145.036 72.5339 145.109Z" fill="#263238"/>
<g opacity="0.3">
<path d="M78.4682 144.836L78.5619 146.193L72.8361 146.634L72.7424 145.401L78.4682 144.836Z" fill="black"/>
</g>
<path d="M89.1131 140.989L89.6238 150.577L84.457 150.954L83.9282 141.352L89.1131 140.989Z" fill="#5D5E5F"/>
<path d="M87.0525 150.401C87.0102 150.401 86.8893 148.304 86.7835 145.715C86.6778 143.125 86.6295 141.022 86.6718 141.022C86.7141 141.022 86.8349 143.119 86.9407 145.709C87.0464 148.298 87.0948 150.398 87.0525 150.401Z" fill="#263238"/>
<path d="M89.5875 149.914L84.4207 150.277L84.4569 150.953L89.6237 150.576L89.5875 149.914Z" fill="#263238"/>
<path d="M84.2876 147.884C84.2876 147.884 84.3208 147.799 84.4115 147.669C84.5394 147.483 84.6851 147.31 84.8466 147.152C85.087 146.914 85.3595 146.711 85.6563 146.548C86.0216 146.345 86.4292 146.229 86.8468 146.21C87.2253 146.19 87.6036 146.249 87.9582 146.383C88.3128 146.516 88.636 146.722 88.9075 146.986C89.0703 147.146 89.2097 147.328 89.3214 147.527C89.3686 147.597 89.4005 147.676 89.4151 147.76C89.2452 147.511 89.053 147.279 88.841 147.065C88.2993 146.58 87.5882 146.328 86.8619 146.364C86.1384 146.422 85.457 146.727 84.9312 147.228C84.5082 147.609 84.3118 147.902 84.2876 147.884Z" fill="#263238"/>
<g opacity="0.3">
<path d="M89.3609 144.858L89.3699 146.179L84.1971 146.209L84.1306 145.012L89.3609 144.858Z" fill="black"/>
</g>
<path d="M76.6313 33.4649L76.7944 33.4256C77.0527 32.9847 77.4172 32.6155 77.8547 32.3516C78.2922 32.0877 78.7888 31.9376 79.2993 31.9148C80.3239 31.8946 81.3168 32.2714 82.07 32.9663C82.5988 33.4316 83.0157 34.0148 83.5475 34.4771C84.0793 34.9394 84.7833 35.2899 85.4722 35.1448C85.5568 35.4017 85.0764 35.5558 85.1066 35.8247C85.1207 35.8879 85.1547 35.945 85.2037 35.9874C85.2526 36.0299 85.314 36.0554 85.3786 36.0604C85.5675 36.077 85.7576 36.077 85.9466 36.0604C86.0412 36.0542 86.1354 36.0776 86.2161 36.1274C86.2968 36.1772 86.36 36.251 86.3968 36.3383C86.4128 36.4295 86.4045 36.5233 86.3726 36.6103C86.194 37.4252 85.809 38.1805 85.2547 38.8039C84.9749 39.1121 84.6243 39.3477 84.2332 39.4903C83.8421 39.633 83.4222 39.6784 83.0097 39.6227C82.357 39.4988 81.8011 39.0728 81.2935 38.6589L78.3445 36.296C77.8746 35.9507 77.4529 35.5442 77.0905 35.0874C76.7313 34.6274 76.5664 34.045 76.6313 33.4649Z" fill="#263238"/>
<path d="M77.2355 33.6159C76.8397 33.2827 76.369 33.0504 75.8637 32.939C75.6113 32.8836 75.3502 32.8799 75.0962 32.9282C74.8423 32.9765 74.6007 33.0758 74.3862 33.22C74.0233 33.5367 73.7168 33.9127 73.4798 34.332C73.3605 34.5403 73.2007 34.7225 73.0097 34.8678C72.8187 35.0131 72.6004 35.1186 72.3679 35.178C72.2834 35.1785 72.2012 35.2049 72.1322 35.2535C72.0234 35.3562 72.102 35.5557 72.2379 35.6161C72.38 35.6644 72.534 35.6644 72.676 35.6161C72.4384 35.8925 72.1111 36.0764 71.7515 36.1358C71.7719 36.2239 71.8099 36.3071 71.863 36.3803C71.9162 36.4535 71.9835 36.5154 72.061 36.5621C72.1384 36.6089 72.2245 36.6396 72.314 36.6526C72.4036 36.6655 72.4949 36.6603 72.5824 36.6374C72.4217 37.1889 72.3303 37.7583 72.3104 38.3324C72.2908 38.9111 72.4868 39.4764 72.8604 39.9187C73.2924 40.3841 73.9904 40.6409 74.1777 41.2452" fill="#263238"/>
<path d="M81.366 53.8595L73.6943 53.7628L74.5524 47.2122C74.5524 47.2122 74.0267 47.1004 73.9935 44.2571C73.9602 41.4139 73.8273 36.5855 73.8273 36.5855C75.4441 35.8927 77.2165 35.6442 78.9615 35.8657C80.7064 36.0873 82.3606 36.7707 83.753 37.8455L84.173 38.1718L81.366 53.8595Z" fill="#FFBE9D"/>
<path d="M83.2787 41.6617C83.327 41.6406 85.2336 41.0846 85.1702 43.0275C85.1067 44.9703 83.1699 44.508 83.1699 44.4536C83.1699 44.3992 83.2787 41.6617 83.2787 41.6617Z" fill="#FFBE9D"/>
<path d="M74.1563 41.2579C74.108 41.2367 72.3767 40.7714 72.4371 42.7143C72.4975 44.6571 74.4373 44.1918 74.4404 44.1374C74.4434 44.083 74.1563 41.2579 74.1563 41.2579Z" fill="#FFBE9D"/>
<path d="M83.913 41.4472C83.6109 43.0728 83.6803 43.9309 83.4114 45.0156C82.9854 46.7379 82.1303 48.0583 80.5803 48.9164C79.0302 49.7745 76.9333 49.7594 75.6008 48.5901C74.6762 47.7803 74.0236 46.8617 73.8846 45.638C73.7456 44.4143 73.3891 42.121 73.38 40.8912C73.3649 38.6734 73.4374 36.6823 73.4374 36.6823L79.7826 35.5371L83.3873 37.6794L83.913 41.4472Z" fill="#263238"/>
<path d="M77.3745 49.8988C77.729 50.0338 78.114 50.0673 78.4864 49.9955C78.8638 49.9819 79.2304 49.866 79.547 49.6601C79.5288 49.6117 79.0605 49.7568 78.4653 49.8202C77.87 49.8837 77.3806 49.8474 77.3745 49.8988Z" fill="#263238"/>
<path d="M83.605 44.2155C83.7923 42.5446 83.9071 40.638 84.173 38.8795C84.2697 38.2178 84.5054 37.266 84.448 36.6012C84.3906 35.9365 84.2063 36.139 83.9132 35.5377C83.5445 34.7823 82.1365 34.2777 81.3116 34.1115C80.4868 33.9453 80.384 33.2353 79.7525 33.7882C79.5204 33.4409 79.188 33.1725 78.7996 33.0186C78.4113 32.8648 77.9852 32.8328 77.5782 32.9269C77.1712 33.0211 76.8025 33.2368 76.5211 33.5456C76.2397 33.8543 76.0589 34.2414 76.0028 34.6554C75.7755 34.4381 75.4829 34.3019 75.1703 34.2678C74.8578 34.2337 74.5427 34.3037 74.2739 34.4668C74.0051 34.63 73.7976 34.8772 73.6835 35.1702C73.5695 35.4632 73.5552 35.7857 73.643 36.0876C73.4143 36.1258 73.1987 36.2203 73.0157 36.3627C72.8326 36.505 72.6879 36.6908 72.5947 36.9031C72.5014 37.1154 72.4625 37.3476 72.4815 37.5787C72.5005 37.8098 72.5767 38.0326 72.7033 38.2268C73.0055 38.677 73.5252 38.9278 73.8485 39.3569C74.0323 39.609 74.1392 39.9088 74.1564 40.2203C74.1735 40.5318 74.1002 40.8416 73.9452 41.1124" fill="#263238"/>
<path d="M75.4406 43.8682C75.3788 44.4473 75.4544 45.0328 75.6612 45.5772C75.868 46.1216 76.2003 46.6096 76.6311 47.0015C76.6734 46.9652 76.1567 46.3972 75.8304 45.5119C75.5041 44.6266 75.495 43.8652 75.4406 43.8682Z" fill="#455A64"/>
<path d="M74.5887 42.4502C74.4105 42.9451 74.3658 43.4783 74.4592 43.996C74.5525 44.5137 74.7806 44.9977 75.1205 45.3992C74.9166 44.9383 74.7548 44.46 74.637 43.97C74.486 43.1361 74.6431 42.4593 74.5887 42.4502Z" fill="#455A64"/>
<path d="M82.5716 35.7311C82.1123 34.9492 81.4204 34.3302 80.5925 33.9605C80.1781 33.7832 79.7241 33.7194 79.277 33.7757C78.8299 33.832 78.4058 34.0063 78.0483 34.2808" fill="#263238"/>
<path d="M82.4114 40.033C82.3973 39.8395 82.4177 39.6451 82.4718 39.4589C82.5624 39.0162 82.612 38.5661 82.6198 38.1143C82.6158 37.6672 82.5126 37.2265 82.3177 36.8241C82.1636 36.522 82.0155 36.3618 82.0367 36.3346C82.0578 36.3074 82.2542 36.4343 82.4567 36.7456C82.7059 37.1572 82.8356 37.6301 82.8313 38.1113C82.8291 38.5807 82.7568 39.0471 82.6168 39.4951C82.5834 39.6859 82.5137 39.8685 82.4114 40.033Z" fill="#455A64"/>
<path d="M81.1 40.6774C81.0426 40.6442 81.1997 40.2604 81.3538 39.7709C81.5079 39.2814 81.6016 38.8856 81.656 38.8917C81.7103 38.8977 81.7194 39.3358 81.5593 39.8404C81.3991 40.345 81.1634 40.7076 81.1 40.6774Z" fill="#455A64"/>
<path d="M75.0147 40.1758C74.8104 39.9877 74.6593 39.749 74.5766 39.4839C74.3236 38.8584 74.2585 38.1728 74.3893 37.5109C74.5213 36.85 74.845 36.2426 75.3199 35.7644C75.4998 35.5522 75.7306 35.389 75.9907 35.29C76.0118 35.3203 75.758 35.4985 75.4377 35.8702C75.0198 36.3503 74.7344 36.9312 74.6098 37.5555C74.4853 38.1798 74.5259 38.8258 74.7277 39.4295C74.8788 39.8948 75.0449 40.1577 75.0147 40.1758Z" fill="#455A64"/>
<path d="M81.9399 32.9491C81.723 32.8855 81.5142 32.7973 81.3174 32.6862C80.841 32.4521 80.3193 32.3243 79.7885 32.3116C79.5295 32.3065 79.2722 32.3558 79.0333 32.4563C78.7945 32.5567 78.5793 32.7061 78.4017 32.8947C78.2692 33.0692 78.1509 33.2542 78.0482 33.4477C78.024 33.4477 78.0149 33.1455 78.2778 32.795C78.4341 32.5874 78.6356 32.4179 78.867 32.2995C79.1494 32.1615 79.4591 32.0882 79.7734 32.085C80.3382 32.0952 80.8904 32.2536 81.3748 32.5442C81.7676 32.7557 81.955 32.9249 81.9399 32.9491Z" fill="#455A64"/>
<path d="M73.2745 34.7488C73.2503 34.7488 73.2956 34.5222 73.5011 34.2351C73.7743 33.8583 74.1653 33.583 74.6122 33.4528C75.0592 33.3226 75.5367 33.3449 75.9696 33.516C76.299 33.652 76.4531 33.8182 76.438 33.8182C76.4229 33.8182 76.2355 33.7426 75.9213 33.655C75.5146 33.5367 75.0827 33.5367 74.676 33.655C74.2694 33.7733 73.9048 34.0049 73.6249 34.3228C73.4044 34.5766 73.3077 34.7639 73.2745 34.7488Z" fill="#455A64"/>
<path d="M75.3652 41.8928C75.3652 41.8656 75.6674 41.781 76.1901 41.5514C76.8836 41.2388 77.5182 40.8096 78.0665 40.2823L78.4321 39.9258L78.2327 40.3971C78.106 40.6938 78.0138 41.0041 77.9577 41.3217C77.9275 41.4788 77.9003 41.6813 77.9577 41.7085C78.0151 41.7357 78.1752 41.6722 78.3203 41.5695C78.8102 41.2527 79.2492 40.8636 79.6226 40.4153L79.961 40.0134L79.8069 40.515L79.3778 41.9049L79.2328 41.8173C79.7065 41.3459 80.1233 40.8206 80.4746 40.2521C80.4319 40.4326 80.3583 40.6043 80.2571 40.7597C80.0109 41.1944 79.7059 41.593 79.3506 41.9442L79.1119 42.1798L79.2026 41.8535L79.5984 40.4545L79.7827 40.5512C79.3992 41.0219 78.9446 41.4297 78.4351 41.7598C78.3549 41.8139 78.2711 41.8623 78.1843 41.9049C78.1275 41.935 78.0637 41.9495 77.9995 41.9468C77.9352 41.9442 77.8728 41.9245 77.8187 41.8898C77.772 41.8483 77.7361 41.7961 77.714 41.7377C77.6919 41.6793 77.6843 41.6164 77.6918 41.5544C77.6918 41.4516 77.716 41.3701 77.7311 41.2824C77.792 40.949 77.8935 40.6243 78.0332 40.3156L78.1994 40.4304C77.6298 40.9671 76.9605 41.3869 76.2294 41.6662C75.9555 41.7879 75.6636 41.8644 75.3652 41.8928Z" fill="#455A64"/>
<path d="M79.0727 34.3992C79.0084 34.284 78.9219 34.1828 78.8182 34.1013C78.7144 34.0199 78.5955 33.9599 78.4683 33.9249C78.2101 33.8599 77.9407 33.8537 77.6797 33.9067C77.0353 34.0251 76.4514 34.3623 76.027 34.8615C75.9333 34.9764 75.8487 35.1637 75.9484 35.2604C76.0099 35.3102 76.0868 35.3369 76.166 35.3359C77.1215 35.4151 78.083 35.3806 79.0304 35.2332" fill="#263238"/>
<path d="M83.3329 53.0353C83.1963 53.0401 83.0595 53.0299 82.925 53.005L81.8222 52.8751C80.8916 52.7663 79.6014 52.6304 78.1752 52.5246C76.7491 52.4189 75.4559 52.3675 74.5162 52.3403L73.4042 52.3071C73.2676 52.3111 73.1309 52.3009 72.9963 52.2769C73.1311 52.2542 73.2676 52.2441 73.4042 52.2466C73.6671 52.2466 74.0478 52.2285 74.5192 52.2285C75.4589 52.2285 76.7551 52.2617 78.1873 52.3675C79.6195 52.4733 80.9067 52.6274 81.8373 52.7663C82.3026 52.8328 82.6773 52.8963 82.9341 52.9446C83.0696 52.962 83.2032 52.9924 83.3329 53.0353Z" fill="#455A64"/>
<path d="M86.7744 90.5576L90.0558 144.836L82.1998 145.156C82.1998 145.156 80.2177 124.033 78.574 114.884C76.9303 105.735 76.5164 101.973 76.5164 101.973L77.9667 91.4852L86.7744 90.5576Z" fill="#263238"/>
<path d="M66.6995 92.3995C66.2271 97.3485 66.2271 102.331 66.6995 107.28C67.4761 115.665 71.1925 146.134 71.1925 146.134L79.4141 145.487C79.4141 145.487 76.9968 109.377 78.284 103.573L83.9282 98.1736L84.735 89.6348L66.6995 92.3995Z" fill="#263238"/>
<path d="M84.3271 96.9385C84.2942 96.9798 84.2578 97.0183 84.2183 97.0533L83.8859 97.3554L82.629 98.5036L78.3263 102.368L78.3535 102.314C78.3384 102.985 78.3203 103.679 78.3021 104.393C78.2236 107.197 78.1511 109.732 78.0967 111.59C78.0635 112.496 78.0363 113.237 78.0181 113.768C78.003 114.013 77.994 114.209 77.9879 114.373C77.9877 114.442 77.9807 114.51 77.9668 114.578C77.9596 114.509 77.9596 114.439 77.9668 114.37V113.765C77.9668 113.23 77.9849 112.49 77.997 111.584C78.0393 109.726 78.0937 107.187 78.1571 104.387C78.1752 103.673 78.1934 102.978 78.2115 102.308V102.274L78.2387 102.25L82.5746 98.4251L83.8617 97.3101L84.2092 97.008C84.2458 96.9806 84.2854 96.9573 84.3271 96.9385Z" fill="#455A64"/>
<path d="M88.9832 56.0693C88.9832 56.0693 91.1134 57.9004 91.4488 59.5713C91.7842 61.2422 92.8387 77.927 92.4489 79.4861C92.0591 81.0452 87.9166 90.5569 87.9166 90.5569L86.7715 81.2658V71.9897L88.9832 56.0693Z" fill="#263238"/>
<path d="M60.0977 93.3994L59.6716 94.9857L64.2643 95.9798L64.6209 94.4539L60.0977 93.3994Z" fill="white"/>
<path d="M65.696 94.0862V96.2889L82.1512 95.8598C82.1512 95.8598 82.9821 90.6205 83.0758 90.9015C83.1695 91.1825 84.6651 95.8598 84.6651 95.8598H89.6537L87.2062 75.3286L88.998 56.0695L82.8099 52.7458L82.1663 51.4133C82.1663 51.4133 75.4918 50.7426 73.7061 51.0598L73.0716 52.6522L70.6967 53.4982L66.6992 75.3256L65.696 94.0862Z" fill="#263238"/>
<path d="M66.7388 54.3158L71.6185 52.5361L73.6006 50.7564C74.784 50.2954 76.0109 49.9553 77.2627 49.7412C79.4986 49.3333 81.7346 50.4029 81.7346 50.4029L83.0066 52.2309L89.3216 56.8085L88.7173 74.294L69.6817 75.6688L66.7388 54.3158Z" fill="#263238"/>
<path d="M63.0739 72.6939C63.228 72.4884 63.8927 57.97 64.1465 56.8007C64.4003 55.6314 65.8748 54.2596 66.739 54.311C67.6031 54.3623 71.9752 57.5108 71.9752 63.2063C71.9752 68.9019 69.6366 80.1872 69.6366 80.1872L64.9079 94.5213L59.6716 93.3127L63.1282 72.3676" fill="#263238"/>
<path d="M71.6851 52.651C75.3935 51.4434 79.3727 51.3384 83.1396 52.3488L71.6851 52.651Z" fill="#263238"/>
<path d="M83.1396 52.3492C82.9872 52.3373 82.8363 52.3099 82.6894 52.2677C82.4023 52.2042 81.9854 52.1226 81.4808 52.035C80.1328 51.8142 78.7673 51.7192 77.4017 51.751C76.037 51.7908 74.6793 51.9608 73.3469 52.2586C72.8362 52.3734 72.4223 52.4762 72.1383 52.5608C71.9938 52.6089 71.8451 52.6433 71.6941 52.6635C71.8312 52.5971 71.9737 52.5425 72.1201 52.5003C72.3981 52.4036 72.806 52.2828 73.3287 52.1529C76.0068 51.4871 78.7975 51.4108 81.508 51.9293C82.0277 52.032 82.4416 52.1287 82.7166 52.2133C82.8611 52.2467 83.0026 52.2922 83.1396 52.3492Z" fill="#455A64"/>
<path d="M88.394 61.8486V61.9242C88.394 61.9816 88.394 62.0541 88.3789 62.1387C88.3607 62.3411 88.3396 62.6191 88.3094 62.9696C88.2429 63.6887 88.1523 64.7312 88.0465 66.0213C87.8441 68.5957 87.5933 72.1641 87.6628 76.1072C87.7434 79.473 88.0178 82.8315 88.4846 86.1658C88.6538 87.4348 88.7868 88.4682 88.8925 89.1873C88.9378 89.5348 88.9741 89.8128 89.0013 90.0122C89.0013 90.0998 89.0164 90.1693 89.0255 90.2297C89.0345 90.2902 89.0255 90.3022 89.0255 90.3022C89.0154 90.2791 89.0083 90.2547 89.0043 90.2297C89.0043 90.1723 88.9802 90.1028 88.965 90.0182L88.8291 89.1964C88.7112 88.4833 88.5511 87.4499 88.3698 86.1749C87.8733 82.8412 87.5857 79.4797 87.5087 76.1102C87.4705 72.7389 87.6147 69.368 87.9408 66.0123C88.0586 64.7221 88.1643 63.6827 88.2429 62.9636C88.2852 62.6161 88.3184 62.3381 88.3426 62.1357C88.3426 62.0511 88.3638 61.9786 88.3698 61.9211C88.374 61.8959 88.3822 61.8714 88.394 61.8486Z" fill="#455A64"/>
<path d="M71.9752 63.2051C71.9752 68.8976 69.6366 80.186 69.6366 80.186L64.9079 94.5201L59.6716 93.3115L63.1282 72.3663" fill="#263238"/>
<path d="M63.1279 72.3548C63.1319 72.3899 63.1319 72.4254 63.1279 72.4605C63.1279 72.5331 63.1037 72.6328 63.0856 72.7627L62.9043 73.929C62.7411 74.9533 62.5024 76.4368 62.2063 78.2951C61.602 82.0236 60.7439 87.2599 59.7558 93.312L59.6984 93.2274L64.9347 94.436L64.8441 94.4874L65.7264 91.8043C67.1072 87.6316 68.4155 83.6734 69.5788 80.1533C70.585 75.1829 71.2557 70.9437 71.6093 67.9434C71.7966 66.4326 71.8751 65.2542 71.9295 64.4384C71.9537 64.0335 71.9567 63.7193 71.9688 63.5078C71.9688 63.4081 71.9688 63.3265 71.9688 63.2691C71.9649 63.242 71.9649 63.2146 71.9688 63.1875C71.9722 63.2146 71.9722 63.242 71.9688 63.2691V63.5289C71.9688 63.7404 71.9688 64.0547 71.9688 64.4626C71.9295 65.2784 71.8631 66.4719 71.6908 67.9736C71.3585 70.9951 70.7088 75.2252 69.7117 80.2017C68.5545 83.7217 67.2522 87.6829 65.8774 91.8556C65.5753 92.7772 65.2731 93.6837 64.9921 94.5388L64.968 94.6082L64.8985 94.5901L59.6652 93.3815L59.5957 93.3634V93.2939L62.1005 78.283C62.4027 76.4308 62.6686 74.9593 62.8408 73.926C62.9315 73.4244 62.9979 73.0346 63.0463 72.7627C63.0704 72.6358 63.0886 72.5361 63.1037 72.4605C63.1188 72.385 63.1279 72.3548 63.1279 72.3548Z" fill="#455A64"/>
<path d="M63.0735 72.693C63.2276 72.4875 63.8923 57.9691 64.1461 56.7998L63.0735 72.693Z" fill="#263238"/>
<path d="M64.1463 56.7998C64.153 56.854 64.153 56.9088 64.1463 56.963C64.1463 57.0838 64.1342 57.2379 64.11 57.4253C64.0828 57.8483 64.0466 58.4254 64.0012 59.1264C63.9197 60.5858 63.8079 62.5649 63.6991 64.7494C63.5903 66.934 63.4513 68.9342 63.3486 70.3725C63.2459 71.8107 63.1492 72.702 63.1008 72.693C63.1008 72.693 63.1008 72.6386 63.1008 72.5328C63.1008 72.4271 63.119 72.2549 63.131 72.0675C63.1552 71.6445 63.1854 71.0674 63.2247 70.3664C63.3033 68.904 63.412 66.9279 63.5269 64.7403C63.6417 62.5528 63.7776 60.5556 63.8925 59.1203C63.9469 58.4012 64.0012 57.8181 64.0496 57.4192C64.0738 57.2168 64.0979 57.0627 64.1161 56.9569C64.1187 56.9034 64.1288 56.8505 64.1463 56.7998Z" fill="#455A64"/>
<path d="M71.289 59.976C71.2588 59.976 71.1953 59.562 70.9868 58.9214C70.8566 58.5459 70.697 58.1811 70.5094 57.8307C70.279 57.4055 70.0121 57.0011 69.7118 56.6221C69.4045 56.2456 69.0659 55.8958 68.6995 55.5766C68.3975 55.3198 68.0763 55.0865 67.7387 54.8786C67.1616 54.5221 66.7658 54.368 66.7779 54.3408C66.8762 54.358 66.9718 54.3885 67.0619 54.4315C67.316 54.5275 67.5616 54.6448 67.7961 54.782C68.1479 54.981 68.4815 55.2105 68.7932 55.4678C69.1732 55.7856 69.5223 56.1387 69.8356 56.5224C70.1415 56.9126 70.4106 57.3303 70.6394 57.7702C70.8221 58.1303 70.9737 58.5053 71.0926 58.8912C71.147 59.0544 71.1772 59.2085 71.2104 59.3414C71.2386 59.4548 71.2598 59.5699 71.2739 59.6859C71.2906 59.7816 71.2956 59.879 71.289 59.976Z" fill="#455A64"/>
<path d="M88.6356 56.1689C88.7047 56.3632 88.7424 56.5672 88.7474 56.7732C88.8455 57.7602 88.7874 58.7564 88.5751 59.7253C88.5471 59.9293 88.4859 60.1273 88.3938 60.3114C88.3485 60.3114 88.557 59.405 88.6205 58.2478C88.6839 57.0905 88.5902 56.175 88.6356 56.1689Z" fill="#455A64"/>
<path d="M85.2485 71.0042C85.2787 71.0375 83.0337 73.1495 80.2388 75.7269C77.4439 78.3042 75.1476 80.3649 75.1204 80.3317C75.0932 80.2984 77.3321 78.1864 80.13 75.609C82.928 73.0317 85.2213 70.974 85.2485 71.0042Z" fill="#455A64"/>
<path d="M82.807 90.5571C82.7922 90.4003 82.7922 90.2425 82.807 90.0857C82.807 89.7534 82.807 89.3213 82.8221 88.8016C82.8221 87.7169 82.8372 86.2182 82.7949 84.5715C82.7526 82.9247 82.668 81.42 82.5985 80.3413C82.5652 79.8216 82.535 79.3896 82.5139 79.0602C82.4993 78.9034 82.4993 78.7456 82.5139 78.5889C82.551 78.7417 82.5753 78.8973 82.5864 79.0542C82.6257 79.3563 82.671 79.7914 82.7193 80.3323C82.8191 81.414 82.9188 82.9127 82.9641 84.5624C83.0094 86.2121 82.9852 87.7199 82.946 88.7925C82.9248 89.3334 82.9006 89.7745 82.8795 90.0767C82.8684 90.2385 82.8441 90.3992 82.807 90.5571Z" fill="#455A64"/>
<path d="M89.6539 95.8581H89.5663H89.3004L88.2851 95.8763L84.5445 95.9156H84.5022V95.8763L82.8313 90.9723H82.9733C82.7467 92.4831 82.4989 94.1419 82.2391 95.8702V95.9367H82.1726L81.5683 95.9518L70.3615 96.2177L66.9653 96.2812H66.0438H65.802H66.0407L66.9653 96.2419L70.3585 96.1301L81.5653 95.8279L82.1696 95.8128L82.0699 95.8581L82.8132 90.9633L82.8585 90.6611L82.9552 90.9633L84.5989 95.8581L84.5445 95.8189H88.2851H89.3004H89.5663L89.6539 95.8581Z" fill="#455A64"/>
<path d="M60.2452 95.1094C60.2452 95.1094 59.2028 97.9405 59.5412 98.4844C59.8796 99.0283 61.5747 101.267 61.9373 101.267C62.2999 101.267 64.1158 100.723 64.1158 100.723C64.1158 100.723 65.5661 98.7624 65.3848 98.6083C65.2035 98.4542 64.7201 97.8982 64.2971 98.6083L63.2668 99.7383L62.9042 98.288C62.9042 98.288 63.6565 96.7773 64.0795 95.9645L60.2452 95.1094Z" fill="#FFBE9D"/>
<path d="M59.4507 102.032L58.1937 102.102L55 120.095L69.609 120.482L71.706 120.213L69.3885 101.582L59.4507 102.032Z" fill="#455A64"/>
<path d="M56.8826 109.663H68.0833L68.5366 101.62L69.1106 120.48" fill="#455A64"/>
<path d="M69.1106 120.481C69.1074 120.448 69.1074 120.415 69.1106 120.382C69.1106 120.309 69.1106 120.215 69.1106 120.098C69.1106 119.838 69.0804 119.469 69.0623 119.001C69.026 118.04 68.9747 116.662 68.9142 114.964C68.8055 111.547 68.6514 106.836 68.4852 101.624H68.6423C68.6423 101.684 68.6423 101.751 68.6423 101.817C68.4822 104.624 68.3402 107.289 68.1951 109.673V109.743H68.1256L60.0461 109.713L57.7467 109.694L60.0461 109.673L68.1256 109.643L68.0561 109.713C68.1861 107.335 68.3341 104.67 68.4882 101.857C68.4882 101.79 68.4882 101.724 68.4882 101.663H68.6453C68.7934 106.875 68.9293 111.586 69.0291 115.006C69.0683 116.704 69.1016 118.082 69.1257 119.046C69.1257 119.514 69.1409 119.88 69.1439 120.143V120.427C69.134 120.446 69.1229 120.464 69.1106 120.481Z" fill="#263238"/>
<path d="M62.9407 98.4415C62.9407 98.4415 63.545 97.9339 64.104 98.3116C64.6629 98.6893 65.5362 101.756 65.5875 101.753C65.6389 101.75 63.9287 102.101 63.9287 102.101L62.9407 98.4415Z" fill="#455A64"/>
<path d="M60.638 99.9629C60.3515 100.64 60.2006 101.367 60.1938 102.102H61.4176L61.5173 100.969L60.638 99.9629Z" fill="#455A64"/>
<path d="M18.6974 64.9862C19.6686 60.3087 16.664 55.7294 11.9865 54.7582C7.30899 53.787 2.72978 56.7915 1.75855 61.4691C0.787332 66.1466 3.79188 70.7258 8.4694 71.697C13.1469 72.6683 17.7261 69.6637 18.6974 64.9862Z" fill="#F5F5F5"/>
<path d="M14.1526 63.4922C14.0512 63.5095 13.9484 63.5171 13.8456 63.5151H13.0064C12.2945 63.5151 11.2986 63.5314 10.1786 63.5314H10.123V63.4759C10.123 63.2963 10.123 63.1069 10.123 62.9175C10.123 61.6636 10.123 60.5305 10.1394 59.7076C10.1394 59.3125 10.1394 58.986 10.159 58.728C10.155 58.6089 10.1626 58.4897 10.1818 58.3721C10.2008 58.4975 10.2106 58.624 10.2112 58.7509C10.2112 59.0023 10.2112 59.3288 10.2308 59.7305C10.2308 60.5534 10.2308 61.6897 10.2308 62.9404V63.4987L10.1786 63.453C11.2986 63.453 12.2945 63.453 13.0064 63.4726H13.8456C13.9483 63.4709 14.0509 63.4774 14.1526 63.4922Z" fill="#E0E0E0"/>
<path d="M10.2109 55.998C10.2652 56.2369 10.2839 56.4824 10.2665 56.7267C10.284 56.9699 10.2653 57.2143 10.2109 57.452C10.1547 57.2146 10.1359 56.9699 10.1554 56.7267C10.1361 56.4824 10.1548 56.2366 10.2109 55.998Z" fill="#E0E0E0"/>
<path d="M14.1468 57.165C14.0188 57.3699 13.8614 57.5549 13.6795 57.714C13.5205 57.8958 13.3355 58.0532 13.1306 58.1812C13.2586 57.9763 13.416 57.7913 13.5979 57.6323C13.7569 57.4505 13.9419 57.293 14.1468 57.165Z" fill="#E0E0E0"/>
<path d="M16.4488 59.6816C16.269 59.8401 16.0691 59.9742 15.8541 60.0803C15.6599 60.2209 15.4493 60.3372 15.2268 60.4266C15.3867 60.2449 15.5796 60.0952 15.7953 59.9855C15.9921 59.844 16.2138 59.7409 16.4488 59.6816Z" fill="#E0E0E0"/>
<path d="M17.7998 63.4169C17.4764 63.4724 17.1478 63.491 16.8202 63.4724C16.4926 63.4911 16.164 63.4725 15.8406 63.4169C16.1642 63.3633 16.4926 63.3447 16.8202 63.3614C17.1478 63.3447 17.4762 63.3633 17.7998 63.4169Z" fill="#E0E0E0"/>
<path d="M4.06224 63.2857C3.753 63.34 3.43855 63.3586 3.12507 63.3412C2.81267 63.3587 2.49928 63.3401 2.19116 63.2857C2.49905 63.2293 2.81267 63.2106 3.12507 63.2302C3.43855 63.2108 3.75323 63.2294 4.06224 63.2857Z" fill="#E0E0E0"/>
<path d="M5.03325 66.0664C4.82589 66.3102 4.59129 66.5295 4.33403 66.7199C4.09569 66.9326 3.83495 67.1189 3.5564 67.2753C3.76436 67.0298 4.00134 66.8104 4.26215 66.6219C4.49542 66.4058 4.7544 66.2192 5.03325 66.0664Z" fill="#E0E0E0"/>
<path d="M7.42905 68.2178C7.28978 68.5085 7.1282 68.788 6.94577 69.0537C6.79594 69.3385 6.62455 69.6114 6.43311 69.8701C6.52836 69.5623 6.66925 69.2706 6.85108 69.0047C7.00321 68.7149 7.19804 68.4496 7.42905 68.2178Z" fill="#E0E0E0"/>
<path d="M10.2111 70.9925C10.1556 70.6691 10.137 70.3405 10.1556 70.0129C10.1346 69.6756 10.1532 69.3369 10.2111 69.0039C10.2647 69.3275 10.2833 69.6559 10.2666 69.9835C10.2854 70.3209 10.2668 70.6593 10.2111 70.9925Z" fill="#E0E0E0"/>
<path d="M14.4768 69.6578C14.1726 69.5213 13.895 69.3321 13.6567 69.0991C13.3986 68.8942 13.1776 68.6467 13.0032 68.3672C13.2606 68.5719 13.5071 68.79 13.7416 69.0207C13.9972 69.2205 14.2426 69.4332 14.4768 69.6578Z" fill="#E0E0E0"/>
<path d="M16.478 67.5127C16.2374 67.3487 16.0179 67.1555 15.8246 66.9377C15.6058 66.7452 15.4126 66.5256 15.2495 66.2842C15.4907 66.4488 15.7102 66.6431 15.903 66.8625C16.1212 67.0543 16.3144 67.2727 16.478 67.5127Z" fill="#E0E0E0"/>
<path d="M4.94127 60.6232C4.72565 60.485 4.5309 60.3166 4.36295 60.1233C4.16886 59.9523 4.00049 59.7542 3.86304 59.5352C4.07927 59.6726 4.27413 59.841 4.44136 60.0351C4.63619 60.2053 4.80466 60.4035 4.94127 60.6232Z" fill="#E0E0E0"/>
<path d="M7.41664 58.0163C7.20329 57.8841 7.01154 57.7199 6.84811 57.5295C6.65682 57.365 6.49061 57.1735 6.35474 56.9609C6.56835 57.0954 6.76102 57.2605 6.92653 57.451C7.11578 57.6154 7.28079 57.8057 7.41664 58.0163Z" fill="#E0E0E0"/>
<path d="M74.4897 0H49V15.7751H74.4897V0Z" fill="#FAFAFA"/>
<path d="M68.3375 11.4066C66.571 10.7372 64.5366 12.5919 62.8059 11.8343C61.7969 11.3968 61.3398 10.2539 60.8467 9.27101C60.3536 8.28812 59.5014 7.25299 58.4075 7.36728C57.3135 7.48157 56.4123 8.75834 55.3478 8.45139C54.6751 8.25873 54.3388 7.51096 54.1722 6.83502C54.0057 6.15908 53.8849 5.40477 53.3755 4.92802C52.8661 4.45128 51.795 4.58189 51.7134 5.27416V13.6401H71.6454C71.6454 13.6401 68.9482 11.6417 68.3375 11.4066Z" fill="#EBEBEB"/>
<path d="M72.1778 13.6401C72.1778 13.6401 67.345 13.6695 61.402 13.6695C55.459 13.6695 50.6099 13.6695 50.6099 13.6401C50.6099 13.6107 55.4427 13.6074 61.402 13.6074C67.3614 13.6074 72.1778 13.6205 72.1778 13.6401Z" fill="#E0E0E0"/>
<path d="M72.1778 9.98773C72.1778 9.98773 67.345 10.0204 61.402 10.0204C55.459 10.0204 50.5935 9.98773 50.5935 9.98773C50.5935 9.98773 55.4263 9.95508 61.3857 9.95508C67.345 9.95508 72.1778 9.96488 72.1778 9.98773Z" fill="#E0E0E0"/>
<path d="M72.1778 6.33246C72.1778 6.35205 67.345 6.36511 61.402 6.36511C55.459 6.36511 50.6099 6.36511 50.6099 6.33246C50.6099 6.29981 55.4427 6.2998 61.402 6.2998C67.3614 6.2998 72.1778 6.31613 72.1778 6.33246Z" fill="#E0E0E0"/>
<path d="M72.1778 2.86078C72.1778 2.8771 67.345 2.89343 61.402 2.89343C55.459 2.89343 50.6099 2.8771 50.6099 2.86078C50.6099 2.84445 55.4427 2.82812 61.402 2.82812C67.3614 2.82812 72.1778 2.84118 72.1778 2.86078Z" fill="#E0E0E0"/>
<path d="M118.406 53.0346C118.389 53.085 118.382 53.1385 118.386 53.1918C118.39 53.245 118.406 53.2968 118.431 53.3438C118.457 53.3908 118.491 53.4319 118.534 53.4647C118.576 53.4975 118.624 53.5211 118.676 53.5341L123.646 54.9678C123.696 54.9822 123.747 54.9868 123.798 54.9813C123.849 54.9758 123.899 54.9603 123.944 54.9358C123.989 54.9112 124.028 54.878 124.06 54.838C124.093 54.7981 124.117 54.7522 124.131 54.703C124.145 54.6538 124.15 54.6023 124.145 54.5513C124.139 54.5003 124.124 54.4509 124.099 54.4059C124.074 54.3609 124.041 54.3212 124.001 54.289C123.961 54.2569 123.915 54.2329 123.866 54.2185L118.871 52.7848C118.776 52.7618 118.677 52.7746 118.591 52.8207C118.505 52.8668 118.439 52.943 118.406 53.0346ZM123.462 55.5972L118.466 54.1635C118.416 54.1467 118.363 54.1402 118.31 54.1445C118.258 54.1488 118.206 54.1638 118.16 54.1886C118.113 54.2133 118.072 54.2474 118.038 54.2886C118.005 54.3298 117.981 54.3773 117.967 54.4283C117.771 55.1845 117.879 55.9871 118.266 56.6652C118.654 57.3433 119.291 57.8433 120.042 58.0588C120.792 58.2743 121.598 58.1883 122.286 57.819C122.974 57.4498 123.491 56.8264 123.726 56.0817C123.741 56.0329 123.746 55.9816 123.74 55.931C123.734 55.8803 123.719 55.8312 123.694 55.7866C123.67 55.742 123.636 55.7027 123.596 55.671C123.557 55.6394 123.511 55.616 123.462 55.6022V55.5972ZM124.011 44.3276C124.398 44.0401 124.655 43.6106 124.725 43.1337C124.724 43.0601 124.698 42.989 124.651 42.9326C124.603 42.8762 124.538 42.8378 124.466 42.824C124.398 42.7956 124.322 42.7926 124.253 42.8155C124.183 42.8385 124.124 42.8858 124.086 42.9489C123.986 43.1597 123.928 43.3884 123.917 43.6217C123.906 43.855 123.941 44.0882 124.021 44.3076L124.011 44.3276ZM121.728 45.9961H121.703C121.772 46.3468 121.811 46.7028 121.818 47.0601C121.798 48.6617 121.511 50.2487 120.969 51.7557C120.934 51.8756 120.894 52.0055 120.854 52.1254L120.729 52.535L122.443 53.0346C122.513 52.7848 122.587 52.535 122.652 52.2803C122.998 50.7196 123.597 49.2262 124.426 47.8593C124.621 47.5601 124.844 47.2793 125.09 47.0201C124.725 46.7489 124.403 46.4238 124.136 46.056C123.985 45.86 123.851 45.6511 123.736 45.4316C123.522 45.5544 123.298 45.6596 123.067 45.7463C122.636 45.8971 122.185 45.9813 121.728 45.9961ZM126.724 36.4649C125.026 35.8592 123.174 35.845 121.468 36.4244C119.761 37.0038 118.301 38.1428 117.323 39.6567C116.346 41.1705 115.908 42.9704 116.082 44.764C116.256 46.5577 117.031 48.24 118.281 49.5378C118.534 49.8072 118.713 50.1373 118.8 50.4962C118.888 50.855 118.881 51.2304 118.781 51.5859C118.756 51.6753 118.767 51.7709 118.812 51.8521C118.857 51.9334 118.932 51.9938 119.021 52.0205L120.08 52.3252C120.15 52.0804 120.225 51.8257 120.305 51.5559C120.825 50.1251 121.104 48.6175 121.129 47.0951C121.117 46.7237 121.072 46.3542 120.994 45.9911C120.374 45.9643 119.787 45.7079 119.345 45.2717C119.231 45.1451 119.163 44.9841 119.15 44.8141C119.137 44.6441 119.181 44.4748 119.276 44.3326C119.384 44.1672 119.545 44.0423 119.731 43.9773C119.918 43.9122 120.122 43.9107 120.31 43.9729C120.601 44.091 120.861 44.2752 121.069 44.511C121.277 44.7468 121.428 45.0278 121.508 45.3317C122.184 45.2926 122.841 45.0904 123.422 44.7422C123.27 44.3985 123.199 44.025 123.211 43.6497C123.224 43.2743 123.322 42.9067 123.497 42.5742C123.61 42.3869 123.782 42.2421 123.986 42.1621C124.19 42.0822 124.415 42.0715 124.625 42.1316C124.836 42.1918 125.021 42.3196 125.152 42.4952C125.283 42.6709 125.352 42.8847 125.35 43.1037C125.322 43.4795 125.21 43.844 125.021 44.1702C124.833 44.4963 124.573 44.7755 124.261 44.987C124.37 45.2029 124.499 45.4086 124.646 45.6014C124.902 45.9664 125.22 46.2842 125.585 46.5406C125.818 46.3303 126.097 46.1761 126.399 46.0895C126.701 46.0029 127.019 45.9864 127.328 46.041C127.521 46.0896 127.692 46.2008 127.815 46.3572C127.938 46.5136 128.006 46.7063 128.007 46.9052C128.012 47.0755 127.96 47.2424 127.858 47.3793C127.757 47.5161 127.612 47.6148 127.448 47.6595C126.842 47.7936 126.208 47.6974 125.67 47.3898C125.409 47.6527 125.175 47.9405 124.97 48.249C124.178 49.5602 123.608 50.9931 123.282 52.4901V52.57C123.222 52.7948 123.162 53.0146 123.097 53.2394L124.151 53.5391C124.241 53.5662 124.338 53.5573 124.421 53.5141C124.502 53.4661 124.563 53.3896 124.591 53.2993C124.696 52.9432 124.892 52.6208 125.16 52.364C125.428 52.1072 125.759 51.9251 126.119 51.8357C127.487 51.4832 128.736 50.7747 129.741 49.7823C130.746 48.7899 131.47 47.549 131.839 46.1859C132.358 44.2149 132.116 42.1209 131.162 40.3199C130.207 38.5189 128.611 37.1428 126.689 36.4649H126.724ZM119.85 44.7073C119.85 44.7422 119.85 44.7772 119.89 44.8521C120.09 45.0415 120.336 45.1743 120.604 45.2368L120.764 45.2767H120.794V45.2468C120.674 44.9618 120.454 44.7308 120.175 44.5974C120.144 44.5808 120.11 44.5705 120.075 44.5671C120.041 44.5636 120.005 44.5671 119.972 44.5774C119.939 44.5876 119.907 44.6043 119.88 44.6266C119.854 44.6489 119.831 44.6763 119.815 44.7073H119.85ZM127.288 46.9852C127.373 46.9502 127.403 46.9252 127.398 46.8753C127.398 46.8183 127.378 46.7632 127.341 46.7194C127.305 46.6756 127.254 46.6459 127.198 46.6355C126.89 46.5974 126.578 46.6757 126.324 46.8553H126.299H126.329C126.382 46.8788 126.437 46.8972 126.494 46.9102C126.736 47.0003 126.998 47.0261 127.253 46.9852H127.288Z" fill="#EBEBEB"/>
<path d="M45.9635 93.0998C45.9893 93.1488 46.0245 93.1923 46.0671 93.2276C46.1097 93.263 46.1589 93.2896 46.2118 93.3058C46.2648 93.3221 46.3204 93.3277 46.3755 93.3223C46.4306 93.317 46.4841 93.3008 46.533 93.2746L51.4934 90.6721C51.5921 90.6197 51.666 90.5303 51.6988 90.4235C51.7315 90.3167 51.7206 90.2013 51.6682 90.1026C51.6159 90.0039 51.5265 89.93 51.4197 89.8972C51.3129 89.8644 51.1975 89.8754 51.0988 89.9277L46.1433 92.5303C46.0454 92.5834 45.9718 92.6725 45.9383 92.7787C45.9047 92.885 45.9138 93.0001 45.9635 93.0998ZM51.8331 91.3165L46.8727 93.9191C46.7737 93.9686 46.6977 94.0545 46.6605 94.1587C46.6232 94.2629 46.6277 94.3775 46.6728 94.4785C47.0703 95.235 47.752 95.8027 48.568 96.0565C49.3839 96.3104 50.2673 96.2297 51.0238 95.8323C51.7803 95.4348 52.3479 94.7531 52.6018 93.9372C52.8557 93.1212 52.775 92.2378 52.3776 91.4813C52.325 91.3896 52.2393 91.3214 52.1381 91.2908C52.0368 91.2601 51.9277 91.2693 51.8331 91.3165ZM43.8405 82.1V82.075C43.9158 81.5706 43.7883 81.0569 43.4858 80.6463C43.4266 80.5963 43.3539 80.5651 43.2769 80.5566C43.1999 80.5481 43.1222 80.5628 43.0536 80.5987C42.9849 80.6346 42.9286 80.6902 42.8917 80.7583C42.8548 80.8264 42.839 80.9039 42.8464 80.981C43.0104 81.4641 43.3588 81.8627 43.8155 82.09L43.8405 82.1ZM43.286 85.1322C43.6032 85.3653 43.9006 85.6243 44.1752 85.9065C45.5089 87.2053 46.3082 88.8038 47.0225 90.2125C47.0875 90.3324 47.1524 90.4622 47.2123 90.5871L47.4072 90.9568L49.1206 90.0576C48.9857 89.8078 48.8608 89.5581 48.721 89.3133C47.822 87.836 47.1723 86.2209 46.7977 84.5327C46.7241 84.1525 46.6873 83.7661 46.6878 83.3788C45.9311 83.4666 45.1643 83.3899 44.4399 83.154C44.36 83.4083 44.2632 83.6569 44.1502 83.8983C43.9225 84.3525 43.6259 84.7687 43.271 85.1322H43.286ZM40.049 73.9575C38.285 74.767 36.8441 76.1455 35.9572 77.8719C35.0704 79.5982 34.789 81.5724 35.1582 83.4778C35.5274 85.3832 36.5258 87.1094 37.9933 88.3795C39.4608 89.6496 41.3124 90.3901 43.251 90.4822C43.6474 90.5007 44.0324 90.6207 44.3691 90.8306C44.7059 91.0405 44.9831 91.3334 45.1742 91.6811C45.2201 91.7678 45.2977 91.8334 45.3908 91.8641C45.4839 91.8948 45.5853 91.8883 45.6738 91.846L46.7328 91.2915C46.6029 91.0467 46.473 90.7919 46.3332 90.5222C45.6792 89.0181 44.7813 87.6324 43.6756 86.421C43.3886 86.1378 43.0759 85.8819 42.7415 85.6567C42.2352 86.0977 41.5846 86.3377 40.9132 86.3311C40.7295 86.3149 40.556 86.2394 40.419 86.1159C40.282 85.9924 40.189 85.8277 40.1539 85.6467C40.1184 85.4381 40.1501 85.2236 40.2444 85.0342C40.3386 84.8448 40.4906 84.6902 40.6784 84.5927C40.995 84.4683 41.3361 84.4189 41.6749 84.4483C42.0138 84.4778 42.3412 84.5853 42.6316 84.7625C42.9572 84.4208 43.2239 84.0275 43.4209 83.5986C43.5317 83.3637 43.6219 83.1197 43.6906 82.8693C43.3154 82.714 42.9799 82.4762 42.7093 82.1735C42.4386 81.8708 42.2396 81.511 42.127 81.1209C42.0957 80.8953 42.1346 80.6655 42.2384 80.4628C42.3423 80.2601 42.506 80.0943 42.7073 79.9879C42.9087 79.8815 43.1379 79.8396 43.3639 79.8681C43.5899 79.8965 43.8016 79.9938 43.9703 80.1468C44.2299 80.4614 44.415 80.8305 44.5119 81.2267C44.6088 81.6229 44.6149 82.0358 44.5298 82.4347C44.7767 82.5218 45.0308 82.587 45.2891 82.6295C45.7522 82.7067 46.2248 82.7067 46.6878 82.6295C46.7103 82.2874 46.8124 81.9553 46.9858 81.6596C47.1592 81.3638 47.3993 81.1127 47.6869 80.9261C47.8746 80.8228 48.0905 80.7826 48.3028 80.8114C48.515 80.8402 48.7124 80.9364 48.8658 81.0859C48.9941 81.2154 49.0755 81.3839 49.0972 81.5649C49.1189 81.7458 49.0797 81.9288 48.9857 82.085C48.616 82.6436 48.0514 83.0443 47.4022 83.2089C47.3945 83.6109 47.428 84.0127 47.5021 84.4078C47.8613 86.0223 48.4804 87.5677 49.3354 88.9836L49.3803 89.0585C49.5052 89.2783 49.6201 89.4981 49.735 89.7229L50.789 89.1684C50.8739 89.1208 50.9376 89.0428 50.9673 88.9501C50.997 88.8574 50.9904 88.7569 50.9489 88.6689C50.7631 88.3124 50.6745 87.9132 50.692 87.5116C50.7095 87.1099 50.8326 86.72 51.0488 86.381C51.8518 85.0812 52.2969 83.5921 52.339 82.0648C52.3811 80.5375 52.0187 79.0262 51.2886 77.6841C50.2181 75.7684 48.4688 74.3231 46.3856 73.6333C44.3023 72.9436 42.0362 73.0592 40.034 73.9575H40.049ZM40.8482 85.5368C40.8482 85.5818 40.8882 85.6017 40.9831 85.6217C41.2823 85.6227 41.5761 85.5415 41.8323 85.3869L41.9872 85.302H42.0171H41.9822C41.6755 85.168 41.3297 85.1538 41.0131 85.2621C40.9575 85.2824 40.91 85.3201 40.8776 85.3696C40.8452 85.4191 40.8296 85.4777 40.8332 85.5368H40.8482ZM48.3413 81.7503C48.3813 81.6604 48.3863 81.6204 48.3413 81.5804C48.2982 81.5367 48.2413 81.5093 48.1802 81.503C48.1192 81.4966 48.0578 81.5116 48.0066 81.5455C47.7413 81.7467 47.5627 82.0414 47.5071 82.3697V82.4047L47.6769 82.3198C47.9505 82.1988 48.1831 82.001 48.3463 81.7503H48.3413Z" fill="#EBEBEB"/>
<path d="M100.222 67.8353C100.742 67.6208 101.276 67.4438 101.821 67.3058C102.396 67.154 102.985 67.0586 103.579 67.021C104.218 66.9786 104.859 67.0004 105.493 67.086C106.204 67.1802 106.904 67.3476 107.581 67.5855C108.497 67.8909 109.357 68.343 110.128 68.9243C110.806 69.4327 111.375 70.0712 111.802 70.8025C112.204 71.5037 112.446 72.2849 112.511 73.0904C112.576 73.9581 112.457 74.8296 112.161 75.648C111.915 76.4128 111.527 77.1244 111.017 77.7461C110.586 78.2559 110.081 78.6987 109.519 79.0599C109.003 79.3858 108.45 79.6475 107.87 79.8392L106.277 80.3387C105.821 80.4853 105.375 80.6622 104.943 80.8682C104.582 81.0362 104.283 81.3142 104.089 81.6625L102.845 84.0053L99.9777 83.0062L100.647 80.1439C100.734 79.639 100.983 79.1762 101.356 78.8251C101.732 78.4923 102.159 78.2223 102.62 78.0258C103.129 77.8123 103.651 77.6321 104.184 77.4863C104.739 77.3352 105.282 77.1415 105.807 76.9069C106.325 76.6832 106.805 76.3816 107.231 76.0127C107.681 75.6085 108.014 75.0909 108.195 74.5141C108.331 74.1523 108.383 73.7647 108.349 73.3798C108.314 72.995 108.193 72.6229 107.995 72.2911C107.792 71.9522 107.524 71.6568 107.206 71.4219C106.854 71.1557 106.461 70.9483 106.042 70.8075C105.492 70.6037 104.914 70.4841 104.329 70.4528C103.894 70.437 103.459 70.4655 103.03 70.5378C102.66 70.6027 102.34 70.6726 102.076 70.7376C101.864 70.8 101.638 70.8 101.426 70.7376C101.242 70.687 101.077 70.5833 100.952 70.4393C100.827 70.2953 100.747 70.1176 100.722 69.9283L100.222 67.8353ZM97.1603 87.0625C97.2772 86.7188 97.4605 86.4014 97.6998 86.1284C97.9274 85.8673 98.204 85.6535 98.514 85.4989C99.1701 85.1882 99.9221 85.1488 100.607 85.389C100.955 85.5066 101.275 85.6954 101.546 85.9435C101.803 86.178 102.014 86.4573 102.171 86.7678C102.327 87.0792 102.419 87.419 102.44 87.7668C102.467 88.1294 102.418 88.4934 102.296 88.8359C102.183 89.1745 102.002 89.4868 101.765 89.7538C101.528 90.0208 101.24 90.237 100.917 90.3894C100.422 90.6135 99.8739 90.6903 99.337 90.6105C98.8001 90.5308 98.2975 90.2979 97.8896 89.9398C97.6286 89.7122 97.4147 89.4356 97.2602 89.1256C97.1079 88.8135 97.0212 88.4734 97.0054 88.1265C96.982 87.7567 97.0347 87.3861 97.1603 87.0375V87.0625Z" fill="#F0F0F0"/>
<path d="M46.8229 124.76C46.6556 125.321 46.4521 125.87 46.2134 126.404C45.9562 126.966 45.6503 127.504 45.2993 128.012C44.9175 128.553 44.4842 129.054 44.0055 129.511C43.4654 130.024 42.8746 130.481 42.2421 130.875C41.4005 131.42 40.476 131.825 39.5046 132.074C38.6512 132.291 37.7633 132.336 36.892 132.209C36.0637 132.079 35.2741 131.768 34.5792 131.299C33.8329 130.789 33.2044 130.124 32.7359 129.351C32.2738 128.656 31.9482 127.88 31.7768 127.063C31.6427 126.382 31.6107 125.685 31.6818 124.995C31.7556 124.366 31.9031 123.747 32.1214 123.152C32.3412 122.577 32.541 122.033 32.7359 121.523C32.9151 121.06 33.062 120.584 33.1755 120.1C33.2714 119.697 33.24 119.275 33.0855 118.891L31.9965 116.358L34.6591 114.675L36.5473 117.077C36.8982 117.478 37.1102 117.981 37.1518 118.511C37.1833 119.032 37.1259 119.554 36.9819 120.055C36.8255 120.604 36.6336 121.143 36.4075 121.668C36.1719 122.218 35.9766 122.784 35.823 123.362C35.67 123.925 35.6026 124.507 35.6232 125.09C35.6617 125.718 35.865 126.324 36.2127 126.848C36.4141 127.199 36.6922 127.499 37.0261 127.726C37.3601 127.954 37.7412 128.103 38.1409 128.162C38.5482 128.216 38.9621 128.191 39.3597 128.087C39.8039 127.971 40.227 127.785 40.6136 127.538C41.1355 127.228 41.6057 126.839 42.0073 126.384C42.305 126.042 42.5662 125.671 42.7866 125.275C42.9764 124.93 43.1263 124.631 43.2412 124.371C43.3259 124.157 43.4697 123.972 43.6558 123.836C43.8183 123.722 44.0102 123.657 44.2086 123.649C44.4071 123.641 44.6036 123.691 44.7747 123.791L46.8229 124.76ZM33.2254 109.774C33.4274 110.092 33.5648 110.447 33.63 110.818C33.7003 111.171 33.7003 111.534 33.63 111.887C33.5485 112.245 33.3993 112.584 33.1904 112.886C32.9662 113.206 32.6768 113.475 32.3412 113.676C32.0216 113.881 31.6626 114.017 31.2872 114.075C30.9292 114.135 30.5631 114.126 30.2082 114.05C29.6588 113.927 29.1591 113.641 28.7735 113.231C28.388 112.82 28.1343 112.303 28.0452 111.747C27.9857 111.39 27.9993 111.025 28.0852 110.673C28.2607 109.947 28.717 109.32 29.354 108.93C29.6756 108.722 30.0358 108.581 30.413 108.515C30.7658 108.45 31.1283 108.456 31.4785 108.535C31.8287 108.613 32.1596 108.761 32.4511 108.97C32.7601 109.19 33.0231 109.468 33.2254 109.789V109.774Z" fill="#E0E0E0"/>
<path d="M113.434 121.773C113.161 121.692 112.907 121.556 112.687 121.373C112.468 121.19 112.289 120.964 112.161 120.709L109.033 114.525C108.904 114.28 108.824 114.011 108.799 113.734C108.774 113.458 108.805 113.179 108.889 112.915C108.973 112.65 109.109 112.405 109.289 112.194C109.469 111.983 109.689 111.809 109.937 111.684C110.185 111.559 110.455 111.485 110.732 111.465C111.009 111.445 111.287 111.481 111.549 111.57C111.812 111.66 112.055 111.8 112.263 111.984C112.47 112.168 112.64 112.392 112.76 112.642L114.793 116.638L124.364 109.829C124.816 109.508 125.377 109.379 125.924 109.472C126.47 109.564 126.958 109.869 127.279 110.321C127.6 110.773 127.729 111.334 127.637 111.881C127.544 112.427 127.239 112.915 126.787 113.236L115.233 121.448C114.988 121.624 114.708 121.744 114.412 121.8C114.116 121.856 113.811 121.847 113.519 121.773H113.434Z" fill="#E0E0E0"/>
</svg>
