<svg width="138" height="48" viewBox="0 0 138 48" fill="none" xmlns="http://www.w3.org/2000/svg">
<g clip-path="url(#clip0_6441_8563)">
<path d="M133.1 1H4.867C2.73131 1 1 2.73131 1 4.867V42.7C1 44.8357 2.73131 46.567 4.867 46.567H133.1C135.236 46.567 136.967 44.8357 136.967 42.7V4.867C136.967 2.73131 135.236 1 133.1 1Z" stroke="white" stroke-width="0.967"/>
<path d="M25.3079 9.23975C26.5298 9.23975 27.5184 10.3296 27.5184 11.6739V36.862C27.5184 38.2087 26.5287 39.2962 25.3079 39.2962H14.3004C13.0784 39.2962 12.0898 38.2064 12.0898 36.862V11.6739C12.0898 10.3272 13.0795 9.23975 14.3004 9.23975H25.3079ZM19.8041 36.3398C19.2716 36.3398 18.8398 36.781 18.8398 37.3253C18.8398 37.8695 19.2716 38.3107 19.8041 38.3107C20.3367 38.3107 20.7684 37.8695 20.7684 37.3253C20.7684 36.781 20.3367 36.3398 19.8041 36.3398ZM26.072 13.1816H13.5363V35.3544H26.072V13.1816ZM21.3488 10.7179H18.2595C18.0475 10.7179 17.8756 10.9465 17.8756 11.2107C17.8756 11.4828 18.0413 11.7034 18.2595 11.7034H21.3488C21.5608 11.7034 21.7327 11.4748 21.7327 11.2107C21.7327 10.9385 21.567 10.7179 21.3488 10.7179Z" fill="white"/>
<path d="M39.286 14.4024H36.5134L35.7013 16.8618H34.6572L37.3138 9.04274H38.5319L41.2002 16.8618H40.1213L39.286 14.4024ZM36.7222 13.6135H39.0772L38.3115 11.3629C38.1375 10.8525 38.0215 10.3885 37.9055 9.93602H37.8823C37.7663 10.4001 37.6387 10.8757 37.4879 11.3513L36.7222 13.6135ZM41.3721 11.2469H42.4626L43.5647 14.4024C43.7503 14.9128 43.9011 15.3769 44.0171 15.8409H44.0519C44.1795 15.3769 44.342 14.9128 44.5276 14.4024L45.6181 11.2469H46.6854L44.4812 16.8618H43.5067L41.3721 11.2469ZM51.6452 16.8618H50.7172L50.636 16.1542H50.6012C50.2879 16.595 49.6847 16.9894 48.8842 16.9894C47.7473 16.9894 47.1673 16.189 47.1673 15.3769C47.1673 14.0196 48.3738 13.2771 50.5432 13.2887V13.1727C50.5432 12.7087 50.4155 11.8734 49.267 11.8734C48.745 11.8734 48.1997 12.0358 47.8053 12.291L47.5733 11.6182C48.0373 11.3165 48.7102 11.1193 49.4179 11.1193C51.1348 11.1193 51.5524 12.291 51.5524 13.4163V15.5161C51.5524 16.0033 51.5756 16.479 51.6452 16.8618ZM50.5664 14.9709V13.9964C49.4527 13.9732 48.1881 14.1704 48.1881 15.2609C48.1881 15.9221 48.629 16.2354 49.151 16.2354C49.8819 16.2354 50.3459 15.7713 50.5083 15.2957C50.5432 15.1913 50.5664 15.0753 50.5664 14.9709ZM54.2256 16.8618H53.2047V11.2469H54.2256V16.8618ZM53.7151 9.03114C54.098 9.03114 54.3416 9.30957 54.3416 9.6692C54.3532 10.0172 54.098 10.2956 53.6919 10.2956C53.3323 10.2956 53.0771 10.0172 53.0771 9.6692C53.0771 9.30957 53.3439 9.03114 53.7151 9.03114ZM55.9237 16.8618V8.62511H56.9445V16.8618H55.9237ZM62.7024 16.8618H61.7744L61.6932 16.1542H61.6584C61.3451 16.595 60.7419 16.9894 59.9414 16.9894C58.8045 16.9894 58.2245 16.189 58.2245 15.3769C58.2245 14.0196 59.431 13.2771 61.6004 13.2887V13.1727C61.6004 12.7087 61.4727 11.8734 60.3242 11.8734C59.8022 11.8734 59.257 12.0358 58.8625 12.291L58.6305 11.6182C59.0945 11.3165 59.7674 11.1193 60.4751 11.1193C62.192 11.1193 62.6096 12.291 62.6096 13.4163V15.5161C62.6096 16.0033 62.6328 16.479 62.7024 16.8618ZM61.6236 14.9709V13.9964C60.5099 13.9732 59.2454 14.1704 59.2454 15.2609C59.2454 15.9221 59.6862 16.2354 60.2082 16.2354C60.9391 16.2354 61.4031 15.7713 61.5656 15.2957C61.6004 15.1913 61.6236 15.0753 61.6236 14.9709ZM65.0971 16.8618H64.2155C64.2387 16.479 64.2619 15.9105 64.2619 15.4117V8.62511H65.2712V12.1518H65.2944C65.654 11.5254 66.3037 11.1193 67.2085 11.1193C68.6007 11.1193 69.5867 12.2794 69.5751 13.9848C69.5751 15.9917 68.3106 16.9894 67.0577 16.9894C66.2456 16.9894 65.596 16.6762 65.1784 15.9337H65.1436L65.0971 16.8618ZM65.2712 13.6019V14.6112C65.2712 14.7388 65.2944 14.8664 65.3176 14.9825C65.5148 15.6901 66.1064 16.1774 66.8489 16.1774C67.9162 16.1774 68.5542 15.3073 68.5542 14.0196C68.5542 12.8943 67.9742 11.9314 66.8837 11.9314C66.1876 11.9314 65.538 12.407 65.3292 13.1843C65.306 13.3003 65.2712 13.4395 65.2712 13.6019ZM70.8667 16.8618V8.62511H71.8876V16.8618H70.8667ZM78.1212 14.24H74.1768C74.2 15.6205 75.0817 16.189 76.1026 16.189C76.8335 16.189 77.2743 16.0613 77.6571 15.8989L77.8311 16.6298C77.4715 16.7922 76.8567 16.9778 75.9634 16.9778C74.2348 16.9778 73.2024 15.8409 73.2024 14.1472C73.2024 12.4534 74.2 11.1193 75.8358 11.1193C77.6687 11.1193 78.156 12.7319 78.156 13.7643C78.156 13.9732 78.1328 14.1356 78.1212 14.24ZM74.1884 13.5091H77.1699C77.1815 12.8595 76.9031 11.8502 75.7546 11.8502C74.7221 11.8502 74.2696 12.8015 74.1884 13.5091ZM84.2568 11.1193C85.8694 11.1193 86.9599 12.291 86.9599 14.008C86.9599 16.0845 85.5213 16.9894 84.164 16.9894C82.6443 16.9894 81.4726 15.8757 81.4726 14.1008C81.4726 12.2214 82.7023 11.1193 84.2568 11.1193ZM84.2336 11.885C83.0271 11.885 82.5051 12.9987 82.5051 14.066C82.5051 15.2957 83.2127 16.2238 84.2104 16.2238C85.1849 16.2238 85.9158 15.3073 85.9158 14.0428C85.9158 13.0915 85.4401 11.885 84.2336 11.885ZM88.2456 16.8618V12.7667C88.2456 12.1866 88.234 11.711 88.1992 11.2469H89.1041L89.1621 12.175H89.1853C89.4637 11.6414 90.1133 11.1193 91.0414 11.1193C91.8187 11.1193 93.0252 11.5834 93.0252 13.5091V16.8618H92.0043V13.6251C92.0043 12.7203 91.6679 11.9662 90.705 11.9662C90.0321 11.9662 89.5101 12.4418 89.3361 13.0103C89.2897 13.1379 89.2665 13.3119 89.2665 13.4859V16.8618H88.2456ZM97.371 9.90122L98.3686 9.63439V11.2469H99.8304V12.0242H98.3686V15.0521C98.3686 15.7481 98.5659 16.1426 99.1343 16.1426C99.4011 16.1426 99.5983 16.1078 99.726 16.0729L99.7724 16.8386C99.5751 16.9198 99.2619 16.9778 98.8675 16.9778C98.3918 16.9778 98.009 16.827 97.7654 16.5486C97.4754 16.247 97.371 15.7481 97.371 15.0869V12.0242H96.5009V11.2469H97.371V9.90122ZM100.979 16.8618V8.62511H102V12.1286H102.024C102.186 11.8386 102.441 11.5834 102.754 11.4093C103.056 11.2353 103.416 11.1193 103.799 11.1193C104.553 11.1193 105.759 11.5834 105.759 13.5207V16.8618H104.738V13.6367C104.738 12.7319 104.402 11.9662 103.439 11.9662C102.778 11.9662 102.256 12.4302 102.07 12.9871C102.012 13.1263 102 13.2771 102 13.4743V16.8618H100.979ZM111.927 14.24H107.983C108.006 15.6205 108.888 16.189 109.909 16.189C110.64 16.189 111.08 16.0613 111.463 15.8989L111.637 16.6298C111.278 16.7922 110.663 16.9778 109.769 16.9778C108.041 16.9778 107.008 15.8409 107.008 14.1472C107.008 12.4534 108.006 11.1193 109.642 11.1193C111.475 11.1193 111.962 12.7319 111.962 13.7643C111.962 13.9732 111.939 14.1356 111.927 14.24ZM107.994 13.5091H110.976C110.988 12.8595 110.709 11.8502 109.561 11.8502C108.528 11.8502 108.076 12.8015 107.994 13.5091Z" fill="white"/>
<path d="M43.7439 29.1754H38.4585L36.9104 33.8638H34.9201L39.9844 18.9583H42.3065L47.3929 33.8638H45.3362L43.7439 29.1754ZM38.8565 27.6716H43.3459L41.8863 23.3813C41.5546 22.4082 41.3334 21.5236 41.1123 20.6611H41.068C40.8469 21.5457 40.6036 22.4524 40.3161 23.3591L38.8565 27.6716ZM49.4579 38.2425V26.6543C49.4579 25.2831 49.4137 24.1774 49.3695 23.1601H51.1165L51.205 24.9957H51.2492C52.0454 23.6909 53.3059 22.9168 55.053 22.9168C57.6405 22.9168 59.5866 25.1062 59.5866 28.3571C59.5866 32.2051 57.2424 34.107 54.7213 34.107C53.3059 34.107 52.0675 33.4878 51.4261 32.4263H51.3819V38.2425H49.4579ZM51.3819 27.6716V29.5071C51.3819 29.7946 51.4261 30.06 51.4704 30.3033C51.8242 31.6523 52.9963 32.5811 54.3896 32.5811C56.4463 32.5811 57.6405 30.9004 57.6405 28.4456C57.6405 26.3004 56.5126 24.4649 54.4559 24.4649C53.129 24.4649 51.8906 25.4158 51.5146 26.8754C51.4483 27.1187 51.3819 27.4062 51.3819 27.6716ZM62.0488 38.2425V26.6543C62.0488 25.2831 62.0045 24.1774 61.9603 23.1601H63.7074L63.7959 24.9957H63.8401C64.6362 23.6909 65.8968 22.9168 67.6439 22.9168C70.2313 22.9168 72.1774 25.1062 72.1774 28.3571C72.1774 32.2051 69.8333 34.107 67.3121 34.107C65.8968 34.107 64.6583 33.4878 64.017 32.4263H63.9728V38.2425H62.0488ZM63.9728 27.6716V29.5071C63.9728 29.7946 64.017 30.06 64.0612 30.3033C64.4151 31.6523 65.5872 32.5811 66.9804 32.5811C69.0371 32.5811 70.2313 30.9004 70.2313 28.4456C70.2313 26.3004 69.1035 24.4649 67.0468 24.4649C65.7199 24.4649 64.4814 25.4158 64.1055 26.8754C64.0391 27.1187 63.9728 27.4062 63.9728 27.6716ZM78.6406 33.134L79.1271 31.5196C79.9896 32.0503 81.2501 32.4926 82.577 32.4926C84.5453 32.4926 85.6952 31.4532 85.6952 29.9494C85.6952 28.5562 84.8991 27.76 82.8866 26.986C80.454 26.1235 78.9502 24.863 78.9502 22.762C78.9502 20.44 80.8742 18.715 83.7712 18.715C85.2972 18.715 86.4029 19.0688 87.0664 19.4448L86.5356 21.015C86.0491 20.7496 85.0539 20.3073 83.7049 20.3073C81.6703 20.3073 80.8963 21.5236 80.8963 22.5409C80.8963 23.9341 81.803 24.6197 83.8597 25.4158C86.3808 26.3889 87.6635 27.6052 87.6635 29.7946C87.6635 32.0946 85.9606 34.0849 82.4443 34.0849C81.0069 34.0849 79.4367 33.6647 78.6406 33.134ZM90.61 20.5948L92.5118 20.0861V23.1601H95.2983V24.6418H92.5118V30.4138C92.5118 31.7407 92.8878 32.4926 93.9714 32.4926C94.4801 32.4926 94.856 32.4263 95.0993 32.3599L95.1878 33.8195C94.8118 33.9743 94.2147 34.0849 93.4628 34.0849C92.5561 34.0849 91.8263 33.7974 91.3619 33.2667C90.809 32.6917 90.61 31.7407 90.61 30.4802V24.6418H88.9513V23.1601H90.61V20.5948ZM101.893 22.9168C104.967 22.9168 107.046 25.1505 107.046 28.4235C107.046 32.3821 104.303 34.107 101.716 34.107C98.8189 34.107 96.5853 31.984 96.5853 28.6004C96.5853 25.0178 98.9295 22.9168 101.893 22.9168ZM101.849 24.3764C99.5487 24.3764 98.5536 26.4995 98.5536 28.5341C98.5536 30.8782 99.9026 32.6474 101.804 32.6474C103.662 32.6474 105.055 30.9004 105.055 28.4898C105.055 26.6764 104.149 24.3764 101.849 24.3764ZM109.497 33.8638V26.4995C109.497 25.2389 109.475 24.1553 109.408 23.1601H111.111L111.177 25.261H111.266C111.752 23.8236 112.925 22.9168 114.229 22.9168C114.45 22.9168 114.605 22.939 114.782 22.9832V24.8187C114.583 24.7745 114.384 24.7524 114.119 24.7524C112.748 24.7524 111.775 25.7918 111.509 27.2514C111.465 27.5168 111.421 27.8264 111.421 28.1581V33.8638H109.497ZM125.118 28.8658H117.599C117.643 31.4975 119.324 32.5811 121.27 32.5811C122.664 32.5811 123.504 32.3378 124.234 32.0282L124.565 33.4215C123.88 33.7311 122.708 34.0849 121.005 34.0849C117.71 34.0849 115.742 31.9176 115.742 28.6889C115.742 25.4601 117.643 22.9168 120.762 22.9168C124.256 22.9168 125.185 25.9908 125.185 27.9591C125.185 28.3571 125.14 28.6667 125.118 28.8658ZM117.621 27.4725H123.305C123.327 26.2341 122.796 24.3101 120.607 24.3101C118.639 24.3101 117.776 26.1235 117.621 27.4725Z" fill="white"/>
</g>
<defs>
<clipPath id="clip0_6441_8563">
<rect width="138" height="48" fill="white"/>
</clipPath>
</defs>
</svg>
