<svg width="42" height="42" viewBox="0 0 42 42" fill="none" xmlns="http://www.w3.org/2000/svg">
<rect x="0.5" y="0.5" width="41" height="41" rx="9.5" stroke="#EEEEEE"/>
<path d="M14.9641 13H14.942C13.8711 13 13 13.8344 13 14.86C13 15.8856 13.8711 16.72 14.942 16.72H14.9641C16.035 16.72 16.9061 15.8856 16.9061 14.86C16.9061 13.8343 16.035 13 14.9641 13ZM13.2288 17.4997H16.677V27.9998H13.2288V17.4997ZM28.8859 19.9482C28.8092 19.4811 28.6502 19.0447 28.4131 18.6509C28.1742 18.2539 27.8324 17.9266 27.3979 17.6779C26.9619 17.4288 26.3806 17.3027 25.67 17.3027C24.7156 17.3027 23.8593 17.4742 23.125 17.8127C22.4704 18.1143 21.9405 18.5348 21.5471 19.0643V17.4997H18.4284V28H21.8764V22.0032C21.9688 21.7535 22.0991 21.5181 22.263 21.3047C22.4292 21.088 22.6217 20.8971 22.8352 20.7374C23.048 20.578 23.2704 20.4521 23.4965 20.363C23.7198 20.275 23.9453 20.2303 24.1672 20.2303C24.586 20.2303 24.9134 20.3733 25.1683 20.6671C25.4228 20.9613 25.552 21.4464 25.552 22.1089V28H29V21.3005C29 20.8667 28.9617 20.4117 28.8859 19.9482Z" fill="#0274B3"/>
</svg>
