<svg width="16" height="19" viewBox="0 0 16 19" fill="none" xmlns="http://www.w3.org/2000/svg">
<path d="M7.99988 4.75098C6.24223 4.75098 4.81738 6.16862 4.81738 7.91736C4.81738 9.66611 6.24223 11.0837 7.99988 11.0837C9.75752 11.0837 11.1824 9.66611 11.1824 7.91736C11.1824 7.07758 10.8471 6.2722 10.2502 5.67839C9.65341 5.08458 8.84393 4.75098 7.99988 4.75098ZM7.99988 9.50055C7.12106 9.50055 6.40863 8.79173 6.40863 7.91736C6.40863 7.04299 7.12106 6.33417 7.99988 6.33417C8.8787 6.33417 9.59113 7.04299 9.59113 7.91736C9.59113 8.79173 8.8787 9.50055 7.99988 9.50055Z" fill="#9F9D9D"/>
<path d="M8 18.9999C6.64056 19.0068 5.36209 18.3577 4.57006 17.2584C1.53794 13.097 0 9.96857 0 7.9595C0 3.56359 3.58172 0 8 0C12.4183 0 16 3.56359 16 7.9595C16 9.96857 14.4621 13.097 11.4299 17.2584C10.6379 18.3577 9.35944 19.0068 8 18.9999ZM8 1.72805C4.54171 1.73198 1.7392 4.5203 1.73526 7.96108C1.73526 9.55219 3.24137 12.4946 5.97514 16.2459C6.4459 16.8911 7.19871 17.2729 8 17.2729C8.80128 17.2729 9.5541 16.8911 10.0249 16.2459C12.7586 12.4946 14.2647 9.55219 14.2647 7.96108C14.2608 4.5203 11.4583 1.73198 8 1.72805Z" fill="#9F9D9D"/>
</svg>
