<svg width="27" height="33" viewBox="0 0 27 33" fill="none" xmlns="http://www.w3.org/2000/svg">
<path d="M2.43007 13.6951C2.43007 19.889 13.6457 30.5186 13.6457 30.5186C13.6457 30.5186 24.8613 19.889 24.8613 13.6951C24.8613 10.7206 23.6797 7.86781 21.5763 5.76448C19.473 3.66114 16.6203 2.47949 13.6457 2.47949C10.6711 2.47949 7.81839 3.66114 5.71505 5.76448C3.61171 7.86781 2.43007 10.7206 2.43007 13.6951V13.6951Z" stroke="#0274B3" stroke-width="3.1544"/>
<path d="M13.6449 15.0969C13.2731 15.0969 12.9165 14.9492 12.6536 14.6863C12.3907 14.4233 12.243 14.0667 12.243 13.6949C12.243 13.3231 12.3907 12.9665 12.6536 12.7036C12.9165 12.4407 13.2731 12.293 13.6449 12.293C14.0167 12.293 14.3733 12.4407 14.6363 12.7036C14.8992 12.9665 15.0469 13.3231 15.0469 13.6949C15.0469 14.0667 14.8992 14.4233 14.6363 14.6863C14.3733 14.9492 14.0167 15.0969 13.6449 15.0969Z" fill="white" stroke="#0274B3" stroke-width="3.1544" stroke-linecap="round" stroke-linejoin="round"/>
</svg>
