<svg width="325" height="213" viewBox="0 0 325 213" fill="none" xmlns="http://www.w3.org/2000/svg">
<path d="M325 212.81H0V212.972H325V212.81Z" fill="#EBEBEB"/>
<path d="M154.049 183.82H28.5409C27.5577 183.818 26.6153 183.427 25.9207 182.731C25.2261 182.035 24.8359 181.092 24.8359 180.109V3.67912C24.8445 2.70154 25.2384 1.76681 25.9321 1.07796C26.6258 0.38912 27.5633 0.00179672 28.5409 0.00012207H154.049C155.034 0.00012207 155.978 0.391154 156.674 1.0872C157.37 1.78324 157.761 2.72727 157.761 3.71162V180.109C157.761 181.093 157.37 182.037 156.674 182.733C155.978 183.429 155.034 183.82 154.049 183.82ZM28.5409 0.130123C27.6008 0.131844 26.6998 0.506514 26.0356 1.17189C25.3715 1.83727 24.9984 2.73899 24.9984 3.67912V180.109C24.9984 181.049 25.3715 181.95 26.0356 182.616C26.6998 183.281 27.6008 183.656 28.5409 183.658H154.049C154.99 183.656 155.892 183.281 156.557 182.616C157.222 181.951 157.597 181.049 157.598 180.109V3.67912C157.597 2.7384 157.222 1.83669 156.557 1.1715C155.892 0.506303 154.99 0.131841 154.049 0.130123H28.5409Z" fill="#EBEBEB"/>
<path d="M294.652 183.82H169.137C168.153 183.818 167.21 183.427 166.515 182.731C165.819 182.035 165.427 181.092 165.426 180.109V3.67912C165.436 2.70095 165.831 1.76622 166.526 1.07756C167.221 0.388893 168.159 0.00177846 169.137 0.00012207H294.652C295.629 0.00350499 296.565 0.391584 297.257 1.08025C297.949 1.76891 298.342 2.70266 298.351 3.67912V180.109C298.351 181.091 297.962 182.033 297.268 182.728C296.575 183.424 295.634 183.817 294.652 183.82ZM169.137 0.130123C168.197 0.131841 167.295 0.506303 166.63 1.1715C165.964 1.83669 165.59 2.7384 165.588 3.67912V180.109C165.59 181.049 165.964 181.951 166.63 182.616C167.295 183.281 168.197 183.656 169.137 183.658H294.652C295.593 183.656 296.495 183.281 297.16 182.616C297.825 181.951 298.2 181.049 298.201 180.109V3.67912C298.2 2.7384 297.825 1.83669 297.16 1.1715C296.495 0.506303 295.593 0.131841 294.652 0.130123H169.137Z" fill="#EBEBEB"/>
<path d="M255.503 13.754H65.8398V102.492H255.503V13.754Z" fill="#E6E6E6"/>
<path d="M258.356 13.754H67.1719V102.492H258.356V13.754Z" fill="#F0F0F0"/>
<path d="M255.503 102.492H65.8398V107.016H255.503V102.492Z" fill="#E6E6E6"/>
<path d="M263.114 102.492H71.9297V107.016H263.114V102.492Z" fill="#F0F0F0"/>
<path d="M254.355 98.4953V17.7588L71.1725 17.7588V98.4953L254.355 98.4953Z" fill="#FAFAFA"/>
<path d="M90.8242 98.4953L101.959 17.7588H119.333L108.199 98.4953H90.8242Z" fill="white"/>
<path d="M73.0204 94.51C72.9445 94.51 72.8718 94.4799 72.8181 94.4262C72.7645 94.3726 72.7344 94.2999 72.7344 94.224V20.358C72.7344 20.2822 72.7645 20.2094 72.8181 20.1558C72.8718 20.1022 72.9445 20.072 73.0204 20.072C73.0579 20.072 73.0951 20.0794 73.1298 20.0938C73.1645 20.1082 73.1961 20.1292 73.2226 20.1558C73.2492 20.1823 73.2702 20.2139 73.2846 20.2486C73.299 20.2833 73.3064 20.3205 73.3064 20.358V94.25C73.3014 94.3218 73.2688 94.389 73.2156 94.4374C73.1623 94.4859 73.0924 94.5119 73.0204 94.51Z" fill="#F0F0F0"/>
<path d="M111.93 98.4953L123.064 17.7588H129.837L118.703 98.4953H111.93Z" fill="white"/>
<path d="M254.355 98.4953V17.7588H253.848V98.4953H254.355Z" fill="#E6E6E6"/>
<path opacity="0.6" d="M259.297 23.7898H69.64L69.2695 19.3113H258.933L259.297 23.7898Z" fill="#EBEBEB"/>
<path opacity="0.6" d="M259.297 31.1283H69.64L69.2695 26.6498H258.933L259.297 31.1283Z" fill="#EBEBEB"/>
<path opacity="0.6" d="M259.297 38.4733H69.64L69.2695 33.9948H258.933L259.297 38.4733Z" fill="#EBEBEB"/>
<path opacity="0.6" d="M259.297 45.8118H69.64L69.2695 41.3333H258.933L259.297 45.8118Z" fill="#EBEBEB"/>
<path opacity="0.6" d="M259.297 53.1572H69.64L69.2695 48.6787H258.933L259.297 53.1572Z" fill="#EBEBEB"/>
<path opacity="0.6" d="M259.297 60.4962H69.64L69.2695 56.0177H258.933L259.297 60.4962Z" fill="#EBEBEB"/>
<path d="M285.351 124.8H256.406V212.81H285.351V124.8Z" fill="#E6E6E6"/>
<path d="M277.621 212.81H285.35V200.661H269.516L277.621 212.81Z" fill="#FAFAFA"/>
<path d="M206.433 124.8H177.488V212.81H206.433V124.8Z" fill="#E6E6E6"/>
<path d="M285.347 124.8H199.684V208.631H285.347V124.8Z" fill="#FAFAFA"/>
<path d="M207.412 212.81H199.684V200.661H215.518L207.412 212.81Z" fill="#FAFAFA"/>
<path d="M279.351 156.039H205.68V177.015H279.351V156.039Z" fill="#F0F0F0"/>
<path d="M279.351 181.5H205.68V202.475H279.351V181.5Z" fill="#F0F0F0"/>
<path d="M217.258 154.219H267.802V155.239C267.802 156.045 267.482 156.817 266.913 157.386C266.343 157.955 265.571 158.275 264.766 158.275H220.3C219.495 158.275 218.723 157.955 218.153 157.386C217.584 156.817 217.264 156.045 217.264 155.239V154.219H217.258Z" fill="#FAFAFA"/>
<path d="M279.351 130.572H205.68V151.547H279.351V130.572Z" fill="#F0F0F0"/>
<path d="M217.258 128.759H267.802V129.78C267.802 130.585 267.482 131.357 266.913 131.926C266.343 132.496 265.571 132.815 264.766 132.815H220.3C219.495 132.815 218.723 132.496 218.153 131.926C217.584 131.357 217.264 130.585 217.264 129.78V128.759H217.258Z" fill="#FAFAFA"/>
<path d="M217.258 179.679H267.802V180.7C267.802 181.505 267.482 182.277 266.913 182.846C266.343 183.416 265.571 183.735 264.766 183.735H220.3C219.495 183.735 218.723 183.416 218.153 182.846C217.584 182.277 217.264 181.505 217.264 180.7V179.679H217.258Z" fill="#FAFAFA"/>
<path d="M34.7235 143.565C36.3355 138.931 49.0235 145.229 54.2235 152.899C57.662 158.008 59.7615 163.462 60.7235 170.787C60.6065 162.428 60.4765 153.452 60.3465 144.976C59.3 142.863 56.9145 137.988 55.205 134.127C49.485 121.244 35.887 116.447 31.155 108.316C24.9995 97.6558 25.0385 81.6658 30.2775 75.9068C34.8275 70.8888 49.9075 104.786 51.6105 108.576C57.4605 121.576 59.1505 131.267 60.2425 140.634C60.119 132.671 60.002 125.365 59.9045 119.723C59.586 101.328 59.183 95.4133 59.001 93.5933C58.351 92.7028 57.6295 91.6433 57.194 91.1103C53.5475 86.4108 45.4485 80.8208 41.4055 73.9893C35.497 64.0183 36.4525 52.0843 40.593 47.6383C44.961 42.9908 52.6505 53.9498 56.687 64.8568C60.7235 75.7638 59.014 86.1508 60.158 95.1923C60.3985 96.9603 60.639 103.694 60.873 113.035C62.108 102.986 64.565 96.2518 69.115 89.9793C74.718 82.2638 79.554 72.8713 84.169 74.0868C88.784 75.3023 86.301 87.7368 82.648 96.4598C79.398 104.227 63.356 111.982 60.99 118.228C61.2695 130.89 61.5165 146.926 61.6985 161.856C62.9595 154.141 62.0885 153.497 67.2755 141.706C70.3565 134.686 82.986 126.035 84.494 130.858C86.002 135.681 83.7075 144.794 78.943 151.177C75.095 156.331 66.593 156.325 64.5845 159.516C64.123 160.264 62.6345 163.124 61.731 164.762C61.9325 182.994 62.03 199.082 61.926 204.568L61.094 204.626C61.1395 203.209 61.0355 193.934 60.873 181.662C58.7995 175.162 44.8505 171.327 40.541 164.534C36.03 157.41 32.7865 149.116 34.7235 143.565Z" fill="#E6E6E6"/>
<path d="M47.8384 212.81H74.6184C75.3279 212.81 76.0155 212.564 76.565 212.115C77.1145 211.666 77.4922 211.042 77.6344 210.347L79.5324 200.974H42.8984L44.8484 210.347C44.9897 211.037 45.3636 211.659 45.9078 212.107C46.4519 212.555 47.1334 212.804 47.8384 212.81Z" fill="#F0F0F0"/>
<path d="M42.1601 204.607H80.3021C80.7445 204.606 81.1712 204.443 81.5009 204.148C81.8305 203.853 82.0401 203.447 82.0896 203.008L82.8696 196.079C82.897 195.828 82.8712 195.573 82.7939 195.333C82.7165 195.092 82.5894 194.871 82.4208 194.682C82.2522 194.494 82.0459 194.344 81.8153 194.24C81.5846 194.137 81.3348 194.084 81.0821 194.083H41.3801C41.1274 194.084 40.8776 194.137 40.647 194.24C40.4163 194.344 40.21 194.494 40.0414 194.682C39.8728 194.871 39.7457 195.092 39.6684 195.333C39.5911 195.573 39.5653 195.828 39.5926 196.079L40.3726 203.008C40.4221 203.447 40.6317 203.853 40.9614 204.148C41.2911 204.443 41.7178 204.606 42.1601 204.607Z" fill="#F0F0F0"/>
<path d="M115.597 170.703H92.7109V212.81H115.597V170.703Z" fill="#E0E0E0"/>
<path d="M173.928 212.81H97.2996L89.2461 155.675H165.875L173.928 212.81Z" fill="#E6E6E6"/>
<path d="M185.106 212.81H100.34L92.293 155.675H177.053L185.106 212.81Z" fill="#F0F0F0"/>
<path d="M108.635 203.879L101.855 164.606H168.76L175.539 203.879H108.635Z" fill="white"/>
<path d="M137.385 203.879L114.648 164.606H121.779L144.522 203.879H137.385Z" fill="#FAFAFA"/>
<path d="M147.544 203.879L124.801 164.606H136.969L159.706 203.879H147.544Z" fill="#FAFAFA"/>
<path d="M74.8966 187.282C74.8966 187.282 61.6085 171.987 56.594 156.692C51.5795 141.397 53.9585 143.153 53.9585 143.153C53.9585 143.153 60.7283 158.01 65.8685 165.187C71.0088 172.364 80.1626 182.891 80.1626 182.891L74.8966 187.282Z" fill="#455A64"/>
<path d="M77.5416 145.532C77.4519 145.374 77.3099 145.253 77.1402 145.189C76.9704 145.126 76.7838 145.124 76.6127 145.184C76.4416 145.243 76.2969 145.361 76.2037 145.517C76.1106 145.672 76.075 145.856 76.1031 146.035C76.9129 151.411 78.6632 164.015 78.6179 172.189C78.5324 182.811 78.6179 186.915 78.6179 186.915H84.1504C84.1504 186.915 83.1445 164.956 81.9173 158.247C81.022 153.564 79.1611 148.353 77.5416 145.532Z" fill="#455A64"/>
<path d="M80.5625 185.125C82.8807 179.873 84.4144 174.31 85.1143 168.613C85.5669 164.705 84.7572 159.418 83.5501 152.367C83.0813 149.788 82.8473 147.172 82.851 144.551C82.8537 144.259 82.9532 143.977 83.1338 143.748C83.3144 143.518 83.566 143.356 83.8491 143.285C84.1321 143.214 84.4306 143.239 84.6978 143.357C84.965 143.474 85.1858 143.676 85.3255 143.932C85.9945 145.124 87.9258 149.193 88.4187 151.743C89.7566 158.704 91.2705 162.185 90.1137 168.794C88.9569 175.402 84.6666 185.572 84.6666 185.572L80.5625 185.125Z" fill="#455A64"/>
<path d="M85.5391 185.572C85.5391 185.572 100.125 154.218 101.131 149.566C102.137 144.913 105.582 134.195 105.984 134.804C106.387 135.412 106.99 141.071 104.37 147.544C101.749 154.017 90.5133 186.528 90.5133 186.528H85.5391" fill="#455A64"/>
<path d="M78.963 184.169C78.8185 184.088 78.6821 183.994 78.5556 183.887C78.294 183.691 77.9017 183.415 77.4239 183.027C76.4532 182.263 75.0902 181.101 73.5008 179.567C69.4018 175.521 65.8508 170.956 62.9387 165.987C60.0294 161.016 57.6089 155.774 55.7112 150.335C54.9769 148.253 54.4437 146.548 54.0967 145.366C53.9156 144.772 53.7949 144.31 53.7094 143.998C53.6562 143.834 53.6175 143.665 53.5938 143.495C53.6656 143.644 53.7245 143.798 53.7698 143.957C53.8804 144.294 54.0263 144.747 54.2124 145.31C54.5946 146.482 55.163 148.172 55.9174 150.244C57.8718 155.643 60.3111 160.853 63.2053 165.811C66.1167 170.756 69.6345 175.318 73.6769 179.391C75.2411 180.945 76.5739 182.127 77.5195 182.912C77.9872 183.314 78.3695 183.606 78.6109 183.817C78.7376 183.925 78.8553 184.042 78.963 184.169Z" fill="#263238"/>
<path d="M80.5584 169.125C80.4825 168.824 80.4387 168.515 80.4276 168.205C80.3572 167.556 80.2667 166.696 80.156 165.69C79.9247 163.568 79.5626 160.661 79.0495 157.426C78.5365 154.192 77.9581 151.321 77.5105 149.238C77.2942 148.232 77.1182 147.403 76.9774 146.764C76.896 146.464 76.8421 146.158 76.8164 145.848C76.9356 146.135 77.0298 146.431 77.0981 146.734C77.259 147.312 77.4753 148.147 77.7268 149.188C78.2297 151.265 78.8383 154.157 79.3563 157.381C79.8744 160.605 80.2013 163.537 80.3623 165.67C80.4478 166.731 80.5081 167.596 80.5333 168.185C80.5677 168.497 80.5761 168.812 80.5584 169.125Z" fill="#263238"/>
<path d="M83.9737 143.686C84.0452 143.812 84.1026 143.945 84.1447 144.083L84.5822 145.25C84.7784 145.753 84.9997 146.377 85.2109 147.116C85.4222 147.855 85.7139 148.68 85.9201 149.631L86.2822 151.105C86.403 151.608 86.4885 152.161 86.5991 152.719C86.8405 153.831 86.9864 155.038 87.1624 156.305C87.4768 159.063 87.5944 161.84 87.5145 164.614C87.3962 167.389 87.0802 170.152 86.5689 172.883C86.3024 174.13 86.066 175.327 85.7541 176.403C85.5982 176.952 85.4725 177.49 85.3166 177.993L84.8488 179.461C84.5722 180.387 84.2302 181.197 83.9636 181.916C83.697 182.635 83.4607 183.244 83.2041 183.731L82.7012 184.863C82.6483 184.997 82.5808 185.126 82.5 185.245C82.534 185.105 82.5812 184.969 82.6408 184.838C82.7615 184.546 82.9175 184.164 83.1086 183.686C83.2997 183.208 83.5663 182.58 83.8127 181.85C84.0592 181.121 84.3911 180.342 84.6577 179.391C84.7985 178.933 84.9444 178.45 85.1003 177.947C85.2562 177.444 85.3719 176.911 85.5178 176.363C85.8195 175.272 86.0207 174.085 86.3024 172.842C86.7926 170.125 87.0984 167.378 87.2177 164.619C87.297 161.86 87.1895 159.1 86.8959 156.355C86.7248 155.093 86.5891 153.891 86.3627 152.779C86.2571 152.226 86.1766 151.683 86.0609 151.17C85.9453 150.657 85.8296 150.164 85.7189 149.696C85.5228 148.756 85.2562 147.926 85.0601 147.181C84.8639 146.437 84.6577 145.813 84.4817 145.3L84.1044 144.118C84.0467 143.979 84.0028 143.834 83.9737 143.686Z" fill="#263238"/>
<path d="M105.826 135.432C105.832 135.479 105.832 135.526 105.826 135.573C105.826 135.684 105.786 135.814 105.761 135.98C105.695 136.337 105.615 136.866 105.474 137.54C105.192 138.887 104.72 140.829 103.965 143.183C103.211 145.537 102.245 148.303 101.063 151.336C99.8811 154.369 98.5181 157.678 97.2204 161.199C95.9228 164.719 94.8918 168.145 93.9412 171.258C92.9906 174.371 92.1003 177.168 91.2352 179.476C90.5732 181.306 89.8091 183.098 88.9468 184.843C88.65 185.461 88.3784 185.924 88.2074 186.246L88.0012 186.603C87.956 186.684 87.9308 186.724 87.9258 186.719C87.9352 186.673 87.9521 186.629 87.9761 186.588L88.1521 186.216C88.308 185.889 88.5595 185.416 88.8412 184.787C89.4246 183.545 90.2193 181.719 91.0441 179.401C91.869 177.082 92.7542 174.296 93.6796 171.177C94.6051 168.059 95.6261 164.639 96.9438 161.118C98.2616 157.598 99.6196 154.283 100.812 151.255C102.004 148.227 103.02 145.486 103.774 143.142C104.528 140.799 105.026 138.877 105.343 137.54C105.504 136.871 105.605 136.348 105.69 135.99C105.725 135.829 105.761 135.699 105.786 135.593C105.789 135.537 105.803 135.483 105.826 135.432Z" fill="#263238"/>
<path d="M60.8373 128.507C60.6373 128.312 60.3778 128.189 60.1001 128.159C59.8224 128.128 59.5425 128.191 59.3049 128.338C59.0673 128.485 58.8856 128.707 58.7887 128.969C58.6918 129.231 58.6853 129.518 58.7702 129.784C59.2683 131.398 59.8801 132.974 60.6009 134.502C62.6128 138.762 68.4974 154.057 71.2586 162.456C74.0199 170.856 77.8826 186.528 77.8826 186.528L83.7722 185.572C83.7722 185.572 78.3855 159.846 73.1397 150.546C68.9098 143.092 64.6749 132.319 60.8373 128.507Z" fill="#455A64"/>
<path d="M72.8555 167.712C72.9848 167.934 73.0878 168.17 73.1623 168.416C73.3333 168.879 73.5747 169.553 73.8413 170.393C74.3845 172.073 75.0484 174.417 75.7123 177.027C76.3762 179.637 76.9395 182.011 77.3268 183.731C77.5028 184.541 77.6487 185.24 77.7694 185.768C77.8346 186.017 77.875 186.271 77.8901 186.528C77.785 186.294 77.7041 186.049 77.6487 185.799C77.5078 185.26 77.3268 184.586 77.1105 183.787C76.6578 182.016 76.0694 179.688 75.4105 177.112C74.7516 174.537 74.1179 172.153 73.63 170.463C73.3987 169.664 73.2025 168.995 73.0466 168.451C72.9585 168.212 72.8944 167.964 72.8555 167.712Z" fill="#263238"/>
<path d="M80.8619 186.05C80.8453 185.999 80.8351 185.947 80.8317 185.894C80.8317 185.768 80.7915 185.617 80.7613 185.431C80.701 185.024 80.6456 184.425 80.5199 183.646C80.3036 182.097 79.9214 179.869 79.2877 177.148C78.5335 173.967 77.6135 170.827 76.5314 167.742C75.3193 164.252 73.8054 160.48 72.0903 156.577C68.6249 148.786 65.1646 141.87 62.8862 136.76C61.7394 134.205 60.8744 132.128 60.2607 130.674C59.964 129.95 59.7578 129.382 59.6019 128.999C59.5315 128.823 59.4812 128.677 59.4359 128.562C59.4134 128.512 59.3982 128.46 59.3906 128.406C59.4212 128.45 59.4466 128.497 59.4661 128.547L59.6572 128.974C59.8332 129.377 60.0696 129.93 60.3764 130.629C60.9951 132.062 61.9155 134.15 63.0874 136.664C65.411 141.739 68.9066 148.645 72.377 156.451C74.0921 160.359 75.606 164.141 76.803 167.647C77.8769 170.746 78.7785 173.903 79.5039 177.102C79.9931 179.261 80.3725 181.443 80.6406 183.641C80.7462 184.415 80.7814 185.024 80.8267 185.431L80.8619 185.899C80.8677 185.949 80.8677 186 80.8619 186.05Z" fill="#263238"/>
<path d="M83.7956 185.572C83.702 185.243 83.6347 184.906 83.5944 184.566C83.4787 183.877 83.3228 182.962 83.1367 181.86C82.7343 179.577 82.1308 176.433 81.2204 173.013C80.3101 169.593 79.3444 166.56 78.5799 164.373C78.2077 163.316 77.8959 162.446 77.6595 161.787C77.5298 161.476 77.4255 161.155 77.3477 160.827C77.5155 161.119 77.6585 161.425 77.7752 161.742C78.0266 162.341 78.3837 163.211 78.7811 164.297C79.8458 167.132 80.7591 170.021 81.5172 172.953C82.2786 175.883 82.8913 178.849 83.353 181.84C83.519 182.987 83.6447 183.917 83.7101 184.566C83.7638 184.899 83.7924 185.235 83.7956 185.572Z" fill="#263238"/>
<path d="M95.8848 184.727H72.8945V212.737H95.8848V184.727Z" fill="#FF725E"/>
<g opacity="0.3">
<path d="M95.8887 184.727H72.8984V212.737H95.8887V184.727Z" fill="black"/>
</g>
<path d="M88.5473 184.727H68.1523V212.737H88.5473V184.727Z" fill="#FF725E"/>
<path d="M230.232 122.411L218.146 120.661L193.968 124.237L187.184 126.636L188.386 141.473L211.632 145.753L227.315 141.106L233.245 132.379L230.232 122.411Z" fill="#FFBE9D"/>
<path d="M237.852 123.829L227.732 121.445C227.732 121.445 220.585 143.575 202.936 142.605C188.552 141.825 188.386 125.771 188.386 125.771L178.02 129.09C178.02 129.09 174.052 155.682 178.442 174.522C179.448 178.923 180.841 184.853 180.841 184.853L179.438 212.38L256.109 212.501L237.852 123.829Z" fill="#367CFF"/>
<g opacity="0.3">
<path d="M207.793 207.039C211.525 206.943 214.965 207.26 218.697 207.169C223.173 207.059 227.685 206.948 232.106 207.672C235.415 208.221 238.644 209.227 241.954 209.75C246.481 210.464 251.304 210.212 255.328 208.035L254.679 204.277L239.399 200.586L207.793 207.039Z" fill="black"/>
</g>
<path d="M169.363 135.287C172.884 130.76 178.698 128.874 178.698 128.874L182.621 163.02L175.192 212.742L150.859 212.627C150.859 212.627 164.278 141.85 169.363 135.287Z" fill="#367CFF"/>
<path d="M236.669 123.578C236.669 123.578 253.046 124.89 258.92 151.743C261.576 163.88 264.956 178.098 265.906 187.66C266.605 194.59 262.838 205.444 255.928 206.334L247.236 207.501C245.532 207.747 243.798 207.684 242.116 207.315C236.629 206.053 236.081 202.286 235.075 198.262L232.56 190.255C231.172 182.64 238.269 181.202 242.187 181.307L239.265 146.548L236.669 123.578Z" fill="#367CFF"/>
<path d="M176.674 147.86C176.635 147.981 176.61 148.106 176.598 148.233C176.558 148.504 176.503 148.866 176.432 149.314C176.402 149.55 176.362 149.817 176.322 150.099C176.281 150.38 176.261 150.697 176.226 151.034C176.156 151.703 176.075 152.468 176.04 153.318C175.924 155.306 175.91 157.298 176 159.288C176.12 161.721 176.361 164.146 176.724 166.555C177.101 169.126 177.574 171.55 178.057 173.743C178.54 175.936 179.008 177.902 179.42 179.552C179.832 181.202 180.179 182.524 180.426 183.44C180.547 183.877 180.642 184.229 180.718 184.491C180.745 184.616 180.785 184.737 180.838 184.853C180.827 184.727 180.804 184.602 180.768 184.481C180.707 184.209 180.627 183.857 180.526 183.415C180.3 182.464 179.983 181.136 179.591 179.507C179.199 177.877 178.746 175.885 178.288 173.692C177.831 171.5 177.353 169.08 176.981 166.52C176.608 163.96 176.347 161.491 176.236 159.273C176.126 157.055 176.121 155.018 176.236 153.328C176.261 152.478 176.327 151.718 176.382 151.044C176.406 150.709 176.431 150.397 176.457 150.109C176.488 149.827 176.518 149.565 176.543 149.324C176.593 148.876 176.634 148.514 176.659 148.238C176.676 148.113 176.681 147.986 176.674 147.86Z" fill="#263238"/>
<path d="M255.038 190.713C255.027 190.479 254.988 190.248 254.922 190.024C254.762 189.418 254.55 188.827 254.289 188.258C253.429 186.36 252.092 184.717 250.407 183.491C248.722 182.264 246.748 181.496 244.677 181.262C244.055 181.186 243.427 181.166 242.801 181.202C242.571 181.204 242.341 181.233 242.117 181.287C242.958 181.292 243.797 181.344 244.632 181.443C246.656 181.724 248.579 182.5 250.231 183.702C251.883 184.904 253.213 186.495 254.103 188.334C254.456 189.11 254.768 189.904 255.038 190.713Z" fill="#263238"/>
<path d="M251.254 177.344C251.125 177.311 250.99 177.299 250.857 177.309C250.496 177.302 250.135 177.319 249.776 177.359C248.588 177.48 247.424 177.771 246.32 178.224C245.217 178.682 244.184 179.293 243.252 180.04C242.971 180.264 242.704 180.506 242.453 180.764C242.277 180.95 242.186 181.056 242.196 181.071C242.206 181.086 242.639 180.719 243.368 180.186C245.265 178.793 247.473 177.885 249.801 177.54C250.691 177.409 251.254 177.389 251.254 177.344Z" fill="#263238"/>
<path d="M234.299 142.605C234.336 142.367 234.35 142.126 234.34 141.885C234.34 141.423 234.37 140.759 234.425 139.939C234.719 135.651 235.893 131.47 237.876 127.657C238.253 126.927 238.58 126.344 238.816 125.952C238.949 125.752 239.061 125.54 239.153 125.318C238.993 125.497 238.849 125.69 238.726 125.896C238.464 126.279 238.112 126.847 237.72 127.571C235.632 131.372 234.444 135.602 234.249 139.934C234.219 140.759 234.219 141.443 234.249 141.89C234.241 142.129 234.258 142.369 234.299 142.605Z" fill="#263238"/>
<path d="M202.938 166.963C202.948 167.06 202.972 167.154 203.008 167.245C203.068 167.426 203.144 167.702 203.28 168.034C203.646 168.995 204.103 169.92 204.643 170.796C206.427 173.715 209.018 176.057 212.103 177.538C215.188 179.019 218.635 179.577 222.03 179.145C223.054 179.017 224.064 178.797 225.048 178.486C225.395 178.38 225.656 178.264 225.832 178.199C225.925 178.169 226.014 178.13 226.099 178.083C226.099 178.058 225.711 178.189 225.017 178.385C224.03 178.662 223.02 178.854 222 178.959C218.644 179.353 215.245 178.787 212.199 177.324C209.153 175.862 206.585 173.565 204.793 170.7C204.246 169.839 203.768 168.936 203.365 167.999C203.119 167.335 202.958 166.953 202.938 166.963Z" fill="#263238"/>
<path d="M237.449 204.71C237.474 204.685 237.731 205.052 238.344 205.555C239.242 206.232 240.269 206.719 241.362 206.983C242.972 207.386 244.635 207.534 246.291 207.421C248.162 207.285 250.229 207.064 252.372 206.747C254.39 206.486 256.378 206.027 258.307 205.379C259.112 205.025 259.849 204.533 260.485 203.925C261.045 203.4 261.551 202.818 261.994 202.19C262.649 201.282 263.211 200.31 263.668 199.288C263.824 198.921 263.945 198.639 264.02 198.443C264.05 198.34 264.094 198.242 264.151 198.151C264.132 198.256 264.105 198.358 264.071 198.458C264.01 198.664 263.905 198.961 263.759 199.328C263.337 200.378 262.795 201.375 262.144 202.301C261.705 202.945 261.199 203.542 260.636 204.081C259.987 204.713 259.231 205.224 258.402 205.59C256.462 206.264 254.456 206.735 252.417 206.993C250.26 207.315 248.197 207.527 246.311 207.652C244.63 207.751 242.944 207.581 241.317 207.149C240.216 206.865 239.187 206.351 238.299 205.64C238.065 205.438 237.851 205.214 237.66 204.971C237.579 204.894 237.508 204.806 237.449 204.71Z" fill="#263238"/>
<path d="M234.748 151.155C234.814 151.155 236.544 157.839 238.601 166.128C240.658 174.417 242.273 181.146 242.202 181.167C242.132 181.187 240.407 174.477 238.349 166.188C236.292 157.9 234.678 151.17 234.748 151.155Z" fill="#263238"/>
<path d="M232.662 189.018C232.608 188.838 232.58 188.652 232.577 188.464C232.526 187.963 232.514 187.459 232.541 186.955C232.599 186.188 232.854 185.448 233.281 184.808C233.523 184.427 233.804 184.073 234.121 183.752C234.471 183.417 234.861 183.126 235.282 182.886C236.772 182.105 238.385 181.584 240.051 181.347C240.551 181.275 241.054 181.232 241.559 181.217C241.744 181.189 241.933 181.189 242.118 181.217C242.118 181.257 241.328 181.287 240.076 181.513C238.447 181.794 236.872 182.327 235.408 183.093C235.005 183.322 234.63 183.599 234.292 183.918C233.986 184.224 233.713 184.561 233.477 184.923C233.06 185.52 232.801 186.212 232.722 186.935C232.678 187.437 232.663 187.941 232.677 188.444C232.694 188.635 232.689 188.828 232.662 189.018Z" fill="#263238"/>
<g opacity="0.3">
<path d="M177.428 170.408C173.249 163.331 173.158 154.137 176.805 146.769C175.637 154.62 175.889 162.616 177.549 170.378" fill="black"/>
</g>
<path d="M184.091 202.15C185.409 199.665 195.684 193.097 195.684 193.097L192.903 192.453L189.83 193.75C189.597 194.792 189.146 195.773 188.507 196.627C187.38 198.237 185.464 196.572 185.464 196.572L186.762 190.35L192.837 186.694C192.837 186.694 198.551 187.569 199.476 188.012L201.911 190.24C202.982 191.08 206.07 194.384 206.915 194.485C207.76 194.585 234.301 188.625 234.301 188.625C237.938 191.507 239.834 197.226 240.427 201.355C240.427 201.355 241.076 203.367 240.372 204.484L207.815 207.039L200.915 208.945C199.067 209.709 197.174 210.359 195.246 210.891C192.953 211.394 191.409 210.635 191.343 209.382C191.278 208.13 193.064 207.974 193.064 207.974C194.586 207.428 196.068 206.776 197.5 206.023C198.548 205.324 199.411 204.382 200.014 203.277L197.555 203.568C197.555 203.568 192.324 207.2 190.358 208.266C188.391 209.332 188.004 207.376 187.843 206.757C187.682 206.138 193.717 200.264 193.717 200.264C193.717 200.264 187.979 203.784 186.948 204.69C185.917 205.595 184.388 205.852 184.061 205.253C183.734 204.655 182.778 204.634 184.091 202.15Z" fill="#FFBE9D"/>
<path d="M212.387 202.723C212.417 202.591 212.427 202.456 212.418 202.321C212.423 202.163 212.413 202.004 212.387 201.848C212.367 201.639 212.328 201.432 212.272 201.229C211.945 200.055 211.378 198.96 210.607 198.015C209.855 197.067 209.013 196.195 208.092 195.41C207.731 195.065 207.335 194.758 206.91 194.495C207.245 194.862 207.601 195.21 207.976 195.536C208.852 196.351 209.666 197.23 210.411 198.166C211.165 199.087 211.738 200.141 212.101 201.275C212.362 202.15 212.337 202.728 212.387 202.723Z" fill="#EB996E"/>
<path d="M195.922 192.91C196.51 192.997 197.111 192.944 197.675 192.754C198.239 192.564 198.75 192.244 199.166 191.819C199.126 191.764 198.497 192.231 197.597 192.523C196.696 192.815 195.922 192.84 195.922 192.91Z" fill="#EB996E"/>
<path d="M194.211 199.721C195.982 199.165 197.702 198.458 199.351 197.608C198.453 197.845 197.578 198.162 196.736 198.554C195.863 198.87 195.018 199.261 194.211 199.721Z" fill="#EB996E"/>
<path d="M199.719 203.201C200.182 203.095 200.631 202.935 201.057 202.723C201.513 202.59 201.952 202.403 202.364 202.165C201.404 202.263 200.49 202.621 199.719 203.201Z" fill="#EB996E"/>
<path d="M195.07 200.173C195.439 200.428 195.777 200.725 196.076 201.058C196.319 201.439 196.515 201.848 196.66 202.276C196.69 202.276 196.72 202.11 196.66 201.848C196.598 201.508 196.457 201.187 196.247 200.913C196.039 200.638 195.769 200.417 195.458 200.269C195.231 200.158 195.07 200.148 195.07 200.173Z" fill="#EB996E"/>
<path d="M192.646 196.376C192.611 196.436 193.064 196.683 193.361 197.201C193.512 197.534 193.634 197.879 193.728 198.232C193.801 198.039 193.824 197.831 193.795 197.627C193.766 197.423 193.686 197.23 193.562 197.065C193.225 196.482 192.657 196.311 192.646 196.376Z" fill="#EB996E"/>
<path d="M193.461 189.586C193.491 189.586 193.581 189.485 193.657 189.259C193.735 188.962 193.735 188.651 193.657 188.354C193.585 188.056 193.436 187.781 193.224 187.559C193.058 187.393 192.922 187.333 192.902 187.358C193.113 187.688 193.282 188.043 193.405 188.414C193.477 188.8 193.495 189.195 193.461 189.586Z" fill="#EB996E"/>
<path d="M240.636 205.414C240.603 205.166 240.589 204.915 240.596 204.665C240.596 204.423 240.596 204.132 240.561 203.79C240.525 203.448 240.53 203.06 240.48 202.638C240.291 200.406 239.813 198.208 239.057 196.099C238.632 194.948 238.117 193.831 237.518 192.76C237.216 192.257 236.954 191.809 236.653 191.402C236.512 191.195 236.371 190.999 236.235 190.808C236.099 190.617 235.954 190.446 235.818 190.305C234.736 188.972 233.906 188.293 233.947 188.253C234.158 188.387 234.353 188.544 234.53 188.721C234.757 188.911 234.972 189.114 235.174 189.329C235.41 189.576 235.677 189.832 235.964 190.185C236.099 190.356 236.245 190.527 236.396 190.687C236.547 190.848 236.683 191.075 236.834 191.281C237.146 191.688 237.417 192.161 237.724 192.644C238.345 193.72 238.874 194.848 239.303 196.014C240.066 198.138 240.525 200.36 240.666 202.613C240.701 203.04 240.696 203.432 240.706 203.774C240.717 204.116 240.706 204.413 240.706 204.655C240.709 204.91 240.685 205.164 240.636 205.414Z" fill="#263238"/>
<g opacity="0.3">
<path d="M251.811 182.152C248.758 180.892 245.395 180.585 242.164 181.272C244.941 181.144 247.689 181.887 250.023 183.396C252.358 184.906 254.163 187.107 255.186 189.692C255.417 190.315 255.88 191.055 256.544 190.959C257.208 190.863 257.389 190.094 257.389 189.475C257.394 186.221 254.813 183.405 251.811 182.152Z" fill="black"/>
</g>
<path d="M176.46 145.557C176.309 145.53 176.163 145.48 176.027 145.411C175.75 145.305 175.363 145.129 174.89 144.908C173.657 144.292 172.479 143.57 171.37 142.75C170.265 141.935 169.232 141.026 168.282 140.034C167.919 139.652 167.633 139.33 167.452 139.104C167.271 138.878 167.17 138.742 167.185 138.727C167.2 138.712 167.658 139.179 168.412 139.904C169.393 140.849 170.433 141.731 171.526 142.544C172.622 143.351 173.769 144.085 174.961 144.742C175.906 145.26 176.49 145.522 176.46 145.557Z" fill="white"/>
<path d="M234.537 147.453C234.499 147.487 234.457 147.516 234.412 147.539L234.024 147.77C233.687 147.976 233.174 148.273 232.515 148.605C230.627 149.574 228.668 150.4 226.656 151.074C223.666 152.063 220.599 152.8 217.487 153.277C213.676 153.845 209.832 154.164 205.979 154.233C201.88 154.328 197.977 154.233 194.411 154.173C191.265 154.128 188.124 153.892 185.006 153.463C182.903 153.165 180.829 152.684 178.81 152.025C178.1 151.784 177.552 151.582 177.19 151.426L176.778 151.25C176.728 151.234 176.681 151.212 176.637 151.185L176.788 151.225L177.21 151.376C177.577 151.517 178.13 151.703 178.845 151.929C180.868 152.544 182.936 152.996 185.031 153.282C188.144 153.68 191.278 153.897 194.416 153.931C197.937 153.997 201.86 154.067 205.949 153.971C209.791 153.904 213.625 153.591 217.427 153.036C220.53 152.575 223.589 151.86 226.575 150.898C228.587 150.241 230.55 149.444 232.45 148.514C233.119 148.182 233.637 147.916 233.959 147.725L234.356 147.518C234.487 147.468 234.532 147.448 234.537 147.453Z" fill="white"/>
<path d="M176.651 165.379C176.439 165.359 176.229 165.315 176.027 165.248L174.352 164.79C172.944 164.393 171.003 163.824 168.86 163.186C166.717 162.547 164.786 161.948 163.388 161.506L161.738 160.973C161.534 160.914 161.335 160.837 161.145 160.741C161.357 160.761 161.566 160.805 161.768 160.872L163.443 161.33C164.851 161.727 166.793 162.295 168.935 162.934C171.078 163.573 173.009 164.166 174.408 164.609L176.057 165.147C176.263 165.203 176.462 165.281 176.651 165.379Z" fill="white"/>
<path d="M178.114 193.177C178.114 193.242 173.085 191.804 166.898 189.958C160.712 188.112 155.738 186.558 155.758 186.488C155.778 186.417 160.787 187.856 166.974 189.707C173.16 191.558 178.134 193.107 178.114 193.177Z" fill="white"/>
<path d="M250.808 133.033C250.639 133.198 250.453 133.344 250.254 133.471C249.892 133.737 249.349 134.11 248.67 134.552C245.118 136.85 241.308 138.722 237.318 140.13C236.554 140.397 235.93 140.598 235.493 140.724C235.271 140.804 235.042 140.861 234.809 140.895C235.018 140.786 235.237 140.697 235.462 140.628L237.258 139.959C238.767 139.381 240.834 138.526 243.047 137.444C245.26 136.363 247.201 135.246 248.58 134.401L250.209 133.395C250.396 133.255 250.597 133.134 250.808 133.033Z" fill="white"/>
<path d="M260.827 161.611C260.565 161.76 260.293 161.89 260.012 161.999C259.484 162.235 258.699 162.547 257.724 162.904C252.623 164.762 247.268 165.827 241.845 166.063C240.804 166.108 239.964 166.118 239.381 166.098C239.08 166.104 238.779 166.091 238.48 166.058C238.778 166.012 239.08 165.992 239.381 165.997C239.959 165.997 240.799 165.947 241.835 165.877C244.529 165.705 247.209 165.358 249.857 164.835C252.504 164.304 255.113 163.602 257.668 162.733C258.649 162.396 259.439 162.109 259.982 161.903C260.255 161.782 260.537 161.684 260.827 161.611Z" fill="white"/>
<path d="M246.372 207.32C246.368 207.226 246.376 207.131 246.397 207.039C246.427 206.832 246.472 206.571 246.523 206.249C246.573 205.927 246.648 205.485 246.699 204.992C246.749 204.499 246.835 203.945 246.855 203.322C246.855 203.015 246.895 202.688 246.915 202.351C246.935 202.014 246.915 201.657 246.915 201.295C246.915 200.566 246.885 199.786 246.845 198.966C246.712 197.191 246.442 195.428 246.035 193.695C245.608 191.966 245.048 190.273 244.36 188.63C244.018 187.886 243.711 187.167 243.354 186.528C243.183 186.206 243.027 185.889 242.851 185.593L242.348 184.758C242.041 184.214 241.709 183.752 241.443 183.344C241.176 182.937 240.94 182.585 240.714 182.308L240.241 181.659C240.18 181.588 240.129 181.508 240.09 181.423C240.16 181.484 240.224 181.551 240.281 181.624L240.784 182.248C241.058 182.569 241.315 182.905 241.553 183.254C241.835 183.661 242.177 184.114 242.494 184.652L242.997 185.487C243.173 185.779 243.334 186.1 243.5 186.422C243.862 187.061 244.184 187.78 244.506 188.53C245.955 191.825 246.806 195.352 247.021 198.946C247.051 199.771 247.096 200.556 247.066 201.29C247.066 201.657 247.066 202.014 247.036 202.356C247.006 202.698 246.985 203.02 246.96 203.332C246.925 203.961 246.824 204.514 246.759 205.007C246.694 205.5 246.618 205.922 246.543 206.259C246.467 206.596 246.412 206.837 246.367 207.049C246.378 207.139 246.38 207.23 246.372 207.32Z" fill="white"/>
<path d="M265.777 191.904C265.752 191.904 265.737 191.492 265.621 190.768C265.443 189.745 265.104 188.757 264.615 187.841C263.899 186.48 262.935 185.266 261.773 184.26C260.357 183.017 258.717 182.058 256.94 181.433C255.153 180.836 253.286 180.51 251.402 180.467C249.861 180.424 248.319 180.483 246.785 180.643C245.472 180.764 244.411 180.9 243.677 180.98L242.832 181.071C242.733 181.084 242.634 181.084 242.535 181.071C242.627 181.037 242.724 181.015 242.822 181.005L243.662 180.865C244.391 180.749 245.452 180.593 246.765 180.442C248.307 180.258 249.86 180.181 251.412 180.211C253.322 180.248 255.214 180.576 257.025 181.181C258.833 181.822 260.5 182.805 261.934 184.078C263.11 185.111 264.076 186.359 264.781 187.755C265.258 188.701 265.57 189.722 265.701 190.773C265.741 191.056 265.761 191.342 265.762 191.628C265.777 191.719 265.782 191.812 265.777 191.904Z" fill="white"/>
<path d="M211.667 177.344C211.574 177.372 211.477 177.389 211.38 177.394L210.56 177.48L207.543 177.731C204.993 177.927 201.467 178.169 197.574 178.37C193.681 178.571 190.145 178.697 187.585 178.727C186.308 178.727 185.272 178.727 184.567 178.727H183.748C183.651 178.73 183.555 178.72 183.461 178.697C183.555 178.677 183.651 178.669 183.748 178.672H184.567L187.585 178.596C190.135 178.521 193.666 178.37 197.559 178.164L207.527 177.6L210.545 177.429L211.37 177.394C211.466 177.364 211.566 177.348 211.667 177.344Z" fill="white"/>
<g opacity="0.3">
<path d="M214.589 178.39C217.757 179.32 222.133 179.547 225.236 178.39C222.822 181.825 218.16 183.068 214.111 181.951C210.062 180.834 206.335 176.786 206.023 172.596C207.985 175.236 211.42 177.449 214.589 178.39Z" fill="black"/>
</g>
<path d="M240.287 175.076C240.204 175.106 240.118 175.13 240.031 175.146L239.302 175.302C238.663 175.433 237.742 175.604 236.596 175.805C234.307 176.207 231.133 176.7 227.618 177.133C224.102 177.565 220.898 177.847 218.565 178.008C217.408 178.088 216.467 178.144 215.818 178.169L215.074 178.194C214.987 178.208 214.899 178.208 214.812 178.194C214.897 178.172 214.982 178.159 215.069 178.154L215.813 178.078L218.549 177.832C220.863 177.626 224.052 177.329 227.573 176.881C231.093 176.434 234.257 175.986 236.55 175.634L239.266 175.211L240.011 175.106C240.1 175.08 240.194 175.069 240.287 175.076Z" fill="white"/>
<g opacity="0.3">
<path d="M235.014 152.684C234.22 161.787 236.699 170.821 239.159 179.622C239.268 180.169 239.498 180.685 239.833 181.131C240.006 181.354 240.246 181.515 240.518 181.591C240.79 181.666 241.079 181.651 241.342 181.549C242.111 181.156 242.006 180.04 241.789 179.215L234.954 153.061" fill="black"/>
</g>
<path d="M107.665 161.752L118.001 212.501H207.728C208.203 212.501 208.659 212.312 208.994 211.976C209.33 211.641 209.519 211.185 209.519 210.71C209.519 210.235 209.33 209.78 208.994 209.444C208.659 209.108 208.203 208.92 207.728 208.92H189.662L180.081 161.722C179.991 161.283 179.753 160.887 179.407 160.602C179.061 160.316 178.628 160.158 178.18 160.153L109.606 159.403C109.314 159.4 109.025 159.462 108.759 159.584C108.494 159.707 108.26 159.888 108.073 160.113C107.887 160.339 107.754 160.603 107.683 160.886C107.612 161.17 107.606 161.466 107.665 161.752Z" fill="#E0E0E0"/>
<path d="M107.666 161.752C107.652 161.703 107.642 161.652 107.636 161.601C107.616 161.448 107.616 161.292 107.636 161.139C107.671 160.835 107.775 160.544 107.94 160.287C108.104 160.03 108.326 159.814 108.586 159.655C108.77 159.546 108.97 159.468 109.18 159.424C109.412 159.38 109.648 159.365 109.884 159.378H111.498L115.522 159.413L141.449 159.66L159.526 159.841L169.655 159.947L174.967 160.002L177.678 160.027C177.909 160.027 178.125 160.027 178.372 160.027C178.613 160.051 178.849 160.119 179.066 160.228C179.515 160.439 179.872 160.805 180.072 161.259C180.159 161.481 180.222 161.712 180.258 161.948L180.399 162.632C180.489 163.085 180.585 163.543 180.675 164C180.866 164.921 181.052 165.846 181.244 166.772L182.39 172.42C183.165 176.226 183.956 180.12 184.764 184.104C186.384 192.06 188.069 200.334 189.794 208.864L189.673 208.764H207.438C207.671 208.753 207.906 208.766 208.137 208.804C208.618 208.923 209.035 209.222 209.304 209.639C209.456 209.861 209.56 210.112 209.61 210.376C209.659 210.641 209.652 210.913 209.589 211.175C209.527 211.436 209.41 211.682 209.246 211.896C209.083 212.11 208.876 212.286 208.64 212.415C208.38 212.556 208.09 212.633 207.795 212.642H184.422H160.129H118.002H117.926V212.566C114.762 196.974 112.192 184.28 110.412 175.488C109.532 171.092 108.843 167.672 108.375 165.348C108.144 164.187 107.968 163.301 107.872 162.703C107.776 162.104 107.706 161.797 107.706 161.797C107.706 161.797 107.776 162.104 107.902 162.698L108.455 165.333C108.933 167.657 109.637 171.077 110.543 175.463L118.137 212.531L118.042 212.45H160.17H207.83C208.086 212.441 208.337 212.374 208.564 212.254C208.77 212.142 208.949 211.987 209.091 211.801C209.233 211.614 209.334 211.4 209.388 211.172C209.442 210.944 209.448 210.707 209.405 210.477C209.362 210.247 209.271 210.028 209.138 209.835C208.901 209.488 208.541 209.245 208.132 209.156C207.917 209.122 207.7 209.108 207.483 209.116H189.562V209.02C187.832 200.47 186.157 192.211 184.533 184.255C183.725 180.278 182.935 176.383 182.164 172.571L180.987 166.847C180.801 165.917 180.615 164.996 180.429 164.076C180.333 163.618 180.243 163.16 180.147 162.703L180.011 162.024C179.978 161.801 179.919 161.584 179.835 161.375C179.667 160.974 179.362 160.647 178.975 160.45C178.781 160.354 178.572 160.293 178.357 160.268C178.145 160.268 177.904 160.268 177.683 160.268L174.967 160.238L169.655 160.178L159.531 160.057L141.454 159.846L115.527 159.529L111.503 159.474L109.889 159.449C109.657 159.434 109.424 159.446 109.195 159.484C108.992 159.529 108.796 159.606 108.616 159.71C108.357 159.862 108.137 160.072 107.972 160.324C107.807 160.575 107.702 160.86 107.666 161.159C107.641 161.356 107.641 161.555 107.666 161.752Z" fill="#263238"/>
<path d="M149.011 184.994C149.011 185.58 148.837 186.153 148.512 186.64C148.186 187.127 147.723 187.507 147.182 187.731C146.641 187.955 146.045 188.014 145.47 187.899C144.896 187.785 144.368 187.503 143.954 187.089C143.539 186.674 143.257 186.147 143.143 185.572C143.029 184.997 143.087 184.402 143.311 183.86C143.536 183.319 143.915 182.856 144.403 182.531C144.89 182.205 145.462 182.031 146.048 182.031C146.834 182.031 147.588 182.344 148.143 182.899C148.699 183.455 149.011 184.208 149.011 184.994Z" fill="white"/>
<path d="M107.746 162.165C107.746 162.165 107.852 162.165 108.058 162.165H112.454L125.284 162.225L167.608 162.522L173.729 162.572H175.238C175.495 162.56 175.753 162.575 176.008 162.617C176.265 162.668 176.511 162.767 176.732 162.909C177.18 163.192 177.505 163.634 177.642 164.146C177.758 164.649 177.838 165.112 177.939 165.595C178.698 169.417 179.448 173.104 180.127 176.615C181.515 183.656 182.767 189.968 183.814 195.285L186.283 207.859C186.565 209.342 186.786 210.494 186.942 211.284C187.012 211.671 187.068 211.968 187.108 212.179C187.148 212.39 187.153 212.481 187.153 212.481C187.153 212.481 187.123 212.38 187.083 212.184C187.043 211.988 186.972 211.681 186.892 211.294C186.731 210.504 186.494 209.357 186.187 207.879C185.584 204.901 184.719 200.606 183.643 195.305L179.9 176.645C179.201 173.124 178.462 169.448 177.703 165.625C177.602 165.152 177.511 164.659 177.411 164.197C177.286 163.745 176.997 163.356 176.601 163.105C176.403 162.985 176.185 162.903 175.957 162.864C175.72 162.825 175.479 162.811 175.238 162.824H173.729L167.608 162.778L125.279 162.406L112.454 162.265L108.963 162.215H108.058L107.746 162.165Z" fill="#263238"/>
<path d="M227.576 85.0912C227.679 89.7836 226.788 94.4446 224.96 98.7678C223.133 103.091 220.411 106.978 216.973 110.174C215.387 105.597 213.806 101.02 212.23 96.443" fill="#263238"/>
<path d="M191.843 57.7807C195.912 55.5576 200.826 55.2357 205.373 56.1461C209.919 57.0564 214.154 59.1135 218.168 61.4372C220.421 62.7399 222.664 64.1733 224.284 66.2052C227.236 69.9221 230.158 76.028 230.44 80.791C230.671 84.6236 229.203 94.215 227.583 97.6955C226.1 100.889 219.144 103.324 215.708 104.113L184.203 67.4475C184.773 65.4104 185.741 63.5068 187.053 61.8473C188.364 60.1878 189.993 58.8055 191.843 57.7807Z" fill="#263238"/>
<path d="M186.415 62.7198L193.959 61.3718C189.83 71.2047 188.708 93.6869 186.349 104.088C183.563 100.064 177.1 87.7419 177.447 82.8481C177.794 77.9544 177.467 61.8899 186.415 62.7198Z" fill="#263238"/>
<path d="M222.23 79.0861C221.823 73.3423 218.101 68.6346 212.523 67.2113L195.126 62.7752C187.612 61.9654 182.592 71.2098 182.099 78.7542C181.551 87.1385 181.214 95.9805 182.195 102.237C184.162 114.811 193.798 116.441 193.798 116.441C193.798 116.441 193.798 122.426 193.798 126.098L199.617 150.194L218.373 124.282L222.256 79.2471C222.271 79.0258 222.23 79.3728 222.23 79.0861Z" fill="#FFBE9D"/>
<path d="M185.879 88.255C185.875 88.6756 186.035 89.0811 186.325 89.3855C186.615 89.6898 187.013 89.8689 187.433 89.8846C187.638 89.901 187.845 89.8762 188.04 89.8116C188.236 89.747 188.417 89.644 188.572 89.5086C188.727 89.3731 188.853 89.208 188.944 89.023C189.034 88.8379 189.086 88.6367 189.098 88.431C189.102 88.0113 188.943 87.6065 188.654 87.3023C188.364 86.9981 187.968 86.8184 187.549 86.8015C187.343 86.7843 187.136 86.8086 186.94 86.8729C186.744 86.9371 186.563 87.0401 186.407 87.1756C186.251 87.3111 186.124 87.4764 186.034 87.6618C185.943 87.8472 185.89 88.0489 185.879 88.255Z" fill="#263238"/>
<path d="M184.006 83.678C184.207 83.8893 185.429 82.989 187.165 82.994C188.9 82.999 190.182 83.8742 190.358 83.6629C190.454 83.5674 190.248 83.1902 189.694 82.7828C188.945 82.2612 188.053 81.9837 187.139 81.9881C186.237 81.985 185.357 82.2666 184.625 82.7928C184.071 83.2053 183.89 83.5825 184.006 83.678Z" fill="#263238"/>
<path d="M201.004 88.255C201 88.6756 201.16 89.0811 201.45 89.3855C201.74 89.6898 202.138 89.8689 202.558 89.8846C202.764 89.9017 202.971 89.8772 203.167 89.8126C203.363 89.748 203.545 89.6446 203.7 89.5085C203.855 89.3724 203.982 89.2064 204.071 89.0204C204.161 88.8345 204.213 88.6323 204.223 88.426C204.227 88.0063 204.068 87.6015 203.779 87.2973C203.489 86.993 203.093 86.8134 202.674 86.7964C202.468 86.7793 202.26 86.8038 202.064 86.8683C201.867 86.9329 201.686 87.0363 201.53 87.1723C201.374 87.3084 201.248 87.4743 201.157 87.6603C201.067 87.8463 201.015 88.0485 201.004 88.255Z" fill="#263238"/>
<path d="M200.466 83.6781C200.667 83.8893 201.894 82.9891 203.629 82.9941C205.364 82.9991 206.647 83.8743 206.823 83.663C206.914 83.5675 206.712 83.1902 206.159 82.7828C205.413 82.266 204.527 81.9888 203.619 81.9882C202.717 81.9867 201.838 82.2682 201.104 82.7929C200.551 83.2053 200.37 83.5825 200.466 83.6781Z" fill="#263238"/>
<path d="M195.071 97.3081C195.071 97.2125 193.999 97.0214 192.249 96.8051C191.806 96.7599 191.389 96.6693 191.313 96.3676C191.277 95.9094 191.382 95.451 191.615 95.0548C192.034 93.9852 192.474 92.8603 192.933 91.68C194.764 86.8818 196.087 82.9336 195.895 82.8631C195.704 82.7927 194.06 86.6202 192.229 91.4134C191.786 92.5937 191.365 93.7237 190.966 94.8034C190.686 95.3378 190.603 95.9537 190.73 96.5436C190.794 96.7003 190.893 96.8403 191.019 96.9528C191.146 97.0653 191.296 97.1472 191.459 97.1924C191.703 97.2626 191.955 97.2981 192.209 97.298C193.944 97.3986 195.035 97.4087 195.071 97.3081Z" fill="#263238"/>
<path d="M210.479 111.959C210.479 111.959 206.385 120.615 193.801 119.393V116.436C199.667 116.517 205.441 114.967 210.479 111.959Z" fill="#EB996E"/>
<path d="M201.017 77.4062C201.188 77.879 202.918 77.6577 204.955 77.9092C206.992 78.1607 208.637 78.719 208.909 78.2965C209.029 78.0903 208.743 77.6477 208.079 77.19C207.198 76.6252 206.194 76.2803 205.152 76.1841C204.111 76.0568 203.054 76.1774 202.068 76.5361C201.319 76.8128 200.942 77.1799 201.017 77.4062Z" fill="#263238"/>
<path d="M184.553 78.3667C184.855 78.764 186.062 78.3667 187.49 78.3415C188.919 78.3164 190.146 78.6131 190.428 78.2007C190.548 77.9995 190.357 77.6072 189.829 77.23C189.115 76.7826 188.285 76.5567 187.442 76.5809C186.6 76.605 185.784 76.8782 185.096 77.3658C184.583 77.7682 184.417 78.1756 184.553 78.3667Z" fill="#263238"/>
<path d="M185.514 67.2614C186.283 65.3703 188.361 64.2437 190.398 64.133C192.435 64.0224 194.421 64.802 196.202 65.823C203.691 70.1534 207.544 80.6099 214.942 85.0913C216.763 86.1928 219.132 85.1818 220.681 86.6404C222.23 88.099 223.231 90.4327 222.376 92.3792C223.436 91.0629 224.301 89.6011 224.946 88.0386C225.509 86.4443 225.58 84.5984 224.735 83.1348C224.096 82.0233 222.964 81.1783 222.657 79.936C222.381 78.8395 222.813 77.6978 222.768 76.5712C222.64 75.4263 222.245 74.3274 221.616 73.3623C218.714 68.2372 214.726 63.5999 209.591 60.7129C206.238 58.7772 202.421 57.7913 198.551 57.8611C194.658 57.9484 190.925 59.4276 188.029 62.0307C186.374 63.5747 184.634 65.1691 185.514 67.2614Z" fill="#263238"/>
<path d="M220.496 88.1995C220.627 87.8374 227.19 85.4735 227.276 92.4445C227.361 99.2194 220.526 97.8865 220.511 97.6904C220.496 97.4942 220.496 88.1995 220.496 88.1995Z" fill="#FFBE9D"/>
<path d="M222.581 95.1054C222.611 95.1054 222.697 95.1859 222.898 95.2764C223.182 95.3895 223.499 95.3895 223.783 95.2764C224.492 95.0098 225.086 93.8631 225.106 92.6459C225.12 92.0641 225.003 91.4866 224.764 90.956C224.697 90.7453 224.58 90.5539 224.424 90.398C224.267 90.2422 224.075 90.1265 223.864 90.0607C223.729 90.0256 223.586 90.0391 223.46 90.0989C223.334 90.1586 223.233 90.2609 223.175 90.3876C223.084 90.5788 223.129 90.7146 223.089 90.7246C223.049 90.7347 222.943 90.614 222.999 90.3323C223.036 90.166 223.128 90.0171 223.26 89.9098C223.351 89.8383 223.455 89.7855 223.567 89.7544C223.678 89.7233 223.794 89.7146 223.909 89.7288C224.188 89.7807 224.449 89.9038 224.667 90.0862C224.885 90.2686 225.051 90.5041 225.151 90.7699C225.447 91.3519 225.594 91.9982 225.579 92.651C225.549 94.019 224.865 95.3015 223.884 95.5933C223.704 95.648 223.513 95.6616 223.327 95.6328C223.141 95.6041 222.963 95.5339 222.808 95.4273C222.591 95.2714 222.556 95.1205 222.581 95.1054Z" fill="#EB996E"/>
<path d="M223.193 84.7192C223.051 84.6557 222.914 84.5799 222.785 84.4928C222.524 84.3269 222.121 84.1056 221.649 83.7686C220.313 82.7926 219.085 81.6763 217.987 80.439C216.39 78.5874 214.897 76.648 213.516 74.6298C211.852 72.1566 209.983 69.828 207.928 67.6689C206.831 66.5901 205.62 65.6339 204.317 64.8171C203.095 64.0724 201.788 63.478 200.424 63.0467C198.108 62.3038 195.673 62.0052 193.247 62.1665C191.609 62.2663 189.992 62.5826 188.438 63.1071C187.88 63.2781 187.468 63.4642 187.181 63.5748C187.038 63.6401 186.89 63.6923 186.738 63.7307C186.872 63.6504 187.012 63.5798 187.156 63.5195C187.559 63.3265 187.974 63.1585 188.398 63.0165C189.951 62.4386 191.579 62.0863 193.231 61.9704C195.687 61.7695 198.157 62.0427 200.509 62.7751C201.9 63.2036 203.233 63.8016 204.478 64.5556C205.801 65.3844 207.03 66.3541 208.144 67.4476C210.212 69.6281 212.087 71.9841 213.747 74.489C215.113 76.5074 216.584 78.4532 218.153 80.3183C219.229 81.5579 220.424 82.6899 221.719 83.6982C222.182 84.0452 222.569 84.2816 222.815 84.4627C222.948 84.5376 223.074 84.6234 223.193 84.7192Z" fill="#455A64"/>
<path d="M223.353 96.3023C223.686 96.2408 224.031 96.3087 224.316 96.4922C224.601 96.6756 224.805 96.9609 224.888 97.2899C224.97 97.6188 224.924 97.9667 224.758 98.2628C224.593 98.5588 224.321 98.7808 223.998 98.8834C223.675 98.986 223.325 98.9615 223.019 98.815C222.713 98.6685 222.474 98.411 222.352 98.0949C222.229 97.7787 222.232 97.4277 222.359 97.1134C222.486 96.799 222.728 96.5449 223.036 96.4028" fill="white"/>
<path d="M223.032 96.4028C222.741 96.6372 222.529 96.9548 222.424 97.3131C222.375 97.4978 222.374 97.6916 222.42 97.8769C222.465 98.0622 222.557 98.2332 222.685 98.3744C222.836 98.5527 223.037 98.6823 223.261 98.7471C223.486 98.8119 223.725 98.809 223.948 98.7386C224.171 98.6682 224.368 98.5336 224.514 98.3516C224.661 98.1696 224.751 97.9483 224.772 97.7155C224.793 97.5277 224.767 97.3377 224.697 97.1623C224.627 96.9869 224.514 96.8314 224.37 96.7096C224.083 96.4793 223.732 96.3424 223.364 96.3173C223.364 96.3173 223.465 96.2469 223.681 96.2418C223.988 96.2443 224.285 96.3487 224.526 96.5386C224.714 96.6781 224.863 96.864 224.958 97.0782C225.054 97.2923 225.092 97.5275 225.069 97.7608C225.05 98.0525 224.943 98.3318 224.763 98.562C224.583 98.7922 224.337 98.9627 224.059 99.0513C223.78 99.1398 223.481 99.1422 223.201 99.0583C222.921 98.9743 222.673 98.8078 222.489 98.5806C222.336 98.4035 222.232 98.1901 222.187 97.961C222.141 97.732 222.155 97.4949 222.227 97.2729C222.307 96.9797 222.485 96.7225 222.73 96.5436C222.906 96.4078 223.027 96.3877 223.032 96.4028Z" fill="#263238"/>
<path d="M221.491 86.6354C221.597 88.4863 221.682 90.4378 220.827 92.0824C219.972 93.7271 217.809 94.8487 216.21 93.9283C214.897 93.1789 214.505 91.494 214.279 90.0002C213.64 85.6848 213.343 81.3241 212.664 77.0138L221.491 86.6354Z" fill="#263238"/>
<path d="M187.184 64.0425C187.184 64.0777 187.782 63.9268 188.863 63.8916C190.398 63.8682 191.923 64.1467 193.35 64.7114C194.334 65.0927 195.275 65.5783 196.156 66.16C197.166 66.8378 198.134 67.5769 199.053 68.373C201.184 70.1752 203.089 72.2288 204.727 74.4889C205.587 75.696 206.351 76.9384 207.176 78.0901C207.96 79.21 208.871 80.2346 209.892 81.1431C211.649 82.6318 213.569 83.9158 215.616 84.9706C217.351 85.886 218.8 86.5298 219.8 86.9824L220.957 87.4854C221.091 87.5507 221.23 87.6013 221.375 87.6363C221.256 87.55 221.128 87.4774 220.992 87.42L219.861 86.8617C218.855 86.3588 217.452 85.6949 215.747 84.7543C213.737 83.6721 211.851 82.3735 210.124 80.8815C209.127 79.9826 208.239 78.9698 207.478 77.8638C206.668 76.7271 205.909 75.4848 205.039 74.2626C203.383 71.9784 201.451 69.9087 199.285 68.1014C198.346 67.3031 197.358 66.564 196.327 65.8884C195.422 65.3069 194.455 64.8263 193.445 64.4549C191.983 63.9006 190.42 63.6573 188.858 63.7407C188.437 63.7653 188.018 63.8242 187.606 63.9168C187.46 63.9391 187.318 63.9814 187.184 64.0425Z" fill="#455A64"/>
<path d="M221.676 82.4508C221.859 82.6079 222.06 82.743 222.274 82.8532L223.994 83.8591L224.568 84.186C224.794 84.3231 225.049 84.4073 225.312 84.4324C225.472 84.4498 225.634 84.4126 225.77 84.3268C225.843 84.2758 225.903 84.2091 225.947 84.1316C225.99 84.0541 226.016 83.9679 226.021 83.8792C226.006 83.5683 225.896 83.2697 225.704 83.0242L223.693 79.8354L223.421 80.0819C224.749 81.0601 226.376 81.5456 228.023 81.4549C228.234 81.4533 228.443 81.4177 228.642 81.3493C228.753 81.3129 228.856 81.2532 228.942 81.1743C229.029 81.0955 229.098 80.9991 229.145 80.8916C229.183 80.7769 229.193 80.6544 229.173 80.5351C229.153 80.4157 229.103 80.3032 229.029 80.2076C228.917 80.0534 228.789 79.9118 228.647 79.7851C227.752 78.9204 226.976 77.9412 226.338 76.873C225.776 75.8695 225.285 74.8274 224.87 73.7546C224.901 74.0663 224.974 74.3724 225.086 74.665C225.339 75.479 225.676 76.2645 226.092 77.0088C226.71 78.118 227.482 79.134 228.385 80.0265C228.637 80.268 228.888 80.5295 228.793 80.7558C228.697 80.9821 228.325 81.0777 227.968 81.0777C227.193 81.1167 226.417 81.0231 225.674 80.8011C224.934 80.5837 224.235 80.2437 223.607 79.7952L222.802 79.2017L223.341 80.0416L225.352 83.2052C225.509 83.3946 225.609 83.625 225.639 83.8691C225.639 84.0603 225.468 84.1709 225.252 84.1558C224.817 84.0701 224.403 83.8992 224.035 83.6529L222.264 82.7475C222.079 82.6282 221.882 82.5287 221.676 82.4508Z" fill="#455A64"/>
<path d="M201.645 100.497C201.519 99.9815 201.215 99.5269 200.788 99.2125C200.36 98.8981 199.836 98.7439 199.306 98.7768C198.919 98.8243 198.55 98.9673 198.232 99.1929C197.914 99.4186 197.658 99.7198 197.485 100.069C197.317 100.421 197.221 100.803 197.202 101.193C197.184 101.583 197.245 101.972 197.38 102.338L197.42 102.499C197.781 102.888 198.254 103.156 198.773 103.267C199.293 103.378 199.833 103.325 200.322 103.117C200.8 102.887 201.189 102.506 201.429 102.032C201.668 101.558 201.744 101.018 201.645 100.497Z" fill="#EB996E"/>
<path d="M196.157 102.549C196.157 102.288 197.912 102.368 199.235 100.93C200.558 99.4911 200.452 97.61 200.698 97.61C200.809 97.61 201.02 98.0425 201 98.8372C200.964 99.8642 200.567 100.846 199.879 101.609C199.214 102.342 198.291 102.79 197.303 102.856C196.579 102.886 196.142 102.67 196.157 102.549Z" fill="#263238"/>
<path d="M255.285 209.136C255.247 209.141 255.208 209.141 255.169 209.136L254.817 209.171L253.474 209.282C252.307 209.377 250.618 209.488 248.525 209.614C244.346 209.86 238.567 210.117 232.179 210.222C225.791 210.328 219.997 210.268 215.813 210.157C213.72 210.107 212.026 210.046 210.859 209.996L209.511 209.926H210.859L215.818 210.011C220.002 210.071 225.786 210.102 232.174 210.011C238.562 209.921 244.336 209.679 248.515 209.478L253.469 209.232L254.817 209.171H255.164L255.285 209.136Z" fill="white"/>
</svg>
