<svg width="102" height="67" viewBox="0 0 102 67" fill="none" xmlns="http://www.w3.org/2000/svg">
<path d="M53.6394 0C53.4853 5.63537 51.5469 10.828 48.6294 16.443C48.7007 19.0625 48.6824 21.5393 49.3043 24.6945C50.9433 22.2047 55.2133 17.0833 57.6718 7.8868C57.1857 5.04128 55.8705 1.69061 53.6394 0Z" fill="#0274B3"/>
<path d="M65.3348 14.3105L67.0832 16.035C63.6795 23.9429 51.2451 43.7468 47.9487 23.7616C47.2745 19.6681 47.3797 14.4788 47.1503 9.84154C46.9893 7.58739 46.7449 4.06291 43.1342 3.95496C38.3625 3.81102 35.4355 9.22165 32.9681 14.1828C24.8179 34.1741 38.7658 43.26 46.142 29.6142C45.8657 27.8734 45.5893 26.1325 45.3137 24.3917C45.0339 25.1161 41.9671 32.8725 38.6327 32.713C38.023 32.6838 37.5348 32.4007 37.5348 32.4007C36.0201 31.5207 35.8693 29.0038 36.0398 25.755C36.2638 21.4959 38.7617 12.0427 41.5896 8.78847C42.9006 7.2805 43.6373 7.19088 44.078 7.31717C45.6701 7.77275 45.8093 12.3462 45.9526 17.031C46.034 19.6987 45.9057 20.9188 46.1929 23.712C46.5921 27.6004 47.542 32.9567 51.3428 35.0968C53.8529 36.5097 56.6944 35.3012 58.8399 33.7783C61.6956 31.7509 64.019 28.9706 66.0647 26.1556C67.0268 24.8316 67.9325 23.4649 68.7765 22.0628C68.9476 21.779 70.8378 18.778 70.6606 18.6137L72.4015 20.2228L72.7966 11.9966L65.3348 14.3098V14.3105Z" fill="#0274B3"/>
<path d="M3.07704 47.9439C1.0259 50.01 0 52.7034 0 56.0242C0 59.1427 0.912526 61.6379 2.73689 63.5105C4.56126 65.383 7.06662 66.32 10.2523 66.32C12.6945 66.32 14.6737 65.9533 16.1891 65.2194V60.9474C14.6737 61.8355 13.0034 62.2795 11.1791 62.2795C9.35471 62.2795 7.74693 61.6834 6.61782 60.4911C5.48803 59.2989 4.92382 57.6992 4.92382 55.6909C4.92382 53.6825 5.52198 51.9355 6.71967 50.7093C7.91667 49.4838 9.4905 48.87 11.4405 48.87C13.2166 48.87 14.8 49.2856 16.1898 50.1152V45.6117C14.8 45.1005 13.091 44.8445 11.0637 44.8445C7.79106 44.8445 5.12886 45.8772 3.07772 47.9433L3.07704 47.9439Z" fill="#0274B3"/>
<path d="M27.9026 59.5861C27.6711 60.3587 27.521 61.0683 27.4538 61.7146H27.3669C27.3187 61.1165 27.1788 60.426 26.9466 59.6438L22.6169 45.1921H17.5776L24.6442 65.9568H29.9442L37.0977 45.1921H32.2031L27.9026 59.5854V59.5861Z" fill="#0274B3"/>
<path d="M44.266 57.4144H51.0577V53.6204H44.266V49.0014H51.5642V45.1931H39.5894V65.9577H52.0422V62.1637H44.266V57.4144Z" fill="#0274B3"/>
<path d="M60.0494 57.4144H66.8404V53.6204H60.0494V49.0014H67.3476V45.1931H55.3721V65.9577H67.8256V62.1637H60.0494V57.4144Z" fill="#0274B3"/>
<path d="M75.8341 57.4144H82.6251V53.6204H75.8341V49.0014H83.1322V45.1931H71.1567V65.9577H83.6096V62.1637H75.8341V57.4144Z" fill="#0274B3"/>
<path d="M91.4431 62.1637L101.855 47.8139V45.1931H85.9266V49.0014H95.8021L85.1587 63.2643V65.9577H101.884V62.1637H91.4431Z" fill="#0274B3"/>
</svg>
