<svg id="logo-navbar" xmlns="http://www.w3.org/2000/svg" width="101.884" height="66.32" viewBox="0 0 101.884 66.32">
  <path id="Path_1" data-name="Path 1" d="M53.639,0c-.154,5.635-2.092,10.828-5.01,16.443a45.2,45.2,0,0,0,.675,8.251c1.639-2.49,5.909-7.611,8.368-16.808C57.186,5.041,55.87,1.691,53.639,0Z" fill="#fff"/>
  <path id="Path_2" data-name="Path 2" d="M65.335,14.311l1.748,1.724c-3.4,7.908-15.838,27.712-19.134,7.727-.674-4.094-.569-9.283-.8-13.92-.161-2.254-.405-5.779-4.016-5.887-4.772-.144-7.7,5.267-10.166,10.228-8.15,19.991,5.8,29.077,13.174,15.431q-.414-2.611-.828-5.222c-.28.724-3.347,8.481-6.681,8.321a2.688,2.688,0,0,1-1.1-.312c-1.515-.88-1.666-3.4-1.5-6.646.224-4.259,2.722-13.712,5.55-16.967,1.311-1.508,2.048-1.6,2.488-1.471,1.592.456,1.731,5.029,1.875,9.714.081,2.668-.047,3.888.24,6.681.4,3.888,1.349,9.245,5.15,11.385,2.51,1.413,5.352.2,7.5-1.319a32.759,32.759,0,0,0,7.225-7.623q1.443-1.986,2.712-4.093c.171-.284,2.061-3.285,1.884-3.449L72.4,20.223,72.8,12,65.335,14.31Z" fill="#fff"/>
  <path id="Path_3" data-name="Path 3" d="M3.077,47.944A10.973,10.973,0,0,0,0,56.024a10.268,10.268,0,0,0,2.737,7.486,10.008,10.008,0,0,0,7.515,2.809,13.689,13.689,0,0,0,5.937-1.1V60.947a9.729,9.729,0,0,1-5.01,1.332,6.117,6.117,0,0,1-4.561-1.788,6.691,6.691,0,0,1-1.694-4.8,6.962,6.962,0,0,1,1.8-4.982,6.3,6.3,0,0,1,4.721-1.839,9.087,9.087,0,0,1,4.749,1.245v-4.5a14.945,14.945,0,0,0-5.126-.767,10.762,10.762,0,0,0-7.986,3.1Z" fill="#fff"/>
  <path id="Path_4" data-name="Path 4" d="M27.9,59.586a11.7,11.7,0,0,0-.449,2.128h-.087a10.322,10.322,0,0,0-.42-2.071l-4.33-14.452H17.578l7.067,20.765h5.3L37.1,45.192H32.2L27.9,59.585Z" fill="#fff"/>
  <path id="Path_5" data-name="Path 5" d="M44.266,57.414h6.792V53.62H44.266V49h7.3V45.193H39.589V65.958H52.042V62.164H44.266Z" fill="#fff"/>
  <path id="Path_6" data-name="Path 6" d="M60.049,57.414H66.84V53.62H60.049V49h7.3V45.193H55.372V65.958H67.826V62.164H60.049Z" fill="#fff"/>
  <path id="Path_7" data-name="Path 7" d="M75.834,57.414h6.791V53.62H75.834V49h7.3V45.193H71.157V65.958H83.61V62.164H75.834Z" fill="#fff"/>
  <path id="Path_8" data-name="Path 8" d="M91.443,62.164l10.412-14.35V45.193H85.927V49H95.8L85.159,63.264v2.693h16.725V62.164Z" fill="#fff"/>
</svg>
