<svg width="16" height="15" viewBox="0 0 16 15" fill="none" xmlns="http://www.w3.org/2000/svg">
<path d="M12.6667 0H3.33333C1.4933 0.00225417 0.00220408 1.52724 0 3.40909V11.5909C0.00220408 13.4728 1.4933 14.9977 3.33333 15H12.6667C14.5067 14.9977 15.9978 13.4728 16 11.5909V3.40909C15.9978 1.52724 14.5067 0.00225417 12.6667 0ZM3.33333 1.36364H12.6667C13.4833 1.36528 14.217 1.87459 14.52 2.65023L9.41467 7.87227C8.63245 8.66906 7.36755 8.66906 6.58533 7.87227L1.48 2.65023C1.78299 1.87459 2.51665 1.36528 3.33333 1.36364ZM12.6667 13.6364H3.33333C2.22876 13.6364 1.33333 12.7206 1.33333 11.5909V4.43182L5.64267 8.83636C6.94555 10.1655 9.05445 10.1655 10.3573 8.83636L14.6667 4.43182V11.5909C14.6667 12.7206 13.7712 13.6364 12.6667 13.6364Z" fill="#9F9D9D"/>
</svg>
