<svg width="14" height="21" viewBox="0 0 14 21" fill="none" xmlns="http://www.w3.org/2000/svg">
<path d="M7.8284 17.3044C7.8284 17.7459 7.45756 18.1037 7 18.1037C6.54244 18.1037 6.1716 17.7459 6.1716 17.3044C6.1716 16.8629 6.54244 16.5051 7 16.5051C7.45756 16.5051 7.8284 16.8629 7.8284 17.3044ZM14 2.39784V18.0637C14 19.386 12.8853 20.4615 11.5148 20.4615H2.48521C1.11485 20.4615 0 19.386 0 18.0637V2.39784C0 1.07553 1.11485 0 2.48521 0H11.5148C12.8853 0 14 1.07553 14 2.39784ZM1.6568 2.39784V14.0673H12.3432V2.39784C12.3432 1.95711 11.9716 1.59856 11.5148 1.59856H2.48521C2.02855 1.59856 1.6568 1.95711 1.6568 2.39784ZM12.3432 18.0637V15.6659H1.6568V18.0637C1.6568 18.5044 2.02855 18.863 2.48521 18.863H11.5148C11.9716 18.863 12.3432 18.5044 12.3432 18.0637Z" fill="#9F9D9D"/>
</svg>
