<svg width="21" height="19" viewBox="0 0 21 19" fill="none" xmlns="http://www.w3.org/2000/svg">
<path d="M20.155 3.82301H5.9075C5.81534 3.82301 5.72695 3.85962 5.66178 3.92479C5.59661 3.98996 5.56 4.07835 5.56 4.17051C5.56 4.26267 5.59661 4.35106 5.66178 4.41623C5.72695 4.4814 5.81534 4.51801 5.9075 4.51801H8.00814C7.2496 5.00069 6.62669 5.66885 6.19831 6.45932C5.76994 7.2498 5.55024 8.13647 5.56 9.03551C5.55024 9.93455 5.76994 10.8212 6.19831 11.6117C6.62669 12.4022 7.2496 13.0703 8.00814 13.553H0.695V4.51801H4.17C4.26216 4.51801 4.35055 4.4814 4.41572 4.41623C4.48089 4.35106 4.5175 4.26267 4.5175 4.17051C4.5175 4.07835 4.48089 3.98996 4.41572 3.92479C4.35055 3.85962 4.26216 3.82301 4.17 3.82301H0.695C0.510675 3.82301 0.333899 3.89623 0.203561 4.02657C0.073223 4.15691 0 4.33368 0 4.51801L0 13.553C0 13.7373 0.073223 13.9141 0.203561 14.0444C0.333899 14.1748 0.510675 14.248 0.695 14.248H20.155C20.3393 14.248 20.5161 14.1748 20.6464 14.0444C20.7768 13.9141 20.85 13.7373 20.85 13.553V4.51801C20.85 4.33368 20.7768 4.15691 20.6464 4.02657C20.5161 3.89623 20.3393 3.82301 20.155 3.82301ZM6.255 9.03551C6.255 6.54463 8.12559 4.51801 10.425 4.51801C12.7244 4.51801 14.595 6.54463 14.595 9.03551C14.595 11.5264 12.7244 13.553 10.425 13.553C8.12559 13.553 6.255 11.5264 6.255 9.03551ZM20.155 13.553H12.8419C13.6004 13.0703 14.2233 12.4022 14.6517 11.6117C15.0801 10.8212 15.2998 9.93455 15.29 9.03551C15.2998 8.13647 15.0801 7.2498 14.6517 6.45932C14.2233 5.66885 13.6004 5.00069 12.8419 4.51801H20.155V13.553ZM18.3258 0.0734844C18.1612 -0.00884567 17.9708 -0.0225917 17.7962 0.0352594L10.311 2.54386C10.2668 2.5577 10.2259 2.58021 10.1905 2.61007C10.1551 2.63994 10.126 2.67656 10.105 2.71779C10.0839 2.75902 10.0713 2.80404 10.0679 2.8502C10.0644 2.89637 10.0702 2.94276 10.0849 2.98666C10.0996 3.03056 10.1229 3.07109 10.1535 3.10588C10.184 3.14067 10.2212 3.16902 10.2628 3.18926C10.3044 3.20951 10.3497 3.22125 10.3959 3.2238C10.4422 3.22635 10.4884 3.21966 10.532 3.20411L18.0151 0.695509L18.7831 2.98519C18.8141 3.07048 18.8772 3.14028 18.9589 3.17973C19.0407 3.21918 19.1346 3.22516 19.2207 3.19639C19.3067 3.16762 19.3782 3.10638 19.4198 3.02571C19.4614 2.94505 19.4698 2.85133 19.4433 2.76452L18.675 0.476237C18.6467 0.389169 18.6012 0.308667 18.5412 0.23949C18.4812 0.170312 18.4079 0.113865 18.3258 0.0734844ZM10.318 14.8673L2.8349 17.3755L2.06693 15.0858C2.0359 15.0005 1.9728 14.9307 1.89107 14.8913C1.80933 14.8518 1.71542 14.8459 1.62935 14.8746C1.54327 14.9034 1.47182 14.9646 1.43023 15.0453C1.38864 15.126 1.38019 15.2197 1.40668 15.3065L2.17361 17.5941C2.2306 17.7696 2.3557 17.9148 2.52111 17.9968C2.6857 18.0789 2.87604 18.0926 3.0507 18.0351L10.5359 15.5265C10.58 15.5126 10.621 15.4901 10.6564 15.4602C10.6918 15.4304 10.7208 15.3938 10.7419 15.3525C10.7629 15.3113 10.7756 15.2663 10.779 15.2201C10.7824 15.174 10.7767 15.1276 10.762 15.0837C10.7473 15.0398 10.724 14.9992 10.6934 14.9644C10.6629 14.9297 10.6257 14.9013 10.5841 14.8811C10.5424 14.8608 10.4972 14.8491 10.4509 14.8465C10.4047 14.844 10.3584 14.8507 10.3148 14.8662L10.318 14.8673Z" fill="#A1A1AA"/>
<path d="M11.4667 7.81914C11.4667 7.9113 11.5033 7.99969 11.5684 8.06486C11.6336 8.13003 11.722 8.16664 11.8142 8.16664C11.9063 8.16664 11.9947 8.13003 12.0599 8.06486C12.125 7.99969 12.1617 7.9113 12.1617 7.81914C12.1454 7.44162 11.9975 7.0817 11.7436 6.80184C11.4897 6.52198 11.1458 6.33983 10.7717 6.28701V6.25539C10.7717 6.16323 10.735 6.07484 10.6699 6.00967C10.6047 5.9445 10.5163 5.90789 10.4242 5.90789C10.332 5.90789 10.2436 5.9445 10.1784 6.00967C10.1133 6.07484 10.0767 6.16323 10.0767 6.25539V6.28701C9.7025 6.33983 9.35863 6.52198 9.10473 6.80184C8.85083 7.0817 8.70292 7.44162 8.68666 7.81914C8.70292 8.19666 8.85083 8.55658 9.10473 8.83644C9.35863 9.1163 9.7025 9.29845 10.0767 9.35127V11.0669C9.88837 11.0242 9.71894 10.9217 9.59368 10.7748C9.46842 10.6278 9.39405 10.4443 9.38166 10.2516C9.38166 10.1595 9.34505 10.0711 9.27988 10.0059C9.21471 9.94075 9.12632 9.90414 9.03416 9.90414C8.942 9.90414 8.85361 9.94075 8.78844 10.0059C8.72327 10.0711 8.68666 10.1595 8.68666 10.2516C8.70292 10.6292 8.85083 10.9891 9.10473 11.2689C9.35863 11.5488 9.7025 11.7309 10.0767 11.7838V11.8154C10.0767 11.9076 10.1133 11.9959 10.1784 12.0611C10.2436 12.1263 10.332 12.1629 10.4242 12.1629C10.5163 12.1629 10.6047 12.1263 10.6699 12.0611C10.735 11.9959 10.7717 11.9076 10.7717 11.8154V11.7838C11.1458 11.7309 11.4897 11.5488 11.7436 11.2689C11.9975 10.9891 12.1454 10.6292 12.1617 10.2516C12.1454 9.87412 11.9975 9.5142 11.7436 9.23434C11.4897 8.95448 11.1458 8.77233 10.7717 8.71951V7.0039C10.96 7.04662 11.1294 7.1491 11.2546 7.29603C11.3799 7.44296 11.4543 7.62646 11.4667 7.81914ZM9.38166 7.81914C9.39405 7.62646 9.46842 7.44296 9.59368 7.29603C9.71894 7.1491 9.88837 7.04662 10.0767 7.0039V8.63437C9.88837 8.59166 9.71894 8.48918 9.59368 8.34225C9.46842 8.19532 9.39405 8.01182 9.38166 7.81914ZM11.4667 10.2516C11.4543 10.4443 11.3799 10.6278 11.2546 10.7748C11.1294 10.9217 10.96 11.0242 10.7717 11.0669V9.4364C10.96 9.47912 11.1294 9.58159 11.2546 9.72852C11.3799 9.87545 11.4543 10.059 11.4667 10.2516ZM17.7217 12.8579H19.1117C19.2038 12.8579 19.2922 12.8213 19.3574 12.7561C19.4226 12.6909 19.4592 12.6026 19.4592 12.5104V11.1204C19.4592 11.0282 19.4226 10.9398 19.3574 10.8747C19.2922 10.8095 19.2038 10.7729 19.1117 10.7729C19.0195 10.7729 18.9311 10.8095 18.8659 10.8747C18.8008 10.9398 18.7642 11.0282 18.7642 11.1204V12.1629H17.7217C17.6295 12.1629 17.5411 12.1995 17.4759 12.2647C17.4108 12.3298 17.3742 12.4182 17.3742 12.5104C17.3742 12.6026 17.4108 12.6909 17.4759 12.7561C17.5411 12.8213 17.6295 12.8579 17.7217 12.8579ZM1.73666 10.7729C1.6445 10.7729 1.55611 10.8095 1.49094 10.8747C1.42577 10.9398 1.38916 11.0282 1.38916 11.1204V12.5104C1.38916 12.6026 1.42577 12.6909 1.49094 12.7561C1.55611 12.8213 1.6445 12.8579 1.73666 12.8579H3.12666C3.21882 12.8579 3.30721 12.8213 3.37238 12.7561C3.43755 12.6909 3.47416 12.6026 3.47416 12.5104C3.47416 12.4182 3.43755 12.3298 3.37238 12.2647C3.30721 12.1995 3.21882 12.1629 3.12666 12.1629H2.08416V11.1204C2.08416 11.0282 2.04755 10.9398 1.98238 10.8747C1.91721 10.8095 1.82882 10.7729 1.73666 10.7729ZM3.12666 5.21289H1.73666C1.6445 5.21289 1.55611 5.2495 1.49094 5.31467C1.42577 5.37984 1.38916 5.46823 1.38916 5.56039V6.95039C1.38916 7.04255 1.42577 7.13094 1.49094 7.19611C1.55611 7.26128 1.6445 7.29789 1.73666 7.29789C1.82882 7.29789 1.91721 7.26128 1.98238 7.19611C2.04755 7.13094 2.08416 7.04255 2.08416 6.95039V5.90789H3.12666C3.21882 5.90789 3.30721 5.87128 3.37238 5.80611C3.43755 5.74094 3.47416 5.65255 3.47416 5.56039C3.47416 5.46823 3.43755 5.37984 3.37238 5.31467C3.30721 5.2495 3.21882 5.21289 3.12666 5.21289ZM17.7217 5.90789H18.7642V6.95039C18.7642 7.04255 18.8008 7.13094 18.8659 7.19611C18.9311 7.26128 19.0195 7.29789 19.1117 7.29789C19.2038 7.29789 19.2922 7.26128 19.3574 7.19611C19.4226 7.13094 19.4592 7.04255 19.4592 6.95039V5.56039C19.4592 5.46823 19.4226 5.37984 19.3574 5.31467C19.2922 5.2495 19.2038 5.21289 19.1117 5.21289H17.7217C17.6295 5.21289 17.5411 5.2495 17.4759 5.31467C17.4108 5.37984 17.3742 5.46823 17.3742 5.56039C17.3742 5.65255 17.4108 5.74094 17.4759 5.80611C17.5411 5.87128 17.6295 5.90789 17.7217 5.90789Z" fill="#A1A1AA"/>
</svg>
