<svg width="42" height="42" viewBox="0 0 42 42" fill="none" xmlns="http://www.w3.org/2000/svg">
<rect x="0.5" y="0.5" width="41" height="41" rx="9.5" stroke="#EEEEEE"/>
<g clip-path="url(#clip0_2578_8686)">
<path fill-rule="evenodd" clip-rule="evenodd" d="M15.3381 30.5336C14.8811 30.7761 14.318 30.6045 14.066 30.1458C13.9931 30.0037 13.9538 29.8462 13.9512 29.6858V15.4981C13.9512 12.7923 15.7622 11.71 18.3683 11.71H24.4904C27.017 11.71 28.9075 12.7201 28.9075 15.3178V29.6858C28.9075 29.9417 28.8079 30.1872 28.6307 30.3682C28.4534 30.5492 28.213 30.6509 27.9623 30.6509C27.8024 30.6483 27.6452 30.6082 27.5029 30.5336L21.743 27.3317C21.5307 27.2146 21.275 27.2146 21.0627 27.3317L15.3381 30.5336Z" fill="#0274B3" stroke="white" stroke-width="1.47188" stroke-linecap="round" stroke-linejoin="round"/>
<path d="M17.9395 18.1897H24.9191" stroke="white" stroke-width="1.47188" stroke-linecap="round" stroke-linejoin="round"/>
</g>
<defs>
<clipPath id="clip0_2578_8686">
<rect width="17" height="22" fill="white" transform="translate(13 10)"/>
</clipPath>
</defs>
</svg>
