<svg width="29" height="29" viewBox="0 0 29 29" fill="none" xmlns="http://www.w3.org/2000/svg">
<path d="M20.4866 20.8679L26.6201 27.0015L20.4866 20.8679ZM2.08594 12.9819C2.08594 14.3627 2.35791 15.73 2.88632 17.0057C3.41473 18.2814 4.18923 19.4405 5.16561 20.4169C6.14199 21.3933 7.30111 22.1678 8.57681 22.6962C9.85251 23.2246 11.2198 23.4966 12.6006 23.4966C13.9814 23.4966 15.3487 23.2246 16.6244 22.6962C17.9001 22.1678 19.0592 21.3933 20.0356 20.4169C21.012 19.4405 21.7865 18.2814 22.3149 17.0057C22.8433 15.73 23.1152 14.3627 23.1152 12.9819C23.1152 10.1933 22.0075 7.51884 20.0356 5.54696C18.0637 3.57508 15.3893 2.46729 12.6006 2.46729C9.81193 2.46729 7.13749 3.57508 5.16561 5.54696C3.19373 7.51884 2.08594 10.1933 2.08594 12.9819V12.9819Z" stroke="#0274B3" stroke-width="3.1544" stroke-linecap="round" stroke-linejoin="round"/>
</svg>
