<svg width="14" height="18" viewBox="0 0 14 18" fill="none" xmlns="http://www.w3.org/2000/svg">
<path d="M6.99968 0C4.09716 0 1.7357 2.36137 1.7357 5.26398V8.27038C1.7357 8.30454 1.69354 8.36211 1.66042 8.37312C1.37576 8.46804 1.14458 8.5503 0.932951 8.63188C0.680581 8.72918 0.490234 9.00886 0.490234 9.28248V16.1903C0.490234 16.4621 0.679351 16.742 0.930122 16.8414C2.87039 17.6102 4.91248 18 6.99965 18C9.08682 18 11.1289 17.6101 13.0693 16.8413C13.3199 16.7419 13.509 16.4621 13.509 16.1903V9.28248C13.509 9.00886 13.3187 8.72918 13.0662 8.63179C12.8544 8.55021 12.6233 8.46795 12.3388 8.37303C12.3058 8.36202 12.2637 8.30442 12.2637 8.27026V5.26389C12.2635 2.36137 9.9022 0 6.99968 0ZM5.5659 11.3864C5.5659 10.594 6.20782 9.95272 6.99959 9.95272C7.79129 9.95272 8.43321 10.5939 8.43321 11.3864C8.43321 11.9114 8.13711 12.351 7.71638 12.6003V14.9705C7.71638 15.3668 7.39578 15.6874 6.99956 15.6874C6.6033 15.6874 6.28273 15.3668 6.28273 14.9705V12.6003C5.86203 12.351 5.5659 11.9114 5.5659 11.3864ZM10.4536 5.26389V7.85786C9.31864 7.61396 8.16103 7.49085 7.00014 7.49061C5.83894 7.49094 4.68103 7.61395 3.54568 7.85758V5.26389C3.54568 3.35935 5.09508 1.80998 6.99959 1.80998C8.90407 1.80995 10.4536 3.35935 10.4536 5.26389Z" fill="#C5C5C5"/>
</svg>
