<svg width="221" height="189" viewBox="0 0 221 189" fill="none" xmlns="http://www.w3.org/2000/svg">
<path fill-rule="evenodd" clip-rule="evenodd" d="M105.395 9.92784L2.69884 70.454C0.827757 71.5568 0.211387 73.9566 1.32214 75.8142C1.65635 76.3732 2.12558 76.8406 2.68743 77.1743L105.832 138.433C108.218 139.849 111.179 139.913 113.625 138.601L214.623 84.3917C216.537 83.3644 217.25 80.991 216.215 79.0906C215.912 78.5339 215.478 78.0585 214.949 77.7053L113.816 10.1638C111.29 8.47719 108.012 8.38535 105.395 9.92784Z" fill="#012367"/>
<path fill-rule="evenodd" clip-rule="evenodd" d="M32.1052 0H188.895C193.198 0 196.686 3.48094 196.686 7.77489V154.729C196.686 159.023 193.198 162.504 188.895 162.504H32.1052C27.8027 162.504 24.3149 159.023 24.3149 154.729V7.77489C24.3149 3.48094 27.8027 0 32.1052 0Z" fill="#F6F8FB"/>
<path fill-rule="evenodd" clip-rule="evenodd" d="M0.690063 72.8608V177.336C0.690063 183.777 5.92177 188.998 12.3754 188.998H208.624C215.078 188.998 220.309 183.777 220.309 177.336V85.7342C220.309 81.4403 216.822 77.9593 212.519 77.9593C211.256 77.9593 210.011 78.266 208.893 78.8529L114.549 128.371C112.287 129.559 109.585 129.563 107.319 128.383L0.690063 72.8608Z" fill="#042F86"/>
<path fill-rule="evenodd" clip-rule="evenodd" d="M97.6431 114.142L8.35457 178.44C5.73781 180.325 5.14711 183.969 7.03522 186.581C8.13352 188.1 9.89625 189 11.7733 189H111.427H209.457C212.684 189 215.3 186.389 215.3 183.169C215.3 181.311 214.413 179.564 212.912 178.466L125.136 114.245C116.963 108.266 105.861 108.224 97.6431 114.142Z" fill="#012367"/>
<path fill-rule="evenodd" clip-rule="evenodd" d="M41.8537 20.3145H83.7732C85.7281 20.3145 87.3128 21.8961 87.3128 23.8471C87.3128 25.7982 85.7281 27.3798 83.7732 27.3798H41.8537C39.8988 27.3798 38.3141 25.7982 38.3141 23.8471C38.3141 21.8961 39.8988 20.3145 41.8537 20.3145Z" fill="#367CFF"/>
<path fill-rule="evenodd" clip-rule="evenodd" d="M41.8537 35.3259H74.1484C76.1033 35.3259 77.6881 36.9076 77.6881 38.8586C77.6881 40.8097 76.1033 42.3913 74.1484 42.3913H41.8537C39.8988 42.3913 38.3141 40.8097 38.3141 38.8586C38.3141 36.9076 39.8988 35.3259 41.8537 35.3259Z" fill="#367CFF"/>
<path fill-rule="evenodd" clip-rule="evenodd" d="M110.249 94.9903C124.746 94.9903 136.499 83.128 136.499 68.4952C136.499 53.8623 124.746 42 110.249 42C95.7522 42 84 53.8623 84 68.4952C84 83.128 95.7522 94.9903 110.249 94.9903Z" fill="#367CFF"/>
<path d="M97 69.1588L104.625 76.0999C105.425 76.8274 106.655 76.795 107.415 76.0264L123.261 60" stroke="#F9FDFF" stroke-width="4.40166" stroke-linecap="round"/>
</svg>
