<svg width="23" height="21" viewBox="0 0 23 21" fill="none" xmlns="http://www.w3.org/2000/svg">
<path d="M21.22 14.8997C20.1149 14.8569 19.0141 14.7376 17.9255 14.5427C18.3636 13.616 18.5961 12.6048 18.6063 11.5787C18.6171 10.5084 18.3857 9.44954 17.9296 8.48125C17.4734 7.51295 16.8043 6.66028 15.9723 5.98698C15.1402 5.31368 14.1668 4.83715 13.1246 4.59304C12.0825 4.34892 10.9986 4.34352 9.95413 4.57724C8.90961 4.81096 7.93143 5.27776 7.09272 5.94274C6.254 6.60771 5.57644 7.45367 5.11069 8.41737C4.64493 9.38107 4.40303 10.4376 4.40307 11.5079L4.40307 11.508C4.40394 12.5589 4.6397 13.5957 5.09244 14.5428C4.00284 14.7378 2.901 14.8571 1.79481 14.8998L1.79464 14.8998C1.66838 14.9049 1.54661 14.9481 1.44539 15.0238C1.34418 15.0994 1.26826 15.204 1.22763 15.3237C1.18701 15.4433 1.18359 15.5725 1.21782 15.6941C1.25205 15.8158 1.32233 15.9242 1.4194 16.0051L1.41942 16.0051L2.91728 17.2532L2.07986 19.4903C2.07985 19.4903 2.07984 19.4903 2.07983 19.4904C2.04211 19.5907 2.03081 19.6991 2.04702 19.805C2.06324 19.911 2.10643 20.0111 2.17245 20.0955C2.23847 20.18 2.3251 20.2461 2.42403 20.2875L2.4626 20.1952L2.42403 20.2875C2.52296 20.3288 2.63085 20.344 2.73736 20.3317L2.73736 20.3317L2.73937 20.3314C5.09229 20.0098 7.38314 19.335 9.5346 18.3299C10.8233 18.7077 12.1935 18.7077 13.4822 18.3299C15.6335 19.3349 17.9243 20.0097 20.2771 20.3314L20.2786 20.3316C20.3853 20.3445 20.4935 20.3297 20.5928 20.2886C20.6921 20.2475 20.7791 20.1815 20.8455 20.097C20.9119 20.0125 20.9553 19.9123 20.9717 19.8061C20.9881 19.6999 20.9768 19.5913 20.939 19.4907L20.1002 17.2532L21.5981 16.0051L21.5981 16.0051C21.6951 15.9242 21.7654 15.8158 21.7997 15.6941C21.8339 15.5725 21.8305 15.4433 21.7898 15.3237C21.7492 15.204 21.6733 15.0994 21.5721 15.0238C21.4709 14.9481 21.3491 14.9049 21.2228 14.8998L21.2228 14.8997H21.22ZM5.4895 17.1509L5.48951 17.151L5.49156 17.1504C5.6047 17.1173 5.70035 17.0412 5.75799 16.9383C5.81562 16.8355 5.83063 16.7142 5.7998 16.6004C5.76897 16.4867 5.69476 16.3895 5.5931 16.3299C5.49143 16.2702 5.37043 16.2528 5.25608 16.2814L5.25607 16.2813L5.25435 16.2818C4.69538 16.4321 4.12619 16.5413 3.55133 16.6086L2.5363 15.7629C3.54979 15.6952 4.55815 15.5646 5.55555 15.3718C6.25069 16.4391 7.21805 17.3003 8.35649 17.8673C6.66603 18.5784 4.89627 19.0841 3.08517 19.3734L3.79298 17.4859C4.36559 17.4129 4.93216 17.301 5.4895 17.1509ZM17.7624 16.2818L17.7624 16.2818L17.7607 16.2814C17.6463 16.2528 17.5253 16.2702 17.4237 16.3299C17.322 16.3895 17.2478 16.4867 17.217 16.6004C17.1861 16.7142 17.2012 16.8355 17.2588 16.9383C17.3164 17.0412 17.4121 17.1173 17.5252 17.1504L17.5252 17.1504L17.5273 17.1509C18.0847 17.301 18.6515 17.4126 19.2238 17.4858L19.9316 19.3734C18.1205 19.0841 16.3507 18.5784 14.6603 17.8673C15.7987 17.3003 16.7661 16.4391 17.4612 15.3718C18.4586 15.5646 19.467 15.6952 20.4805 15.7629L19.4654 16.6086C18.8906 16.5413 18.3214 16.4321 17.7624 16.2818ZM5.3036 11.5078C5.30367 8.0811 8.08166 5.30315 11.5084 5.30315C14.9352 5.30315 17.7132 8.08117 17.7132 11.5079C17.7132 14.9347 14.9352 17.7126 11.5085 17.7127C8.0834 17.7086 5.30774 14.9329 5.3036 11.5078Z" fill="white" stroke="white" stroke-width="0.2"/>
<mask id="path-2-outside-1_513_68620" maskUnits="userSpaceOnUse" x="0" y="0" width="23" height="17" fill="black">
<rect fill="white" width="23" height="17"/>
<path d="M14.3353 12.4106L16.6569 10.1153C16.7031 10.0696 16.7357 10.0118 16.751 9.94859C16.7662 9.88536 16.7636 9.81912 16.7434 9.7573C16.7231 9.69548 16.686 9.64052 16.6363 9.59858C16.5866 9.55665 16.5261 9.52939 16.4618 9.51987L13.2562 9.04736L11.8232 6.10092C11.7912 6.04565 11.7452 5.99977 11.6899 5.96787C11.6346 5.93598 11.5718 5.91919 11.508 5.91919C11.4441 5.91919 11.3814 5.93598 11.326 5.96787C11.2707 5.99977 11.2247 6.04565 11.1927 6.10092L9.7584 9.04736L6.55276 9.51987C6.48841 9.52939 6.42798 9.55665 6.37825 9.59858C6.32852 9.64052 6.29145 9.69548 6.27119 9.7573C6.25094 9.81912 6.2483 9.88536 6.26357 9.94859C6.27885 10.0118 6.31143 10.0696 6.35767 10.1153L8.68028 12.4106L8.13141 15.6527C8.12048 15.7172 8.12787 15.7836 8.15274 15.8441C8.17761 15.9047 8.21897 15.9571 8.27211 15.9954C8.32525 16.0336 8.38806 16.0562 8.45339 16.0606C8.51873 16.065 8.58398 16.0509 8.64175 16.0201L11.508 14.4926L14.3738 16.0201C14.4316 16.0507 14.4968 16.0646 14.562 16.0602C14.6272 16.0557 14.6899 16.0331 14.7429 15.9948C14.7959 15.9566 14.8372 15.9043 14.862 15.8438C14.8869 15.7834 14.8943 15.7171 14.8835 15.6527L14.3353 12.4106ZM11.6733 13.7865C11.6225 13.7596 11.5658 13.7455 11.5083 13.7455C11.4508 13.7455 11.3942 13.7596 11.3433 13.7865L8.94158 15.0667L9.40147 12.3486C9.41086 12.2932 9.40675 12.2363 9.38949 12.1827C9.37224 12.1292 9.34235 12.0806 9.30235 12.0411L7.34962 10.1111L10.0435 9.71426C10.0999 9.70598 10.1535 9.68403 10.1995 9.65034C10.2456 9.61664 10.2827 9.57221 10.3076 9.52092L11.508 7.05434L12.7083 9.52022C12.7333 9.57151 12.7704 9.61594 12.8164 9.64963C12.8624 9.68333 12.916 9.70528 12.9724 9.71356L15.6663 10.1104L13.7146 12.0404C13.6746 12.0799 13.6448 12.1285 13.6275 12.182C13.6103 12.2356 13.6061 12.2925 13.6155 12.3479L14.0754 15.0667L11.6733 13.7865ZM14.9406 2.31245L14.5378 3.28268C14.5202 3.32518 14.5111 3.37074 14.5111 3.41675C14.5111 3.46276 14.5201 3.50832 14.5377 3.55083C14.5553 3.59334 14.5811 3.63197 14.6136 3.66451C14.6461 3.69705 14.6848 3.72286 14.7273 3.74048C14.8131 3.77606 14.9096 3.77608 14.9954 3.74055C15.0379 3.72295 15.0765 3.69715 15.1091 3.66463C15.1416 3.6321 15.1674 3.59349 15.1851 3.55099L15.5879 2.58075C15.6234 2.49491 15.6235 2.39846 15.5879 2.31261C15.5524 2.22675 15.4842 2.15853 15.3984 2.12295C15.3125 2.08737 15.2161 2.08735 15.1302 2.12289C15.0444 2.15842 14.9762 2.22661 14.9406 2.31245ZM19.2755 8.29008C19.2931 8.33259 19.3189 8.37121 19.3514 8.40374C19.384 8.43628 19.4226 8.46208 19.4651 8.47967C19.5076 8.49727 19.5532 8.50632 19.5992 8.5063C19.6452 8.50629 19.6908 8.4972 19.7333 8.47958L20.7039 8.07537C20.7896 8.0397 20.8577 7.97141 20.8932 7.88552C20.9286 7.79963 20.9285 7.70319 20.8928 7.6174C20.8571 7.53161 20.7889 7.4635 20.703 7.42806C20.6171 7.39262 20.5206 7.39276 20.4348 7.42843L19.4646 7.83158C19.422 7.84922 19.3834 7.87508 19.3508 7.90769C19.3183 7.94029 19.2925 7.979 19.2749 8.02159C19.2573 8.06418 19.2483 8.10982 19.2484 8.15589C19.2485 8.20196 19.2577 8.24756 19.2755 8.29008ZM7.62002 2.12295C7.57751 2.14056 7.53889 2.16637 7.50636 2.19891C7.47383 2.23145 7.44803 2.27008 7.43043 2.31259C7.41284 2.35511 7.40379 2.40067 7.4038 2.44668C7.40382 2.49269 7.4129 2.53825 7.43053 2.58075L7.83334 3.55099C7.85095 3.59349 7.87677 3.6321 7.90931 3.66463C7.94185 3.69715 7.98048 3.72295 8.02299 3.74055C8.0655 3.75814 8.11106 3.76719 8.15707 3.76718C8.20307 3.76717 8.24863 3.7581 8.29113 3.74048C8.33363 3.72286 8.37225 3.69705 8.40477 3.66451C8.4373 3.63197 8.4631 3.59334 8.48069 3.55083C8.49829 3.50832 8.50734 3.46276 8.50733 3.41675C8.50732 3.37074 8.49824 3.32518 8.48063 3.28268L8.07537 2.31245C8.03979 2.2272 7.97198 2.15946 7.8867 2.12397C7.80142 2.08848 7.70557 2.08811 7.62002 2.12295ZM2.3121 8.07537L3.28268 8.47853C3.36829 8.51321 3.46414 8.51267 3.54935 8.47703C3.63457 8.44139 3.70226 8.37353 3.73768 8.28822C3.77311 8.20291 3.7734 8.10707 3.7385 8.02155C3.7036 7.93602 3.63633 7.86775 3.55134 7.83158L2.5811 7.42843C2.49531 7.39276 2.39886 7.39262 2.31298 7.42806C2.22709 7.4635 2.1588 7.53161 2.12313 7.6174C2.08746 7.70319 2.08732 7.79963 2.12276 7.88552C2.1582 7.97141 2.22631 8.0397 2.3121 8.07537ZM11.1577 1.35027V3.10159C11.1577 3.19449 11.1946 3.28358 11.2603 3.34927C11.326 3.41496 11.4151 3.45186 11.508 3.45186C11.6009 3.45186 11.69 3.41496 11.7556 3.34927C11.8213 3.28358 11.8582 3.19449 11.8582 3.10159V1.35027C11.8582 1.25737 11.8213 1.16828 11.7556 1.10259C11.69 1.0369 11.6009 1 11.508 1C11.4151 1 11.326 1.0369 11.2603 1.10259C11.1946 1.16828 11.1577 1.25737 11.1577 1.35027ZM18.4432 4.07779L17.205 5.31598C17.1716 5.34829 17.1449 5.38694 17.1266 5.42967C17.1082 5.4724 17.0985 5.51837 17.0981 5.56487C17.0977 5.61138 17.1066 5.6575 17.1242 5.70055C17.1418 5.7436 17.1678 5.78271 17.2007 5.81559C17.2336 5.84848 17.2727 5.87449 17.3157 5.8921C17.3588 5.90971 17.4049 5.91857 17.4514 5.91817C17.4979 5.91777 17.5439 5.9081 17.5866 5.88975C17.6294 5.87139 17.668 5.84471 17.7003 5.81125L18.9382 4.57271C18.9729 4.54073 19.0008 4.50206 19.0202 4.45902C19.0397 4.41598 19.0502 4.36945 19.0511 4.32225C19.0521 4.27504 19.0435 4.22812 19.0259 4.18431C19.0083 4.1405 18.982 4.1007 18.9486 4.06731C18.9152 4.03393 18.8754 4.00763 18.8316 3.99002C18.7878 3.9724 18.7409 3.96382 18.6937 3.9648C18.6465 3.96578 18.6 3.97629 18.5569 3.99571C18.5139 4.01512 18.4752 4.04304 18.4432 4.07779ZM4.07779 4.07779C4.01212 4.14347 3.97523 4.23255 3.97523 4.32542C3.97523 4.4183 4.01212 4.50738 4.07779 4.57306L5.31597 5.81125C5.38204 5.87505 5.47051 5.91036 5.56235 5.90956C5.65419 5.90876 5.74204 5.87193 5.80698 5.80698C5.87193 5.74204 5.90876 5.65419 5.90956 5.56235C5.91036 5.47051 5.87505 5.38204 5.81125 5.31598L4.57271 4.07779C4.50704 4.01223 4.41804 3.97541 4.32525 3.97541C4.23246 3.97541 4.14346 4.01223 4.07779 4.07779ZM3.10159 11.8582C3.19449 11.8582 3.28358 11.8213 3.34927 11.7556C3.41496 11.69 3.45186 11.6009 3.45186 11.508C3.45186 11.4151 3.41496 11.326 3.34927 11.2603C3.28358 11.1946 3.19449 11.1577 3.10159 11.1577H1.35027C1.25737 11.1577 1.16828 11.1946 1.10259 11.2603C1.0369 11.326 1 11.4151 1 11.508C1 11.6009 1.0369 11.69 1.10259 11.7556C1.16828 11.8213 1.25737 11.8582 1.35027 11.8582H3.10159ZM21.6657 11.1577H19.9144C19.8215 11.1577 19.7324 11.1946 19.6667 11.2603C19.601 11.326 19.5641 11.4151 19.5641 11.508C19.5641 11.6009 19.601 11.69 19.6667 11.7556C19.7324 11.8213 19.8215 11.8582 19.9144 11.8582H21.6657C21.7586 11.8582 21.8477 11.8213 21.9134 11.7556C21.979 11.69 22.0159 11.6009 22.0159 11.508C22.0159 11.4151 21.979 11.326 21.9134 11.2603C21.8477 11.1946 21.7586 11.1577 21.6657 11.1577Z"/>
</mask>
<path d="M14.3353 12.4106L16.6569 10.1153C16.7031 10.0696 16.7357 10.0118 16.751 9.94859C16.7662 9.88536 16.7636 9.81912 16.7434 9.7573C16.7231 9.69548 16.686 9.64052 16.6363 9.59858C16.5866 9.55665 16.5261 9.52939 16.4618 9.51987L13.2562 9.04736L11.8232 6.10092C11.7912 6.04565 11.7452 5.99977 11.6899 5.96787C11.6346 5.93598 11.5718 5.91919 11.508 5.91919C11.4441 5.91919 11.3814 5.93598 11.326 5.96787C11.2707 5.99977 11.2247 6.04565 11.1927 6.10092L9.7584 9.04736L6.55276 9.51987C6.48841 9.52939 6.42798 9.55665 6.37825 9.59858C6.32852 9.64052 6.29145 9.69548 6.27119 9.7573C6.25094 9.81912 6.2483 9.88536 6.26357 9.94859C6.27885 10.0118 6.31143 10.0696 6.35767 10.1153L8.68028 12.4106L8.13141 15.6527C8.12048 15.7172 8.12787 15.7836 8.15274 15.8441C8.17761 15.9047 8.21897 15.9571 8.27211 15.9954C8.32525 16.0336 8.38806 16.0562 8.45339 16.0606C8.51873 16.065 8.58398 16.0509 8.64175 16.0201L11.508 14.4926L14.3738 16.0201C14.4316 16.0507 14.4968 16.0646 14.562 16.0602C14.6272 16.0557 14.6899 16.0331 14.7429 15.9948C14.7959 15.9566 14.8372 15.9043 14.862 15.8438C14.8869 15.7834 14.8943 15.7171 14.8835 15.6527L14.3353 12.4106ZM11.6733 13.7865C11.6225 13.7596 11.5658 13.7455 11.5083 13.7455C11.4508 13.7455 11.3942 13.7596 11.3433 13.7865L8.94158 15.0667L9.40147 12.3486C9.41086 12.2932 9.40675 12.2363 9.38949 12.1827C9.37224 12.1292 9.34235 12.0806 9.30235 12.0411L7.34962 10.1111L10.0435 9.71426C10.0999 9.70598 10.1535 9.68403 10.1995 9.65034C10.2456 9.61664 10.2827 9.57221 10.3076 9.52092L11.508 7.05434L12.7083 9.52022C12.7333 9.57151 12.7704 9.61594 12.8164 9.64963C12.8624 9.68333 12.916 9.70528 12.9724 9.71356L15.6663 10.1104L13.7146 12.0404C13.6746 12.0799 13.6448 12.1285 13.6275 12.182C13.6103 12.2356 13.6061 12.2925 13.6155 12.3479L14.0754 15.0667L11.6733 13.7865ZM14.9406 2.31245L14.5378 3.28268C14.5202 3.32518 14.5111 3.37074 14.5111 3.41675C14.5111 3.46276 14.5201 3.50832 14.5377 3.55083C14.5553 3.59334 14.5811 3.63197 14.6136 3.66451C14.6461 3.69705 14.6848 3.72286 14.7273 3.74048C14.8131 3.77606 14.9096 3.77608 14.9954 3.74055C15.0379 3.72295 15.0765 3.69715 15.1091 3.66463C15.1416 3.6321 15.1674 3.59349 15.1851 3.55099L15.5879 2.58075C15.6234 2.49491 15.6235 2.39846 15.5879 2.31261C15.5524 2.22675 15.4842 2.15853 15.3984 2.12295C15.3125 2.08737 15.2161 2.08735 15.1302 2.12289C15.0444 2.15842 14.9762 2.22661 14.9406 2.31245ZM19.2755 8.29008C19.2931 8.33259 19.3189 8.37121 19.3514 8.40374C19.384 8.43628 19.4226 8.46208 19.4651 8.47967C19.5076 8.49727 19.5532 8.50632 19.5992 8.5063C19.6452 8.50629 19.6908 8.4972 19.7333 8.47958L20.7039 8.07537C20.7896 8.0397 20.8577 7.97141 20.8932 7.88552C20.9286 7.79963 20.9285 7.70319 20.8928 7.6174C20.8571 7.53161 20.7889 7.4635 20.703 7.42806C20.6171 7.39262 20.5206 7.39276 20.4348 7.42843L19.4646 7.83158C19.422 7.84922 19.3834 7.87508 19.3508 7.90769C19.3183 7.94029 19.2925 7.979 19.2749 8.02159C19.2573 8.06418 19.2483 8.10982 19.2484 8.15589C19.2485 8.20196 19.2577 8.24756 19.2755 8.29008ZM7.62002 2.12295C7.57751 2.14056 7.53889 2.16637 7.50636 2.19891C7.47383 2.23145 7.44803 2.27008 7.43043 2.31259C7.41284 2.35511 7.40379 2.40067 7.4038 2.44668C7.40382 2.49269 7.4129 2.53825 7.43053 2.58075L7.83334 3.55099C7.85095 3.59349 7.87677 3.6321 7.90931 3.66463C7.94185 3.69715 7.98048 3.72295 8.02299 3.74055C8.0655 3.75814 8.11106 3.76719 8.15707 3.76718C8.20307 3.76717 8.24863 3.7581 8.29113 3.74048C8.33363 3.72286 8.37225 3.69705 8.40477 3.66451C8.4373 3.63197 8.4631 3.59334 8.48069 3.55083C8.49829 3.50832 8.50734 3.46276 8.50733 3.41675C8.50732 3.37074 8.49824 3.32518 8.48063 3.28268L8.07537 2.31245C8.03979 2.2272 7.97198 2.15946 7.8867 2.12397C7.80142 2.08848 7.70557 2.08811 7.62002 2.12295ZM2.3121 8.07537L3.28268 8.47853C3.36829 8.51321 3.46414 8.51267 3.54935 8.47703C3.63457 8.44139 3.70226 8.37353 3.73768 8.28822C3.77311 8.20291 3.7734 8.10707 3.7385 8.02155C3.7036 7.93602 3.63633 7.86775 3.55134 7.83158L2.5811 7.42843C2.49531 7.39276 2.39886 7.39262 2.31298 7.42806C2.22709 7.4635 2.1588 7.53161 2.12313 7.6174C2.08746 7.70319 2.08732 7.79963 2.12276 7.88552C2.1582 7.97141 2.22631 8.0397 2.3121 8.07537ZM11.1577 1.35027V3.10159C11.1577 3.19449 11.1946 3.28358 11.2603 3.34927C11.326 3.41496 11.4151 3.45186 11.508 3.45186C11.6009 3.45186 11.69 3.41496 11.7556 3.34927C11.8213 3.28358 11.8582 3.19449 11.8582 3.10159V1.35027C11.8582 1.25737 11.8213 1.16828 11.7556 1.10259C11.69 1.0369 11.6009 1 11.508 1C11.4151 1 11.326 1.0369 11.2603 1.10259C11.1946 1.16828 11.1577 1.25737 11.1577 1.35027ZM18.4432 4.07779L17.205 5.31598C17.1716 5.34829 17.1449 5.38694 17.1266 5.42967C17.1082 5.4724 17.0985 5.51837 17.0981 5.56487C17.0977 5.61138 17.1066 5.6575 17.1242 5.70055C17.1418 5.7436 17.1678 5.78271 17.2007 5.81559C17.2336 5.84848 17.2727 5.87449 17.3157 5.8921C17.3588 5.90971 17.4049 5.91857 17.4514 5.91817C17.4979 5.91777 17.5439 5.9081 17.5866 5.88975C17.6294 5.87139 17.668 5.84471 17.7003 5.81125L18.9382 4.57271C18.9729 4.54073 19.0008 4.50206 19.0202 4.45902C19.0397 4.41598 19.0502 4.36945 19.0511 4.32225C19.0521 4.27504 19.0435 4.22812 19.0259 4.18431C19.0083 4.1405 18.982 4.1007 18.9486 4.06731C18.9152 4.03393 18.8754 4.00763 18.8316 3.99002C18.7878 3.9724 18.7409 3.96382 18.6937 3.9648C18.6465 3.96578 18.6 3.97629 18.5569 3.99571C18.5139 4.01512 18.4752 4.04304 18.4432 4.07779ZM4.07779 4.07779C4.01212 4.14347 3.97523 4.23255 3.97523 4.32542C3.97523 4.4183 4.01212 4.50738 4.07779 4.57306L5.31597 5.81125C5.38204 5.87505 5.47051 5.91036 5.56235 5.90956C5.65419 5.90876 5.74204 5.87193 5.80698 5.80698C5.87193 5.74204 5.90876 5.65419 5.90956 5.56235C5.91036 5.47051 5.87505 5.38204 5.81125 5.31598L4.57271 4.07779C4.50704 4.01223 4.41804 3.97541 4.32525 3.97541C4.23246 3.97541 4.14346 4.01223 4.07779 4.07779ZM3.10159 11.8582C3.19449 11.8582 3.28358 11.8213 3.34927 11.7556C3.41496 11.69 3.45186 11.6009 3.45186 11.508C3.45186 11.4151 3.41496 11.326 3.34927 11.2603C3.28358 11.1946 3.19449 11.1577 3.10159 11.1577H1.35027C1.25737 11.1577 1.16828 11.1946 1.10259 11.2603C1.0369 11.326 1 11.4151 1 11.508C1 11.6009 1.0369 11.69 1.10259 11.7556C1.16828 11.8213 1.25737 11.8582 1.35027 11.8582H3.10159ZM21.6657 11.1577H19.9144C19.8215 11.1577 19.7324 11.1946 19.6667 11.2603C19.601 11.326 19.5641 11.4151 19.5641 11.508C19.5641 11.6009 19.601 11.69 19.6667 11.7556C19.7324 11.8213 19.8215 11.8582 19.9144 11.8582H21.6657C21.7586 11.8582 21.8477 11.8213 21.9134 11.7556C21.979 11.69 22.0159 11.6009 22.0159 11.508C22.0159 11.4151 21.979 11.326 21.9134 11.2603C21.8477 11.1946 21.7586 11.1577 21.6657 11.1577Z" fill="white"/>
<path d="M14.3353 12.4106L16.6569 10.1153C16.7031 10.0696 16.7357 10.0118 16.751 9.94859C16.7662 9.88536 16.7636 9.81912 16.7434 9.7573C16.7231 9.69548 16.686 9.64052 16.6363 9.59858C16.5866 9.55665 16.5261 9.52939 16.4618 9.51987L13.2562 9.04736L11.8232 6.10092C11.7912 6.04565 11.7452 5.99977 11.6899 5.96787C11.6346 5.93598 11.5718 5.91919 11.508 5.91919C11.4441 5.91919 11.3814 5.93598 11.326 5.96787C11.2707 5.99977 11.2247 6.04565 11.1927 6.10092L9.7584 9.04736L6.55276 9.51987C6.48841 9.52939 6.42798 9.55665 6.37825 9.59858C6.32852 9.64052 6.29145 9.69548 6.27119 9.7573C6.25094 9.81912 6.2483 9.88536 6.26357 9.94859C6.27885 10.0118 6.31143 10.0696 6.35767 10.1153L8.68028 12.4106L8.13141 15.6527C8.12048 15.7172 8.12787 15.7836 8.15274 15.8441C8.17761 15.9047 8.21897 15.9571 8.27211 15.9954C8.32525 16.0336 8.38806 16.0562 8.45339 16.0606C8.51873 16.065 8.58398 16.0509 8.64175 16.0201L11.508 14.4926L14.3738 16.0201C14.4316 16.0507 14.4968 16.0646 14.562 16.0602C14.6272 16.0557 14.6899 16.0331 14.7429 15.9948C14.7959 15.9566 14.8372 15.9043 14.862 15.8438C14.8869 15.7834 14.8943 15.7171 14.8835 15.6527L14.3353 12.4106ZM11.6733 13.7865C11.6225 13.7596 11.5658 13.7455 11.5083 13.7455C11.4508 13.7455 11.3942 13.7596 11.3433 13.7865L8.94158 15.0667L9.40147 12.3486C9.41086 12.2932 9.40675 12.2363 9.38949 12.1827C9.37224 12.1292 9.34235 12.0806 9.30235 12.0411L7.34962 10.1111L10.0435 9.71426C10.0999 9.70598 10.1535 9.68403 10.1995 9.65034C10.2456 9.61664 10.2827 9.57221 10.3076 9.52092L11.508 7.05434L12.7083 9.52022C12.7333 9.57151 12.7704 9.61594 12.8164 9.64963C12.8624 9.68333 12.916 9.70528 12.9724 9.71356L15.6663 10.1104L13.7146 12.0404C13.6746 12.0799 13.6448 12.1285 13.6275 12.182C13.6103 12.2356 13.6061 12.2925 13.6155 12.3479L14.0754 15.0667L11.6733 13.7865ZM14.9406 2.31245L14.5378 3.28268C14.5202 3.32518 14.5111 3.37074 14.5111 3.41675C14.5111 3.46276 14.5201 3.50832 14.5377 3.55083C14.5553 3.59334 14.5811 3.63197 14.6136 3.66451C14.6461 3.69705 14.6848 3.72286 14.7273 3.74048C14.8131 3.77606 14.9096 3.77608 14.9954 3.74055C15.0379 3.72295 15.0765 3.69715 15.1091 3.66463C15.1416 3.6321 15.1674 3.59349 15.1851 3.55099L15.5879 2.58075C15.6234 2.49491 15.6235 2.39846 15.5879 2.31261C15.5524 2.22675 15.4842 2.15853 15.3984 2.12295C15.3125 2.08737 15.2161 2.08735 15.1302 2.12289C15.0444 2.15842 14.9762 2.22661 14.9406 2.31245ZM19.2755 8.29008C19.2931 8.33259 19.3189 8.37121 19.3514 8.40374C19.384 8.43628 19.4226 8.46208 19.4651 8.47967C19.5076 8.49727 19.5532 8.50632 19.5992 8.5063C19.6452 8.50629 19.6908 8.4972 19.7333 8.47958L20.7039 8.07537C20.7896 8.0397 20.8577 7.97141 20.8932 7.88552C20.9286 7.79963 20.9285 7.70319 20.8928 7.6174C20.8571 7.53161 20.7889 7.4635 20.703 7.42806C20.6171 7.39262 20.5206 7.39276 20.4348 7.42843L19.4646 7.83158C19.422 7.84922 19.3834 7.87508 19.3508 7.90769C19.3183 7.94029 19.2925 7.979 19.2749 8.02159C19.2573 8.06418 19.2483 8.10982 19.2484 8.15589C19.2485 8.20196 19.2577 8.24756 19.2755 8.29008ZM7.62002 2.12295C7.57751 2.14056 7.53889 2.16637 7.50636 2.19891C7.47383 2.23145 7.44803 2.27008 7.43043 2.31259C7.41284 2.35511 7.40379 2.40067 7.4038 2.44668C7.40382 2.49269 7.4129 2.53825 7.43053 2.58075L7.83334 3.55099C7.85095 3.59349 7.87677 3.6321 7.90931 3.66463C7.94185 3.69715 7.98048 3.72295 8.02299 3.74055C8.0655 3.75814 8.11106 3.76719 8.15707 3.76718C8.20307 3.76717 8.24863 3.7581 8.29113 3.74048C8.33363 3.72286 8.37225 3.69705 8.40477 3.66451C8.4373 3.63197 8.4631 3.59334 8.48069 3.55083C8.49829 3.50832 8.50734 3.46276 8.50733 3.41675C8.50732 3.37074 8.49824 3.32518 8.48063 3.28268L8.07537 2.31245C8.03979 2.2272 7.97198 2.15946 7.8867 2.12397C7.80142 2.08848 7.70557 2.08811 7.62002 2.12295ZM2.3121 8.07537L3.28268 8.47853C3.36829 8.51321 3.46414 8.51267 3.54935 8.47703C3.63457 8.44139 3.70226 8.37353 3.73768 8.28822C3.77311 8.20291 3.7734 8.10707 3.7385 8.02155C3.7036 7.93602 3.63633 7.86775 3.55134 7.83158L2.5811 7.42843C2.49531 7.39276 2.39886 7.39262 2.31298 7.42806C2.22709 7.4635 2.1588 7.53161 2.12313 7.6174C2.08746 7.70319 2.08732 7.79963 2.12276 7.88552C2.1582 7.97141 2.22631 8.0397 2.3121 8.07537ZM11.1577 1.35027V3.10159C11.1577 3.19449 11.1946 3.28358 11.2603 3.34927C11.326 3.41496 11.4151 3.45186 11.508 3.45186C11.6009 3.45186 11.69 3.41496 11.7556 3.34927C11.8213 3.28358 11.8582 3.19449 11.8582 3.10159V1.35027C11.8582 1.25737 11.8213 1.16828 11.7556 1.10259C11.69 1.0369 11.6009 1 11.508 1C11.4151 1 11.326 1.0369 11.2603 1.10259C11.1946 1.16828 11.1577 1.25737 11.1577 1.35027ZM18.4432 4.07779L17.205 5.31598C17.1716 5.34829 17.1449 5.38694 17.1266 5.42967C17.1082 5.4724 17.0985 5.51837 17.0981 5.56487C17.0977 5.61138 17.1066 5.6575 17.1242 5.70055C17.1418 5.7436 17.1678 5.78271 17.2007 5.81559C17.2336 5.84848 17.2727 5.87449 17.3157 5.8921C17.3588 5.90971 17.4049 5.91857 17.4514 5.91817C17.4979 5.91777 17.5439 5.9081 17.5866 5.88975C17.6294 5.87139 17.668 5.84471 17.7003 5.81125L18.9382 4.57271C18.9729 4.54073 19.0008 4.50206 19.0202 4.45902C19.0397 4.41598 19.0502 4.36945 19.0511 4.32225C19.0521 4.27504 19.0435 4.22812 19.0259 4.18431C19.0083 4.1405 18.982 4.1007 18.9486 4.06731C18.9152 4.03393 18.8754 4.00763 18.8316 3.99002C18.7878 3.9724 18.7409 3.96382 18.6937 3.9648C18.6465 3.96578 18.6 3.97629 18.5569 3.99571C18.5139 4.01512 18.4752 4.04304 18.4432 4.07779ZM4.07779 4.07779C4.01212 4.14347 3.97523 4.23255 3.97523 4.32542C3.97523 4.4183 4.01212 4.50738 4.07779 4.57306L5.31597 5.81125C5.38204 5.87505 5.47051 5.91036 5.56235 5.90956C5.65419 5.90876 5.74204 5.87193 5.80698 5.80698C5.87193 5.74204 5.90876 5.65419 5.90956 5.56235C5.91036 5.47051 5.87505 5.38204 5.81125 5.31598L4.57271 4.07779C4.50704 4.01223 4.41804 3.97541 4.32525 3.97541C4.23246 3.97541 4.14346 4.01223 4.07779 4.07779ZM3.10159 11.8582C3.19449 11.8582 3.28358 11.8213 3.34927 11.7556C3.41496 11.69 3.45186 11.6009 3.45186 11.508C3.45186 11.4151 3.41496 11.326 3.34927 11.2603C3.28358 11.1946 3.19449 11.1577 3.10159 11.1577H1.35027C1.25737 11.1577 1.16828 11.1946 1.10259 11.2603C1.0369 11.326 1 11.4151 1 11.508C1 11.6009 1.0369 11.69 1.10259 11.7556C1.16828 11.8213 1.25737 11.8582 1.35027 11.8582H3.10159ZM21.6657 11.1577H19.9144C19.8215 11.1577 19.7324 11.1946 19.6667 11.2603C19.601 11.326 19.5641 11.4151 19.5641 11.508C19.5641 11.6009 19.601 11.69 19.6667 11.7556C19.7324 11.8213 19.8215 11.8582 19.9144 11.8582H21.6657C21.7586 11.8582 21.8477 11.8213 21.9134 11.7556C21.979 11.69 22.0159 11.6009 22.0159 11.508C22.0159 11.4151 21.979 11.326 21.9134 11.2603C21.8477 11.1946 21.7586 11.1577 21.6657 11.1577Z" stroke="white" stroke-width="0.4" mask="url(#path-2-outside-1_513_68620)"/>
</svg>
