<svg width="19" height="17" viewBox="0 0 19 17" fill="none" xmlns="http://www.w3.org/2000/svg">
<path d="M18.4453 6.7053C17.722 5.24704 16.6602 3.98304 15.3487 3.01889L17.2254 1.14888C17.3516 1.02267 17.4225 0.851489 17.4225 0.672999C17.4225 0.494508 17.3516 0.323328 17.2254 0.197117C17.0992 0.070905 16.928 0 16.7495 0C16.571 0 16.3999 0.070905 16.2737 0.197117L1.52802 14.9427C1.4652 15.0051 1.41534 15.0792 1.38131 15.1609C1.34728 15.2425 1.32976 15.3301 1.32976 15.4186C1.32976 15.5071 1.34728 15.5947 1.38131 15.6764C1.41534 15.7581 1.4652 15.8322 1.52802 15.8945C1.59033 15.9573 1.66446 16.0072 1.74614 16.0412C1.82781 16.0753 1.91542 16.0928 2.0039 16.0928C2.09238 16.0928 2.17999 16.0753 2.26167 16.0412C2.34334 16.0072 2.41748 15.9573 2.47978 15.8945L4.56428 13.8033C5.76052 14.4494 7.07467 14.8479 8.42829 14.9749C9.78191 15.1019 11.1472 14.9549 12.4428 14.5427C13.7384 14.1304 14.9376 13.4614 15.9689 12.5754C17.0002 11.6895 17.8424 10.6049 18.4453 9.38633C18.6481 8.96855 18.7534 8.51021 18.7534 8.04581C18.7534 7.58142 18.6481 7.12308 18.4453 6.7053ZM11.6824 6.7053C11.9657 7.21466 12.0753 7.80247 11.9946 8.37971C11.9139 8.95694 11.6473 9.49216 11.2352 9.9043C10.8231 10.3164 10.2878 10.583 9.71061 10.6637C9.13338 10.7444 8.54556 10.6348 8.03621 10.3515L11.6824 6.7053ZM17.2455 8.81661C16.2195 10.8896 14.4175 12.4745 12.2304 13.2273C10.0433 13.9802 7.64759 13.8404 5.56296 12.8381L7.05093 11.3502C7.73213 11.8266 8.54554 12.0774 9.37672 12.0674C10.4433 12.0674 11.4662 11.6437 12.2204 10.8895C12.9746 10.1353 13.3983 9.11239 13.3983 8.04581C13.4005 7.21169 13.1402 6.39802 12.6543 5.72003L14.3768 4.02428C15.5951 4.86203 16.5819 5.99406 17.2455 7.31524C17.3572 7.54735 17.4152 7.80163 17.4152 8.05922C17.4152 8.31681 17.3572 8.57109 17.2455 8.8032V8.81661ZM0.308155 9.38633C0.788832 10.3765 1.42719 11.2819 2.19828 12.0674C2.26033 12.1298 2.33409 12.1795 2.41533 12.2135C2.49658 12.2475 2.58372 12.2651 2.67179 12.2654C2.75986 12.2658 2.84712 12.2487 2.92861 12.2153C3.01009 12.1819 3.0842 12.1328 3.14669 12.0707C3.20918 12.0086 3.25884 11.9349 3.29283 11.8536C3.32682 11.7724 3.34448 11.6853 3.34479 11.5972C3.3451 11.5091 3.32806 11.4219 3.29465 11.3404C3.26123 11.2589 3.21209 11.1848 3.15004 11.1223C2.48315 10.4538 1.92864 9.68203 1.50791 8.83672C1.39199 8.60106 1.33171 8.34195 1.33171 8.07933C1.33171 7.81671 1.39199 7.55759 1.50791 7.32194C2.22752 5.84807 3.34674 4.60603 4.738 3.73738C6.12925 2.86874 7.73656 2.40844 9.37672 2.40896C10.2205 2.40851 11.06 2.52812 11.8701 2.7642C11.9558 2.79309 12.0465 2.80432 12.1367 2.79722C12.2269 2.79011 12.3148 2.76482 12.3949 2.72286C12.4751 2.68089 12.5459 2.62314 12.6032 2.55306C12.6604 2.48299 12.7029 2.40205 12.728 2.31513C12.7537 2.2302 12.7622 2.14102 12.7531 2.05276C12.7441 1.9645 12.7176 1.87893 12.6752 1.80099C12.6328 1.72305 12.5753 1.65431 12.5061 1.59875C12.437 1.54318 12.3575 1.50191 12.2722 1.47731C9.98163 0.801589 7.52611 0.955394 5.33774 1.91166C3.14937 2.86792 1.36838 4.56536 0.308155 6.7053C0.105363 7.12308 0 7.58142 0 8.04581C0 8.51021 0.105363 8.96855 0.308155 9.38633Z" fill="#0274B3"/>
<path d="M9.37652 5.36457H9.65132C9.73891 5.37386 9.82747 5.3658 9.91194 5.34084C9.99641 5.31588 10.0751 5.27452 10.1436 5.21912C10.2121 5.16372 10.269 5.09536 10.311 5.01796C10.353 4.94057 10.3794 4.85564 10.3886 4.76804C10.3979 4.68046 10.3898 4.5919 10.3649 4.50743C10.3399 4.42296 10.2985 4.34424 10.2431 4.27577C10.1877 4.20729 10.1194 4.15041 10.042 4.10837C9.9646 4.06633 9.87967 4.03996 9.79208 4.03076H9.37652C8.30994 4.03076 7.28705 4.45446 6.53286 5.20864C5.77868 5.96283 5.35498 6.98572 5.35498 8.0523V8.45445C5.37165 8.62036 5.44956 8.77409 5.5735 8.88563C5.69744 8.99717 5.8585 9.05852 6.02524 9.05768H6.09896C6.18719 9.04852 6.27272 9.02193 6.3506 8.97947C6.42847 8.937 6.49714 8.8795 6.55263 8.81029C6.60812 8.74109 6.64932 8.66156 6.67384 8.57632C6.69837 8.49107 6.70572 8.40181 6.69549 8.3137V8.0456C6.69549 7.33454 6.97796 6.65261 7.48075 6.14982C7.98354 5.64704 8.66546 5.36457 9.37652 5.36457Z" fill="#0274B3"/>
</svg>
