<svg width="56" height="27" viewBox="0 0 56 27" fill="none" xmlns="http://www.w3.org/2000/svg">
<mask id="mask0_2223_6468" style="mask-type:alpha" maskUnits="userSpaceOnUse" x="0" y="0" width="56" height="27">
<rect width="55.8" height="27" fill="#D9D9D9"/>
</mask>
<g mask="url(#mask0_2223_6468)">
<path d="M21.0898 20.3854L23.5127 6.75684H27.2984L24.9513 20.3854H21.0898Z" fill="#3C58BF"/>
<path d="M21.0898 20.3854L24.1941 6.75684H27.2984L24.9513 20.3854H21.0898Z" fill="#293688"/>
<path d="M38.6575 6.90845C37.9004 6.60559 36.689 6.30273 35.1747 6.30273C31.389 6.30273 28.6632 8.19559 28.6632 10.9213C28.6632 12.9656 30.5561 14.0256 32.0704 14.707C33.5847 15.3884 34.039 15.8427 34.039 16.4484C34.039 17.357 32.8275 17.8113 31.7675 17.8113C30.2532 17.8113 29.4204 17.5842 28.1332 17.0542L27.6032 16.827L27.0732 19.9313C27.9818 20.3099 29.6475 20.6884 31.389 20.6884C35.4018 20.6884 38.0518 18.7956 38.0518 15.9184C38.0518 14.3285 37.0675 13.117 34.7961 12.1327C33.4332 11.4513 32.6004 11.0727 32.6004 10.3913C32.6004 9.78559 33.2818 9.17988 34.7961 9.17988C36.0832 9.17988 36.9918 9.40702 37.6732 9.70988L38.0518 9.86131L38.6575 6.90845Z" fill="#3C58BF"/>
<path d="M38.6575 6.90845C37.9004 6.60559 36.689 6.30273 35.1747 6.30273C31.389 6.30273 29.3447 8.19559 29.3447 10.9213C29.3447 12.9656 30.5561 14.0256 32.0704 14.707C33.5847 15.3884 34.039 15.8427 34.039 16.4484C34.039 17.357 32.8275 17.8113 31.7675 17.8113C30.2532 17.8113 29.4204 17.5842 28.1332 17.0542L27.6032 16.827L27.0732 19.9313C27.9818 20.3099 29.6475 20.6884 31.389 20.6884C35.4018 20.6884 38.0518 18.7956 38.0518 15.9184C38.0518 14.3285 37.0675 13.117 34.7961 12.1327C33.4332 11.4513 32.6004 11.0727 32.6004 10.3913C32.6004 9.78559 33.2818 9.17988 34.7961 9.17988C36.0832 9.17988 36.9918 9.40702 37.6732 9.70988L38.0518 9.86131L38.6575 6.90845Z" fill="#293688"/>
<path d="M45.1657 6.75684C44.2571 6.75684 43.5757 6.83255 43.1971 7.74112L37.5186 20.3854H41.6071L42.3643 18.114H47.21L47.6643 20.3854H51.2986L48.1186 6.75684H45.1657ZM43.4243 15.8426C43.6514 15.1611 44.9386 11.8297 44.9386 11.8297C44.9386 11.8297 45.2414 10.9968 45.4686 10.4668L45.6957 11.754C45.6957 11.754 46.4528 15.1611 46.6043 15.9183H43.4243V15.8426Z" fill="#3C58BF"/>
<path d="M46.0743 6.75684C45.1657 6.75684 44.4843 6.83255 44.1057 7.74112L37.5186 20.3854H41.6071L42.3643 18.114H47.21L47.6643 20.3854H51.2986L48.1186 6.75684H46.0743ZM43.4243 15.8426C43.7271 15.0854 44.9386 11.8297 44.9386 11.8297C44.9386 11.8297 45.2414 10.9968 45.4686 10.4668L45.6957 11.754C45.6957 11.754 46.4528 15.1611 46.6043 15.9183H43.4243V15.8426Z" fill="#293688"/>
<path d="M14.121 16.2983L13.7424 14.3297C13.061 12.0583 10.8652 9.5597 8.44238 8.34827L11.8495 20.4626H15.9381L22.071 6.83398H17.9824L14.121 16.2983Z" fill="#3C58BF"/>
<path d="M14.121 16.2983L13.7424 14.3297C13.061 12.0583 10.8652 9.5597 8.44238 8.34827L11.8495 20.4626H15.9381L22.071 6.83398H18.7395L14.121 16.2983Z" fill="#293688"/>
<path d="M3.59863 6.75684L4.28006 6.90827C9.12578 8.04398 12.4572 10.9211 13.7443 14.3283L12.3815 7.89255C12.1543 6.98398 11.4729 6.75684 10.6401 6.75684H3.59863Z" fill="#FFBC00"/>
<path d="M3.59863 6.75684C8.44435 7.89255 12.4572 10.8454 13.7443 14.2526L12.4572 8.87684C12.2301 7.96827 11.4729 7.43827 10.6401 7.43827L3.59863 6.75684Z" fill="#F7981D"/>
<path d="M3.59863 6.75684C8.44435 7.89255 12.4572 10.8454 13.7443 14.2526L12.8358 11.2997C12.6086 10.3911 12.3058 9.48255 11.2458 9.10398L3.59863 6.75684Z" fill="#ED7C00"/>
<path d="M17.912 15.8414L15.3377 13.2672L14.1263 16.1443L13.8234 14.2514C13.142 11.98 10.9463 9.48145 8.52344 8.27002L11.9306 20.3843H16.0192L17.912 15.8414ZM24.9534 20.3843L21.6977 17.0529L21.092 20.3843H24.9534ZM33.6606 15.69C33.9634 15.9929 34.1149 16.22 34.0392 16.5229C34.0392 17.4314 32.8277 17.8857 31.7677 17.8857C30.2534 17.8857 29.4206 17.6586 28.1334 17.1286L27.6034 16.9014L27.0734 20.0057C27.982 20.3843 29.6477 20.7629 31.3892 20.7629C33.812 20.7629 35.7806 20.0814 36.9163 18.87L33.6606 15.69ZM38.052 20.3843H41.6106L42.3677 18.1129H47.2134L47.6677 20.3843H51.302L50.0149 14.8572L45.472 10.4657L45.6992 11.6772C45.6992 11.6772 46.4563 15.0843 46.6077 15.8414H43.4277C43.7306 15.0843 44.942 11.8286 44.942 11.8286C44.942 11.8286 45.2449 10.9957 45.472 10.4657" fill="#051244"/>
</g>
</svg>
