<svg width="40" height="40" viewBox="0 0 40 40" fill="none" xmlns="http://www.w3.org/2000/svg">
<g clip-path="url(#clip0_4738_7710)">
<path fill-rule="evenodd" clip-rule="evenodd" d="M24.8913 23.4514C24.685 24.0301 23.695 24.5576 23.2188 24.6288C22.7925 24.6926 22.2525 24.7189 21.6588 24.5314C21.1796 24.3818 20.7085 24.2074 20.2475 24.0089C17.7625 22.9364 16.1388 20.4351 16.015 20.2701C15.8913 20.1051 15.0038 18.9276 15.0038 17.7089C15.0038 16.4901 15.6438 15.8901 15.8713 15.6426C16.0975 15.3951 16.3663 15.3326 16.5313 15.3326C16.6963 15.3326 16.8613 15.3339 17.0063 15.3414C17.1588 15.3489 17.3625 15.2839 17.5638 15.7664C17.77 16.2626 18.265 17.4814 18.3275 17.6051C18.3888 17.7289 18.43 17.8739 18.3475 18.0389C18.265 18.2039 18.2238 18.3076 18.1 18.4526C17.9763 18.5964 17.84 18.7751 17.7288 18.8864C17.605 19.0089 17.475 19.1439 17.62 19.3914C17.765 19.6389 18.2613 20.4501 18.9975 21.1064C19.9438 21.9501 20.7425 22.2114 20.99 22.3364C21.2375 22.4601 21.3825 22.4389 21.5263 22.2739C21.6713 22.1089 22.1463 21.5514 22.3113 21.3026C22.4763 21.0551 22.6413 21.0964 22.8688 21.1789C23.095 21.2614 24.3138 21.8601 24.5613 21.9851C24.8088 22.1089 24.9738 22.1701 25.0363 22.2739C25.0975 22.3776 25.0975 22.8726 24.8913 23.4514ZM20.045 11.6739C15.5 11.6739 11.8025 15.3689 11.8013 19.9101C11.8013 21.4664 12.2363 22.9826 13.0613 24.2938L13.2575 24.6051L12.425 27.6451L15.5438 26.8276L15.8438 27.0051C17.1131 27.7577 18.5618 28.1545 20.0375 28.1539H20.0413C24.5825 28.1539 28.2788 24.4589 28.2813 19.9164C28.2845 18.8338 28.0731 17.7614 27.6592 16.7611C27.2454 15.7608 26.6372 14.8526 25.87 14.0889C25.107 13.3212 24.1992 12.7125 23.1994 12.2979C22.1995 11.8834 21.1274 11.6713 20.045 11.6739Z" fill="#239F01"/>
<path fill-rule="evenodd" clip-rule="evenodd" d="M20.0413 29.8275H20.0375C18.3775 29.8275 16.7475 29.4112 15.3 28.6213L10.0437 30L11.4513 24.8638C10.5817 23.3573 10.1251 21.6481 10.1275 19.9088C10.13 14.445 14.5763 10 20.0413 10C21.3443 9.99618 22.6351 10.2511 23.8389 10.75C25.0427 11.2489 26.1354 11.9818 27.0537 12.9062C27.9769 13.825 28.7087 14.9177 29.2067 16.1212C29.7047 17.3247 29.9591 18.615 29.955 19.9175C29.9525 25.3813 25.505 29.8275 20.0413 29.8275ZM20 0C8.95375 0 0 8.95375 0 20C0 31.045 8.95375 40 20 40C31.045 40 40 31.045 40 20C40 8.95375 31.045 0 20 0Z" fill="#239F01"/>
</g>
<defs>
<clipPath id="clip0_4738_7710">
<rect width="40" height="40" fill="white"/>
</clipPath>
</defs>
</svg>
