<svg width="10" height="18" viewBox="0 0 10 18" fill="none" xmlns="http://www.w3.org/2000/svg">
<path d="M2.93924 8.99797L9.39324 2.54897C9.5104 2.43657 9.60393 2.3019 9.66834 2.15287C9.73274 2.00383 9.76672 1.84343 9.76829 1.68108C9.76985 1.51872 9.73897 1.3577 9.67746 1.20744C9.61594 1.05719 9.52503 0.920743 9.41006 0.806105C9.29509 0.691467 9.15837 0.600951 9.00794 0.539871C8.85751 0.47879 8.69639 0.448376 8.53405 0.450413C8.37171 0.45245 8.2114 0.486897 8.06255 0.551733C7.9137 0.616569 7.7793 0.710487 7.66724 0.827973L0.355244 8.13497C0.13412 8.35672 0.00698428 8.65517 0.00027929 8.96826C-0.0064257 9.28134 0.107815 9.58496 0.319244 9.81597L7.66125 17.174C7.89116 17.3945 8.1983 17.5163 8.5169 17.5133C8.8355 17.5102 9.14023 17.3825 9.36586 17.1575C9.59148 16.9326 9.72005 16.6282 9.72405 16.3096C9.72805 15.991 9.60715 15.6835 9.38725 15.453L2.93924 8.99797Z" fill="#7B7878"/>
</svg>
