<svg width="245" height="188" viewBox="0 0 245 188" fill="none" xmlns="http://www.w3.org/2000/svg">
<mask id="mask0_12_7044" style="mask-type:luminance" maskUnits="userSpaceOnUse" x="0" y="0" width="244" height="183">
<path d="M243.151 0H0V182.132H243.151V0Z" fill="white"/>
</mask>
<g mask="url(#mask0_12_7044)">
<path fill-rule="evenodd" clip-rule="evenodd" d="M180.381 112.716L160.427 153.784C160.403 153.828 160.389 153.875 160.385 153.924C160.38 153.973 160.386 154.022 160.401 154.069C160.416 154.116 160.441 154.159 160.473 154.196C160.505 154.233 160.545 154.264 160.589 154.285C160.633 154.307 160.681 154.319 160.73 154.321C160.779 154.324 160.829 154.316 160.875 154.299C160.921 154.282 160.963 154.256 160.999 154.223C161.035 154.189 161.063 154.148 161.083 154.103L181.037 113.035C181.06 112.991 181.075 112.944 181.079 112.895C181.083 112.846 181.078 112.796 181.063 112.75C181.047 112.703 181.023 112.66 180.991 112.623C180.958 112.586 180.919 112.555 180.875 112.534C180.83 112.512 180.783 112.5 180.733 112.497C180.684 112.495 180.635 112.503 180.589 112.52C180.543 112.537 180.501 112.563 180.465 112.596C180.429 112.63 180.4 112.671 180.381 112.716Z" fill="#A4BBD5"/>
<path fill-rule="evenodd" clip-rule="evenodd" d="M200.394 153.945C200.394 153.711 200.301 153.487 200.135 153.322C199.97 153.156 199.746 153.063 199.512 153.063H40.0661C39.8321 153.063 39.6078 153.156 39.4424 153.321C39.277 153.487 39.1841 153.711 39.1841 153.945C39.1841 154.179 39.277 154.403 39.4424 154.569C39.6078 154.734 39.8321 154.827 40.0661 154.827H199.514C199.748 154.827 199.972 154.734 200.137 154.568C200.303 154.403 200.396 154.179 200.396 153.945" fill="#243D6A"/>
<path fill-rule="evenodd" clip-rule="evenodd" d="M114.73 56.3408C116.156 55.1695 117.944 54.5293 119.79 54.5293C121.635 54.5293 123.423 55.1695 124.849 56.3408L165.32 89.585V153.062H74.2544V89.5803L114.727 56.3361L114.73 56.3408Z" fill="#D27905"/>
</g>
<mask id="mask1_12_7044" style="mask-type:luminance" maskUnits="userSpaceOnUse" x="79" y="50" width="82" height="100">
<path d="M145.239 50.8555H94.3408C86.1711 50.8555 79.5483 57.4783 79.5483 65.6479V134.596C79.5483 142.766 86.1711 149.389 94.3408 149.389H145.239C153.409 149.389 160.031 142.766 160.031 134.596V65.6479C160.031 57.4783 153.409 50.8555 145.239 50.8555Z" fill="white"/>
</mask>
<g mask="url(#mask1_12_7044)">
<path d="M160.031 50.8555H79.5483V149.389H160.031V50.8555Z" fill="url(#paint0_linear_12_7044)"/>
</g>
<mask id="mask2_12_7044" style="mask-type:luminance" maskUnits="userSpaceOnUse" x="0" y="0" width="244" height="183">
<path d="M243.151 0H0V182.132H243.151V0Z" fill="white"/>
</mask>
<g mask="url(#mask2_12_7044)">
<path fill-rule="evenodd" clip-rule="evenodd" d="M101.108 81.218C101.108 80.8992 100.982 80.5935 100.756 80.3681C100.531 80.1427 100.225 80.0161 99.9065 80.0161H90.3284C90.0096 80.0161 89.7039 80.1427 89.4785 80.3681C89.2531 80.5935 89.1265 80.8992 89.1265 81.218V90.8007C89.1265 91.1195 89.2531 91.4251 89.4785 91.6505C89.7039 91.8759 90.0096 92.0026 90.3284 92.0026H99.9111C100.23 92.0026 100.536 91.8759 100.761 91.6505C100.986 91.4251 101.113 91.1195 101.113 90.8007L101.108 81.218ZM117.555 81.218C117.555 80.8992 117.428 80.5935 117.203 80.3681C116.977 80.1427 116.672 80.0161 116.353 80.0161H106.77C106.451 80.0161 106.146 80.1427 105.92 80.3681C105.695 80.5935 105.568 80.8992 105.568 81.218V90.8007C105.568 91.1195 105.695 91.4251 105.92 91.6505C106.146 91.8759 106.451 92.0026 106.77 92.0026H116.353C116.672 92.0026 116.977 91.8759 117.203 91.6505C117.428 91.4251 117.555 91.1195 117.555 90.8007V81.218ZM134.001 81.218C134.001 80.8992 133.875 80.5935 133.649 80.3681C133.424 80.1427 133.118 80.0161 132.799 80.0161H123.217C122.898 80.0161 122.592 80.1427 122.367 80.3681C122.141 80.5935 122.015 80.8992 122.015 81.218V90.8007C122.015 91.1195 122.141 91.4251 122.367 91.6505C122.592 91.8759 122.898 92.0026 123.217 92.0026H132.799C133.118 92.0026 133.424 91.8759 133.649 91.6505C133.875 91.4251 134.001 91.1195 134.001 90.8007V81.218ZM150.448 81.218C150.448 80.8992 150.321 80.5935 150.096 80.3681C149.87 80.1427 149.565 80.0161 149.246 80.0161H139.663C139.344 80.0161 139.039 80.1427 138.813 80.3681C138.588 80.5935 138.461 80.8992 138.461 81.218V90.8007C138.461 91.1195 138.588 91.4251 138.813 91.6505C139.039 91.8759 139.344 92.0026 139.663 92.0026H149.246C149.565 92.0026 149.87 91.8759 150.096 91.6505C150.321 91.4251 150.448 91.1195 150.448 90.8007V81.218Z" fill="#9EBCE2"/>
<path d="M120.714 70.9289C120.994 70.9345 121.272 70.8739 121.524 70.752C121.776 70.63 121.995 70.4502 122.164 70.2272L122.935 71.0214C122.681 71.3234 122.367 71.5704 122.014 71.7474C121.661 71.9243 121.275 72.0275 120.881 72.0506C120.486 72.0737 120.092 72.0163 119.72 71.8818C119.349 71.7473 119.008 71.5384 118.72 71.2682C118.201 70.7336 117.912 70.0167 117.915 69.2713C117.917 68.5258 118.212 67.8112 118.736 67.2807C119 67.0188 119.314 66.8129 119.659 66.675C120.004 66.5371 120.373 66.4702 120.745 66.4783C121.167 66.4719 121.584 66.5593 121.968 66.734C122.352 66.9088 122.692 67.1666 122.964 67.4888L122.216 68.3375C122.052 68.1161 121.838 67.9364 121.591 67.813C121.345 67.6897 121.072 67.6261 120.797 67.6274C120.367 67.6189 119.951 67.7781 119.637 68.0711C119.475 68.224 119.348 68.4099 119.265 68.6162C119.182 68.8226 119.144 69.0445 119.155 69.2666C119.145 69.4881 119.18 69.7093 119.258 69.9167C119.336 70.1241 119.456 70.3134 119.61 70.4731C119.753 70.6206 119.925 70.7372 120.115 70.8156C120.305 70.894 120.509 70.9326 120.714 70.9289ZM140.951 71.2488C140.406 71.7613 139.686 72.0468 138.938 72.0468C138.19 72.0468 137.47 71.7613 136.925 71.2488C136.4 70.7203 136.106 70.0059 136.106 69.2611C136.106 68.5163 136.4 67.8018 136.925 67.2734C137.47 66.7608 138.19 66.4753 138.938 66.4753C139.686 66.4753 140.406 66.7608 140.951 67.2734C141.475 67.8018 141.77 68.5163 141.77 69.2611C141.77 70.0059 141.475 70.7203 140.951 71.2488ZM94.4931 70.034L95.866 66.6021H97.1696L95.0025 71.9931H93.9854L91.8184 66.6021H93.122L94.4931 70.034ZM133.886 66.6021H135.088V71.9931H133.886V66.6021ZM108.462 66.6021H109.664V71.9931H108.462V66.6021ZM115.711 66.6021H116.913V71.9931H115.711V66.6021ZM114.694 66.6021V67.6589H112.198V68.8238H114.573V69.8805H112.198V71.994H110.996V66.6031L114.694 66.6021ZM101.699 66.6021V67.6746H99.0178V68.7841H101.432V69.8093H99.0178V70.928H101.787V71.9922H97.8112V66.6012L101.699 66.6021ZM131.483 67.6432V71.9884H130.281V67.6432H128.753V66.6021H133.006V67.6432H131.483ZM107.228 68.3911C107.27 68.7446 107.191 69.1018 107.005 69.4052C106.819 69.7087 106.537 69.9408 106.203 70.0644L107.568 71.9922H106.089L104.893 70.2725H104.061V71.9922H102.859V66.6012H104.902C105.53 66.5462 106.159 66.695 106.695 67.0255C106.884 67.1963 107.03 67.4087 107.122 67.6459C107.215 67.8831 107.25 68.1386 107.227 68.392L107.228 68.3911ZM146.56 66.6021H147.762V71.9931H146.56L143.991 68.6148V71.9931H142.79V66.6021H143.916L146.561 70.0728L146.56 66.6021ZM127.688 71.9931L127.187 70.8281H124.928L124.426 71.9931H123.146L125.475 66.6021H126.64L128.969 71.9931H127.688ZM140.545 69.2666C140.555 68.8125 140.389 68.372 140.083 68.037C139.939 67.8768 139.764 67.7487 139.568 67.6609C139.372 67.5732 139.16 67.5279 138.945 67.5279C138.73 67.5279 138.518 67.5732 138.322 67.6609C138.126 67.7487 137.95 67.8768 137.807 68.037C137.509 68.3766 137.344 68.8131 137.344 69.2652C137.344 69.7172 137.509 70.1539 137.807 70.4935C137.951 70.6525 138.127 70.7796 138.323 70.8666C138.518 70.9536 138.73 70.9986 138.945 70.9986C139.159 70.9986 139.371 70.9536 139.567 70.8666C139.763 70.7796 139.939 70.6525 140.083 70.4935C140.39 70.1601 140.555 69.7197 140.545 69.2666ZM126.061 68.2071L125.383 69.7724H126.732L126.061 68.2071ZM104.937 69.2324C105.232 69.2638 105.529 69.1929 105.778 69.0318C105.858 68.9479 105.92 68.8477 105.959 68.738C105.997 68.6283 106.012 68.5116 106.002 68.3957C106.015 68.2849 106.001 68.1724 105.961 68.0682C105.92 67.9641 105.855 67.8715 105.77 67.7985C105.521 67.6688 105.24 67.6126 104.961 67.6366H104.058V69.2334L104.937 69.2324Z" fill="#2F468B"/>
</g>
<mask id="mask3_12_7044" style="mask-type:luminance" maskUnits="userSpaceOnUse" x="74" y="89" width="92" height="65">
<path d="M74.2578 153.062L119.789 121.324L74.2578 89.5849V153.062ZM119.789 121.324L165.32 153.062V89.5895L119.789 121.324Z" fill="white"/>
</mask>
<g mask="url(#mask3_12_7044)">
<path d="M165.32 89.5849H74.2578V153.062H165.32V89.5849Z" fill="#FFC355"/>
</g>
<mask id="mask4_12_7044" style="mask-type:luminance" maskUnits="userSpaceOnUse" x="74" y="116" width="92" height="38">
<path d="M114.228 118.15L74.2588 153.062H165.325L125.355 118.15C123.814 116.805 121.838 116.063 119.793 116.063C117.748 116.063 115.772 116.805 114.232 118.15" fill="white"/>
</mask>
<g mask="url(#mask4_12_7044)">
<path d="M165.32 116.063H74.2578V153.062H165.32V116.063Z" fill="#FFCC01"/>
</g>
<mask id="mask5_12_7044" style="mask-type:luminance" maskUnits="userSpaceOnUse" x="0" y="0" width="244" height="183">
<path d="M243.151 0H0V182.132H243.151V0Z" fill="white"/>
</mask>
<g mask="url(#mask5_12_7044)">
<path fill-rule="evenodd" clip-rule="evenodd" d="M66.5366 63.123C66.178 63.123 65.8275 63.2293 65.5293 63.4286C65.2312 63.6278 64.9988 63.9109 64.8616 64.2421C64.7244 64.5734 64.6884 64.938 64.7584 65.2897C64.8283 65.6414 65.001 65.9644 65.2546 66.2179C65.5081 66.4715 65.8312 66.6442 66.1829 66.7142C66.5346 66.7841 66.8991 66.7482 67.2304 66.611C67.5616 66.4738 67.8448 66.2414 68.044 65.9432C68.2432 65.6451 68.3496 65.2946 68.3496 64.936C68.3493 64.4552 68.1582 63.9942 67.8183 63.6543C67.4783 63.3143 67.0173 63.1233 66.5366 63.123ZM58.8926 63.123C58.534 63.123 58.1835 63.2293 57.8853 63.4286C57.5872 63.6278 57.3548 63.9109 57.2176 64.2421C57.0804 64.5734 57.0444 64.938 57.1144 65.2897C57.1843 65.6414 57.357 65.9644 57.6106 66.2179C57.8641 66.4715 58.1872 66.6442 58.5389 66.7142C58.8906 66.7841 59.2551 66.7482 59.5864 66.611C59.9176 66.4738 60.2008 66.2414 60.4 65.9432C60.5992 65.6451 60.7056 65.2946 60.7056 64.936C60.7053 64.4552 60.5142 63.9942 60.1743 63.6543C59.8343 63.3143 59.3733 63.1233 58.8926 63.123ZM51.2486 63.123C50.89 63.123 50.5394 63.2293 50.2413 63.4286C49.9432 63.6278 49.7108 63.9109 49.5736 64.2421C49.4364 64.5734 49.4004 64.938 49.4704 65.2897C49.5403 65.6414 49.7131 65.9644 49.9666 66.2179C50.2202 66.4715 50.5432 66.6442 50.8949 66.7142C51.2465 66.7841 51.6111 66.7482 51.9423 66.611C52.2736 66.4738 52.5568 66.2414 52.756 65.9432C52.9552 65.6451 53.0616 65.2946 53.0616 64.936C53.0613 64.4552 52.8702 63.9942 52.5303 63.6543C52.1903 63.3143 51.7293 63.1233 51.2486 63.123Z" fill="white"/>
</g>
<mask id="mask6_12_7044" style="mask-type:luminance" maskUnits="userSpaceOnUse" x="140" y="106" width="54" height="46">
<path d="M140.729 111.332C140.729 134.115 153.823 151.478 167.171 151.478C182.76 151.478 193.328 131.205 193.612 111.332C185.897 107.829 177.511 106.049 169.038 106.117C160.278 106.117 150.864 107.841 140.731 111.332" fill="white"/>
</mask>
<g mask="url(#mask6_12_7044)">
<path d="M193.611 106.117H140.729V151.478H193.611V106.117Z" fill="#06C270"/>
</g>
<mask id="mask7_12_7044" style="mask-type:luminance" maskUnits="userSpaceOnUse" x="145" y="110" width="44" height="37">
<path d="M145.938 114.727C145.938 132.978 158.318 146.254 167.17 146.254C178.136 146.254 188.174 130.643 188.402 114.727C182.205 111.921 175.472 110.496 168.669 110.55C160.913 110.675 153.232 112.087 145.938 114.727Z" fill="white"/>
</mask>
<g mask="url(#mask7_12_7044)">
<path d="M188.401 110.549H145.938V146.257H188.401V110.549Z" fill="#07864F"/>
</g>
<mask id="mask8_12_7044" style="mask-type:luminance" maskUnits="userSpaceOnUse" x="1" y="5" width="244" height="183">
<path d="M245 5.54712H1.84912V187.679H245V5.54712Z" fill="white"/>
</mask>
<g mask="url(#mask8_12_7044)">
<path fill-rule="evenodd" clip-rule="evenodd" d="M163.052 127.889V121.642C163.052 120.511 163.501 119.427 164.3 118.627C165.1 117.827 166.185 117.378 167.316 117.378C168.446 117.378 169.531 117.827 170.33 118.627C171.13 119.427 171.579 120.511 171.579 121.642V127.889C171.579 127.969 171.595 128.048 171.626 128.122C171.656 128.196 171.701 128.263 171.758 128.319C171.814 128.376 171.881 128.421 171.955 128.451C172.029 128.482 172.108 128.497 172.188 128.497C172.268 128.497 172.347 128.482 172.421 128.451C172.494 128.421 172.561 128.376 172.618 128.319C172.674 128.263 172.719 128.196 172.75 128.122C172.78 128.048 172.796 127.969 172.796 127.889V121.642C172.796 120.189 172.219 118.794 171.191 117.767C170.163 116.739 168.769 116.161 167.316 116.161C165.862 116.161 164.468 116.739 163.44 117.767C162.412 118.794 161.835 120.189 161.835 121.642V127.889C161.835 128.05 161.899 128.205 162.013 128.319C162.127 128.433 162.282 128.497 162.443 128.497C162.605 128.497 162.759 128.433 162.873 128.319C162.988 128.205 163.052 128.05 163.052 127.889Z" fill="white"/>
<path d="M169.224 125.993H165.118C162.464 125.993 160.312 128.144 160.312 130.798C160.312 133.452 162.464 135.603 165.118 135.603H169.224C171.878 135.603 174.029 133.452 174.029 130.798C174.029 128.144 171.878 125.993 169.224 125.993Z" fill="#CFE5FF"/>
<path fill-rule="evenodd" clip-rule="evenodd" d="M166.583 131.016C166.435 130.932 166.311 130.812 166.224 130.666C166.136 130.52 166.089 130.354 166.085 130.184C166.11 129.913 166.235 129.662 166.436 129.479C166.636 129.296 166.898 129.195 167.17 129.195C167.441 129.195 167.703 129.296 167.903 129.479C168.104 129.662 168.229 129.913 168.254 130.184C168.251 130.354 168.203 130.52 168.116 130.666C168.029 130.812 167.905 130.932 167.757 131.016L168.518 132.411H165.821L166.583 131.016Z" fill="#00807F"/>
</g>
<mask id="mask9_12_7044" style="mask-type:luminance" maskUnits="userSpaceOnUse" x="51" y="112" width="36" height="36">
<path d="M51.792 130.28C51.792 133.707 52.8083 137.057 54.7123 139.907C56.6164 142.757 59.3228 144.978 62.4891 146.289C65.6555 147.601 69.1397 147.944 72.5011 147.275C75.8624 146.607 78.9501 144.956 81.3735 142.533C83.7969 140.109 85.4473 137.022 86.1159 133.66C86.7845 130.299 86.4414 126.815 85.1298 123.649C83.8183 120.482 81.5972 117.776 78.7476 115.872C75.898 113.968 72.5477 112.951 69.1205 112.951C64.5247 112.951 60.1171 114.777 56.8674 118.027C53.6176 121.277 51.792 125.684 51.792 130.28Z" fill="white"/>
</mask>
<g mask="url(#mask9_12_7044)">
<path d="M86.4508 112.951H51.7939V147.608H86.4508V112.951Z" fill="#06C270"/>
</g>
<mask id="mask10_12_7044" style="mask-type:luminance" maskUnits="userSpaceOnUse" x="0" y="0" width="244" height="183">
<path d="M243.151 0H0V182.132H243.151V0Z" fill="white"/>
</mask>
<g mask="url(#mask10_12_7044)">
<path fill-rule="evenodd" clip-rule="evenodd" d="M68.3699 130.375L64.2437 126.249L60.6187 129.874L68.3699 137.625L79.4356 126.56L75.8105 122.935L68.3699 130.375Z" fill="white"/>
</g>
<defs>
<linearGradient id="paint0_linear_12_7044" x1="0.0311718" y1="182.496" x2="0.111655" y2="182.496" gradientUnits="userSpaceOnUse">
<stop stop-color="#F3F9FF"/>
<stop offset="1" stop-color="#C6DCF9"/>
</linearGradient>
</defs>
</svg>
