<svg width="643" height="579" viewBox="0 0 643 579" fill="none" xmlns="http://www.w3.org/2000/svg">
<path d="M374.155 -5.40723C371.663 85.6789 340.332 169.61 293.176 260.367C294.328 302.705 294.032 342.739 304.084 393.737C330.576 353.494 399.593 270.716 439.331 122.07C431.473 76.0765 410.216 21.9186 374.155 -5.40723Z" fill="#D9D9D9" fill-opacity="0.3"/>
<path d="M563.196 225.897L591.455 253.772C536.441 381.589 335.459 701.685 282.179 378.659C271.281 312.495 272.982 228.619 269.273 153.665C266.672 117.23 262.721 60.263 204.36 58.5181C127.234 56.1915 79.9235 143.645 40.0431 223.834C-91.6916 546.959 133.752 693.817 252.976 473.257C248.51 445.119 244.043 416.981 239.588 388.843C235.066 400.552 185.496 525.922 131.601 523.343C121.746 522.871 113.856 518.295 113.856 518.295C89.3724 504.072 86.9362 463.391 89.6907 410.879C93.3122 342.037 133.686 189.243 179.394 136.644C200.585 112.27 212.492 110.821 219.615 112.863C245.349 120.226 247.599 194.149 249.915 269.871C251.231 312.989 249.157 332.709 253.799 377.857C260.252 440.707 275.605 527.283 337.039 561.873C377.611 584.711 423.538 565.177 458.216 540.561C504.374 507.792 541.928 462.853 574.993 417.354C590.544 395.954 605.184 373.863 618.825 351.201C621.59 346.614 652.142 298.108 649.278 295.452L677.416 321.461L683.803 188.497L563.196 225.886V225.897Z" fill="#D9D9D9" fill-opacity="0.3"/>
</svg>
