<svg width="115" height="115" viewBox="0 0 115 115" fill="none" xmlns="http://www.w3.org/2000/svg">
<path d="M74.8416 7.68456L74.3012 0L2.14453 5.07415L8.95424 101.907L15.4679 101.449V17.9276H94.5455V107.44L102.464 108.292L112.857 11.7781L74.8416 7.68456Z" fill="#0274B3"/>
<path d="M22.2109 24.6699V114.999H87.8027V24.6699H22.2109ZM43.8197 40.044C47.9768 40.044 51.2536 41.5612 53.3472 44.2918L48.8262 48.3271C47.5821 46.7492 46.0957 45.8389 44.184 45.8389C41.2104 45.8389 39.208 47.9022 39.208 51.1487C39.208 54.3952 41.2106 56.4584 44.184 56.4584C46.0957 56.4584 47.5824 55.5481 48.8262 53.9702L53.3472 58.0055C51.2536 60.7361 47.9765 62.2534 43.8197 62.2534C36.9927 62.2534 31.9864 57.6718 31.9864 51.1482C31.9864 44.6256 36.9929 40.044 43.8197 40.044ZM76.9956 100.753H33.0178V94.0095H76.9956V100.753ZM76.9956 88.7586H33.0178V82.0156H76.9956V88.7586ZM76.9956 76.7647H33.0178V70.0217H76.9956V76.7647ZM69.1255 61.7689H62.0861L53.1048 40.5294H60.8119L65.879 52.9393L71.0677 40.5294H78.1068L69.1255 61.7689Z" fill="#0274B3"/>
</svg>
