<svg width="115" height="115" viewBox="0 0 115 115" fill="none" xmlns="http://www.w3.org/2000/svg">
<path fill-rule="evenodd" clip-rule="evenodd" d="M86.6456 49.0107H108.584C108.82 49.0117 109.053 48.9593 109.266 48.8574C109.479 48.7556 109.667 48.6068 109.814 48.4224C109.962 48.238 110.066 48.0226 110.118 47.7923C110.171 47.5621 110.171 47.323 110.118 47.0928C108.414 39.5279 101.654 33.877 93.5746 33.877C89.0118 33.877 84.871 35.6797 81.823 38.6109C84.3216 41.4733 86.0454 45.0432 86.6456 49.0107ZM14.8842 63.2254L31.6397 92.8311C32.4498 94.2626 31.9415 96.0967 30.5099 96.9069L24.8106 100.132C23.3792 100.943 21.545 100.434 20.7349 99.0027L3.97945 69.3969C3.16929 67.9655 3.67758 66.1314 5.10924 65.3212L10.8085 62.0958C12.2399 61.2856 14.0741 61.7939 14.8842 63.2254ZM19.9831 64.9384L31.8095 85.8348L34.3361 84.3761L61.0734 91.5405C64.9193 92.5712 68.629 92.0843 72.0195 89.9972L108.882 67.2989C114.131 64.0667 111.812 49.9195 96.0228 59.1152L75.7103 70.9463C74.6883 71.5415 73.6481 71.9797 72.5841 72.2726C70.8978 74.8669 67.3245 76.08 64.3758 75.3111C59.993 74.1521 55.6167 72.9689 51.2375 71.7958C51.0071 71.7374 50.7906 71.6339 50.6006 71.4912C50.4105 71.3485 50.2507 71.1695 50.1304 70.9646C50.0101 70.7596 49.9317 70.5328 49.8997 70.2973C49.8678 70.0619 49.8829 69.8224 49.9442 69.5928C50.0056 69.3632 50.1119 69.148 50.2571 68.9599C50.4023 68.7717 50.5834 68.6142 50.7899 68.4966C50.9964 68.379 51.2242 68.3036 51.4601 68.2747C51.696 68.2458 51.9352 68.2641 52.164 68.3285C56.5156 69.4942 60.8629 70.6763 65.2181 71.8283C68.074 72.2308 70.1013 70.8329 70.8571 68.0113C71.6742 64.962 69.8017 61.9545 66.7982 60.9806C58.7064 59.5213 50.7721 56.1376 45.9129 54.5619C41.5548 53.1483 37.5228 54.7771 33.5578 57.0742L19.9831 64.9384ZM10.7072 67.0716C10.3089 67.1298 9.93687 67.3048 9.63808 67.5745C9.33929 67.8441 9.12718 68.1964 9.02858 68.5866C8.92997 68.9768 8.9493 69.3875 9.08411 69.7667C9.21892 70.146 9.46317 70.4767 9.78596 70.7171C10.1088 70.9576 10.4956 71.0969 10.8976 71.1174C11.2995 71.138 11.6986 71.0389 12.0442 70.8327C12.3898 70.6264 12.6666 70.3223 12.8394 69.9588C13.0122 69.5953 13.0733 69.1887 13.015 68.7905C12.9369 68.2565 12.6499 67.7755 12.2171 67.4531C11.7843 67.1307 11.2412 66.9935 10.7072 67.0716ZM66.3279 15.7589C71.0633 15.7589 74.9021 19.5977 74.9021 24.3331C74.9021 29.0686 71.0633 32.9074 66.3279 32.9074C61.5924 32.9074 57.7536 29.0686 57.7536 24.3331C57.7539 19.5977 61.5927 15.7589 66.3279 15.7589ZM51.3186 50.2869C51.0824 50.2879 50.8491 50.2355 50.636 50.1337C50.423 50.0318 50.2357 49.8831 50.0882 49.6986C49.9407 49.5142 49.8368 49.2988 49.7842 49.0686C49.7317 48.8383 49.7318 48.5992 49.7847 48.369C51.4888 40.8042 58.2482 35.1532 66.3279 35.1532C74.4075 35.1532 81.1669 40.8042 82.871 48.369C82.9239 48.5992 82.924 48.8383 82.8714 49.0685C82.8189 49.2987 82.715 49.5141 82.5675 49.6985C82.42 49.8829 82.2327 50.0316 82.0197 50.1334C81.8066 50.2353 81.5733 50.2877 81.3372 50.2867L51.3186 50.2869ZM39.0812 14.4824C43.8166 14.4824 47.6554 18.3212 47.6554 23.0567C47.6554 27.7921 43.8166 31.6309 39.0812 31.6309C34.3457 31.6309 30.5069 27.7921 30.5069 23.0567C30.5069 18.3214 34.3457 14.4824 39.0812 14.4824ZM24.0719 49.0107H46.0099C46.6101 45.0434 48.334 41.4735 50.8325 38.6111C47.7846 35.6799 43.6437 33.8772 39.081 33.8772C31.0011 33.8772 24.2419 39.5282 22.5378 47.093C22.485 47.3232 22.4849 47.5623 22.5375 47.7925C22.5901 48.0227 22.694 48.2381 22.8416 48.4225C22.9891 48.6069 23.1763 48.7556 23.3894 48.8574C23.6024 48.9593 23.8357 49.0117 24.0719 49.0107ZM93.5748 14.4824C98.3102 14.4824 102.149 18.3212 102.149 23.0567C102.149 27.7921 98.3102 31.6309 93.5748 31.6309C88.8393 31.6309 85.0006 27.7921 85.0006 23.0567C85.0006 18.3214 88.8393 14.4824 93.5748 14.4824Z" fill="#0274B3"/>
</svg>
