<svg width="115" height="115" viewBox="0 0 115 115" fill="none" xmlns="http://www.w3.org/2000/svg">
<path d="M29.9991 65.0109C28.3581 63.3706 25.6886 63.3701 24.048 65.0109C22.4135 66.6454 22.4075 69.3014 24.0298 70.9435L33.7415 80.6551L28.9769 85.4198L19.2834 75.7263L19.254 75.6969L8.41589 64.8588V42.5985C8.41589 40.2782 6.52827 38.3906 4.20806 38.3906C1.88784 38.3906 0 40.2782 0 42.5985V66.7541L23.093 98.3065V111.212H54.1309V97.1628C54.1309 91.9912 52.1168 87.1291 48.4599 83.4718L29.9991 65.0109Z" fill="#0274B3"/>
<path d="M42.344 3.78906H15.1523V62.0682L16.9007 63.8168C17.4496 62.4806 18.2589 61.267 19.2816 60.2467C22.3558 57.1726 26.8181 56.3135 30.6688 57.6675H46.1518V64.4057H38.9207L53.2225 78.7075C53.5324 79.0174 53.8345 79.3349 54.1288 79.6596V15.5741C54.129 9.07592 48.8424 3.78906 42.344 3.78906ZM46.1518 49.2516H23.7468V42.5133H46.1518V49.2516ZM46.1518 34.0974H23.7468V27.3591H46.1518V34.0974ZM46.1518 18.9432H23.7468V12.205H46.1518V18.9432ZM110.79 38.391C108.47 38.391 106.583 40.2787 106.583 42.5989V64.8595L95.7444 75.6973L95.715 75.7267L86.0215 85.4202L81.2569 80.6556L90.9686 70.9439C92.5909 69.3016 92.5849 66.6458 90.9504 65.0111C89.3098 63.371 86.6403 63.3705 84.9993 65.0111L66.5385 83.4719C62.8814 87.1295 60.8673 91.9916 60.8673 97.1632V111.212H91.9052V98.3069L114.998 66.7547V42.5989C114.998 40.2787 113.111 38.391 110.79 38.391Z" fill="#0274B3"/>
<path d="M76.0753 64.4057H68.8249V57.6675H84.3274C88.1781 56.3133 92.6407 57.1726 95.7147 60.2464C96.7373 61.2668 97.5466 62.4805 98.0955 63.8168L99.8439 62.0682V3.78906H72.6522C66.1538 3.78906 60.8672 9.07592 60.8672 15.5741V79.6596C61.1614 79.3349 61.4636 79.0174 61.7735 78.7075L76.0753 64.4057ZM68.8251 12.205H91.2301V18.9432H68.8251V12.205ZM68.8251 27.3591H91.2301V34.0974H68.8251V27.3591ZM68.8251 42.5133H91.2301V49.2516H68.8251V42.5133Z" fill="#0274B3"/>
</svg>
