<svg width="22" height="20" viewBox="0 0 22 20" fill="none" xmlns="http://www.w3.org/2000/svg">
<path d="M10.9216 13.8889C10.0184 13.8889 9.28339 13.1411 9.28339 12.2222C9.28339 11.3033 10.0184 10.5556 10.9216 10.5556C11.8249 10.5556 12.5599 11.3033 12.5599 12.2222C12.5599 13.1411 11.8249 13.8889 10.9216 13.8889ZM10.9216 8.33333C8.81376 8.33333 7.09907 10.0778 7.09907 12.2222C7.09907 14.3667 8.81376 16.1111 10.9216 16.1111C13.0295 16.1111 14.7442 14.3667 14.7442 12.2222C14.7442 10.0778 13.0295 8.33333 10.9216 8.33333ZM19.659 16.6667C19.659 17.2789 19.1697 17.7778 18.5668 17.7778H3.27649C2.67362 17.7778 2.18433 17.2789 2.18433 16.6667V7.77778C2.18433 7.16556 2.67362 6.66667 3.27649 6.66667H18.5668C19.1697 6.66667 19.659 7.16556 19.659 7.77778V16.6667ZM8.73731 2.77778C8.73731 2.47111 8.98305 2.22222 9.28339 2.22222H12.5599C12.8602 2.22222 13.106 2.47111 13.106 2.77778V4.44444H8.73731V2.77778ZM18.5668 4.44444H15.2903V2.77778C15.2903 1.24667 14.066 0 12.5599 0H9.28339C7.7773 0 6.55298 1.24667 6.55298 2.77778V4.44444H3.27649C1.47005 4.44444 0 5.94 0 7.77778V16.6667C0 18.5044 1.47005 20 3.27649 20H18.5668C20.3732 20 21.8433 18.5044 21.8433 16.6667V7.77778C21.8433 5.94 20.3732 4.44444 18.5668 4.44444Z" fill="white"/>
</svg>
