<svg width="20" height="20" viewBox="0 0 20 20" fill="none" xmlns="http://www.w3.org/2000/svg">
<g opacity="0.7">
<path d="M11.6562 7.36224C12.9917 7.36224 14.0781 6.27583 14.0781 4.9404C14.0781 3.60496 12.9917 2.51855 11.6562 2.51855C10.3208 2.51855 9.23438 3.60496 9.23438 4.9404C9.23438 6.27583 10.3208 7.36224 11.6562 7.36224ZM11.6562 3.76852C12.3024 3.76852 12.8281 4.29418 12.8281 4.94036C12.8281 5.58657 12.3024 6.11219 11.6562 6.11219C11.01 6.11219 10.4844 5.58653 10.4844 4.94036C10.4844 4.29418 11.01 3.76852 11.6562 3.76852ZM11.6562 7.38981C9.33004 7.39013 7.4375 9.28247 7.4375 11.6087C7.43754 11.9538 7.71738 12.2337 8.0625 12.2337H15.2499C15.595 12.2337 15.8749 11.9538 15.8749 11.6087C15.8749 10.4819 15.436 9.42228 14.6392 8.62548C13.8424 7.82868 12.7831 7.38981 11.6562 7.38981ZM8.75375 10.9837C9.04153 9.6458 10.2337 8.63993 11.6562 8.63982C12.4492 8.63982 13.1946 8.94865 13.7553 9.50943C14.1658 9.91974 14.4412 10.4292 14.5595 10.9837H8.75375V10.9837Z" fill="#808080"/>
<path d="M18.7804 0H4.54478C4.19966 0 3.91981 0.279844 3.91981 0.624962V14.2709H0.624962C0.279844 14.2709 0 14.5507 0 14.8959V16.3454C0 18.3606 1.63938 20 3.65458 20H15.7509C17.7661 20 19.4054 18.3606 19.4054 16.3454V0.624962C19.4054 0.279844 19.1255 0 18.7804 0ZM3.65458 18.75C2.3286 18.75 1.24996 17.6714 1.24996 16.3454V15.5209H12.0962V16.3454C12.0962 17.2653 12.4379 18.1069 13.0009 18.75H3.65458ZM15.7508 18.75C14.4248 18.75 13.3462 17.6714 13.3462 16.3454V14.8959C13.3462 14.5507 13.0664 14.2708 12.7212 14.2708H5.16974V1.25H18.1554V16.3455C18.1554 17.6714 17.0768 18.75 15.7508 18.75Z" fill="#808080"/>
</g>
</svg>
