<svg xmlns="http://www.w3.org/2000/svg" width="20" height="20" viewBox="0 0 20 20" fill="none">
<path d="M6.67959 20C4.92079 20 3.24907 19.2989 1.97245 18.0263C-0.563808 15.4968 -0.667892 11.4863 1.73985 9.08526L9.58439 1.26421C10.4011 0.449474 11.5036 0 12.6878 0C13.9549 0 15.1593 0.50421 16.078 1.42C17.9058 3.24211 17.9759 6.13789 16.233 7.87474L8.37893 15.6947C7.87019 16.2032 7.18515 16.4821 6.45019 16.4821C5.6738 16.4821 4.93778 16.1747 4.37912 15.6179C3.26075 14.5011 3.2257 12.7211 4.30159 11.6474L11.5503 4.43158C11.9645 4.01895 12.6358 4.01684 13.0521 4.42737C13.4674 4.83789 13.4695 5.50421 13.0553 5.91579L5.80763 13.1326C5.55273 13.3874 5.58777 13.8368 5.88622 14.1337C6.04128 14.2884 6.24733 14.3768 6.45019 14.3768C6.56701 14.3768 6.73482 14.3484 6.87289 14.2105L14.727 6.39053C15.6478 5.47158 15.5788 3.90842 14.5719 2.90421C13.6086 1.94421 11.9741 1.86842 11.0904 2.74842L3.24588 10.5695C1.65913 12.1516 1.76321 14.8316 3.47954 16.5421C4.35363 17.4147 5.49006 17.8947 6.67959 17.8947C7.74274 17.8947 8.72835 17.4968 9.45269 16.7747L17.2983 8.95368C17.7114 8.54211 18.3837 8.53895 18.8001 8.94947C19.2154 9.36 19.2175 10.0253 18.8043 10.4379L10.9587 18.2589C9.83292 19.3811 8.31308 20 6.67959 20Z" fill="#ffffff"/>
</svg>