<svg xmlns="http://www.w3.org/2000/svg" width="21" height="22" viewBox="0 0 21 22" fill="none">
<path d="M10.431 10.9726C11.2761 10.9726 12.0465 10.7443 12.7423 10.2877C13.438 9.83105 13.9917 9.22283 14.4034 8.46301C14.815 7.7032 15.0208 6.85571 15.0208 5.92055C15.0208 5.00731 14.815 4.17991 14.4034 3.43836C13.9917 2.6968 13.438 2.10502 12.7423 1.66301C12.0465 1.221 11.2761 1 10.431 1C9.58588 1 8.81544 1.22466 8.11969 1.67397C7.42393 2.12329 6.86841 2.72055 6.45314 3.46575C6.03787 4.21096 5.83388 5.03288 5.84117 5.93151C5.84117 6.85936 6.04698 7.70502 6.45861 8.46849C6.87023 9.23196 7.42211 9.84018 8.11422 10.2931C8.80634 10.7461 9.57859 10.9726 10.431 10.9726ZM10.431 9.69041C9.83358 9.69041 9.289 9.5242 8.79723 9.19178C8.30546 8.85936 7.91387 8.41004 7.62246 7.84383C7.33104 7.27763 7.18533 6.64018 7.18533 5.93151C7.18533 5.25936 7.33104 4.64749 7.62246 4.09589C7.91387 3.54429 8.30546 3.10411 8.79723 2.77534C9.289 2.44658 9.83358 2.28219 10.431 2.28219C11.0284 2.28219 11.5712 2.44292 12.0593 2.76438C12.5474 3.08584 12.9372 3.52237 13.2286 4.07397C13.52 4.62557 13.6657 5.2411 13.6657 5.92055C13.6657 6.62192 13.5218 7.25753 13.2341 7.8274C12.9463 8.39726 12.5565 8.85023 12.0647 9.1863C11.573 9.52237 11.0284 9.69041 10.431 9.69041ZM17.4687 21C19.0424 21 19.8292 20.463 19.8292 19.389C19.8292 18.6731 19.6125 17.9151 19.179 17.1151C18.7455 16.3151 18.1208 15.5607 17.3048 14.8521C16.4888 14.1434 15.5016 13.568 14.3433 13.126C13.1849 12.684 11.8771 12.463 10.4201 12.463C8.95569 12.463 7.64431 12.684 6.48593 13.126C5.32755 13.568 4.34037 14.1434 3.5244 14.8521C2.70843 15.5607 2.08371 16.3151 1.65022 17.1151C1.21674 17.9151 1 18.6731 1 19.389C1 20.463 1.78318 21 3.34955 21H17.4687ZM17.8184 19.7288H3.02171C2.76672 19.7288 2.59005 19.6941 2.49169 19.6247C2.39334 19.5553 2.34416 19.4292 2.34416 19.2466C2.34416 18.7352 2.52266 18.1616 2.87964 17.526C3.23663 16.8904 3.75936 16.2858 4.44783 15.7123C5.1363 15.1388 5.98141 14.6658 6.98316 14.2931C7.98491 13.9205 9.13054 13.7342 10.4201 13.7342C11.7023 13.7342 12.8443 13.9205 13.846 14.2931C14.8478 14.6658 15.6929 15.1388 16.3814 15.7123C17.0698 16.2858 17.5926 16.8904 17.9496 17.526C18.3065 18.1616 18.485 18.7352 18.485 19.2466C18.485 19.4292 18.4359 19.5553 18.3375 19.6247C18.2391 19.6941 18.0661 19.7288 17.8184 19.7288Z" fill="#808080" stroke="#808080"/>
</svg>