<svg width="21" height="21" viewBox="0 0 21 21" fill="none" xmlns="http://www.w3.org/2000/svg">
<path d="M18.611 17.051H16.048C15.907 16.5685 15.6134 16.1446 15.2111 15.8431C14.8089 15.5416 14.3197 15.3786 13.817 15.3786C13.3143 15.3786 12.8251 15.5416 12.4229 15.8431C12.0206 16.1446 11.727 16.5685 11.586 17.051H0.668667C0.491325 17.051 0.321247 17.1214 0.195848 17.2468C0.0704486 17.3722 0 17.5423 0 17.7197C0 17.897 0.0704486 18.0671 0.195848 18.1925C0.321247 18.3179 0.491325 18.3883 0.668667 18.3883H11.588C11.7296 18.8701 12.0233 19.293 12.4253 19.5939C12.8273 19.8947 13.3159 20.0573 13.818 20.0573C14.3201 20.0573 14.8087 19.8947 15.2107 19.5939C15.6127 19.293 15.9064 18.8701 16.048 18.3883H18.609C18.7863 18.3883 18.9564 18.3179 19.0818 18.1925C19.2072 18.0671 19.2777 17.897 19.2777 17.7197C19.2777 17.5423 19.2072 17.3722 19.0818 17.2468C18.9564 17.1214 18.7863 17.051 18.609 17.051H18.611ZM13.8193 18.7227C13.621 18.7227 13.427 18.6638 13.2621 18.5536C13.0972 18.4434 12.9686 18.2868 12.8927 18.1035C12.8168 17.9202 12.7969 17.7186 12.8356 17.524C12.8743 17.3294 12.9698 17.1507 13.1101 17.0104C13.2504 16.8702 13.4291 16.7746 13.6237 16.7359C13.8182 16.6972 14.0199 16.7171 14.2032 16.793C14.3864 16.8689 14.5431 16.9975 14.6533 17.1624C14.7635 17.3274 14.8223 17.5213 14.8223 17.7197C14.8223 17.9857 14.7167 18.2408 14.5286 18.4289C14.3405 18.617 14.0853 18.7227 13.8193 18.7227ZM17.9604 0H2.09961C1.54292 0.000531108 1.00919 0.22191 0.615549 0.615549C0.22191 1.00919 0.000531108 1.54292 0 2.09961V12.6111C0.000531108 13.1677 0.22191 13.7015 0.615549 14.0951C1.00919 14.4888 1.54292 14.7101 2.09961 14.7107H17.9604C18.5171 14.7101 19.0508 14.4888 19.4445 14.0951C19.8381 13.7015 20.0595 13.1677 20.06 12.6111V2.09961C20.0595 1.54292 19.8381 1.00919 19.4445 0.615549C19.0508 0.22191 18.5171 0.000531108 17.9604 0ZM18.7227 12.6111C18.7225 12.8132 18.6421 13.007 18.4992 13.1499C18.3563 13.2928 18.1625 13.3732 17.9604 13.3733H2.09961C1.8975 13.3732 1.70371 13.2928 1.5608 13.1499C1.41788 13.007 1.33751 12.8132 1.33733 12.6111V2.09961C1.33751 1.8975 1.41788 1.70371 1.5608 1.5608C1.70371 1.41788 1.8975 1.33751 2.09961 1.33733H17.9604C18.1625 1.33751 18.3563 1.41788 18.4992 1.5608C18.6421 1.70371 18.7225 1.8975 18.7227 2.09961V12.6111Z" fill="#808080"/>
<path d="M13.7279 6.78946L8.37853 3.44612C8.27731 3.38286 8.16101 3.34785 8.04169 3.34471C7.92237 3.34158 7.80438 3.37044 7.69999 3.4283C7.59559 3.48617 7.50858 3.57092 7.448 3.67376C7.38742 3.77661 7.35547 3.89379 7.35547 4.01315V10.6998C7.35547 10.8192 7.38742 10.9364 7.448 11.0392C7.50858 11.142 7.59559 11.2268 7.69999 11.2847C7.80438 11.3425 7.92237 11.3714 8.04169 11.3683C8.16101 11.3651 8.27731 11.3301 8.37853 11.2668L13.7279 7.92351C13.8246 7.86355 13.9045 7.77987 13.9598 7.6804C14.0152 7.58094 14.0443 7.46899 14.0443 7.35515C14.0443 7.24131 14.0152 7.12935 13.9598 7.02989C13.9045 6.93043 13.8246 6.84675 13.7279 6.78678V6.78946ZM8.6928 9.49622V5.21675L12.1117 7.35648L8.6928 9.49622Z" fill="#808080"/>
</svg>
