<svg xmlns="http://www.w3.org/2000/svg" xmlns:xlink="http://www.w3.org/1999/xlink" width="340.803" height="253.55" viewBox="0 0 340.803 253.55">
  <defs>
    <clipPath id="clip-path">
      <rect id="Rectangle_2" data-name="Rectangle 2" width="340.803" height="253.55" fill="none"/>
    </clipPath>
  </defs>
  <g id="Group_3" data-name="Group 3" transform="translate(0 0.004)">
    <path id="Path_1" data-name="Path 1" d="M176.879,1047.067h4.569v14.181h1.858v-14.181h4.58v-1.681H176.879Z" transform="translate(-136.707 -807.968)" fill="#0274b3"/>
    <g id="Group_2" data-name="Group 2" transform="translate(0 -0.004)">
      <g id="Group_1" data-name="Group 1" clip-path="url(#clip-path)">
        <path id="Path_2" data-name="Path 2" d="M240.805,1046.568a4.12,4.12,0,0,0-3.717,2.146h-.044v-7.323H235.23v16.77h1.814v-6.416a3.811,3.811,0,0,1,.907-2.627,2.869,2.869,0,0,1,2.234-1.023q2.633,0,2.633,3.54v6.526h1.814v-6.98q0-4.613-3.828-4.613" transform="translate(-181.806 -804.876)" fill="#0274b3"/>
        <path id="Path_3" data-name="Path 3" d="M293.493,1064.186a4.806,4.806,0,0,0-3.722,1.665,6.194,6.194,0,0,0-1.5,4.309,6.316,6.316,0,0,0,1.372,4.342,4.788,4.788,0,0,0,3.772,1.543,6.574,6.574,0,0,0,3.949-1.084v-1.7a5.565,5.565,0,0,1-3.518,1.261,3.509,3.509,0,0,1-2.677-1.029,4.236,4.236,0,0,1-1.018-2.921h8v-.951a6,6,0,0,0-1.217-3.993,4.259,4.259,0,0,0-3.44-1.438m-3.319,4.845a4.166,4.166,0,0,1,1.106-2.4,2.93,2.93,0,0,1,2.179-.918,2.582,2.582,0,0,1,2.074.874,3.693,3.693,0,0,1,.758,2.445Z" transform="translate(-222.802 -822.494)" fill="#0274b3"/>
        <path id="Path_4" data-name="Path 4" d="M368.631,1041.354a3.816,3.816,0,0,0-1.029,2.815v1.836h-1.936v1.549H367.6v9.779h1.8v-9.779h2.655v-1.549h-2.655v-1.748q0-2.4,1.9-2.4a2.417,2.417,0,0,1,1.206.3v-1.637a3.554,3.554,0,0,0-1.316-.2,3.473,3.473,0,0,0-2.566,1.034" transform="translate(-282.619 -804.049)" fill="#0274b3"/>
        <path id="Path_5" data-name="Path 5" d="M408.909,1071.882a3.746,3.746,0,0,1-.857,2.561,2.775,2.775,0,0,1-2.185.979q-2.743,0-2.743-3.584v-6.482h-1.8v6.77q0,4.823,4.049,4.823a3.725,3.725,0,0,0,3.5-2.058h.044v1.792h1.814v-11.328h-1.814Z" transform="translate(-310.175 -823.398)" fill="#0274b3"/>
        <path id="Path_6" data-name="Path 6" d="M456.612,1050.6l-1.814.586v2.766h-1.947v1.549H454.8v6.7q0,3.318,2.976,3.318a3.5,3.5,0,0,0,1.692-.354v-1.548a1.907,1.907,0,0,1-1.184.376,1.545,1.545,0,0,1-1.283-.486,2.646,2.646,0,0,1-.387-1.626V1055.5h2.854v-1.549h-2.854Z" transform="translate(-350.003 -811.992)" fill="#0274b3"/>
        <path id="Path_7" data-name="Path 7" d="M499.163,1071.882a3.746,3.746,0,0,1-.857,2.561,2.775,2.775,0,0,1-2.185.979q-2.743,0-2.743-3.584v-6.482h-1.8v6.77q0,4.823,4.049,4.823a3.725,3.725,0,0,0,3.5-2.058h.044v1.792h1.814v-11.328h-1.814Z" transform="translate(-379.931 -823.398)" fill="#0274b3"/>
        <path id="Path_8" data-name="Path 8" d="M552.139,1065.147a3.955,3.955,0,0,0-1.183,1.864h-.044v-2.334H549.1V1076h1.814v-5.774a5.063,5.063,0,0,1,.78-2.987,2.316,2.316,0,0,1,1.941-1.095,2.216,2.216,0,0,1,1.372.365v-1.881a2.959,2.959,0,0,0-1.084-.155,2.7,2.7,0,0,0-1.781.669" transform="translate(-424.39 -822.72)" fill="#0274b3"/>
        <path id="Path_9" data-name="Path 9" d="M585.588,1064.186a4.806,4.806,0,0,0-3.722,1.665,6.193,6.193,0,0,0-1.5,4.309,6.316,6.316,0,0,0,1.372,4.342,4.787,4.787,0,0,0,3.772,1.543,6.573,6.573,0,0,0,3.949-1.084v-1.7a5.565,5.565,0,0,1-3.518,1.261,3.509,3.509,0,0,1-2.677-1.029,4.236,4.236,0,0,1-1.018-2.921h8v-.951a6,6,0,0,0-1.217-3.993,4.259,4.259,0,0,0-3.44-1.438m-3.319,4.845a4.166,4.166,0,0,1,1.106-2.4,2.929,2.929,0,0,1,2.179-.918,2.582,2.582,0,0,1,2.074.874,3.692,3.692,0,0,1,.758,2.445Z" transform="translate(-448.558 -822.494)" fill="#0274b3"/>
        <path id="Path_10" data-name="Path 10" d="M665.631,1064.186a5.608,5.608,0,0,0-4.215,1.6,6.126,6.126,0,0,0-1.56,4.458,5.879,5.879,0,0,0,1.5,4.209,5.253,5.253,0,0,0,4.01,1.587,5.368,5.368,0,0,0,4.11-1.631,6.085,6.085,0,0,0,1.532-4.342,6.184,6.184,0,0,0-1.422-4.325,5.079,5.079,0,0,0-3.954-1.56m2.572,9.193a3.316,3.316,0,0,1-2.7,1.14,3.5,3.5,0,0,1-2.754-1.162,4.617,4.617,0,0,1-1.029-3.174,4.883,4.883,0,0,1,1.018-3.28,3.451,3.451,0,0,1,2.765-1.189,3.3,3.3,0,0,1,2.7,1.151,5.029,5.029,0,0,1,.946,3.274,4.944,4.944,0,0,1-.946,3.241" transform="translate(-509.994 -822.494)" fill="#0274b3"/>
        <path id="Path_11" data-name="Path 11" d="M719.174,1041.354a3.816,3.816,0,0,0-1.029,2.815v1.836H716.21v1.549h1.936v9.779h1.8v-9.779H722.6v-1.549h-2.655v-1.748q0-2.4,1.9-2.4a2.419,2.419,0,0,1,1.206.3v-1.637a3.555,3.555,0,0,0-1.317-.2,3.473,3.473,0,0,0-2.566,1.034" transform="translate(-553.549 -804.049)" fill="#0274b3"/>
        <path id="Path_12" data-name="Path 12" d="M783.3,1065.147a3.955,3.955,0,0,0-1.183,1.864h-.044v-2.334h-1.814V1076h1.814v-5.774a5.064,5.064,0,0,1,.78-2.987,2.316,2.316,0,0,1,1.941-1.095,2.216,2.216,0,0,1,1.372.365v-1.881a2.958,2.958,0,0,0-1.084-.155,2.7,2.7,0,0,0-1.781.669" transform="translate(-603.051 -822.72)" fill="#0274b3"/>
        <path id="Path_13" data-name="Path 13" d="M816.75,1064.186a4.806,4.806,0,0,0-3.722,1.665,6.194,6.194,0,0,0-1.5,4.309,6.315,6.315,0,0,0,1.372,4.342,4.787,4.787,0,0,0,3.772,1.543,6.574,6.574,0,0,0,3.949-1.084v-1.7a5.565,5.565,0,0,1-3.518,1.261,3.508,3.508,0,0,1-2.677-1.029,4.236,4.236,0,0,1-1.018-2.921h8v-.951a6,6,0,0,0-1.217-3.993,4.259,4.259,0,0,0-3.44-1.438m-3.318,4.845a4.165,4.165,0,0,1,1.106-2.4,2.93,2.93,0,0,1,2.179-.918,2.583,2.583,0,0,1,2.074.874,3.694,3.694,0,0,1,.758,2.445Z" transform="translate(-627.22 -822.494)" fill="#0274b3"/>
        <path id="Path_14" data-name="Path 14" d="M865.3,1065.884a6.28,6.28,0,0,0-1.6,4.5,5.713,5.713,0,0,0,1.488,4.087,5.129,5.129,0,0,0,3.91,1.576,5.9,5.9,0,0,0,3.1-.785v-1.726a4.547,4.547,0,0,1-2.788.985,3.6,3.6,0,0,1-2.8-1.151,4.5,4.5,0,0,1-1.045-3.142,4.722,4.722,0,0,1,1.112-3.269,3.646,3.646,0,0,1,2.849-1.245,4.612,4.612,0,0,1,2.7.885v-1.859a5.959,5.959,0,0,0-2.633-.553,5.611,5.611,0,0,0-4.281,1.7" transform="translate(-667.538 -822.494)" fill="#0274b3"/>
        <path id="Path_15" data-name="Path 15" d="M916.221,1065.147a3.955,3.955,0,0,0-1.184,1.864h-.044v-2.334h-1.814V1076h1.814v-5.774a5.065,5.065,0,0,1,.78-2.987,2.316,2.316,0,0,1,1.941-1.095,2.217,2.217,0,0,1,1.372.365v-1.881a2.959,2.959,0,0,0-1.084-.155,2.7,2.7,0,0,0-1.781.669" transform="translate(-705.784 -822.72)" fill="#0274b3"/>
        <path id="Path_16" data-name="Path 16" d="M954.376,1071.882a3.747,3.747,0,0,1-.857,2.561,2.776,2.776,0,0,1-2.185.979q-2.743,0-2.743-3.584v-6.482h-1.8v6.77q0,4.823,4.049,4.823a3.725,3.725,0,0,0,3.5-2.058h.044v1.792h1.814v-11.328h-1.814Z" transform="translate(-731.76 -823.398)" fill="#0274b3"/>
        <path id="Path_17" data-name="Path 17" d="M1004.412,1042.317a1.162,1.162,0,0,0-1.173,1.184,1.12,1.12,0,0,0,.343.841,1.148,1.148,0,0,0,.83.332,1.161,1.161,0,0,0,.846-.343,1.181,1.181,0,0,0,0-1.676,1.172,1.172,0,0,0-.846-.337" transform="translate(-775.39 -805.592)" fill="#0274b3"/>
        <rect id="Rectangle_1" data-name="Rectangle 1" width="1.814" height="11.328" transform="translate(228.092 241.957)" fill="#0274b3"/>
        <path id="Path_18" data-name="Path 18" d="M1026.239,1050.6l-1.814.586v2.766h-1.947v1.549h1.947v6.7q0,3.318,2.975,3.318a3.494,3.494,0,0,0,1.692-.354v-1.548a1.907,1.907,0,0,1-1.183.376,1.545,1.545,0,0,1-1.283-.486,2.646,2.646,0,0,1-.387-1.626V1055.5h2.854v-1.549h-2.854Z" transform="translate(-790.26 -811.992)" fill="#0274b3"/>
        <path id="Path_19" data-name="Path 19" d="M1074.617,1064.186a4.043,4.043,0,0,0-3.761,2.345,3.272,3.272,0,0,0-3.208-2.345,3.848,3.848,0,0,0-3.517,2.057h-.044v-1.792h-1.814v11.328h1.814v-6.46a4.14,4.14,0,0,1,.774-2.605,2.387,2.387,0,0,1,1.969-1q2.577,0,2.578,3.341v6.726h1.814v-6.46a4.063,4.063,0,0,1,.813-2.545,2.417,2.417,0,0,1,1.975-1.062,2.2,2.2,0,0,1,1.952.841,4.909,4.909,0,0,1,.581,2.721v6.5h1.814v-6.98q0-4.613-3.739-4.613" transform="translate(-821.016 -822.494)" fill="#0274b3"/>
        <path id="Path_20" data-name="Path 20" d="M1150,1064.186a4.806,4.806,0,0,0-3.722,1.665,6.194,6.194,0,0,0-1.5,4.309,6.314,6.314,0,0,0,1.372,4.342,4.787,4.787,0,0,0,3.772,1.543,6.574,6.574,0,0,0,3.949-1.084v-1.7a5.565,5.565,0,0,1-3.518,1.261,3.508,3.508,0,0,1-2.677-1.029,4.235,4.235,0,0,1-1.018-2.921h8v-.951a6,6,0,0,0-1.217-3.993,4.259,4.259,0,0,0-3.441-1.438m-3.318,4.845a4.165,4.165,0,0,1,1.106-2.4,2.93,2.93,0,0,1,2.179-.918,2.583,2.583,0,0,1,2.074.874,3.694,3.694,0,0,1,.758,2.445Z" transform="translate(-884.786 -822.494)" fill="#0274b3"/>
        <path id="Path_21" data-name="Path 21" d="M1205.93,1064.186a4.088,4.088,0,0,0-3.717,2.146h-.044v-1.881h-1.814v11.328h1.814v-6.46a3.792,3.792,0,0,1,.89-2.583,2.856,2.856,0,0,1,2.251-1.023q2.633,0,2.633,3.606v6.46h1.814v-6.925a5.348,5.348,0,0,0-.984-3.468,3.466,3.466,0,0,0-2.843-1.2" transform="translate(-927.738 -822.494)" fill="#0274b3"/>
        <path id="Path_22" data-name="Path 22" d="M1257.431,1055.5v-1.549h-2.854V1050.6l-1.814.586v2.766h-1.947v1.549h1.947v6.7q0,3.318,2.976,3.318a3.5,3.5,0,0,0,1.692-.354v-1.548a1.908,1.908,0,0,1-1.184.376,1.545,1.545,0,0,1-1.283-.486,2.646,2.646,0,0,1-.387-1.626V1055.5Z" transform="translate(-966.739 -811.992)" fill="#0274b3"/>
        <path id="Path_23" data-name="Path 23" d="M732.988,0c-.515,18.851-7,36.221-16.759,55,.238,8.762.178,17.048,2.258,27.6,5.483-8.328,19.767-25.46,27.989-56.223C744.851,16.86,740.452,5.65,732.988,0" transform="translate(-553.564 0.004)" fill="#0274b3"/>
        <path id="Path_24" data-name="Path 24" d="M565.632,92.856l5.847,5.769c-11.384,26.451-52.98,92.7-64.006,25.845-2.255-13.694-1.9-31.051-2.67-46.563-.539-7.539-1.355-19.33-13.435-19.691-15.961-.482-25.752,17.617-34.005,34.213-27.264,66.872,19.393,97.264,44.067,51.619l-2.772-17.469c-.936,2.423-11.194,28.37-22.347,27.834a8.981,8.981,0,0,1-3.672-1.046c-5.068-2.943-5.572-11.362-5-22.23.75-14.247,9.1-45.868,18.565-56.752,4.385-5.045,6.85-5.344,8.325-4.922,5.325,1.523,5.792,16.822,6.271,32.494.273,8.924-.156,13.005.8,22.348,1.335,13.006,4.512,30.925,17.227,38.083,8.4,4.726,17.9.683,25.077-4.411,9.553-6.782,17.324-16.083,24.166-25.5q4.828-6.644,9.072-13.691c.572-.95,6.9-10.988,6.3-11.537l5.823,5.384,1.322-27.517Z" transform="translate(-347.085 -44.986)" fill="#0274b3"/>
        <path id="Path_25" data-name="Path 25" d="M10.293,670.861Q0,681.228,0,697.89q0,15.646,9.154,25.042t25.139,9.4q12.254,0,19.859-3.681V714.358a32.541,32.541,0,0,1-16.759,4.456q-9.591,0-15.258-5.982t-5.667-16.057q0-10.51,6.006-16.663t15.791-6.151a30.388,30.388,0,0,1,15.887,4.166V663.063A49.967,49.967,0,0,0,37.006,660.5q-16.42,0-26.713,10.365" transform="translate(0 -510.488)" fill="#0274b3"/>
        <path id="Path_26" data-name="Path 26" d="M293.45,713.761a39.111,39.111,0,0,0-1.5,7.12h-.29a34.667,34.667,0,0,0-1.4-6.927l-14.483-48.34H258.914l23.637,69.459h17.728l23.928-69.459H307.835Z" transform="translate(-200.111 -514.444)" fill="#0274b3"/>
        <path id="Path_27" data-name="Path 27" d="M598.733,706.5H621.45v-12.69H598.733V678.354h24.412V665.615H583.088v69.459h41.656v-12.69H598.733Z" transform="translate(-450.661 -514.444)" fill="#0274b3"/>
        <path id="Path_28" data-name="Path 28" d="M831.2,706.5h22.717v-12.69H831.2V678.354h24.412V665.615H815.554v69.459H857.21v-12.69H831.2Z" transform="translate(-630.331 -514.444)" fill="#0274b3"/>
        <path id="Path_29" data-name="Path 29" d="M1063.667,706.5h22.717v-12.69h-22.717V678.354h24.412V665.615h-40.057v69.459h41.656v-12.69h-26.011Z" transform="translate(-810.002 -514.444)" fill="#0274b3"/>
        <path id="Path_30" data-name="Path 30" d="M1275.277,722.383l34.826-48v-8.767h-53.281v12.739h33.034l-35.6,47.71v9.009H1310.2v-12.69Z" transform="translate(-969.397 -514.444)" fill="#0274b3"/>
      </g>
    </g>
  </g>
</svg>
