<svg width="303" height="226" viewBox="0 0 303 226" fill="none" xmlns="http://www.w3.org/2000/svg">
<path d="M41.0781 212.229H45.132V224.816H46.783V212.229H50.847V210.737H41.0781V212.229Z" fill="#0274B3"/>
<path d="M57.7888 214.527C56.3616 214.527 55.2629 215.162 54.4888 216.432H54.4505V209.933H52.8398V224.818H54.4505V219.123C54.4505 218.174 54.7186 217.398 55.2549 216.791C55.7911 216.186 56.4523 215.882 57.2385 215.882C58.7968 215.882 59.5749 216.93 59.5749 219.024V224.818H61.1856V218.623C61.1856 215.894 60.0526 214.529 57.7888 214.529V214.527Z" fill="#0274B3"/>
<path d="M68.1657 214.527C66.8494 214.527 65.7487 215.019 64.8617 216.004C63.9747 216.99 63.5312 218.264 63.5312 219.828C63.5312 221.486 63.9364 222.77 64.7488 223.683C65.5612 224.596 66.676 225.052 68.0972 225.052C69.5184 225.052 70.7178 224.731 71.6028 224.09V222.578C70.6533 223.324 69.6131 223.697 68.4802 223.697C67.4723 223.697 66.68 223.393 66.1035 222.784C65.527 222.175 65.2266 221.31 65.2004 220.191H72.2983V219.347C72.2983 217.835 71.9374 216.653 71.2178 215.803C70.4981 214.952 69.4801 214.527 68.1637 214.527H68.1657ZM65.2206 218.827C65.3455 217.95 65.6721 217.24 66.2023 216.696C66.7325 216.152 67.3775 215.881 68.1375 215.881C68.8975 215.881 69.5365 216.139 69.978 216.658C70.4195 217.176 70.6432 217.897 70.6513 218.827H65.2206Z" fill="#0274B3"/>
<path d="M81.7674 210.632C81.1586 211.245 80.8542 212.078 80.8542 213.132V214.761H79.1367V216.136H80.8542V224.816H82.4548V216.136H84.8114V214.761H82.4548V213.209C82.4548 211.787 83.0173 211.078 84.1441 211.078C84.5433 211.078 84.9001 211.167 85.2145 211.342V209.888C84.9263 209.772 84.5372 209.711 84.0454 209.711C83.1362 209.711 82.3762 210.017 81.7674 210.628V210.632Z" fill="#0274B3"/>
<path d="M93.0553 220.554C93.0553 221.49 92.8013 222.248 92.2954 222.828C91.7874 223.407 91.1423 223.697 90.3561 223.697C88.7333 223.697 87.9209 222.637 87.9209 220.516V214.763H86.3203V220.772C86.3203 223.626 87.5178 225.054 89.9146 225.054C91.3157 225.054 92.3498 224.445 93.0171 223.227H93.0553V224.818H94.666V214.763H93.0553V220.556V220.554Z" fill="#0274B3"/>
<path d="M100.049 211.787L98.4386 212.307V214.763H96.7109V216.138H98.4386V222.088C98.4386 224.052 99.3195 225.034 101.079 225.034C101.7 225.034 102.202 224.929 102.581 224.719V223.344C102.287 223.566 101.936 223.679 101.531 223.679C101.001 223.679 100.622 223.536 100.392 223.248C100.162 222.959 100.049 222.478 100.049 221.804V216.14H102.583V214.765H100.049V211.789V211.787Z" fill="#0274B3"/>
<path d="M111.251 220.554C111.251 221.49 110.997 222.248 110.491 222.828C109.983 223.407 109.338 223.697 108.551 223.697C106.929 223.697 106.116 222.637 106.116 220.516V214.763H104.516V220.772C104.516 223.626 105.713 225.054 108.11 225.054C109.511 225.054 110.545 224.445 111.212 223.227H111.251V224.818H112.861V214.763H111.251V220.556V220.554Z" fill="#0274B3"/>
<path d="M118.813 215.18C118.341 215.575 117.99 216.127 117.762 216.835H117.724V214.763H116.113V224.818H117.724V219.693C117.724 218.575 117.954 217.69 118.415 217.043C118.877 216.395 119.452 216.071 120.139 216.071C120.669 216.071 121.074 216.18 121.357 216.395V214.726C121.135 214.634 120.812 214.589 120.395 214.589C119.812 214.589 119.286 214.787 118.815 215.184L118.813 215.18Z" fill="#0274B3"/>
<path d="M127.049 214.527C125.732 214.527 124.632 215.019 123.745 216.004C122.858 216.99 122.414 218.264 122.414 219.828C122.414 221.486 122.819 222.77 123.632 223.683C124.444 224.596 125.559 225.052 126.98 225.052C128.401 225.052 129.601 224.731 130.486 224.09V222.578C129.536 223.324 128.496 223.697 127.363 223.697C126.355 223.697 125.563 223.393 124.986 222.784C124.41 222.175 124.109 221.31 124.083 220.191H131.181V219.347C131.181 217.835 130.82 216.653 130.101 215.803C129.381 214.952 128.363 214.527 127.047 214.527H127.049ZM124.103 218.827C124.228 217.95 124.555 217.24 125.085 216.696C125.615 216.152 126.26 215.881 127.02 215.881C127.78 215.881 128.419 216.139 128.861 216.658C129.302 217.176 129.526 217.897 129.534 218.827H124.103Z" fill="#0274B3"/>
<path d="M143.564 214.527C141.994 214.527 140.746 215 139.822 215.95C138.899 216.899 138.438 218.218 138.438 219.907C138.438 221.459 138.881 222.703 139.768 223.643C140.655 224.582 141.84 225.052 143.328 225.052C144.816 225.052 146.07 224.57 146.975 223.604C147.882 222.639 148.335 221.354 148.335 219.75C148.335 218.145 147.914 216.833 147.074 215.912C146.233 214.988 145.062 214.527 143.564 214.527ZM145.846 222.687C145.285 223.36 144.485 223.699 143.445 223.699C142.405 223.699 141.608 223.356 141 222.669C140.391 221.981 140.086 221.042 140.086 219.851C140.086 218.659 140.387 217.643 140.99 216.94C141.592 216.236 142.411 215.883 143.445 215.883C144.479 215.883 145.285 216.224 145.846 216.905C146.406 217.587 146.684 218.554 146.684 219.812C146.684 221.07 146.404 222.016 145.846 222.689V222.687Z" fill="#0274B3"/>
<path d="M152.432 210.632C151.823 211.245 151.518 212.078 151.518 213.132V214.761H149.801V216.136H151.518V224.816H153.119V216.136H155.475V214.761H153.119V213.209C153.119 211.787 153.681 211.078 154.808 211.078C155.207 211.078 155.564 211.167 155.879 211.342V209.888C155.59 209.772 155.201 209.711 154.709 209.711C153.8 209.711 153.04 210.017 152.432 210.628V210.632Z" fill="#0274B3"/>
<path d="M165.412 215.18C164.94 215.575 164.59 216.127 164.362 216.835H164.322V214.763H162.711V224.818H164.322V219.693C164.322 218.575 164.551 217.69 165.013 217.043C165.475 216.395 166.049 216.071 166.737 216.071C167.267 216.071 167.672 216.18 167.954 216.395V214.726C167.732 214.634 167.41 214.589 166.993 214.589C166.41 214.589 165.884 214.787 165.412 215.184V215.18Z" fill="#0274B3"/>
<path d="M173.646 214.527C172.33 214.527 171.229 215.019 170.342 216.004C169.455 216.99 169.012 218.264 169.012 219.828C169.012 221.486 169.417 222.77 170.229 223.683C171.042 224.596 172.157 225.052 173.578 225.052C174.999 225.052 176.198 224.731 177.083 224.09V222.578C176.134 223.324 175.094 223.697 173.961 223.697C172.953 223.697 172.161 223.393 171.584 222.784C171.007 222.175 170.707 221.31 170.681 220.191H177.779V219.347C177.779 217.835 177.418 216.653 176.698 215.803C175.979 214.952 174.961 214.527 173.644 214.527H173.646ZM170.701 218.827C170.826 217.95 171.153 217.24 171.683 216.696C172.213 216.152 172.858 215.881 173.618 215.881C174.378 215.881 175.017 216.139 175.458 216.658C175.9 217.176 176.124 217.897 176.132 218.827H170.703H170.701Z" fill="#0274B3"/>
<path d="M180.954 216.033C180.005 217.039 179.531 218.367 179.531 220.024C179.531 221.51 179.971 222.719 180.852 223.653C181.733 224.586 182.89 225.052 184.323 225.052C185.383 225.052 186.301 224.82 187.073 224.354V222.822C186.301 223.405 185.476 223.695 184.599 223.695C183.559 223.695 182.728 223.354 182.11 222.673C181.491 221.992 181.182 221.062 181.182 219.885C181.182 218.708 181.511 217.72 182.17 216.984C182.827 216.248 183.67 215.88 184.698 215.88C185.549 215.88 186.347 216.142 187.093 216.666V215.017C186.419 214.69 185.639 214.525 184.756 214.525C183.172 214.525 181.906 215.027 180.956 216.033H180.954Z" fill="#0274B3"/>
<path d="M192.205 215.18C191.733 215.575 191.383 216.127 191.155 216.835H191.115V214.763H189.504V224.818H191.115V219.693C191.115 218.575 191.344 217.69 191.806 217.043C192.268 216.395 192.842 216.071 193.53 216.071C194.06 216.071 194.465 216.18 194.747 216.395V214.726C194.525 214.634 194.203 214.589 193.786 214.589C193.203 214.589 192.677 214.787 192.205 215.184V215.18Z" fill="#0274B3"/>
<path d="M203.016 220.554C203.016 221.49 202.762 222.248 202.256 222.828C201.748 223.407 201.103 223.697 200.317 223.697C198.694 223.697 197.882 222.637 197.882 220.516V214.763H196.281V220.772C196.281 223.626 197.479 225.054 199.876 225.054C201.277 225.054 202.311 224.445 202.978 223.227H203.018V224.818H204.629V214.763H203.018V220.556L203.016 220.554Z" fill="#0274B3"/>
<path d="M209.49 214.763H207.879V224.818H209.49V214.763Z" fill="#0274B3"/>
<path d="M208.704 210.118C208.416 210.118 208.17 210.219 207.968 210.419C207.765 210.618 207.664 210.868 207.664 211.17C207.664 211.473 207.765 211.721 207.968 211.916C208.172 212.112 208.416 212.211 208.704 212.211C208.993 212.211 209.249 212.11 209.456 211.906C209.662 211.703 209.767 211.459 209.767 211.17C209.767 210.882 209.664 210.618 209.456 210.419C209.251 210.219 209.001 210.118 208.704 210.118Z" fill="#0274B3"/>
<path d="M214.881 211.787L213.271 212.307V214.763H211.543V216.138H213.271V222.088C213.271 224.052 214.151 225.034 215.911 225.034C216.532 225.034 217.034 224.929 217.413 224.719V223.344C217.119 223.566 216.768 223.679 216.363 223.679C215.833 223.679 215.454 223.536 215.224 223.248C214.994 222.959 214.879 222.478 214.879 221.804V216.14H217.413V214.765H214.879V211.789L214.881 211.787Z" fill="#0274B3"/>
<path d="M230.521 214.527C229.041 214.527 227.928 215.22 227.182 216.609C226.993 215.988 226.642 215.484 226.132 215.101C225.622 214.718 225.024 214.527 224.336 214.527C222.967 214.527 221.927 215.136 221.214 216.353H221.173V214.763H219.562V224.818H221.173V219.085C221.173 218.135 221.403 217.365 221.861 216.772C222.318 216.18 222.901 215.883 223.608 215.883C225.134 215.883 225.896 216.871 225.896 218.849V224.818H227.507V219.085C227.507 218.208 227.747 217.454 228.229 216.827C228.711 216.2 229.293 215.883 229.981 215.883C230.793 215.883 231.369 216.131 231.714 216.629C232.057 217.127 232.23 217.932 232.23 219.044V224.818H233.841V218.623C233.841 215.894 232.734 214.529 230.523 214.529L230.521 214.527Z" fill="#0274B3"/>
<path d="M240.826 214.527C239.51 214.527 238.409 215.019 237.522 216.004C236.635 216.99 236.191 218.264 236.191 219.828C236.191 221.486 236.597 222.77 237.409 223.683C238.221 224.596 239.336 225.052 240.757 225.052C242.179 225.052 243.378 224.731 244.263 224.09V222.578C243.313 223.324 242.273 223.697 241.14 223.697C240.132 223.697 239.34 223.393 238.764 222.784C238.187 222.175 237.887 221.31 237.861 220.191H244.958V219.347C244.958 217.835 244.598 216.653 243.878 215.803C243.158 214.952 242.14 214.527 240.824 214.527H240.826ZM237.881 218.827C238.006 217.95 238.332 217.24 238.862 216.696C239.393 216.152 240.038 215.881 240.798 215.881C241.558 215.881 242.197 216.139 242.638 216.658C243.08 217.176 243.303 217.897 243.311 218.827H237.883H237.881Z" fill="#0274B3"/>
<path d="M252.346 214.527C250.906 214.527 249.806 215.162 249.046 216.432H249.005V214.763H247.395V224.818H249.005V219.085C249.005 218.161 249.269 217.397 249.795 216.793C250.322 216.188 250.989 215.883 251.793 215.883C253.351 215.883 254.13 216.95 254.13 219.085V224.818H255.74V218.671C255.74 217.329 255.448 216.303 254.867 215.593C254.285 214.884 253.444 214.527 252.344 214.527H252.346Z" fill="#0274B3"/>
<path d="M263.439 216.138V214.763H260.905V211.787L259.294 212.307V214.763H257.566V216.138H259.294V222.088C259.294 224.052 260.175 225.034 261.935 225.034C262.556 225.034 263.058 224.929 263.437 224.719V223.344C263.142 223.566 262.792 223.679 262.386 223.679C261.856 223.679 261.477 223.536 261.247 223.248C261.018 222.959 260.903 222.478 260.903 221.804V216.14H263.437L263.439 216.138Z" fill="#0274B3"/>
<path d="M164.676 0C164.218 16.7317 158.463 32.1491 149.801 48.8203C150.012 56.5976 149.958 63.9515 151.805 73.3192C156.671 65.927 169.349 50.7213 176.648 23.4164C175.205 14.9678 171.3 5.01952 164.676 0Z" fill="#0274B3"/>
<path d="M199.403 42.4884L204.594 47.6087C194.489 71.0876 157.57 129.886 147.783 70.5493C145.781 58.3956 146.094 42.9883 145.412 29.2199C144.935 22.5272 144.209 12.0629 133.488 11.7424C119.321 11.315 110.63 27.3795 103.305 42.1094C79.1063 101.465 120.518 128.441 142.419 87.9261C141.598 82.7574 140.778 77.5887 139.959 72.42C139.129 74.571 130.023 97.6003 120.123 97.1265C118.313 97.0399 116.864 96.1992 116.864 96.1992C112.366 93.5867 111.919 86.1138 112.425 76.4679C113.09 63.8223 120.506 35.7554 128.902 26.0933C132.795 21.6161 134.982 21.35 136.29 21.7249C141.018 23.0776 141.431 36.6565 141.856 50.566C142.098 58.4863 141.717 62.1089 142.57 70.4022C143.755 81.947 146.575 97.8503 157.86 104.204C165.313 108.399 173.749 104.811 180.12 100.289C188.598 94.2701 195.497 86.0151 201.57 77.6573C204.427 73.7263 207.116 69.6684 209.622 65.5056C210.13 64.663 215.742 55.7528 215.216 55.265L220.385 60.0426L221.558 35.6183L199.403 42.4864V42.4884Z" fill="#0274B3"/>
<path d="M48.0664 189.843C43.567 192.022 37.6907 193.11 30.4396 193.11C20.9812 193.11 13.5426 190.33 8.12599 184.769C2.70934 179.209 0 171.799 0 162.542C0 152.682 3.04599 144.685 9.13594 138.551C15.2259 132.418 23.1301 129.35 32.8466 129.35C38.866 129.35 43.9379 130.11 48.0664 131.628V145C43.9399 142.534 39.2389 141.302 33.9654 141.302C28.1758 141.302 23.503 143.123 19.949 146.763C16.3951 150.404 14.6171 155.333 14.6171 161.554C14.6171 167.775 16.2943 172.266 19.6467 175.806C23.0011 179.346 27.5146 181.116 33.1893 181.116C38.864 181.116 43.565 179.797 48.0644 177.161V189.845L48.0664 189.843Z" fill="#0274B3"/>
<path d="M110.148 130.385L88.9085 192.036H73.1726L52.1914 130.385H67.1532L80.0084 173.292C80.6958 175.615 81.1111 177.665 81.2562 179.441H81.5142C81.7138 177.522 82.1593 175.415 82.8467 173.121L95.6153 130.387H110.148V130.385Z" fill="#0274B3"/>
<path d="M154.516 192.036H117.543V130.385H153.099V141.692H131.43V155.406H151.595V166.67H131.43V180.773H154.518V192.038L154.516 192.036Z" fill="#0274B3"/>
<path d="M201.377 192.036H164.402V130.385H199.958V141.692H178.29V155.406H198.452V166.67H178.29V180.773H201.377V192.038V192.036Z" fill="#0274B3"/>
<path d="M248.241 192.036H211.266V130.385H246.822V141.692H225.153V155.406H245.316V166.67H225.153V180.773H248.241V192.038V192.036Z" fill="#0274B3"/>
<path d="M302.501 192.036H252.844V184.039L284.445 141.692H255.124V130.385H302.416V138.166L271.505 180.771H302.503V192.036H302.501Z" fill="#0274B3"/>
</svg>
